G04 Layer_Color=2752767*
%FSLAX23Y23*%
%MOIN*%
G70*
G01*
G75*
%ADD41C,0.005*%
%ADD63C,0.007*%
D41*
X2559Y2571D02*
Y2611D01*
X2599D01*
Y2571D01*
X2559D01*
X2659D02*
Y2611D01*
X2699D01*
Y2571D01*
X2659D01*
X2759D02*
Y2611D01*
X2799D01*
Y2571D01*
X2759D01*
X2859D02*
Y2611D01*
X2899D01*
Y2571D01*
X2859D01*
Y2671D02*
Y2711D01*
X2899D01*
Y2671D01*
X2859D01*
X2759D02*
Y2711D01*
X2799D01*
Y2671D01*
X2759D01*
X2659D02*
Y2711D01*
X2699D01*
Y2671D01*
X2659D01*
X2559D02*
Y2711D01*
X2599D01*
Y2671D01*
X2559D01*
X2395Y2940D02*
Y2980D01*
X2435D01*
Y2940D01*
X2395D01*
X2295D02*
Y2980D01*
X2335D01*
Y2940D01*
X2295D01*
X1999Y371D02*
X1979Y411D01*
X2019D01*
X1999Y371D01*
Y450D02*
X1979Y490D01*
X2019D01*
X1999Y450D01*
Y410D02*
X1979Y450D01*
X2019D01*
X1999Y410D01*
Y332D02*
X1979Y372D01*
X2019D01*
X1999Y332D01*
X2038Y371D02*
X2018Y411D01*
X2058D01*
X2038Y371D01*
Y450D02*
X2018Y490D01*
X2058D01*
X2038Y450D01*
Y410D02*
X2018Y450D01*
X2058D01*
X2038Y410D01*
Y332D02*
X2018Y372D01*
X2058D01*
X2038Y332D01*
X1684Y2868D02*
X1664Y2908D01*
X1704D01*
X1684Y2868D01*
X1723D02*
X1703Y2908D01*
X1743D01*
X1723Y2868D01*
X1763D02*
X1743Y2908D01*
X1783D01*
X1763Y2868D01*
X1802D02*
X1782Y2908D01*
X1822D01*
X1802Y2868D01*
X1684Y2908D02*
X1664Y2948D01*
X1704D01*
X1684Y2908D01*
X1723D02*
X1703Y2948D01*
X1743D01*
X1723Y2908D01*
X1763D02*
X1743Y2948D01*
X1783D01*
X1763Y2908D01*
X1802D02*
X1782Y2948D01*
X1822D01*
X1802Y2908D01*
X1684Y2947D02*
X1664Y2987D01*
X1704D01*
X1684Y2947D01*
X1723D02*
X1703Y2987D01*
X1743D01*
X1723Y2947D01*
X1763D02*
X1743Y2987D01*
X1783D01*
X1763Y2947D01*
X1802D02*
X1782Y2987D01*
X1822D01*
X1802Y2947D01*
X1684Y2986D02*
X1664Y3026D01*
X1704D01*
X1684Y2986D01*
X1723D02*
X1703Y3026D01*
X1743D01*
X1723Y2986D01*
X1763D02*
X1743Y3026D01*
X1783D01*
X1763Y2986D01*
X1802D02*
X1782Y3026D01*
X1822D01*
X1802Y2986D01*
X1999Y2868D02*
X1979Y2908D01*
X2019D01*
X1999Y2868D01*
X2038D02*
X2018Y2908D01*
X2058D01*
X2038Y2868D01*
X2077D02*
X2057Y2908D01*
X2097D01*
X2077Y2868D01*
X2117D02*
X2097Y2908D01*
X2137D01*
X2117Y2868D01*
X1999Y2908D02*
X1979Y2948D01*
X2019D01*
X1999Y2908D01*
X2038D02*
X2018Y2948D01*
X2058D01*
X2038Y2908D01*
X2077D02*
X2057Y2948D01*
X2097D01*
X2077Y2908D01*
X2117D02*
X2097Y2948D01*
X2137D01*
X2117Y2908D01*
X1999Y2947D02*
X1979Y2987D01*
X2019D01*
X1999Y2947D01*
X2038D02*
X2018Y2987D01*
X2058D01*
X2038Y2947D01*
X2077D02*
X2057Y2987D01*
X2097D01*
X2077Y2947D01*
X2117D02*
X2097Y2987D01*
X2137D01*
X2117Y2947D01*
X1999Y2986D02*
X1979Y3026D01*
X2019D01*
X1999Y2986D01*
X2038D02*
X2018Y3026D01*
X2058D01*
X2038Y2986D01*
X2077D02*
X2057Y3026D01*
X2097D01*
X2077Y2986D01*
X2117D02*
X2097Y3026D01*
X2137D01*
X2117Y2986D01*
X1684Y332D02*
X1664Y372D01*
X1704D01*
X1684Y332D01*
X1723D02*
X1703Y372D01*
X1743D01*
X1723Y332D01*
X1763D02*
X1743Y372D01*
X1783D01*
X1763Y332D01*
X1802D02*
X1782Y372D01*
X1822D01*
X1802Y332D01*
X1684Y371D02*
X1664Y411D01*
X1704D01*
X1684Y371D01*
X1723D02*
X1703Y411D01*
X1743D01*
X1723Y371D01*
X1763D02*
X1743Y411D01*
X1783D01*
X1763Y371D01*
X1802D02*
X1782Y411D01*
X1822D01*
X1802Y371D01*
X1684Y410D02*
X1664Y450D01*
X1704D01*
X1684Y410D01*
X1723D02*
X1703Y450D01*
X1743D01*
X1723Y410D01*
X1763D02*
X1743Y450D01*
X1783D01*
X1763Y410D01*
X1802D02*
X1782Y450D01*
X1822D01*
X1802Y410D01*
X1684Y450D02*
X1664Y490D01*
X1704D01*
X1684Y450D01*
X1723D02*
X1703Y490D01*
X1743D01*
X1723Y450D01*
X1763D02*
X1743Y490D01*
X1783D01*
X1763Y450D01*
X1802D02*
X1782Y490D01*
X1822D01*
X1802Y450D01*
X2077Y332D02*
X2057Y372D01*
X2097D01*
X2077Y332D01*
X2117D02*
X2097Y372D01*
X2137D01*
X2117Y332D01*
X2077Y371D02*
X2057Y411D01*
X2097D01*
X2077Y371D01*
X2117D02*
X2097Y411D01*
X2137D01*
X2117Y371D01*
X2077Y410D02*
X2057Y450D01*
X2097D01*
X2077Y410D01*
X2117D02*
X2097Y450D01*
X2137D01*
X2117Y410D01*
X2077Y450D02*
X2057Y490D01*
X2097D01*
X2077Y450D01*
X2117D02*
X2097Y490D01*
X2137D01*
X2117Y450D01*
X3338Y332D02*
X3318Y372D01*
X3358D01*
X3338Y332D01*
X3377D02*
X3357Y372D01*
X3397D01*
X3377Y332D01*
X3416D02*
X3396Y372D01*
X3436D01*
X3416Y332D01*
X3456D02*
X3436Y372D01*
X3476D01*
X3456Y332D01*
X3338Y371D02*
X3318Y411D01*
X3358D01*
X3338Y371D01*
X3377D02*
X3357Y411D01*
X3397D01*
X3377Y371D01*
X3416D02*
X3396Y411D01*
X3436D01*
X3416Y371D01*
X3456D02*
X3436Y411D01*
X3476D01*
X3456Y371D01*
X3338Y410D02*
X3318Y450D01*
X3358D01*
X3338Y410D01*
X3377D02*
X3357Y450D01*
X3397D01*
X3377Y410D01*
X3416D02*
X3396Y450D01*
X3436D01*
X3416Y410D01*
X3456D02*
X3436Y450D01*
X3476D01*
X3456Y410D01*
X3338Y450D02*
X3318Y490D01*
X3358D01*
X3338Y450D01*
X3377D02*
X3357Y490D01*
X3397D01*
X3377Y450D01*
X3416D02*
X3396Y490D01*
X3436D01*
X3416Y450D01*
X3456D02*
X3436Y490D01*
X3476D01*
X3456Y450D01*
X3653Y332D02*
X3633Y372D01*
X3673D01*
X3653Y332D01*
X3692D02*
X3672Y372D01*
X3712D01*
X3692Y332D01*
X3731D02*
X3711Y372D01*
X3751D01*
X3731Y332D01*
X3771D02*
X3751Y372D01*
X3791D01*
X3771Y332D01*
X3653Y371D02*
X3633Y411D01*
X3673D01*
X3653Y371D01*
X3692D02*
X3672Y411D01*
X3712D01*
X3692Y371D01*
X3731D02*
X3711Y411D01*
X3751D01*
X3731Y371D01*
X3771D02*
X3751Y411D01*
X3791D01*
X3771Y371D01*
X3653Y410D02*
X3633Y450D01*
X3673D01*
X3653Y410D01*
X3692D02*
X3672Y450D01*
X3712D01*
X3692Y410D01*
X3731D02*
X3711Y450D01*
X3751D01*
X3731Y410D01*
X3771D02*
X3751Y450D01*
X3791D01*
X3771Y410D01*
X3653Y450D02*
X3633Y490D01*
X3673D01*
X3653Y450D01*
X3692D02*
X3672Y490D01*
X3712D01*
X3692Y450D01*
X3731D02*
X3711Y490D01*
X3751D01*
X3731Y450D01*
X3771D02*
X3751Y490D01*
X3791D01*
X3771Y450D01*
X3943Y1405D02*
X3923Y1445D01*
X3963D01*
X3943Y1405D01*
Y1365D02*
X3923Y1405D01*
X3963D01*
X3943Y1365D01*
Y1326D02*
X3923Y1366D01*
X3963D01*
X3943Y1326D01*
Y1287D02*
X3923Y1327D01*
X3963D01*
X3943Y1287D01*
X3983Y1405D02*
X3963Y1445D01*
X4003D01*
X3983Y1405D01*
Y1365D02*
X3963Y1405D01*
X4003D01*
X3983Y1365D01*
Y1326D02*
X3963Y1366D01*
X4003D01*
X3983Y1326D01*
Y1287D02*
X3963Y1327D01*
X4003D01*
X3983Y1287D01*
X4022Y1405D02*
X4002Y1445D01*
X4042D01*
X4022Y1405D01*
Y1365D02*
X4002Y1405D01*
X4042D01*
X4022Y1365D01*
Y1326D02*
X4002Y1366D01*
X4042D01*
X4022Y1326D01*
Y1287D02*
X4002Y1327D01*
X4042D01*
X4022Y1287D01*
X4061Y1405D02*
X4041Y1445D01*
X4081D01*
X4061Y1405D01*
Y1365D02*
X4041Y1405D01*
X4081D01*
X4061Y1365D01*
Y1326D02*
X4041Y1366D01*
X4081D01*
X4061Y1326D01*
Y1287D02*
X4041Y1327D01*
X4081D01*
X4061Y1287D01*
X3943Y1090D02*
X3923Y1130D01*
X3963D01*
X3943Y1090D01*
Y1051D02*
X3923Y1091D01*
X3963D01*
X3943Y1051D01*
Y1011D02*
X3923Y1051D01*
X3963D01*
X3943Y1011D01*
Y972D02*
X3923Y1012D01*
X3963D01*
X3943Y972D01*
X3983Y1090D02*
X3963Y1130D01*
X4003D01*
X3983Y1090D01*
Y1051D02*
X3963Y1091D01*
X4003D01*
X3983Y1051D01*
Y1011D02*
X3963Y1051D01*
X4003D01*
X3983Y1011D01*
Y972D02*
X3963Y1012D01*
X4003D01*
X3983Y972D01*
X4022Y1090D02*
X4002Y1130D01*
X4042D01*
X4022Y1090D01*
Y1051D02*
X4002Y1091D01*
X4042D01*
X4022Y1051D01*
Y1011D02*
X4002Y1051D01*
X4042D01*
X4022Y1011D01*
Y972D02*
X4002Y1012D01*
X4042D01*
X4022Y972D01*
X4061Y1090D02*
X4041Y1130D01*
X4081D01*
X4061Y1090D01*
Y1051D02*
X4041Y1091D01*
X4081D01*
X4061Y1051D01*
Y1011D02*
X4041Y1051D01*
X4081D01*
X4061Y1011D01*
Y972D02*
X4041Y1012D01*
X4081D01*
X4061Y972D01*
X4054Y1877D02*
X4034Y1917D01*
X4074D01*
X4054Y1877D01*
Y1916D02*
X4034Y1956D01*
X4074D01*
X4054Y1916D01*
Y1956D02*
X4034Y1996D01*
X4074D01*
X4054Y1956D01*
Y1995D02*
X4034Y2035D01*
X4074D01*
X4054Y1995D01*
X4014Y1877D02*
X3994Y1917D01*
X4034D01*
X4014Y1877D01*
Y1916D02*
X3994Y1956D01*
X4034D01*
X4014Y1916D01*
Y1956D02*
X3994Y1996D01*
X4034D01*
X4014Y1956D01*
Y1995D02*
X3994Y2035D01*
X4034D01*
X4014Y1995D01*
X3975Y1877D02*
X3955Y1917D01*
X3995D01*
X3975Y1877D01*
Y1916D02*
X3955Y1956D01*
X3995D01*
X3975Y1916D01*
Y1956D02*
X3955Y1996D01*
X3995D01*
X3975Y1956D01*
Y1995D02*
X3955Y2035D01*
X3995D01*
X3975Y1995D01*
X3936Y1877D02*
X3916Y1917D01*
X3956D01*
X3936Y1877D01*
Y1916D02*
X3916Y1956D01*
X3956D01*
X3936Y1916D01*
Y1956D02*
X3916Y1996D01*
X3956D01*
X3936Y1956D01*
Y1995D02*
X3916Y2035D01*
X3956D01*
X3936Y1995D01*
X4054Y2192D02*
X4034Y2232D01*
X4074D01*
X4054Y2192D01*
Y2231D02*
X4034Y2271D01*
X4074D01*
X4054Y2231D01*
Y2271D02*
X4034Y2311D01*
X4074D01*
X4054Y2271D01*
Y2310D02*
X4034Y2350D01*
X4074D01*
X4054Y2310D01*
X4014Y2192D02*
X3994Y2232D01*
X4034D01*
X4014Y2192D01*
Y2231D02*
X3994Y2271D01*
X4034D01*
X4014Y2231D01*
Y2271D02*
X3994Y2311D01*
X4034D01*
X4014Y2271D01*
Y2310D02*
X3994Y2350D01*
X4034D01*
X4014Y2310D01*
X3975Y2192D02*
X3955Y2232D01*
X3995D01*
X3975Y2192D01*
Y2231D02*
X3955Y2271D01*
X3995D01*
X3975Y2231D01*
Y2271D02*
X3955Y2311D01*
X3995D01*
X3975Y2271D01*
Y2310D02*
X3955Y2350D01*
X3995D01*
X3975Y2310D01*
X3936Y2192D02*
X3916Y2232D01*
X3956D01*
X3936Y2192D01*
Y2231D02*
X3916Y2271D01*
X3956D01*
X3936Y2231D01*
Y2271D02*
X3916Y2311D01*
X3956D01*
X3936Y2271D01*
Y2310D02*
X3916Y2350D01*
X3956D01*
X3936Y2310D01*
X1411Y2302D02*
X1391Y2342D01*
X1431D01*
X1411Y2302D01*
Y2263D02*
X1391Y2303D01*
X1431D01*
X1411Y2263D01*
Y2223D02*
X1391Y2263D01*
X1431D01*
X1411Y2223D01*
Y2184D02*
X1391Y2224D01*
X1431D01*
X1411Y2184D01*
X1450Y2302D02*
X1430Y2342D01*
X1470D01*
X1450Y2302D01*
Y2263D02*
X1430Y2303D01*
X1470D01*
X1450Y2263D01*
Y2223D02*
X1430Y2263D01*
X1470D01*
X1450Y2223D01*
Y2184D02*
X1430Y2224D01*
X1470D01*
X1450Y2184D01*
X1490Y2302D02*
X1470Y2342D01*
X1510D01*
X1490Y2302D01*
Y2263D02*
X1470Y2303D01*
X1510D01*
X1490Y2263D01*
Y2223D02*
X1470Y2263D01*
X1510D01*
X1490Y2223D01*
Y2184D02*
X1470Y2224D01*
X1510D01*
X1490Y2184D01*
X1529Y2302D02*
X1509Y2342D01*
X1549D01*
X1529Y2302D01*
Y2263D02*
X1509Y2303D01*
X1549D01*
X1529Y2263D01*
Y2223D02*
X1509Y2263D01*
X1549D01*
X1529Y2223D01*
Y2184D02*
X1509Y2224D01*
X1549D01*
X1529Y2184D01*
X1411Y1987D02*
X1391Y2027D01*
X1431D01*
X1411Y1987D01*
Y1948D02*
X1391Y1988D01*
X1431D01*
X1411Y1948D01*
Y1908D02*
X1391Y1948D01*
X1431D01*
X1411Y1908D01*
Y1869D02*
X1391Y1909D01*
X1431D01*
X1411Y1869D01*
X1450Y1987D02*
X1430Y2027D01*
X1470D01*
X1450Y1987D01*
Y1948D02*
X1430Y1988D01*
X1470D01*
X1450Y1948D01*
Y1908D02*
X1430Y1948D01*
X1470D01*
X1450Y1908D01*
Y1869D02*
X1430Y1909D01*
X1470D01*
X1450Y1869D01*
X1490Y1987D02*
X1470Y2027D01*
X1510D01*
X1490Y1987D01*
Y1948D02*
X1470Y1988D01*
X1510D01*
X1490Y1948D01*
Y1908D02*
X1470Y1948D01*
X1510D01*
X1490Y1908D01*
Y1869D02*
X1470Y1909D01*
X1510D01*
X1490Y1869D01*
X1529Y1987D02*
X1509Y2027D01*
X1549D01*
X1529Y1987D01*
Y1948D02*
X1509Y1988D01*
X1549D01*
X1529Y1948D01*
Y1908D02*
X1509Y1948D01*
X1549D01*
X1529Y1908D01*
Y1869D02*
X1509Y1909D01*
X1549D01*
X1529Y1869D01*
X1521Y976D02*
X1501Y1016D01*
X1541D01*
X1521Y976D01*
Y1015D02*
X1501Y1055D01*
X1541D01*
X1521Y1015D01*
Y1054D02*
X1501Y1094D01*
X1541D01*
X1521Y1054D01*
Y1094D02*
X1501Y1134D01*
X1541D01*
X1521Y1094D01*
X1482Y976D02*
X1462Y1016D01*
X1502D01*
X1482Y976D01*
Y1015D02*
X1462Y1055D01*
X1502D01*
X1482Y1015D01*
Y1054D02*
X1462Y1094D01*
X1502D01*
X1482Y1054D01*
Y1094D02*
X1462Y1134D01*
X1502D01*
X1482Y1094D01*
X1442Y976D02*
X1422Y1016D01*
X1462D01*
X1442Y976D01*
Y1015D02*
X1422Y1055D01*
X1462D01*
X1442Y1015D01*
Y1054D02*
X1422Y1094D01*
X1462D01*
X1442Y1054D01*
Y1094D02*
X1422Y1134D01*
X1462D01*
X1442Y1094D01*
X1403Y976D02*
X1383Y1016D01*
X1423D01*
X1403Y976D01*
Y1015D02*
X1383Y1055D01*
X1423D01*
X1403Y1015D01*
Y1054D02*
X1383Y1094D01*
X1423D01*
X1403Y1054D01*
Y1094D02*
X1383Y1134D01*
X1423D01*
X1403Y1094D01*
X1521Y1291D02*
X1501Y1331D01*
X1541D01*
X1521Y1291D01*
Y1330D02*
X1501Y1370D01*
X1541D01*
X1521Y1330D01*
Y1369D02*
X1501Y1409D01*
X1541D01*
X1521Y1369D01*
Y1409D02*
X1501Y1449D01*
X1541D01*
X1521Y1409D01*
X1482Y1291D02*
X1462Y1331D01*
X1502D01*
X1482Y1291D01*
Y1330D02*
X1462Y1370D01*
X1502D01*
X1482Y1330D01*
Y1369D02*
X1462Y1409D01*
X1502D01*
X1482Y1369D01*
Y1409D02*
X1462Y1449D01*
X1502D01*
X1482Y1409D01*
X1442Y1291D02*
X1422Y1331D01*
X1462D01*
X1442Y1291D01*
Y1330D02*
X1422Y1370D01*
X1462D01*
X1442Y1330D01*
Y1369D02*
X1422Y1409D01*
X1462D01*
X1442Y1369D01*
Y1409D02*
X1422Y1449D01*
X1462D01*
X1442Y1409D01*
X1403Y1291D02*
X1383Y1331D01*
X1423D01*
X1403Y1291D01*
Y1330D02*
X1383Y1370D01*
X1423D01*
X1403Y1330D01*
Y1369D02*
X1383Y1409D01*
X1423D01*
X1403Y1369D01*
Y1409D02*
X1383Y1449D01*
X1423D01*
X1403Y1409D01*
X2855Y323D02*
X2835Y363D01*
X2875D01*
X2855Y323D01*
X2894D02*
X2874Y363D01*
X2914D01*
X2894Y323D01*
X2933D02*
X2913Y363D01*
X2953D01*
X2933Y323D01*
X2973D02*
X2953Y363D01*
X2993D01*
X2973Y323D01*
X3012D02*
X2992Y363D01*
X3032D01*
X3012Y323D01*
X3051D02*
X3031Y363D01*
X3071D01*
X3051Y323D01*
X2855Y363D02*
X2835Y403D01*
X2875D01*
X2855Y363D01*
X2894D02*
X2874Y403D01*
X2914D01*
X2894Y363D01*
X2933D02*
X2913Y403D01*
X2953D01*
X2933Y363D01*
X2973D02*
X2953Y403D01*
X2993D01*
X2973Y363D01*
X3012D02*
X2992Y403D01*
X3032D01*
X3012Y363D01*
X3051D02*
X3031Y403D01*
X3071D01*
X3051Y363D01*
X2855Y402D02*
X2835Y442D01*
X2875D01*
X2855Y402D01*
X2894D02*
X2874Y442D01*
X2914D01*
X2894Y402D01*
X2933D02*
X2913Y442D01*
X2953D01*
X2933Y402D01*
X2973D02*
X2953Y442D01*
X2993D01*
X2973Y402D01*
X3012D02*
X2992Y442D01*
X3032D01*
X3012Y402D01*
X3051D02*
X3031Y442D01*
X3071D01*
X3051Y402D01*
X2855Y441D02*
X2835Y481D01*
X2875D01*
X2855Y441D01*
X2894D02*
X2874Y481D01*
X2914D01*
X2894Y441D01*
X2933D02*
X2913Y481D01*
X2953D01*
X2933Y441D01*
X2973D02*
X2953Y481D01*
X2993D01*
X2973Y441D01*
X3012D02*
X2992Y481D01*
X3032D01*
X3012Y441D01*
X3051D02*
X3031Y481D01*
X3071D01*
X3051Y441D01*
X2855Y481D02*
X2835Y521D01*
X2875D01*
X2855Y481D01*
X2894D02*
X2874Y521D01*
X2914D01*
X2894Y481D01*
X2933D02*
X2913Y521D01*
X2953D01*
X2933Y481D01*
X2973D02*
X2953Y521D01*
X2993D01*
X2973Y481D01*
X3012D02*
X2992Y521D01*
X3032D01*
X3012Y481D01*
X3051D02*
X3031Y521D01*
X3071D01*
X3051Y481D01*
X2855Y520D02*
X2835Y560D01*
X2875D01*
X2855Y520D01*
X2894D02*
X2874Y560D01*
X2914D01*
X2894Y520D01*
X2933D02*
X2913Y560D01*
X2953D01*
X2933Y520D01*
X2973D02*
X2953Y560D01*
X2993D01*
X2973Y520D01*
X3012D02*
X2992Y560D01*
X3032D01*
X3012Y520D01*
X3051D02*
X3031Y560D01*
X3071D01*
X3051Y520D01*
X2382Y323D02*
X2362Y363D01*
X2402D01*
X2382Y323D01*
X2422D02*
X2402Y363D01*
X2442D01*
X2422Y323D01*
X2461D02*
X2441Y363D01*
X2481D01*
X2461Y323D01*
X2500D02*
X2480Y363D01*
X2520D01*
X2500Y323D01*
X2540D02*
X2520Y363D01*
X2560D01*
X2540Y323D01*
X2579D02*
X2559Y363D01*
X2599D01*
X2579Y323D01*
X2382Y363D02*
X2362Y403D01*
X2402D01*
X2382Y363D01*
X2422D02*
X2402Y403D01*
X2442D01*
X2422Y363D01*
X2461D02*
X2441Y403D01*
X2481D01*
X2461Y363D01*
X2500D02*
X2480Y403D01*
X2520D01*
X2500Y363D01*
X2540D02*
X2520Y403D01*
X2560D01*
X2540Y363D01*
X2579D02*
X2559Y403D01*
X2599D01*
X2579Y363D01*
X2382Y402D02*
X2362Y442D01*
X2402D01*
X2382Y402D01*
X2422D02*
X2402Y442D01*
X2442D01*
X2422Y402D01*
X2461D02*
X2441Y442D01*
X2481D01*
X2461Y402D01*
X2500D02*
X2480Y442D01*
X2520D01*
X2500Y402D01*
X2540D02*
X2520Y442D01*
X2560D01*
X2540Y402D01*
X2579D02*
X2559Y442D01*
X2599D01*
X2579Y402D01*
X2382Y441D02*
X2362Y481D01*
X2402D01*
X2382Y441D01*
X2422D02*
X2402Y481D01*
X2442D01*
X2422Y441D01*
X2461D02*
X2441Y481D01*
X2481D01*
X2461Y441D01*
X2500D02*
X2480Y481D01*
X2520D01*
X2500Y441D01*
X2540D02*
X2520Y481D01*
X2560D01*
X2540Y441D01*
X2579D02*
X2559Y481D01*
X2599D01*
X2579Y441D01*
X2382Y481D02*
X2362Y521D01*
X2402D01*
X2382Y481D01*
X2422D02*
X2402Y521D01*
X2442D01*
X2422Y481D01*
X2461D02*
X2441Y521D01*
X2481D01*
X2461Y481D01*
X2500D02*
X2480Y521D01*
X2520D01*
X2500Y481D01*
X2540D02*
X2520Y521D01*
X2560D01*
X2540Y481D01*
X2579D02*
X2559Y521D01*
X2599D01*
X2579Y481D01*
Y520D02*
X2559Y560D01*
X2599D01*
X2579Y520D01*
X2540D02*
X2520Y560D01*
X2560D01*
X2540Y520D01*
X2500D02*
X2480Y560D01*
X2520D01*
X2500Y520D01*
X2461D02*
X2441Y560D01*
X2481D01*
X2461Y520D01*
X2422D02*
X2402Y560D01*
X2442D01*
X2422Y520D01*
X2382D02*
X2362Y560D01*
X2402D01*
X2382Y520D01*
X2382Y323D02*
X2362Y363D01*
X2402D01*
X2382Y323D01*
X2422D02*
X2402Y363D01*
X2442D01*
X2422Y323D01*
X2461D02*
X2441Y363D01*
X2481D01*
X2461Y323D01*
X2500D02*
X2480Y363D01*
X2520D01*
X2500Y323D01*
X2540D02*
X2520Y363D01*
X2560D01*
X2540Y323D01*
X2579D02*
X2559Y363D01*
X2599D01*
X2579Y323D01*
X2382Y363D02*
X2362Y403D01*
X2402D01*
X2382Y363D01*
X2422D02*
X2402Y403D01*
X2442D01*
X2422Y363D01*
X2461D02*
X2441Y403D01*
X2481D01*
X2461Y363D01*
X2500D02*
X2480Y403D01*
X2520D01*
X2500Y363D01*
X2540D02*
X2520Y403D01*
X2560D01*
X2540Y363D01*
X2579D02*
X2559Y403D01*
X2599D01*
X2579Y363D01*
X2382Y402D02*
X2362Y442D01*
X2402D01*
X2382Y402D01*
X2422D02*
X2402Y442D01*
X2442D01*
X2422Y402D01*
X2461D02*
X2441Y442D01*
X2481D01*
X2461Y402D01*
X2500D02*
X2480Y442D01*
X2520D01*
X2500Y402D01*
X2540D02*
X2520Y442D01*
X2560D01*
X2540Y402D01*
X2579D02*
X2559Y442D01*
X2599D01*
X2579Y402D01*
X2382Y441D02*
X2362Y481D01*
X2402D01*
X2382Y441D01*
X2422D02*
X2402Y481D01*
X2442D01*
X2422Y441D01*
X2461D02*
X2441Y481D01*
X2481D01*
X2461Y441D01*
X2500D02*
X2480Y481D01*
X2520D01*
X2500Y441D01*
X2540D02*
X2520Y481D01*
X2560D01*
X2540Y441D01*
X2579D02*
X2559Y481D01*
X2599D01*
X2579Y441D01*
X2382Y481D02*
X2362Y521D01*
X2402D01*
X2382Y481D01*
X2422D02*
X2402Y521D01*
X2442D01*
X2422Y481D01*
X2461D02*
X2441Y521D01*
X2481D01*
X2461Y481D01*
X2500D02*
X2480Y521D01*
X2520D01*
X2500Y481D01*
X2540D02*
X2520Y521D01*
X2560D01*
X2540Y481D01*
X2579D02*
X2559Y521D01*
X2599D01*
X2579Y481D01*
X2382Y520D02*
X2362Y560D01*
X2402D01*
X2382Y520D01*
X2422D02*
X2402Y560D01*
X2442D01*
X2422Y520D01*
X2461D02*
X2441Y560D01*
X2481D01*
X2461Y520D01*
X2500D02*
X2480Y560D01*
X2520D01*
X2500Y520D01*
X2540D02*
X2520Y560D01*
X2560D01*
X2540Y520D01*
X2579D02*
X2559Y560D01*
X2599D01*
X2579Y520D01*
X3083Y1624D02*
X3093Y1634D01*
X3103D01*
X3093Y1644D01*
X3103Y1654D01*
X3093D01*
X3083Y1664D01*
X3073Y1654D01*
X3063D01*
X3073Y1644D01*
X3063Y1634D01*
X3073D01*
X3083Y1624D01*
X3109Y1651D02*
X3119Y1661D01*
X3129D01*
X3119Y1671D01*
X3129Y1681D01*
X3119D01*
X3109Y1691D01*
X3099Y1681D01*
X3089D01*
X3099Y1671D01*
X3089Y1661D01*
X3099D01*
X3109Y1651D01*
X3083Y1651D02*
X3093Y1661D01*
X3103D01*
X3093Y1671D01*
X3103Y1681D01*
X3093D01*
X3083Y1691D01*
X3073Y1681D01*
X3063D01*
X3073Y1671D01*
X3063Y1661D01*
X3073D01*
X3083Y1651D01*
X3108Y1625D02*
X3118Y1635D01*
X3128D01*
X3118Y1645D01*
X3128Y1655D01*
X3118D01*
X3108Y1665D01*
X3098Y1655D01*
X3088D01*
X3098Y1645D01*
X3088Y1635D01*
X3098D01*
X3108Y1625D01*
X3107Y1596D02*
X3117Y1606D01*
X3127D01*
X3117Y1616D01*
X3127Y1626D01*
X3117D01*
X3107Y1636D01*
X3097Y1626D01*
X3087D01*
X3097Y1616D01*
X3087Y1606D01*
X3097D01*
X3107Y1596D01*
X3083D02*
X3093Y1606D01*
X3103D01*
X3093Y1616D01*
X3103Y1626D01*
X3093D01*
X3083Y1636D01*
X3073Y1626D01*
X3063D01*
X3073Y1616D01*
X3063Y1606D01*
X3073D01*
X3083Y1596D01*
X3059D02*
X3069Y1606D01*
X3079D01*
X3069Y1616D01*
X3079Y1626D01*
X3069D01*
X3059Y1636D01*
X3049Y1626D01*
X3039D01*
X3049Y1616D01*
X3039Y1606D01*
X3049D01*
X3059Y1596D01*
Y1624D02*
X3069Y1634D01*
X3079D01*
X3069Y1644D01*
X3079Y1654D01*
X3069D01*
X3059Y1664D01*
X3049Y1654D01*
X3039D01*
X3049Y1644D01*
X3039Y1634D01*
X3049D01*
X3059Y1624D01*
Y1651D02*
X3069Y1661D01*
X3079D01*
X3069Y1671D01*
X3079Y1681D01*
X3069D01*
X3059Y1691D01*
X3049Y1681D01*
X3039D01*
X3049Y1671D01*
X3039Y1661D01*
X3049D01*
X3059Y1651D01*
Y1569D02*
X3069Y1579D01*
X3079D01*
X3069Y1589D01*
X3079Y1599D01*
X3069D01*
X3059Y1609D01*
X3049Y1599D01*
X3039D01*
X3049Y1589D01*
X3039Y1579D01*
X3049D01*
X3059Y1569D01*
X3083D02*
X3093Y1579D01*
X3103D01*
X3093Y1589D01*
X3103Y1599D01*
X3093D01*
X3083Y1609D01*
X3073Y1599D01*
X3063D01*
X3073Y1589D01*
X3063Y1579D01*
X3073D01*
X3083Y1569D01*
X3108D02*
X3118Y1579D01*
X3128D01*
X3118Y1589D01*
X3128Y1599D01*
X3118D01*
X3108Y1609D01*
X3098Y1599D01*
X3088D01*
X3098Y1589D01*
X3088Y1579D01*
X3098D01*
X3108Y1569D01*
X2527Y1579D02*
X2537Y1589D01*
X2547D01*
X2537Y1599D01*
X2547Y1609D01*
X2537D01*
X2527Y1619D01*
X2517Y1609D01*
X2507D01*
X2517Y1599D01*
X2507Y1589D01*
X2517D01*
X2527Y1579D01*
X2502D02*
X2512Y1589D01*
X2522D01*
X2512Y1599D01*
X2522Y1609D01*
X2512D01*
X2502Y1619D01*
X2492Y1609D01*
X2482D01*
X2492Y1599D01*
X2482Y1589D01*
X2492D01*
X2502Y1579D01*
X2478D02*
X2488Y1589D01*
X2498D01*
X2488Y1599D01*
X2498Y1609D01*
X2488D01*
X2478Y1619D01*
X2468Y1609D01*
X2458D01*
X2468Y1599D01*
X2458Y1589D01*
X2468D01*
X2478Y1579D01*
Y1661D02*
X2488Y1671D01*
X2498D01*
X2488Y1681D01*
X2498Y1691D01*
X2488D01*
X2478Y1701D01*
X2468Y1691D01*
X2458D01*
X2468Y1681D01*
X2458Y1671D01*
X2468D01*
X2478Y1661D01*
Y1634D02*
X2488Y1644D01*
X2498D01*
X2488Y1654D01*
X2498Y1664D01*
X2488D01*
X2478Y1674D01*
X2468Y1664D01*
X2458D01*
X2468Y1654D01*
X2458Y1644D01*
X2468D01*
X2478Y1634D01*
Y1606D02*
X2488Y1616D01*
X2498D01*
X2488Y1626D01*
X2498Y1636D01*
X2488D01*
X2478Y1646D01*
X2468Y1636D01*
X2458D01*
X2468Y1626D01*
X2458Y1616D01*
X2468D01*
X2478Y1606D01*
X2502D02*
X2512Y1616D01*
X2522D01*
X2512Y1626D01*
X2522Y1636D01*
X2512D01*
X2502Y1646D01*
X2492Y1636D01*
X2482D01*
X2492Y1626D01*
X2482Y1616D01*
X2492D01*
X2502Y1606D01*
X2526D02*
X2536Y1616D01*
X2546D01*
X2536Y1626D01*
X2546Y1636D01*
X2536D01*
X2526Y1646D01*
X2516Y1636D01*
X2506D01*
X2516Y1626D01*
X2506Y1616D01*
X2516D01*
X2526Y1606D01*
X2527Y1635D02*
X2537Y1645D01*
X2547D01*
X2537Y1655D01*
X2547Y1665D01*
X2537D01*
X2527Y1675D01*
X2517Y1665D01*
X2507D01*
X2517Y1655D01*
X2507Y1645D01*
X2517D01*
X2527Y1635D01*
X2502Y1661D02*
X2512Y1671D01*
X2522D01*
X2512Y1681D01*
X2522Y1691D01*
X2512D01*
X2502Y1701D01*
X2492Y1691D01*
X2482D01*
X2492Y1681D01*
X2482Y1671D01*
X2492D01*
X2502Y1661D01*
X2528Y1661D02*
X2538Y1671D01*
X2548D01*
X2538Y1681D01*
X2548Y1691D01*
X2538D01*
X2528Y1701D01*
X2518Y1691D01*
X2508D01*
X2518Y1681D01*
X2508Y1671D01*
X2518D01*
X2528Y1661D01*
X2502Y1634D02*
X2512Y1644D01*
X2522D01*
X2512Y1654D01*
X2522Y1664D01*
X2512D01*
X2502Y1674D01*
X2492Y1664D01*
X2482D01*
X2492Y1654D01*
X2482Y1644D01*
X2492D01*
X2502Y1634D01*
X3252Y1509D02*
X3262Y1529D01*
X3252Y1549D01*
X3272Y1539D01*
X3292Y1549D01*
X3282Y1529D01*
X3292Y1509D01*
X3272Y1519D01*
X3252Y1509D01*
X2670Y1548D02*
Y1538D01*
X2690D01*
Y1548D01*
X2700D01*
Y1568D01*
X2690D01*
Y1578D01*
X2670D01*
Y1568D01*
X2660D01*
Y1548D01*
X2670D01*
X2655Y1843D02*
X2665Y1863D01*
X2655Y1883D01*
X2675Y1873D01*
X2695Y1883D01*
X2685Y1863D01*
X2695Y1843D01*
X2675Y1853D01*
X2655Y1843D01*
X3244Y1585D02*
X3254Y1605D01*
X3244Y1625D01*
X3264Y1615D01*
X3284Y1625D01*
X3274Y1605D01*
X3284Y1585D01*
X3264Y1595D01*
X3244Y1585D01*
X2868Y1432D02*
Y1422D01*
X2888D01*
Y1432D01*
X2898D01*
Y1452D01*
X2888D01*
Y1462D01*
X2868D01*
Y1452D01*
X2858D01*
Y1432D01*
X2868D01*
X2263Y1698D02*
Y1688D01*
X2283D01*
Y1698D01*
X2293D01*
Y1718D01*
X2283D01*
Y1728D01*
X2263D01*
Y1718D01*
X2253D01*
Y1698D01*
X2263D01*
X3771Y2986D02*
X3751Y3026D01*
X3791D01*
X3771Y2986D01*
X3731D02*
X3711Y3026D01*
X3751D01*
X3731Y2986D01*
X3692D02*
X3672Y3026D01*
X3712D01*
X3692Y2986D01*
X3653D02*
X3633Y3026D01*
X3673D01*
X3653Y2986D01*
X3771Y2947D02*
X3751Y2987D01*
X3791D01*
X3771Y2947D01*
X3731D02*
X3711Y2987D01*
X3751D01*
X3731Y2947D01*
X3692D02*
X3672Y2987D01*
X3712D01*
X3692Y2947D01*
X3653D02*
X3633Y2987D01*
X3673D01*
X3653Y2947D01*
X3771Y2908D02*
X3751Y2948D01*
X3791D01*
X3771Y2908D01*
X3731D02*
X3711Y2948D01*
X3751D01*
X3731Y2908D01*
X3692D02*
X3672Y2948D01*
X3712D01*
X3692Y2908D01*
X3653D02*
X3633Y2948D01*
X3673D01*
X3653Y2908D01*
X3771Y2868D02*
X3751Y2908D01*
X3791D01*
X3771Y2868D01*
X3731D02*
X3711Y2908D01*
X3751D01*
X3731Y2868D01*
X3692D02*
X3672Y2908D01*
X3712D01*
X3692Y2868D01*
X3653D02*
X3633Y2908D01*
X3673D01*
X3653Y2868D01*
X3456Y2986D02*
X3436Y3026D01*
X3476D01*
X3456Y2986D01*
X3416D02*
X3396Y3026D01*
X3436D01*
X3416Y2986D01*
X3377D02*
X3357Y3026D01*
X3397D01*
X3377Y2986D01*
X3338D02*
X3318Y3026D01*
X3358D01*
X3338Y2986D01*
X3456Y2947D02*
X3436Y2987D01*
X3476D01*
X3456Y2947D01*
X3416D02*
X3396Y2987D01*
X3436D01*
X3416Y2947D01*
X3377D02*
X3357Y2987D01*
X3397D01*
X3377Y2947D01*
X3338D02*
X3318Y2987D01*
X3358D01*
X3338Y2947D01*
X3456Y2908D02*
X3436Y2948D01*
X3476D01*
X3456Y2908D01*
X3416D02*
X3396Y2948D01*
X3436D01*
X3416Y2908D01*
X3377D02*
X3357Y2948D01*
X3397D01*
X3377Y2908D01*
X3338D02*
X3318Y2948D01*
X3358D01*
X3338Y2908D01*
X3456Y2868D02*
X3436Y2908D01*
X3476D01*
X3456Y2868D01*
X3416D02*
X3396Y2908D01*
X3436D01*
X3416Y2868D01*
X3377D02*
X3357Y2908D01*
X3397D01*
X3377Y2868D01*
X3338D02*
X3318Y2908D01*
X3358D01*
X3338Y2868D01*
D63*
X4004Y2926D02*
G03*
X4004Y2926I-20J0D01*
G01*
Y421D02*
G03*
X4004Y421I-20J0D01*
G01*
X1494D02*
G03*
X1494Y421I-20J0D01*
G01*
Y2926D02*
G03*
X1494Y2926I-20J0D01*
G01*
M02*
