M48
;Layer_Color=9474304
;FILE_FORMAT=2:3
INCH,LZ
;TYPE=PLATED
T1F00S00C0.015
T2F00S00C0.020
T3F00S00C0.025
T4F00S00C0.028
T5F00S00C0.035
T6F00S00C0.125
%
T01
X02478Y01599
X02502
X02527
X02526Y01626
X02502
X02478
Y01654
X02502Y01654
X02527Y01655
X02528Y01681
X02502Y01681
X02478
X03059Y01671
X03083
X03109Y01671
X03108Y01645
X03083Y01644
X03059Y01644
Y01616
X03083
X03107
X03108Y01589
X03083
X03059
T02
X01393Y00628
X01393
X01432
X01432
X01471
X01471
X01511
X01511
X0155
X0155
Y00667
X0155
X01511
X01511
X01471
X01471
X01432
X01432
X01393
X01393
Y00706
X01393
X01432
X01432
X01471
X01471
X01511
X01511
X0155
X0155
Y00746
X0155
X01511
X01511
X01471
X01471
X01432
X01432
X01393
X01393
Y00785
X01393
X01432
X01432
X01471
X01471
X01511
X01511
X0155
X0155
Y00824
X0155
X01511
X01511
X01471
X01471
X01432
X01432
X01393
X01393
X01403Y00996
Y01035
Y01074
Y01114
X01442
Y01074
Y01035
Y00996
X01482
X01521
Y01035
X01482
Y01074
X01521
Y01114
X01482
Y01311
X01521
Y0135
X01482
Y01389
X01521
Y01429
X01482
X01442
X01403
Y01389
Y0135
Y01311
X01442
Y0135
Y01389
X01432Y01558
X01432
X01393
X01393
X01471
X01471
X01511
X01511
X0155
X0155
X01684Y0047
X01723
X01763
X01802
Y0043
X01763
X01723
X01684
Y00391
Y00352
X01723
Y00391
X01763
Y00352
X01802
Y00391
X01999
Y00352
X02038
X02077
Y00391
X02038
Y0043
X02077
Y0047
X02038
X01999
Y0043
X02117
Y0047
Y00391
Y00352
X02193Y00343
X02193
X02232
X02232
X02271
X02271
X02311
X02311
Y00382
X02311
X02271
X02271
X02232
X02232
X02193
X02193
Y00421
X02193
Y00461
X02193
Y005
X02193
X02232
X02232
X02271
X02271
X02311
X02311
Y00539
X02311
X02271
X02271
X02232
X02232
X02193
X02193
X02232Y00461
X02232
X02271
X02271
Y00421
X02271
X02232
X02232
X02311
X02311
Y00461
X02311
X02382Y00461
X02382
Y00422
X02382
X02422
X02422
X02461
X02461
Y00461
X02461
X02422
X02422
Y00501
X02422
X02461
X02461
X025
X025
X0254
X0254
X02579
X02579
Y0054
X02579
X0254
X0254
X025
X025
X02461
X02461
X02422
X02422
X02382
X02382
Y00501
X02382
Y00383
X02382
X02422
X02422
X02461
X02461
X025
X025
X0254
X0254
X02579
X02579
Y00422
X02579
X0254
X0254
X025
X025
Y00461
X025
X0254
X0254
X02579
X02579
Y00343
X02579
X0254
X0254
X025
X025
X02461
X02461
X02422
X02422
X02382
X02382
X02855
Y00383
Y00422
Y00461
Y00501
Y0054
X02894
X02933
X02973
X03012
X03051
Y00501
X03012
X02973
X02933
X02894
Y00461
X02933
Y00422
X02894
Y00383
X02933
X02973
Y00422
Y00461
X03012
Y00422
X03051
Y00461
Y00383
X03012
Y00343
X03051
X02973
X02933
X02894
X03143Y00338
X03143
X03182
X03182
X03221
X03221
X03261
X03261
Y00377
X03261
X03221
X03221
X03182
X03182
X03143
X03143
Y00416
X03143
Y00456
X03143
Y00495
X03143
X03182
X03182
X03221
X03221
X03261
X03261
Y00534
X03261
X03221
X03221
X03182
X03182
X03143
X03143
X03182Y00456
X03182
X03221
X03221
Y00416
X03221
X03182
X03182
X03261
X03261
Y00456
X03261
X03338Y0047
X03377
X03416
X03456
Y0043
X03416
X03377
X03338
Y00391
Y00352
X03377
Y00391
X03416
Y00352
X03456
Y00391
X03653
Y00352
X03692
Y00391
X03731
Y00352
X03771
Y00391
Y0043
Y0047
X03731
X03692
X03653
Y0043
X03692
X03731
X03913Y00633
X03913
X03952
X03952
X03991
X03991
X04031
X04031
X0407
X0407
Y00672
X0407
X04031
X04031
X03991
X03991
X03952
X03952
X03913
X03913
Y00711
X03913
X03952
X03952
X03991
X03991
X04031
X04031
X0407
X0407
Y00751
X0407
X04031
X04031
X03991
X03991
X03952
X03952
X03913
X03913
Y0079
X03913
X03952
X03952
X03991
X03991
X04031
X04031
X0407
X0407
Y00829
X0407
X04031
X04031
X03991
X03991
X03952
X03952
X03913
X03913
X03943Y00992
X03983
X04022
X04061
Y01031
Y01071
Y0111
X04022
Y01071
Y01031
X03983
Y01071
X03943
Y01031
Y0111
X03983
Y01307
X03943
Y01346
X03983
Y01385
X03943
Y01425
X03983
X04022
X04061
Y01385
Y01346
Y01307
X04022
Y01346
Y01385
X04036Y01573
X04036
X04075
X04075
Y01612
X04075
X04036
X04036
X03996
X03996
X03957
X03957
X03918
X03918
Y01573
X03918
X03957
X03957
X03996
X03996
Y01651
X03996
X03957
X03957
Y01691
X03957
X03996
X03996
X04036
X04036
X04075
X04075
Y01651
X04075
X04036
X04036
Y0173
X04036
X04075
X04075
Y01769
X04075
X04036
X04036
X03996
X03996
X03957
X03957
X03918
X03918
Y0173
X03918
X03957
X03957
X03996
X03996
X03918Y01691
X03918
Y01651
X03918
X03936Y01897
Y01936
Y01976
Y02015
X03975
Y01976
Y01936
Y01897
X04014
X04054
Y01936
X04014
Y01976
X04054
Y02015
X04014
Y02212
X04054
Y02251
X04014
Y02291
X04054
Y0233
X04014
X03975
X03936
Y02291
Y02251
Y02212
X03975
Y02251
Y02291
X03957Y02528
X03957
X03996
X03996
X04036
X04036
X04075
X04075
Y02567
X04075
X04036
X04036
X03996
X03996
X03957
X03957
X03918
X03918
Y02528
X03918
Y02606
X03918
Y02646
X03918
X03957
X03957
X03996
X03996
X04036
X04036
X04075
X04075
Y02606
X04075
X04036
X04036
X03996
X03996
X03957
X03957
Y02685
X03957
X03996
X03996
X04036
X04036
X04075
X04075
Y02724
X04075
X04036
X04036
X03996
X03996
X03957
X03957
X03918
X03918
Y02685
X03918
X03771Y02888
Y02928
X03731
Y02888
X03692
Y02928
X03653
Y02888
Y02967
X03692
X03731
X03771
Y03006
X03731
X03692
X03653
X03456
Y02967
Y02928
Y02888
X03416
X03377
Y02928
X03416
Y02967
X03377
X03338
Y02928
Y02888
Y03006
X03377
X03416
X02117
X02077
X02038
X01999
Y02967
X02038
X02077
X02117
Y02928
Y02888
X02077
Y02928
X02038
Y02888
X01999
Y02928
X01802
Y02888
X01763
Y02928
X01723
Y02888
X01684
Y02928
Y02967
Y03006
X01723
X01763
X01802
Y02967
X01763
X01723
X0155Y02694
X0155
X01511
X01511
X01471
X01471
X01432
X01432
X01393
X01393
Y02655
X01393
X01432
X01432
X01471
X01471
X01511
X01511
X0155
X0155
Y02616
X0155
Y02576
X0155
Y02537
X0155
X01511
X01511
X01471
X01471
X01432
X01432
X01393
X01393
Y02498
X01393
X01432
X01432
X01471
X01471
X01511
X01511
X0155
X0155
X01511Y02576
X01511
Y02616
X01511
X01471
X01471
X01432
X01432
Y02576
X01432
X01471
X01471
X01393
X01393
Y02616
X01393
X01411Y02322
X0145
X0149
X01529
Y02283
Y02243
Y02204
X0149
Y02243
Y02283
X0145
Y02243
X01411
Y02283
Y02204
X0145
Y02007
X01411
Y01968
X0145
Y01928
X01411
Y01889
X0145
X0149
X01529
Y01928
Y01968
Y02007
X0149
Y01968
Y01928
X01471Y01754
X01471
X01432
X01432
X01393
X01393
Y01715
X01393
X01432
X01432
X01471
X01471
X01511
X01511
X0155
X0155
Y01754
X0155
X01511
X01511
Y01676
X01511
Y01636
X01511
X01471
X01471
X01432
X01432
X01393
X01393
Y01676
X01393
X01432
X01432
X01471
X01471
Y01597
X01471
X01432
X01432
X01393
X01393
X01511
X01511
X0155
X0155
Y01636
X0155
Y01676
X0155
T03
X0268Y01558
X02878Y01442
X02273Y01708
T04
X03272Y01529
X03264Y01605
X02675Y01863
T05
X02579Y02591
Y02691
X02679
X02779
X02879
Y02591
X02779
X02679
X02415Y0296
X02315
T06
X01474Y00421
X03984
Y02926
X01474
M30
