G04 Layer_Color=65535*
%FSLAX23Y23*%
%MOIN*%
G70*
G01*
G75*
%ADD36C,0.016*%
%ADD37C,0.010*%
%ADD38C,0.002*%
%ADD39C,0.008*%
%ADD40C,0.010*%
%ADD41C,0.005*%
%ADD42C,0.007*%
G36*
X3829Y2259D02*
X3859D01*
Y2247D01*
X3829D01*
Y2217D01*
X3817D01*
Y2247D01*
X3787D01*
Y2259D01*
X3816D01*
Y2289D01*
X3829D01*
Y2259D01*
D02*
G37*
G36*
X1635Y1963D02*
X1665D01*
Y1951D01*
X1636D01*
Y1921D01*
X1623D01*
Y1951D01*
X1593D01*
Y1963D01*
X1623D01*
Y1993D01*
X1635D01*
Y1963D01*
D02*
G37*
G36*
X3835Y1335D02*
X3823D01*
Y1380D01*
X3835D01*
Y1335D01*
D02*
G37*
G36*
X3834Y1920D02*
X3822D01*
Y1965D01*
X3834D01*
Y1920D01*
D02*
G37*
G36*
X1630Y2225D02*
X1618D01*
Y2270D01*
X1630D01*
Y2225D01*
D02*
G37*
G36*
X3725Y2799D02*
X3755D01*
Y2786D01*
X3725D01*
Y2756D01*
X3713D01*
Y2786D01*
X3683D01*
Y2798D01*
X3713D01*
Y2828D01*
X3725D01*
Y2799D01*
D02*
G37*
G36*
X3429Y2781D02*
X3384D01*
Y2793D01*
X3429D01*
Y2781D01*
D02*
G37*
G36*
X1638Y1031D02*
X1626D01*
Y1076D01*
X1638D01*
Y1031D01*
D02*
G37*
G36*
X1633Y1360D02*
X1663D01*
Y1348D01*
X1633D01*
Y1318D01*
X1621D01*
Y1348D01*
X1591D01*
Y1360D01*
X1620D01*
Y1390D01*
X1633D01*
Y1360D01*
D02*
G37*
G36*
X3406Y573D02*
X3361D01*
Y585D01*
X3406D01*
Y573D01*
D02*
G37*
G36*
X3710Y591D02*
X3740D01*
Y578D01*
X3710D01*
Y548D01*
X3698D01*
Y578D01*
X3668D01*
Y590D01*
X3698D01*
Y620D01*
X3710D01*
Y591D01*
D02*
G37*
G36*
X3184Y670D02*
X3139D01*
Y682D01*
X3184D01*
Y670D01*
D02*
G37*
G36*
X2328Y681D02*
X2358D01*
Y669D01*
X2328D01*
Y639D01*
X2316D01*
Y668D01*
X2286D01*
Y681D01*
X2316D01*
Y711D01*
X2328D01*
Y681D01*
D02*
G37*
G36*
X2049Y583D02*
X2079D01*
Y570D01*
X2049D01*
Y540D01*
X2037D01*
Y570D01*
X2007D01*
Y582D01*
X2037D01*
Y612D01*
X2049D01*
Y583D01*
D02*
G37*
G36*
X2081Y2791D02*
X2111D01*
Y2778D01*
X2081D01*
Y2748D01*
X2069D01*
Y2778D01*
X2039D01*
Y2790D01*
X2069D01*
Y2820D01*
X2081D01*
Y2791D01*
D02*
G37*
G36*
X3840Y1053D02*
X3870D01*
Y1041D01*
X3841D01*
Y1011D01*
X3828D01*
Y1041D01*
X3798D01*
Y1053D01*
X3828D01*
Y1083D01*
X3840D01*
Y1053D01*
D02*
G37*
G36*
X1745Y565D02*
X1700D01*
Y577D01*
X1745D01*
Y565D01*
D02*
G37*
G36*
X1785Y2773D02*
X1740D01*
Y2785D01*
X1785D01*
Y2773D01*
D02*
G37*
D36*
X3087Y1700D02*
G03*
X3087Y1700I-8J0D01*
G01*
X2506D02*
G03*
X2506Y1700I-8J0D01*
G01*
D37*
X2993Y1741D02*
G03*
X2993Y1741I-5J0D01*
G01*
X2413D02*
G03*
X2413Y1741I-5J0D01*
G01*
D38*
X2415Y1342D02*
X3015D01*
X2415Y1340D02*
X3015D01*
X2415Y1338D02*
X3015D01*
X2415Y1336D02*
X3015D01*
X2415Y1334D02*
X2425D01*
X3005D02*
X3015D01*
X2415Y1332D02*
X2425D01*
X3005D02*
X3015D01*
X2415Y1330D02*
X2425D01*
X3005D02*
X3015D01*
X2415Y1328D02*
X2425D01*
X3005D02*
X3015D01*
X2415Y1326D02*
X2425D01*
X3005D02*
X3015D01*
X2415Y1324D02*
X2425D01*
X3005D02*
X3015D01*
X2415Y1322D02*
X2425D01*
X3005D02*
X3015D01*
X2415Y1320D02*
X2425D01*
X3005D02*
X3015D01*
X2415Y1318D02*
X2425D01*
X3005D02*
X3015D01*
X2415Y1316D02*
X2425D01*
X3005D02*
X3015D01*
X2415Y1314D02*
X2425D01*
X3005D02*
X3015D01*
X2415Y1312D02*
X2425D01*
X3005D02*
X3015D01*
X2415Y1310D02*
X2425D01*
X2447D02*
X2983D01*
X3005D02*
X3015D01*
X2415Y1308D02*
X2425D01*
X2447D02*
X2983D01*
X3005D02*
X3015D01*
X2415Y1306D02*
X2425D01*
X2447D02*
X2983D01*
X3005D02*
X3015D01*
X2415Y1304D02*
X2425D01*
X2447D02*
X2983D01*
X3005D02*
X3015D01*
X2415Y1302D02*
X2425D01*
X2447D02*
X2983D01*
X3005D02*
X3015D01*
X2415Y1300D02*
X2425D01*
X2447D02*
X2983D01*
X3005D02*
X3015D01*
X2415Y1298D02*
X2425D01*
X2447D02*
X2983D01*
X3005D02*
X3015D01*
X2415Y1296D02*
X2425D01*
X3005D02*
X3015D01*
X2415Y1294D02*
X2425D01*
X3005D02*
X3015D01*
X2415Y1292D02*
X2425D01*
X3005D02*
X3015D01*
X2415Y1290D02*
X2425D01*
X3005D02*
X3015D01*
X2415Y1288D02*
X2425D01*
X3005D02*
X3015D01*
X2415Y1286D02*
X2425D01*
X3005D02*
X3015D01*
X2415Y1284D02*
X2425D01*
X3005D02*
X3015D01*
X2415Y1282D02*
X2425D01*
X2447D02*
X2983D01*
X3005D02*
X3015D01*
X2415Y1280D02*
X2425D01*
X2447D02*
X2983D01*
X3005D02*
X3015D01*
X2415Y1278D02*
X2425D01*
X2447D02*
X2983D01*
X3005D02*
X3015D01*
X2415Y1276D02*
X2425D01*
X2447D02*
X2983D01*
X3005D02*
X3015D01*
X2415Y1274D02*
X2425D01*
X2447D02*
X2983D01*
X3005D02*
X3015D01*
X2415Y1272D02*
X2425D01*
X2447D02*
X2983D01*
X3005D02*
X3015D01*
X2415Y1270D02*
X2425D01*
X2447D02*
X2983D01*
X3005D02*
X3015D01*
X2415Y1268D02*
X2425D01*
X2449D02*
X2981D01*
X3005D02*
X3015D01*
X2415Y1266D02*
X2425D01*
X3005D02*
X3015D01*
X2415Y1264D02*
X2425D01*
X3005D02*
X3015D01*
X2415Y1262D02*
X2425D01*
X3005D02*
X3015D01*
X2415Y1260D02*
X2425D01*
X3005D02*
X3015D01*
X2415Y1258D02*
X2425D01*
X3005D02*
X3015D01*
X2415Y1256D02*
X2425D01*
X3005D02*
X3015D01*
X2415Y1254D02*
X2425D01*
X2449D02*
X2981D01*
X3005D02*
X3015D01*
X2415Y1252D02*
X2425D01*
X2447D02*
X2983D01*
X3005D02*
X3015D01*
X2415Y1250D02*
X2425D01*
X2447D02*
X2983D01*
X3005D02*
X3015D01*
X2415Y1248D02*
X2425D01*
X2447D02*
X2983D01*
X3005D02*
X3015D01*
X2415Y1246D02*
X2425D01*
X2447D02*
X2983D01*
X3005D02*
X3015D01*
X2415Y1244D02*
X2425D01*
X2447D02*
X2983D01*
X3005D02*
X3015D01*
X2415Y1242D02*
X2425D01*
X2447D02*
X2983D01*
X3005D02*
X3015D01*
X2415Y1240D02*
X2425D01*
X2447D02*
X2981D01*
X3005D02*
X3015D01*
X2415Y1238D02*
X2425D01*
X3005D02*
X3015D01*
X2415Y1236D02*
X2425D01*
X3005D02*
X3015D01*
X2415Y1234D02*
X2425D01*
X3005D02*
X3015D01*
X2415Y1232D02*
X2425D01*
X3005D02*
X3015D01*
X2415Y1230D02*
X2425D01*
X3005D02*
X3015D01*
X2415Y1228D02*
X2425D01*
X3005D02*
X3015D01*
X2415Y1226D02*
X2425D01*
X2447D02*
X2983D01*
X3005D02*
X3015D01*
X2415Y1224D02*
X2425D01*
X2447D02*
X2983D01*
X3005D02*
X3015D01*
X2415Y1222D02*
X2425D01*
X2447D02*
X2983D01*
X3005D02*
X3015D01*
X2415Y1220D02*
X2425D01*
X2447D02*
X2983D01*
X3005D02*
X3015D01*
X2415Y1218D02*
X2425D01*
X2447D02*
X2983D01*
X3005D02*
X3015D01*
X2415Y1216D02*
X2425D01*
X2447D02*
X2983D01*
X3005D02*
X3015D01*
X2415Y1214D02*
X2425D01*
X2447D02*
X2983D01*
X3005D02*
X3015D01*
X2415Y1212D02*
X2425D01*
X3005D02*
X3015D01*
X2415Y1210D02*
X2425D01*
X3005D02*
X3015D01*
X2415Y1208D02*
X2425D01*
X3005D02*
X3015D01*
X2415Y1206D02*
X2425D01*
X3005D02*
X3015D01*
X2415Y1204D02*
X2425D01*
X3005D02*
X3015D01*
X2415Y1202D02*
X2425D01*
X3005D02*
X3015D01*
X2415Y1200D02*
X2425D01*
X3005D02*
X3015D01*
X2415Y1198D02*
X2425D01*
X2447D02*
X2983D01*
X3005D02*
X3015D01*
X2415Y1196D02*
X2425D01*
X2447D02*
X2983D01*
X3005D02*
X3015D01*
X2415Y1194D02*
X2425D01*
X2447D02*
X2983D01*
X3005D02*
X3015D01*
X2415Y1192D02*
X2425D01*
X2447D02*
X2983D01*
X3005D02*
X3015D01*
X2415Y1190D02*
X2425D01*
X2447D02*
X2983D01*
X3005D02*
X3015D01*
X2415Y1188D02*
X2425D01*
X2447D02*
X2983D01*
X3005D02*
X3015D01*
X2415Y1186D02*
X2425D01*
X2447D02*
X2983D01*
X3005D02*
X3015D01*
X2415Y1184D02*
X2425D01*
X3005D02*
X3015D01*
X2415Y1182D02*
X2425D01*
X3005D02*
X3015D01*
X2415Y1180D02*
X2425D01*
X3005D02*
X3015D01*
X2415Y1178D02*
X2425D01*
X3005D02*
X3015D01*
X2415Y1176D02*
X2425D01*
X3005D02*
X3015D01*
X2415Y1174D02*
X2425D01*
X3005D02*
X3015D01*
X2415Y1172D02*
X2425D01*
X2449D02*
X2529D01*
X2651D02*
X2981D01*
X3005D02*
X3015D01*
X2415Y1170D02*
X2425D01*
X2447D02*
X2529D01*
X2649D02*
X2983D01*
X3005D02*
X3015D01*
X2415Y1168D02*
X2425D01*
X2447D02*
X2525D01*
X2653D02*
X2983D01*
X3005D02*
X3015D01*
X2415Y1166D02*
X2425D01*
X2447D02*
X2521D01*
X2659D02*
X2983D01*
X3005D02*
X3015D01*
X2415Y1164D02*
X2425D01*
X2447D02*
X2517D01*
X2661D02*
X2983D01*
X3005D02*
X3015D01*
X2415Y1162D02*
X2425D01*
X2447D02*
X2515D01*
X2665D02*
X2983D01*
X3005D02*
X3015D01*
X2415Y1160D02*
X2425D01*
X2447D02*
X2511D01*
X2669D02*
X2983D01*
X3005D02*
X3015D01*
X2415Y1158D02*
X2425D01*
X2447D02*
X2507D01*
X2671D02*
X2981D01*
X3005D02*
X3015D01*
X2415Y1156D02*
X2425D01*
X3005D02*
X3015D01*
X2415Y1154D02*
X2425D01*
X3005D02*
X3015D01*
X2415Y1152D02*
X2425D01*
X3005D02*
X3015D01*
X2415Y1150D02*
X2425D01*
X3005D02*
X3015D01*
X2415Y1148D02*
X2425D01*
X3005D02*
X3015D01*
X2415Y1146D02*
X2425D01*
X3005D02*
X3015D01*
X2415Y1144D02*
X2425D01*
X2447D02*
X2489D01*
X2689D02*
X2983D01*
X3005D02*
X3015D01*
X2415Y1142D02*
X2425D01*
X2447D02*
X2489D01*
X2691D02*
X2983D01*
X3005D02*
X3015D01*
X2415Y1140D02*
X2425D01*
X2447D02*
X2487D01*
X2693D02*
X2983D01*
X3005D02*
X3015D01*
X2415Y1138D02*
X2425D01*
X2447D02*
X2485D01*
X2695D02*
X2983D01*
X3005D02*
X3015D01*
X2415Y1136D02*
X2425D01*
X2447D02*
X2483D01*
X2697D02*
X2983D01*
X3005D02*
X3015D01*
X2415Y1134D02*
X2425D01*
X2447D02*
X2481D01*
X2699D02*
X2983D01*
X3005D02*
X3015D01*
X2415Y1132D02*
X2425D01*
X2447D02*
X2479D01*
X2701D02*
X2983D01*
X3005D02*
X3015D01*
X2415Y1130D02*
X2425D01*
X3005D02*
X3015D01*
X2415Y1128D02*
X2425D01*
X3005D02*
X3015D01*
X2415Y1126D02*
X2425D01*
X3005D02*
X3015D01*
X2415Y1124D02*
X2425D01*
X3005D02*
X3015D01*
X2415Y1122D02*
X2425D01*
X3005D02*
X3015D01*
X2415Y1120D02*
X2425D01*
X3005D02*
X3015D01*
X2415Y1118D02*
X2425D01*
X3005D02*
X3015D01*
X2415Y1116D02*
X2425D01*
X2447D02*
X2467D01*
X2711D02*
X2983D01*
X3005D02*
X3015D01*
X2415Y1114D02*
X2425D01*
X2447D02*
X2467D01*
X2713D02*
X2983D01*
X3005D02*
X3015D01*
X2415Y1112D02*
X2425D01*
X2447D02*
X2465D01*
X2581D02*
X2599D01*
X2713D02*
X2983D01*
X3005D02*
X3015D01*
X2415Y1110D02*
X2425D01*
X2447D02*
X2465D01*
X2571D02*
X2609D01*
X2715D02*
X2983D01*
X3005D02*
X3015D01*
X2415Y1108D02*
X2425D01*
X2447D02*
X2463D01*
X2565D02*
X2615D01*
X2717D02*
X2983D01*
X3005D02*
X3015D01*
X2415Y1106D02*
X2425D01*
X2447D02*
X2463D01*
X2559D02*
X2621D01*
X2717D02*
X2983D01*
X3005D02*
X3015D01*
X2415Y1104D02*
X2425D01*
X2447D02*
X2461D01*
X2557D02*
X2621D01*
X2719D02*
X2983D01*
X3005D02*
X3015D01*
X2415Y1102D02*
X2425D01*
X3005D02*
X3015D01*
X2415Y1100D02*
X2425D01*
X3005D02*
X3015D01*
X2415Y1098D02*
X2425D01*
X3005D02*
X3015D01*
X2415Y1096D02*
X2425D01*
X3005D02*
X3015D01*
X2415Y1094D02*
X2425D01*
X3005D02*
X3015D01*
X2415Y1092D02*
X2425D01*
X3005D02*
X3015D01*
X2415Y1090D02*
X2425D01*
X2447D02*
X2455D01*
X2537D02*
X2643D01*
X2725D02*
X2983D01*
X3005D02*
X3015D01*
X2415Y1088D02*
X2425D01*
X2447D02*
X2455D01*
X2535D02*
X2645D01*
X2725D02*
X2983D01*
X3005D02*
X3015D01*
X2415Y1086D02*
X2425D01*
X2447D02*
X2455D01*
X2533D02*
X2647D01*
X2725D02*
X2983D01*
X3005D02*
X3015D01*
X2415Y1084D02*
X2425D01*
X2447D02*
X2453D01*
X2531D02*
X2649D01*
X2725D02*
X2983D01*
X3005D02*
X3015D01*
X2415Y1082D02*
X2425D01*
X2447D02*
X2453D01*
X2529D02*
X2649D01*
X2727D02*
X2983D01*
X3005D02*
X3015D01*
X2415Y1080D02*
X2425D01*
X2447D02*
X2453D01*
X2529D02*
X2651D01*
X2727D02*
X2983D01*
X3005D02*
X3015D01*
X2415Y1078D02*
X2425D01*
X2447D02*
X2451D01*
X2527D02*
X2653D01*
X2727D02*
X2983D01*
X3005D02*
X3015D01*
X2415Y1076D02*
X2425D01*
X2447D02*
X2451D01*
X2527D02*
X2653D01*
X2729D02*
X2981D01*
X3005D02*
X3015D01*
X2415Y1074D02*
X2425D01*
X3005D02*
X3015D01*
X2415Y1072D02*
X2425D01*
X3005D02*
X3015D01*
X2415Y1070D02*
X2425D01*
X3005D02*
X3015D01*
X2415Y1068D02*
X2425D01*
X3005D02*
X3015D01*
X2415Y1066D02*
X2425D01*
X3005D02*
X3015D01*
X2415Y1064D02*
X2425D01*
X3005D02*
X3015D01*
X2415Y1062D02*
X2425D01*
X2521D02*
X2659D01*
X2731D02*
X2983D01*
X3005D02*
X3015D01*
X2415Y1060D02*
X2425D01*
X2519D02*
X2659D01*
X2731D02*
X2983D01*
X3005D02*
X3015D01*
X2415Y1058D02*
X2425D01*
X2519D02*
X2661D01*
X2731D02*
X2983D01*
X3005D02*
X3015D01*
X2415Y1056D02*
X2425D01*
X2519D02*
X2661D01*
X2731D02*
X2983D01*
X3005D02*
X3015D01*
X2415Y1054D02*
X2425D01*
X2519D02*
X2661D01*
X2731D02*
X2983D01*
X3005D02*
X3015D01*
X2415Y1052D02*
X2425D01*
X2519D02*
X2661D01*
X2731D02*
X2983D01*
X3005D02*
X3015D01*
X2415Y1050D02*
X2425D01*
X2519D02*
X2661D01*
X2731D02*
X2983D01*
X3005D02*
X3015D01*
X2415Y1048D02*
X2425D01*
X3005D02*
X3015D01*
X2415Y1046D02*
X2425D01*
X3005D02*
X3015D01*
X2415Y1044D02*
X2425D01*
X3005D02*
X3015D01*
X2415Y1042D02*
X2425D01*
X3005D02*
X3015D01*
X2415Y1040D02*
X2425D01*
X3005D02*
X3015D01*
X2415Y1038D02*
X2425D01*
X3005D02*
X3015D01*
X2415Y1036D02*
X2425D01*
X3005D02*
X3015D01*
X2415Y1034D02*
X2425D01*
X2517D02*
X2983D01*
X3005D02*
X3015D01*
X2415Y1032D02*
X2425D01*
X2517D02*
X2983D01*
X3005D02*
X3015D01*
X2415Y1030D02*
X2425D01*
X2517D02*
X2983D01*
X3005D02*
X3015D01*
X2415Y1028D02*
X2425D01*
X2517D02*
X2983D01*
X3005D02*
X3015D01*
X2415Y1026D02*
X2425D01*
X2517D02*
X2983D01*
X3005D02*
X3015D01*
X2415Y1024D02*
X2425D01*
X2517D02*
X2983D01*
X3005D02*
X3015D01*
X2415Y1022D02*
X2425D01*
X2519D02*
X2983D01*
X3005D02*
X3015D01*
X2415Y1020D02*
X2425D01*
X3005D02*
X3015D01*
X2415Y1018D02*
X2425D01*
X3005D02*
X3015D01*
X2415Y1016D02*
X2425D01*
X3005D02*
X3015D01*
X2415Y1014D02*
X2425D01*
X3005D02*
X3015D01*
X2415Y1012D02*
X2425D01*
X3005D02*
X3015D01*
X2415Y1010D02*
X2425D01*
X3005D02*
X3015D01*
X2415Y1008D02*
X2425D01*
X2519D02*
X2983D01*
X3005D02*
X3015D01*
X2415Y1006D02*
X2425D01*
X2517D02*
X2983D01*
X3005D02*
X3015D01*
X2415Y1004D02*
X2425D01*
X2517D02*
X2983D01*
X3005D02*
X3015D01*
X2415Y1002D02*
X2425D01*
X2517D02*
X2983D01*
X3005D02*
X3015D01*
X2415Y1000D02*
X2425D01*
X2517D02*
X2983D01*
X3005D02*
X3015D01*
X2415Y998D02*
X2425D01*
X2517D02*
X2983D01*
X3005D02*
X3015D01*
X2415Y996D02*
X2425D01*
X2517D02*
X2983D01*
X3005D02*
X3015D01*
X2415Y994D02*
X2425D01*
X2519D02*
X2981D01*
X3005D02*
X3015D01*
X2415Y992D02*
X2425D01*
X3005D02*
X3015D01*
X2415Y990D02*
X2425D01*
X3005D02*
X3015D01*
X2415Y988D02*
X2425D01*
X3005D02*
X3015D01*
X2415Y986D02*
X2425D01*
X3005D02*
X3015D01*
X2415Y984D02*
X2425D01*
X3005D02*
X3015D01*
X2415Y982D02*
X2425D01*
X3005D02*
X3015D01*
X2415Y980D02*
X2425D01*
X2583D02*
X2983D01*
X3005D02*
X3015D01*
X2415Y978D02*
X2425D01*
X2583D02*
X2983D01*
X3005D02*
X3015D01*
X2415Y976D02*
X2425D01*
X2583D02*
X2983D01*
X3005D02*
X3015D01*
X2415Y974D02*
X2425D01*
X2583D02*
X2983D01*
X3005D02*
X3015D01*
X2415Y972D02*
X2425D01*
X2583D02*
X2983D01*
X3005D02*
X3015D01*
X2415Y970D02*
X2425D01*
X2583D02*
X2983D01*
X3005D02*
X3015D01*
X2415Y968D02*
X2425D01*
X2583D02*
X2983D01*
X3005D02*
X3015D01*
X2415Y966D02*
X2425D01*
X3005D02*
X3015D01*
X2415Y964D02*
X2425D01*
X3005D02*
X3015D01*
X2415Y962D02*
X2425D01*
X3005D02*
X3015D01*
X2415Y960D02*
X2425D01*
X3005D02*
X3015D01*
X2415Y958D02*
X2425D01*
X3005D02*
X3015D01*
X2415Y956D02*
X2425D01*
X3005D02*
X3015D01*
X2415Y954D02*
X2425D01*
X3005D02*
X3015D01*
X2415Y952D02*
X2425D01*
X2583D02*
X2983D01*
X3005D02*
X3015D01*
X2415Y950D02*
X2425D01*
X2583D02*
X2983D01*
X3005D02*
X3015D01*
X2415Y948D02*
X2425D01*
X2583D02*
X2983D01*
X3005D02*
X3015D01*
X2415Y946D02*
X2425D01*
X2583D02*
X2983D01*
X3005D02*
X3015D01*
X2415Y944D02*
X2425D01*
X2583D02*
X2983D01*
X3005D02*
X3015D01*
X2415Y942D02*
X2425D01*
X2583D02*
X2983D01*
X3005D02*
X3015D01*
X2415Y940D02*
X2425D01*
X2583D02*
X2983D01*
X3005D02*
X3015D01*
X2415Y938D02*
X2425D01*
X3005D02*
X3015D01*
X2415Y936D02*
X2425D01*
X3005D02*
X3015D01*
X2415Y934D02*
X2425D01*
X3005D02*
X3015D01*
X2415Y932D02*
X2425D01*
X3005D02*
X3015D01*
X2415Y930D02*
X2425D01*
X3005D02*
X3015D01*
X2415Y928D02*
X2425D01*
X3005D02*
X3015D01*
X2415Y926D02*
X2425D01*
X2519D02*
X2983D01*
X3005D02*
X3015D01*
X2415Y924D02*
X2425D01*
X2517D02*
X2983D01*
X3005D02*
X3015D01*
X2415Y922D02*
X2425D01*
X2517D02*
X2983D01*
X3005D02*
X3015D01*
X2415Y920D02*
X2425D01*
X2517D02*
X2983D01*
X3005D02*
X3015D01*
X2415Y918D02*
X2425D01*
X2517D02*
X2983D01*
X3005D02*
X3015D01*
X2415Y916D02*
X2425D01*
X2517D02*
X2983D01*
X3005D02*
X3015D01*
X2415Y914D02*
X2425D01*
X2517D02*
X2983D01*
X3005D02*
X3015D01*
X2415Y912D02*
X2425D01*
X3005D02*
X3015D01*
X2415Y910D02*
X2425D01*
X3005D02*
X3015D01*
X2415Y908D02*
X2425D01*
X3005D02*
X3015D01*
X2415Y906D02*
X2425D01*
X3005D02*
X3015D01*
X2415Y904D02*
X2425D01*
X3005D02*
X3015D01*
X2415Y902D02*
X2425D01*
X3005D02*
X3015D01*
X2415Y900D02*
X2425D01*
X3005D02*
X3015D01*
X2415Y898D02*
X2425D01*
X2517D02*
X2983D01*
X3005D02*
X3015D01*
X2415Y896D02*
X2425D01*
X2517D02*
X2983D01*
X3005D02*
X3015D01*
X2415Y894D02*
X2425D01*
X2517D02*
X2983D01*
X3005D02*
X3015D01*
X2415Y892D02*
X2425D01*
X2517D02*
X2983D01*
X3005D02*
X3015D01*
X2415Y890D02*
X2425D01*
X2517D02*
X2983D01*
X3005D02*
X3015D01*
X2415Y888D02*
X2425D01*
X2517D02*
X2983D01*
X3005D02*
X3015D01*
X2415Y886D02*
X2425D01*
X2519D02*
X2983D01*
X3005D02*
X3015D01*
X2415Y884D02*
X2425D01*
X3005D02*
X3015D01*
X2415Y882D02*
X2425D01*
X3005D02*
X3015D01*
X2415Y880D02*
X2425D01*
X3005D02*
X3015D01*
X2415Y878D02*
X2425D01*
X3005D02*
X3015D01*
X2415Y876D02*
X2425D01*
X3005D02*
X3015D01*
X2415Y874D02*
X2425D01*
X3005D02*
X3015D01*
X2415Y872D02*
X2425D01*
X3005D02*
X3015D01*
X2415Y870D02*
X2425D01*
X2517D02*
X2983D01*
X3005D02*
X3015D01*
X2415Y868D02*
X2425D01*
X2517D02*
X2983D01*
X3005D02*
X3015D01*
X2415Y866D02*
X2425D01*
X2517D02*
X2983D01*
X3005D02*
X3015D01*
X2415Y864D02*
X2425D01*
X2517D02*
X2983D01*
X3005D02*
X3015D01*
X2415Y862D02*
X2425D01*
X2517D02*
X2983D01*
X3005D02*
X3015D01*
X2415Y860D02*
X2425D01*
X2517D02*
X2983D01*
X3005D02*
X3015D01*
X2415Y858D02*
X2425D01*
X2519D02*
X2983D01*
X3005D02*
X3015D01*
X2415Y856D02*
X2425D01*
X3005D02*
X3015D01*
X2415Y854D02*
X2425D01*
X3005D02*
X3015D01*
X2415Y852D02*
X2425D01*
X3005D02*
X3015D01*
X2415Y850D02*
X2425D01*
X3005D02*
X3015D01*
X2415Y848D02*
X2425D01*
X3005D02*
X3015D01*
X2415Y846D02*
X2425D01*
X3005D02*
X3015D01*
X2415Y844D02*
X2425D01*
X3005D02*
X3015D01*
X2415Y842D02*
X2425D01*
X3005D02*
X3015D01*
X2415Y840D02*
X2425D01*
X2519D02*
X2983D01*
X3005D02*
X3015D01*
X2415Y838D02*
X2425D01*
X2517D02*
X2983D01*
X3005D02*
X3015D01*
X2415Y836D02*
X2425D01*
X2517D02*
X2983D01*
X3005D02*
X3015D01*
X2415Y834D02*
X2425D01*
X2517D02*
X2983D01*
X3005D02*
X3015D01*
X2415Y832D02*
X2425D01*
X2517D02*
X2983D01*
X3005D02*
X3015D01*
X2415Y830D02*
X2425D01*
X2517D02*
X2983D01*
X3005D02*
X3015D01*
X2415Y828D02*
X2425D01*
X2517D02*
X2983D01*
X3005D02*
X3015D01*
X2415Y826D02*
X2425D01*
X2517D02*
X2697D01*
X2703D02*
X2807D01*
X2813D02*
X2983D01*
X3005D02*
X3015D01*
X2415Y824D02*
X2425D01*
X2517D02*
X2697D01*
X2703D02*
X2807D01*
X2813D02*
X2983D01*
X3005D02*
X3015D01*
X2415Y822D02*
X2425D01*
X2517D02*
X2697D01*
X2703D02*
X2807D01*
X2813D02*
X2983D01*
X3005D02*
X3015D01*
X2415Y820D02*
X2425D01*
X2517D02*
X2697D01*
X2703D02*
X2807D01*
X2813D02*
X2983D01*
X3005D02*
X3015D01*
X2415Y818D02*
X2425D01*
X2517D02*
X2697D01*
X2703D02*
X2807D01*
X2813D02*
X2983D01*
X3005D02*
X3015D01*
X2415Y816D02*
X2425D01*
X2517D02*
X2697D01*
X2703D02*
X2807D01*
X2813D02*
X2983D01*
X3005D02*
X3015D01*
X2415Y814D02*
X2425D01*
X2517D02*
X2547D01*
X2553D02*
X2567D01*
X2573D02*
X2613D01*
X2619D02*
X2625D01*
X2633D02*
X2683D01*
X2693D02*
X2699D01*
X2703D02*
X2749D01*
X2761D02*
X2807D01*
X2813D02*
X2859D01*
X2869D02*
X2923D01*
X2933D02*
X2983D01*
X3005D02*
X3015D01*
X2415Y812D02*
X2425D01*
X2517D02*
X2547D01*
X2553D02*
X2567D01*
X2573D02*
X2613D01*
X2619D02*
X2621D01*
X2637D02*
X2681D01*
X2695D02*
X2699D01*
X2703D02*
X2747D01*
X2763D02*
X2807D01*
X2813D02*
X2855D01*
X2873D02*
X2919D01*
X2937D02*
X2983D01*
X3005D02*
X3015D01*
X2415Y810D02*
X2425D01*
X2517D02*
X2547D01*
X2553D02*
X2567D01*
X2573D02*
X2613D01*
X2623D02*
X2629D01*
X2637D02*
X2679D01*
X2689D02*
X2693D01*
X2703D02*
X2745D01*
X2753D02*
X2757D01*
X2765D02*
X2807D01*
X2813D02*
X2855D01*
X2863D02*
X2867D01*
X2875D02*
X2917D01*
X2925D02*
X2929D01*
X2939D02*
X2983D01*
X3005D02*
X3015D01*
X2415Y808D02*
X2425D01*
X2517D02*
X2547D01*
X2553D02*
X2567D01*
X2573D02*
X2613D01*
X2621D02*
X2631D01*
X2637D02*
X2679D01*
X2685D02*
X2695D01*
X2703D02*
X2743D01*
X2749D02*
X2761D01*
X2765D02*
X2807D01*
X2813D02*
X2853D01*
X2859D02*
X2869D01*
X2875D02*
X2915D01*
X2923D02*
X2933D01*
X2939D02*
X2983D01*
X3005D02*
X3015D01*
X2415Y806D02*
X2425D01*
X2517D02*
X2547D01*
X2553D02*
X2567D01*
X2573D02*
X2613D01*
X2619D02*
X2631D01*
X2637D02*
X2677D01*
X2685D02*
X2697D01*
X2703D02*
X2743D01*
X2749D02*
X2761D01*
X2767D02*
X2807D01*
X2813D02*
X2853D01*
X2859D02*
X2871D01*
X2875D02*
X2915D01*
X2921D02*
X2933D01*
X2935D02*
X2983D01*
X3005D02*
X3015D01*
X2415Y804D02*
X2425D01*
X2517D02*
X2547D01*
X2553D02*
X2567D01*
X2573D02*
X2613D01*
X2619D02*
X2631D01*
X2637D02*
X2677D01*
X2683D02*
X2697D01*
X2703D02*
X2743D01*
X2749D02*
X2761D01*
X2767D02*
X2807D01*
X2813D02*
X2851D01*
X2857D02*
X2871D01*
X2877D02*
X2915D01*
X2921D02*
X2983D01*
X3005D02*
X3015D01*
X2415Y802D02*
X2425D01*
X2517D02*
X2547D01*
X2553D02*
X2567D01*
X2573D02*
X2613D01*
X2619D02*
X2633D01*
X2637D02*
X2677D01*
X2683D02*
X2697D01*
X2703D02*
X2743D01*
X2749D02*
X2761D01*
X2767D02*
X2807D01*
X2813D02*
X2851D01*
X2857D02*
X2871D01*
X2877D02*
X2915D01*
X2921D02*
X2983D01*
X3005D02*
X3015D01*
X2415Y800D02*
X2425D01*
X2517D02*
X2547D01*
X2553D02*
X2567D01*
X2573D02*
X2613D01*
X2619D02*
X2633D01*
X2637D02*
X2677D01*
X2683D02*
X2697D01*
X2703D02*
X2743D01*
X2767D02*
X2807D01*
X2813D02*
X2851D01*
X2877D02*
X2915D01*
X2921D02*
X2983D01*
X3005D02*
X3015D01*
X2415Y798D02*
X2425D01*
X2517D02*
X2547D01*
X2553D02*
X2567D01*
X2573D02*
X2613D01*
X2619D02*
X2633D01*
X2637D02*
X2677D01*
X2683D02*
X2697D01*
X2703D02*
X2743D01*
X2749D02*
X2807D01*
X2813D02*
X2851D01*
X2857D02*
X2915D01*
X2921D02*
X2983D01*
X3005D02*
X3015D01*
X2415Y796D02*
X2425D01*
X2517D02*
X2547D01*
X2553D02*
X2565D01*
X2573D02*
X2613D01*
X2619D02*
X2633D01*
X2637D02*
X2677D01*
X2683D02*
X2697D01*
X2703D02*
X2743D01*
X2749D02*
X2807D01*
X2813D02*
X2851D01*
X2857D02*
X2915D01*
X2921D02*
X2983D01*
X3005D02*
X3015D01*
X2415Y794D02*
X2425D01*
X2517D02*
X2547D01*
X2553D02*
X2565D01*
X2573D02*
X2613D01*
X2619D02*
X2633D01*
X2637D02*
X2677D01*
X2683D02*
X2697D01*
X2703D02*
X2743D01*
X2749D02*
X2807D01*
X2813D02*
X2853D01*
X2859D02*
X2915D01*
X2921D02*
X2933D01*
X2939D02*
X2983D01*
X3005D02*
X3015D01*
X2415Y792D02*
X2425D01*
X2517D02*
X2547D01*
X2553D02*
X2565D01*
X2573D02*
X2613D01*
X2619D02*
X2633D01*
X2637D02*
X2679D01*
X2685D02*
X2695D01*
X2703D02*
X2743D01*
X2749D02*
X2761D01*
X2767D02*
X2807D01*
X2813D02*
X2853D01*
X2859D02*
X2869D01*
X2875D02*
X2915D01*
X2923D02*
X2933D01*
X2939D02*
X2983D01*
X3005D02*
X3015D01*
X2415Y790D02*
X2425D01*
X2517D02*
X2547D01*
X2555D02*
X2563D01*
X2573D02*
X2613D01*
X2619D02*
X2633D01*
X2637D02*
X2679D01*
X2687D02*
X2693D01*
X2703D02*
X2745D01*
X2751D02*
X2759D01*
X2767D02*
X2807D01*
X2813D02*
X2853D01*
X2861D02*
X2869D01*
X2875D02*
X2917D01*
X2925D02*
X2931D01*
X2939D02*
X2983D01*
X3005D02*
X3015D01*
X2415Y788D02*
X2425D01*
X2517D02*
X2549D01*
X2563D02*
X2567D01*
X2573D02*
X2613D01*
X2619D02*
X2633D01*
X2637D02*
X2681D01*
X2703D02*
X2745D01*
X2765D02*
X2807D01*
X2813D02*
X2855D01*
X2873D02*
X2919D01*
X2937D02*
X2983D01*
X3005D02*
X3015D01*
X2415Y786D02*
X2425D01*
X2517D02*
X2551D01*
X2561D02*
X2567D01*
X2573D02*
X2613D01*
X2619D02*
X2631D01*
X2639D02*
X2683D01*
X2693D02*
X2699D01*
X2703D02*
X2749D01*
X2763D02*
X2807D01*
X2813D02*
X2857D01*
X2871D02*
X2921D01*
X2935D02*
X2983D01*
X3005D02*
X3015D01*
X2415Y784D02*
X2425D01*
X2517D02*
X2983D01*
X3005D02*
X3015D01*
X2415Y782D02*
X2425D01*
X2517D02*
X2983D01*
X3005D02*
X3015D01*
X2415Y780D02*
X2425D01*
X2517D02*
X2983D01*
X3005D02*
X3015D01*
X2415Y778D02*
X2425D01*
X2517D02*
X2983D01*
X3005D02*
X3015D01*
X2415Y776D02*
X2425D01*
X2517D02*
X2983D01*
X3005D02*
X3015D01*
X2415Y774D02*
X2425D01*
X2517D02*
X2983D01*
X3005D02*
X3015D01*
X2415Y772D02*
X2425D01*
X2517D02*
X2983D01*
X3005D02*
X3015D01*
X2415Y770D02*
X2425D01*
X2519D02*
X2983D01*
X3005D02*
X3015D01*
X2415Y768D02*
X2425D01*
X3005D02*
X3015D01*
X2415Y766D02*
X2425D01*
X3005D02*
X3015D01*
X2415Y764D02*
X2425D01*
X3005D02*
X3015D01*
X2415Y762D02*
X2425D01*
X3005D02*
X3015D01*
X2415Y760D02*
X2425D01*
X3005D02*
X3015D01*
X2415Y758D02*
X2425D01*
X3005D02*
X3015D01*
X2415Y756D02*
X2425D01*
X3005D02*
X3015D01*
X2415Y754D02*
X2425D01*
X3005D02*
X3015D01*
X2415Y752D02*
X2425D01*
X3005D02*
X3015D01*
X2415Y750D02*
X3015D01*
X2415Y748D02*
X3015D01*
X2415Y746D02*
X3015D01*
X2415Y744D02*
X3015D01*
D39*
X2730Y2958D02*
Y3002D01*
X2925Y2958D02*
Y3002D01*
X3174Y1400D02*
X3226D01*
X3105Y1846D02*
Y1893D01*
X2852D02*
X3089D01*
X2852Y1799D02*
Y1893D01*
Y1799D02*
X3089D01*
X3105D02*
Y1846D01*
X3089Y1799D02*
X3105D01*
X3089Y1893D02*
X3105D01*
Y1799D02*
X3128D01*
Y1893D01*
X3105D02*
X3128D01*
X3048Y1535D02*
X3118D01*
X3048Y1731D02*
X3118D01*
Y1535D02*
Y1731D01*
X3048Y1535D02*
Y1731D01*
X2467Y1535D02*
X2538D01*
X2467Y1731D02*
X2538D01*
Y1535D02*
Y1731D01*
X2467Y1535D02*
Y1731D01*
X2486Y1897D02*
X2509D01*
Y1803D02*
Y1897D01*
X2486Y1803D02*
X2509D01*
X2470Y1897D02*
X2486D01*
X2470Y1803D02*
X2486D01*
Y1850D01*
X2234Y1803D02*
X2470D01*
X2234D02*
Y1897D01*
X2470D01*
X2486Y1850D02*
Y1897D01*
X2929Y2541D02*
Y2641D01*
X2529Y2541D02*
X2929D01*
X2529Y2641D02*
X2929D01*
X2529Y2541D02*
Y2641D01*
Y2741D01*
X2929D01*
X2529Y2641D02*
X2929D01*
Y2741D01*
X2265Y3010D02*
X2465D01*
X2265Y2910D02*
Y3010D01*
Y2910D02*
X2465D01*
Y3010D01*
D40*
X2787Y1952D02*
Y2082D01*
X2787Y2082D01*
X2897D01*
X2913Y2098D01*
Y2314D01*
X2897Y2330D02*
X2913Y2314D01*
X2787Y2330D02*
X2897D01*
X2787D02*
Y2452D01*
X3283Y2326D02*
Y2452D01*
X3161Y2326D02*
X3283D01*
X3153Y2318D02*
X3161Y2326D01*
X3153Y2086D02*
Y2318D01*
Y2086D02*
X3161Y2078D01*
X3283D01*
Y1952D02*
Y2078D01*
X2787Y2452D02*
X2925D01*
X2787Y1952D02*
X2929D01*
X2925Y2452D02*
X3145D01*
X2925D02*
X2925Y2452D01*
X2929Y1952D02*
X2929Y1952D01*
X3141D01*
X3141Y2452D02*
X3283D01*
X3141Y1952D02*
X3283D01*
X3145Y2452D02*
X3145Y2452D01*
X3141Y1952D02*
X3141Y1952D01*
X2178D02*
Y2082D01*
X2178Y2082D01*
X2288D01*
X2304Y2098D01*
Y2314D01*
X2288Y2330D02*
X2304Y2314D01*
X2178Y2330D02*
X2288D01*
X2178D02*
Y2452D01*
X2674Y2326D02*
Y2452D01*
X2552Y2326D02*
X2674D01*
X2544Y2318D02*
X2552Y2326D01*
X2544Y2086D02*
Y2318D01*
Y2086D02*
X2552Y2078D01*
X2674D01*
Y1952D02*
Y2078D01*
X2178Y2452D02*
X2316D01*
X2178Y1952D02*
X2320D01*
X2316Y2452D02*
X2536D01*
X2316D02*
X2316Y2452D01*
X2320Y1952D02*
X2320Y1952D01*
X2532D01*
X2532Y2452D02*
X2674D01*
X2532Y1952D02*
X2674D01*
X2536Y2452D02*
X2536Y2452D01*
X2532Y1952D02*
X2532Y1952D01*
X3010Y2713D02*
X2997D01*
X2990Y2706D01*
Y2680D01*
X2997Y2673D01*
X3010D01*
X3017Y2680D01*
Y2706D01*
X3010Y2713D01*
X3030Y2700D02*
Y2680D01*
X3037Y2673D01*
X3057D01*
Y2700D01*
X3077Y2706D02*
Y2700D01*
X3070D01*
X3083D01*
X3077D01*
Y2680D01*
X3083Y2673D01*
X3103D02*
X3117D01*
X3110D01*
Y2713D01*
X3103Y2706D01*
X1739Y1269D02*
Y1309D01*
X1679D01*
Y1269D01*
X1709Y1309D02*
Y1289D01*
X1729Y1209D02*
X1739Y1219D01*
Y1239D01*
X1729Y1249D01*
X1719D01*
X1709Y1239D01*
Y1219D01*
X1699Y1209D01*
X1689D01*
X1679Y1219D01*
Y1239D01*
X1689Y1249D01*
X1729Y1149D02*
X1739Y1159D01*
Y1179D01*
X1729Y1189D01*
X1689D01*
X1679Y1179D01*
Y1159D01*
X1689Y1149D01*
X1739Y1089D02*
X1729Y1109D01*
X1709Y1129D01*
X1689D01*
X1679Y1119D01*
Y1099D01*
X1689Y1089D01*
X1699D01*
X1709Y1099D01*
Y1129D01*
X1748Y2186D02*
Y2226D01*
X1688D01*
Y2186D01*
X1718Y2226D02*
Y2206D01*
X1738Y2126D02*
X1748Y2136D01*
Y2156D01*
X1738Y2166D01*
X1728D01*
X1718Y2156D01*
Y2136D01*
X1708Y2126D01*
X1698D01*
X1688Y2136D01*
Y2156D01*
X1698Y2166D01*
X1738Y2066D02*
X1748Y2076D01*
Y2096D01*
X1738Y2106D01*
X1698D01*
X1688Y2096D01*
Y2076D01*
X1698Y2066D01*
X1748Y2006D02*
Y2046D01*
X1718D01*
X1728Y2026D01*
Y2016D01*
X1718Y2006D01*
X1698D01*
X1688Y2016D01*
Y2036D01*
X1698Y2046D01*
X3693Y2042D02*
Y2002D01*
X3753D01*
Y2042D01*
X3723Y2002D02*
Y2022D01*
X3703Y2102D02*
X3693Y2092D01*
Y2072D01*
X3703Y2062D01*
X3713D01*
X3723Y2072D01*
Y2092D01*
X3733Y2102D01*
X3743D01*
X3753Y2092D01*
Y2072D01*
X3743Y2062D01*
X3703Y2162D02*
X3693Y2152D01*
Y2132D01*
X3703Y2122D01*
X3743D01*
X3753Y2132D01*
Y2152D01*
X3743Y2162D01*
X3753Y2212D02*
X3693D01*
X3723Y2182D01*
Y2222D01*
X3724Y1145D02*
Y1105D01*
X3784D01*
Y1145D01*
X3754Y1105D02*
Y1125D01*
X3734Y1205D02*
X3724Y1195D01*
Y1175D01*
X3734Y1165D01*
X3744D01*
X3754Y1175D01*
Y1195D01*
X3764Y1205D01*
X3774D01*
X3784Y1195D01*
Y1175D01*
X3774Y1165D01*
X3734Y1265D02*
X3724Y1255D01*
Y1235D01*
X3734Y1225D01*
X3774D01*
X3784Y1235D01*
Y1255D01*
X3774Y1265D01*
X3734Y1285D02*
X3724Y1295D01*
Y1315D01*
X3734Y1325D01*
X3744D01*
X3754Y1315D01*
Y1305D01*
Y1315D01*
X3764Y1325D01*
X3774D01*
X3784Y1315D01*
Y1295D01*
X3774Y1285D01*
X3474Y698D02*
X3434D01*
Y638D01*
X3474D01*
X3434Y668D02*
X3454D01*
X3534Y688D02*
X3524Y698D01*
X3504D01*
X3494Y688D01*
Y678D01*
X3504Y668D01*
X3524D01*
X3534Y658D01*
Y648D01*
X3524Y638D01*
X3504D01*
X3494Y648D01*
X3594Y688D02*
X3584Y698D01*
X3564D01*
X3554Y688D01*
Y648D01*
X3564Y638D01*
X3584D01*
X3594Y648D01*
X3654Y638D02*
X3614D01*
X3654Y678D01*
Y688D01*
X3644Y698D01*
X3624D01*
X3614Y688D01*
X1820Y713D02*
X1780D01*
Y653D01*
X1820D01*
X1780Y683D02*
X1800D01*
X1880Y703D02*
X1870Y713D01*
X1850D01*
X1840Y703D01*
Y693D01*
X1850Y683D01*
X1870D01*
X1880Y673D01*
Y663D01*
X1870Y653D01*
X1850D01*
X1840Y663D01*
X1940Y703D02*
X1930Y713D01*
X1910D01*
X1900Y703D01*
Y663D01*
X1910Y653D01*
X1930D01*
X1940Y663D01*
X1960Y653D02*
X1980D01*
X1970D01*
Y713D01*
X1960Y703D01*
X2647Y536D02*
Y476D01*
X2677D01*
X2687Y486D01*
Y496D01*
X2677Y506D01*
X2647D01*
X2677D01*
X2687Y516D01*
Y526D01*
X2677Y536D01*
X2647D01*
X2717Y516D02*
X2737D01*
X2747Y506D01*
Y476D01*
X2717D01*
X2707Y486D01*
X2717Y496D01*
X2747D01*
X2777Y526D02*
Y516D01*
X2767D01*
X2787D01*
X2777D01*
Y486D01*
X2787Y476D01*
X2013Y2757D02*
Y2717D01*
X1993Y2697D01*
X1973Y2717D01*
Y2757D01*
Y2727D01*
X2013D01*
X1953Y2697D02*
Y2747D01*
X1943Y2757D01*
X1923D01*
X1913Y2747D01*
Y2697D01*
X1893D02*
X1853Y2757D01*
Y2697D02*
X1893Y2757D01*
X1833D02*
X1813D01*
X1823D01*
Y2697D01*
X1833Y2707D01*
X3003Y2618D02*
X2990D01*
X2983Y2611D01*
Y2585D01*
X2990Y2578D01*
X3003D01*
X3010Y2585D01*
Y2611D01*
X3003Y2618D01*
X3023Y2605D02*
Y2585D01*
X3030Y2578D01*
X3050D01*
Y2605D01*
X3070Y2611D02*
Y2605D01*
X3063D01*
X3077D01*
X3070D01*
Y2585D01*
X3077Y2578D01*
X3123D02*
X3097D01*
X3123Y2605D01*
Y2611D01*
X3117Y2618D01*
X3103D01*
X3097Y2611D01*
X3686Y2730D02*
Y2690D01*
X3666Y2670D01*
X3646Y2690D01*
Y2730D01*
Y2700D01*
X3686D01*
X3626Y2670D02*
Y2720D01*
X3616Y2730D01*
X3596D01*
X3586Y2720D01*
Y2670D01*
X3566D02*
X3526Y2730D01*
Y2670D02*
X3566Y2730D01*
X3466D02*
X3506D01*
X3466Y2690D01*
Y2680D01*
X3476Y2670D01*
X3496D01*
X3506Y2680D01*
X2579Y2759D02*
Y2786D01*
X2566Y2772D02*
X2592D01*
X2599Y2799D02*
Y2812D01*
Y2806D01*
X2559D01*
X2566Y2799D01*
X2599Y2859D02*
Y2832D01*
X2572Y2859D01*
X2566D01*
X2559Y2852D01*
Y2839D01*
X2566Y2832D01*
X2559Y2872D02*
X2586D01*
X2599Y2886D01*
X2586Y2899D01*
X2559D01*
X2666Y2791D02*
X2659Y2784D01*
Y2771D01*
X2666Y2764D01*
X2692D01*
X2699Y2771D01*
Y2784D01*
X2692Y2791D01*
X2679D01*
Y2777D01*
X2699Y2804D02*
X2659D01*
X2699Y2831D01*
X2659D01*
Y2844D02*
X2699D01*
Y2864D01*
X2692Y2871D01*
X2666D01*
X2659Y2864D01*
Y2844D01*
X2866Y2787D02*
X2859Y2780D01*
Y2767D01*
X2866Y2760D01*
X2892D01*
X2899Y2767D01*
Y2780D01*
X2892Y2787D01*
X2879D01*
Y2773D01*
X2899Y2800D02*
X2859D01*
X2899Y2827D01*
X2859D01*
Y2840D02*
X2899D01*
Y2860D01*
X2892Y2867D01*
X2866D01*
X2859Y2860D01*
Y2840D01*
X2779Y2755D02*
Y2782D01*
X2766Y2768D02*
X2792D01*
X2759Y2822D02*
Y2795D01*
X2779D01*
X2772Y2808D01*
Y2815D01*
X2779Y2822D01*
X2792D01*
X2799Y2815D01*
Y2802D01*
X2792Y2795D01*
X2759Y2835D02*
X2786D01*
X2799Y2848D01*
X2786Y2862D01*
X2759D01*
X2526Y613D02*
X2546D01*
X2536D01*
Y673D01*
X2526Y663D01*
X2616Y673D02*
X2596Y663D01*
X2576Y643D01*
Y623D01*
X2586Y613D01*
X2606D01*
X2616Y623D01*
Y633D01*
X2606Y643D01*
X2576D01*
X2636Y673D02*
Y633D01*
X2656Y613D01*
X2676Y633D01*
Y673D01*
X2696Y643D02*
X2736D01*
X2796Y613D02*
X2756D01*
X2796Y653D01*
Y663D01*
X2786Y673D01*
X2766D01*
X2756Y663D01*
X2856Y673D02*
X2836Y663D01*
X2816Y643D01*
Y623D01*
X2826Y613D01*
X2846D01*
X2856Y623D01*
Y633D01*
X2846Y643D01*
X2816D01*
X2876Y673D02*
Y633D01*
X2896Y613D01*
X2916Y633D01*
Y673D01*
D41*
X3149Y2992D02*
Y2962D01*
X3134D01*
X3129Y2967D01*
Y2977D01*
X3134Y2982D01*
X3149D01*
X3139D02*
X3129Y2992D01*
X3119Y2997D02*
X3099D01*
X3089Y2962D02*
Y2992D01*
X3069D01*
X3039Y2962D02*
X3059D01*
Y2992D01*
X3039D01*
X3059Y2977D02*
X3049D01*
X3029Y2962D02*
Y2992D01*
X3014D01*
X3009Y2987D01*
Y2967D01*
X3014Y2962D01*
X3029D01*
X2845Y2900D02*
Y2930D01*
X2825D01*
X2795Y2900D02*
X2815D01*
Y2930D01*
X2795D01*
X2815Y2915D02*
X2805D01*
X2785Y2900D02*
Y2930D01*
X2770D01*
X2765Y2925D01*
Y2905D01*
X2770Y2900D01*
X2785D01*
X2755Y2935D02*
X2735D01*
X2725Y2900D02*
Y2930D01*
X2710D01*
X2705Y2925D01*
Y2920D01*
X2710Y2915D01*
X2725D01*
X2710D01*
X2705Y2910D01*
Y2905D01*
X2710Y2900D01*
X2725D01*
X2690Y2910D02*
X2680D01*
X2675Y2915D01*
Y2930D01*
X2690D01*
X2695Y2925D01*
X2690Y2920D01*
X2675D01*
X2660Y2905D02*
Y2910D01*
X2665D01*
X2655D01*
X2660D01*
Y2925D01*
X2655Y2930D01*
X2635Y2905D02*
Y2910D01*
X2640D01*
X2630D01*
X2635D01*
Y2925D01*
X2630Y2930D01*
X2495Y2855D02*
Y2885D01*
X2475D01*
X2450D02*
X2460D01*
X2465Y2880D01*
Y2870D01*
X2460Y2865D01*
X2450D01*
X2445Y2870D01*
Y2875D01*
X2465D01*
X2415Y2855D02*
Y2885D01*
X2430D01*
X2435Y2880D01*
Y2870D01*
X2430Y2865D01*
X2415D01*
X2385Y2855D02*
X2405D01*
Y2885D01*
X2385D01*
X2405Y2870D02*
X2395D01*
X2375Y2885D02*
Y2865D01*
X2360D01*
X2355Y2870D01*
Y2885D01*
X2340Y2865D02*
X2330D01*
X2325Y2870D01*
Y2885D01*
X2340D01*
X2345Y2880D01*
X2340Y2875D01*
X2325D01*
X2315Y2855D02*
Y2885D01*
X2300D01*
X2295Y2880D01*
Y2875D01*
Y2870D01*
X2300Y2865D01*
X2315D01*
X2285Y2885D02*
X2275D01*
X2280D01*
Y2855D01*
X2285D01*
X2245Y2885D02*
X2255D01*
X2260Y2880D01*
Y2870D01*
X2255Y2865D01*
X2245D01*
X2240Y2870D01*
Y2875D01*
X2260D01*
X2866Y1643D02*
Y1618D01*
X2871Y1613D01*
X2881D01*
X2886Y1618D01*
Y1643D01*
X2916Y1613D02*
X2896D01*
X2916Y1633D01*
Y1638D01*
X2911Y1643D01*
X2901D01*
X2896Y1638D01*
X3289Y1299D02*
X3259D01*
Y1314D01*
X3264Y1319D01*
X3274D01*
X3279Y1314D01*
Y1299D01*
Y1309D02*
X3289Y1319D01*
Y1334D02*
X3264D01*
X3274D01*
Y1329D01*
Y1339D01*
Y1334D01*
X3264D01*
X3259Y1339D01*
Y1354D02*
X3289D01*
Y1369D01*
X3284Y1374D01*
X3279D01*
X3274D01*
X3269Y1369D01*
Y1354D01*
X3259Y1384D02*
X3289D01*
Y1399D01*
X3284Y1404D01*
X3279D01*
X3274D01*
X3269Y1399D01*
Y1384D01*
X3294Y1414D02*
Y1434D01*
X3259Y1464D02*
Y1444D01*
X3274D01*
X3269Y1454D01*
Y1459D01*
X3274Y1464D01*
X3284D01*
X3289Y1459D01*
Y1449D01*
X3284Y1444D01*
X2997Y2225D02*
Y2195D01*
X3017D01*
X3027D02*
X3037D01*
X3032D01*
Y2225D01*
X3027Y2220D01*
X3052Y2190D02*
X3072D01*
X3102Y2225D02*
X3082D01*
Y2210D01*
X3092Y2215D01*
X3097D01*
X3102Y2210D01*
Y2200D01*
X3097Y2195D01*
X3087D01*
X3082Y2200D01*
X3166Y1865D02*
Y1835D01*
X3181D01*
X3186Y1840D01*
Y1860D01*
X3181Y1865D01*
X3166D01*
X3196Y1835D02*
X3206D01*
X3201D01*
Y1865D01*
X3196Y1860D01*
X3221Y1830D02*
X3241D01*
X3271Y1865D02*
X3251D01*
Y1850D01*
X3261Y1855D01*
X3266D01*
X3271Y1850D01*
Y1840D01*
X3266Y1835D01*
X3256D01*
X3251Y1840D01*
X3059Y1367D02*
X3054Y1362D01*
Y1352D01*
X3059Y1347D01*
X3079D01*
X3084Y1352D01*
Y1362D01*
X3079Y1367D01*
X3084Y1377D02*
Y1392D01*
X3079Y1397D01*
X3074Y1392D01*
Y1382D01*
X3069Y1377D01*
X3064Y1382D01*
Y1397D01*
X3084Y1407D02*
Y1422D01*
X3079Y1427D01*
X3074Y1422D01*
Y1412D01*
X3069Y1407D01*
X3064Y1412D01*
Y1427D01*
X3089Y1437D02*
Y1457D01*
X3054Y1487D02*
Y1467D01*
X3069D01*
X3064Y1477D01*
Y1482D01*
X3069Y1487D01*
X3079D01*
X3084Y1482D01*
Y1472D01*
X3079Y1467D01*
X2840Y1775D02*
X2835Y1780D01*
X2825D01*
X2820Y1775D01*
Y1755D01*
X2825Y1750D01*
X2835D01*
X2840Y1755D01*
X2850Y1780D02*
Y1750D01*
X2865D01*
X2870Y1755D01*
Y1760D01*
Y1765D01*
X2865Y1770D01*
X2850D01*
X2885Y1750D02*
X2895D01*
X2900Y1755D01*
Y1765D01*
X2895Y1770D01*
X2885D01*
X2880Y1765D01*
Y1755D01*
X2885Y1750D01*
X2915D02*
X2925D01*
X2930Y1755D01*
Y1765D01*
X2925Y1770D01*
X2915D01*
X2910Y1765D01*
Y1755D01*
X2915Y1750D01*
X2945Y1775D02*
Y1770D01*
X2940D01*
X2950D01*
X2945D01*
Y1755D01*
X2950Y1750D01*
X2965Y1745D02*
X2985D01*
X3015Y1780D02*
X2995D01*
Y1765D01*
X3005Y1770D01*
X3010D01*
X3015Y1765D01*
Y1755D01*
X3010Y1750D01*
X3000D01*
X2995Y1755D01*
D42*
X2668Y1652D02*
Y1627D01*
X2672Y1622D01*
X2682D01*
X2687Y1627D01*
Y1652D01*
X2697Y1622D02*
X2707D01*
X2702D01*
Y1652D01*
X2697Y1647D01*
X2406Y2211D02*
Y2181D01*
X2426D01*
X2436D02*
X2446D01*
X2441D01*
Y2211D01*
X2436Y2206D01*
X2548Y1864D02*
Y1834D01*
X2563D01*
X2568Y1839D01*
Y1859D01*
X2563Y1864D01*
X2548D01*
X2578Y1834D02*
X2588D01*
X2583D01*
Y1864D01*
X2578Y1859D01*
X2270Y1620D02*
X2265Y1625D01*
X2255D01*
X2250Y1620D01*
Y1600D01*
X2255Y1595D01*
X2265D01*
X2270Y1600D01*
X2280Y1595D02*
X2295D01*
X2300Y1600D01*
X2295Y1605D01*
X2285D01*
X2280Y1610D01*
X2285Y1615D01*
X2300D01*
X2310Y1595D02*
X2325D01*
X2330Y1600D01*
X2325Y1605D01*
X2315D01*
X2310Y1610D01*
X2315Y1615D01*
X2330D01*
X2484Y1779D02*
X2479Y1784D01*
X2469D01*
X2464Y1779D01*
Y1759D01*
X2469Y1754D01*
X2479D01*
X2484Y1759D01*
X2494Y1784D02*
Y1754D01*
X2509D01*
X2514Y1759D01*
Y1764D01*
Y1769D01*
X2509Y1774D01*
X2494D01*
X2529Y1754D02*
X2539D01*
X2544Y1759D01*
Y1769D01*
X2539Y1774D01*
X2529D01*
X2524Y1769D01*
Y1759D01*
X2529Y1754D01*
X2559D02*
X2569D01*
X2574Y1759D01*
Y1769D01*
X2569Y1774D01*
X2559D01*
X2554Y1769D01*
Y1759D01*
X2559Y1754D01*
X2589Y1779D02*
Y1774D01*
X2584D01*
X2594D01*
X2589D01*
Y1759D01*
X2594Y1754D01*
M02*
