G04 Layer_Physical_Order=1*
G04 Layer_Color=255*
%FSLAX23Y23*%
%MOIN*%
G70*
G01*
G75*
%ADD10R,0.031X0.035*%
%ADD11R,0.071X0.067*%
%ADD12R,0.138X0.213*%
%ADD13O,0.087X0.024*%
%ADD14R,0.035X0.031*%
%ADD15R,0.059X0.055*%
%ADD16R,0.039X0.051*%
%ADD17C,0.040*%
%ADD18C,0.080*%
%ADD19C,0.030*%
%ADD20C,0.020*%
%ADD21C,0.028*%
%ADD22C,0.020*%
%ADD23R,0.065X0.065*%
%ADD24C,0.065*%
%ADD25R,0.197X0.197*%
%ADD26C,0.079*%
%ADD27R,0.065X0.118*%
%ADD28R,0.276X0.276*%
%ADD29R,0.197X0.197*%
%ADD30C,0.020*%
%ADD31C,0.050*%
G36*
X2637Y1785D02*
Y1752D01*
X2620Y1735D01*
X2597D01*
X2590Y1734D01*
X2585Y1732D01*
X2565D01*
X2556Y1730D01*
X2548Y1725D01*
X2543Y1717D01*
X2541Y1708D01*
X2543Y1699D01*
X2548Y1691D01*
X2556Y1686D01*
X2565Y1684D01*
X2585D01*
X2590Y1682D01*
X2597Y1681D01*
X2631D01*
X2638Y1682D01*
X2645Y1684D01*
X2650Y1689D01*
X2681Y1719D01*
X2686Y1717D01*
Y1699D01*
X2622Y1635D01*
X2597D01*
X2590Y1634D01*
X2585Y1632D01*
X2565D01*
X2556Y1630D01*
X2548Y1625D01*
X2543Y1617D01*
X2541Y1608D01*
X2543Y1599D01*
X2548Y1591D01*
X2556Y1586D01*
X2556Y1586D01*
Y1580D01*
X2556Y1580D01*
X2548Y1575D01*
X2543Y1567D01*
X2541Y1558D01*
X2543Y1549D01*
X2548Y1541D01*
X2556Y1536D01*
X2565Y1534D01*
X2628D01*
X2638Y1536D01*
X2651D01*
X2654Y1532D01*
X2661Y1526D01*
X2670Y1522D01*
X2680Y1521D01*
X2690Y1522D01*
X2699Y1526D01*
X2706Y1532D01*
X2712Y1539D01*
X2716Y1548D01*
X2717Y1558D01*
X2716Y1568D01*
X2712Y1577D01*
X2706Y1584D01*
X2699Y1590D01*
X2690Y1594D01*
X2680Y1595D01*
X2670Y1594D01*
X2661Y1590D01*
X2661Y1590D01*
X2658Y1594D01*
X2728Y1664D01*
X2733Y1662D01*
X2733Y1396D01*
X2729Y1392D01*
X2441D01*
X2422Y1411D01*
X2411Y1419D01*
X2399Y1425D01*
X2385Y1426D01*
X2251D01*
X2235Y1442D01*
Y1631D01*
X2271Y1667D01*
X2276D01*
X2304Y1639D01*
X2309Y1634D01*
X2316Y1632D01*
X2323Y1631D01*
X2359D01*
X2360Y1626D01*
X2359Y1625D01*
X2354Y1617D01*
X2352Y1608D01*
X2354Y1599D01*
X2359Y1591D01*
X2360Y1590D01*
X2359Y1585D01*
X2348D01*
Y1588D01*
X2293D01*
Y1528D01*
X2348D01*
Y1531D01*
X2408D01*
X2415Y1532D01*
X2420Y1534D01*
X2440D01*
X2449Y1536D01*
X2457Y1541D01*
X2462Y1549D01*
X2464Y1558D01*
X2462Y1567D01*
X2457Y1575D01*
X2449Y1580D01*
X2449Y1580D01*
Y1586D01*
X2449Y1586D01*
X2457Y1591D01*
X2462Y1599D01*
X2464Y1608D01*
X2462Y1617D01*
X2457Y1625D01*
X2449Y1630D01*
X2449Y1630D01*
Y1636D01*
X2449Y1636D01*
X2457Y1641D01*
X2462Y1649D01*
X2464Y1658D01*
X2462Y1667D01*
X2457Y1675D01*
X2449Y1680D01*
X2449Y1680D01*
Y1686D01*
X2449Y1686D01*
X2457Y1691D01*
X2462Y1699D01*
X2464Y1708D01*
X2462Y1717D01*
X2457Y1725D01*
X2456Y1725D01*
X2457Y1728D01*
X2458Y1730D01*
X2458Y1731D01*
X2459D01*
X2473Y1732D01*
X2485Y1738D01*
X2496Y1746D01*
X2554Y1804D01*
X2562Y1815D01*
X2566Y1823D01*
X2599D01*
X2637Y1785D01*
D02*
G37*
G36*
X3388Y2747D02*
X3388Y1342D01*
X2894Y1342D01*
X2892Y1347D01*
X2955Y1410D01*
X2963Y1421D01*
X2969Y1433D01*
X2970Y1447D01*
X2969Y1461D01*
X2963Y1473D01*
X2955Y1484D01*
X2944Y1492D01*
X2932Y1498D01*
X2930Y1498D01*
Y1546D01*
X2935Y1547D01*
X2940Y1541D01*
X2948Y1536D01*
X2957Y1534D01*
X2961D01*
Y1496D01*
X2962Y1489D01*
X2965Y1482D01*
X2969Y1477D01*
X2983Y1463D01*
Y1444D01*
X3043D01*
Y1499D01*
X3024D01*
X3016Y1507D01*
Y1534D01*
X3020D01*
X3029Y1536D01*
X3037Y1541D01*
X3042Y1549D01*
X3044Y1558D01*
X3042Y1567D01*
X3037Y1575D01*
X3029Y1580D01*
X3029Y1580D01*
Y1586D01*
X3029Y1586D01*
X3037Y1591D01*
X3042Y1599D01*
X3044Y1608D01*
X3042Y1617D01*
X3037Y1625D01*
X3029Y1630D01*
X3029Y1630D01*
Y1636D01*
X3029Y1636D01*
X3037Y1641D01*
X3042Y1649D01*
X3044Y1658D01*
X3042Y1667D01*
X3037Y1675D01*
X3029Y1680D01*
X3029Y1680D01*
Y1686D01*
X3029Y1686D01*
X3037Y1691D01*
X3042Y1699D01*
X3044Y1708D01*
X3042Y1717D01*
X3040Y1721D01*
X3055Y1736D01*
X3133D01*
Y1739D01*
X3164D01*
X3166Y1734D01*
X3165Y1732D01*
X3146D01*
X3137Y1730D01*
X3129Y1725D01*
X3124Y1717D01*
X3122Y1708D01*
X3124Y1699D01*
X3129Y1691D01*
X3137Y1686D01*
X3146Y1684D01*
X3166D01*
X3170Y1682D01*
X3177Y1681D01*
X3261D01*
X3268Y1682D01*
X3275Y1684D01*
X3280Y1689D01*
X3285Y1694D01*
X3287Y1701D01*
X3288Y1708D01*
Y1735D01*
X3298Y1743D01*
X3306Y1754D01*
X3312Y1766D01*
X3313Y1780D01*
X3312Y1794D01*
X3306Y1806D01*
X3298Y1817D01*
X3232Y1883D01*
X3221Y1891D01*
X3209Y1897D01*
X3195Y1898D01*
X3189D01*
X3187Y1903D01*
X3275Y1991D01*
X3283Y2002D01*
X3288Y2015D01*
X3290Y2028D01*
Y2086D01*
X3319D01*
Y2322D01*
X3157D01*
Y2086D01*
X3185D01*
Y2050D01*
X3027Y1891D01*
X3008D01*
Y1867D01*
X3005Y1860D01*
X3003Y1846D01*
X3005Y1832D01*
X3008Y1825D01*
Y1801D01*
X3022D01*
X3023Y1796D01*
X3023Y1796D01*
X3023Y1796D01*
Y1781D01*
X2974Y1732D01*
X2957D01*
X2948Y1730D01*
X2940Y1725D01*
X2935Y1717D01*
X2933Y1708D01*
X2935Y1699D01*
X2940Y1691D01*
X2941Y1690D01*
X2939Y1685D01*
X2934D01*
X2933Y1686D01*
X2925Y1689D01*
X2917Y1690D01*
X2909Y1689D01*
X2901Y1686D01*
X2894Y1681D01*
X2884Y1671D01*
X2878Y1671D01*
X2864Y1670D01*
X2852Y1664D01*
X2841Y1656D01*
X2833Y1645D01*
X2827Y1633D01*
X2826Y1619D01*
Y1442D01*
X2827Y1430D01*
X2782Y1385D01*
X2756D01*
Y2086D01*
X2909D01*
Y2322D01*
X2881D01*
Y2484D01*
X2879Y2497D01*
X2874Y2510D01*
X2865Y2521D01*
X2831Y2555D01*
Y2691D01*
Y2706D01*
X2830Y2720D01*
X2824Y2732D01*
X2823Y2733D01*
Y2736D01*
X2822D01*
X2816Y2743D01*
X2812Y2746D01*
X2814Y2751D01*
X3384Y2751D01*
X3388Y2747D01*
D02*
G37*
G36*
X4090Y2057D02*
X4090D01*
X4091Y2057D01*
X4092Y2057D01*
X4095Y2057D01*
X4097Y2053D01*
X4097Y2053D01*
Y1253D01*
X4097Y1253D01*
X4095Y1249D01*
X4092Y1249D01*
X4091Y1249D01*
X4090Y1249D01*
X4090D01*
X4090Y1249D01*
X3890D01*
X3889Y1249D01*
X3889Y1250D01*
Y2056D01*
X3889Y2057D01*
X3890Y2057D01*
X4090D01*
X4090Y2057D01*
D02*
G37*
G36*
X1575Y1165D02*
X1575Y1165D01*
Y547D01*
Y530D01*
X1855D01*
Y308D01*
X1367D01*
Y945D01*
X1370Y1165D01*
X1570D01*
X1575Y1165D01*
D02*
G37*
G36*
X2862Y585D02*
X3335Y585D01*
X3495D01*
X3500Y580D01*
Y314D01*
X3496Y310D01*
X2815Y310D01*
X2815Y310D01*
Y580D01*
X2815Y582D01*
Y583D01*
X2815Y584D01*
X2816Y584D01*
X2817Y584D01*
X2818Y585D01*
X2820Y585D01*
X2862D01*
D02*
G37*
G36*
X2733Y2731D02*
X2728Y2720D01*
X2727Y2706D01*
Y2691D01*
Y2591D01*
Y2533D01*
X2728Y2519D01*
X2733Y2508D01*
X2733Y1851D01*
X2728Y1849D01*
X2712Y1864D01*
X2711Y1873D01*
X2707Y1882D01*
X2701Y1889D01*
X2694Y1895D01*
X2685Y1899D01*
X2675Y1900D01*
X2665Y1899D01*
X2656Y1895D01*
X2649Y1889D01*
X2643Y1882D01*
X2639Y1873D01*
X2638Y1867D01*
X2633Y1866D01*
X2629Y1869D01*
X2624Y1874D01*
X2617Y1876D01*
X2610Y1877D01*
X2555D01*
X2554Y1878D01*
X2549Y1883D01*
Y1888D01*
X2666Y2005D01*
X2674Y2016D01*
X2679Y2028D01*
X2681Y2042D01*
Y2086D01*
X2710D01*
Y2322D01*
X2548D01*
Y2086D01*
X2576D01*
Y2064D01*
X2408Y1895D01*
X2389D01*
Y1871D01*
X2386Y1864D01*
X2384Y1850D01*
X2386Y1836D01*
X2389Y1829D01*
Y1805D01*
X2389D01*
X2392Y1800D01*
X2392Y1798D01*
X2338D01*
Y1738D01*
X2341D01*
X2342Y1737D01*
X2346Y1731D01*
X2357Y1721D01*
X2354Y1717D01*
X2352Y1708D01*
X2354Y1699D01*
X2359Y1691D01*
X2360Y1690D01*
X2359Y1685D01*
X2334D01*
X2310Y1709D01*
X2309Y1718D01*
X2305Y1727D01*
X2299Y1734D01*
X2292Y1740D01*
X2283Y1744D01*
X2278Y1745D01*
X2277Y1747D01*
X2266Y1755D01*
X2253Y1760D01*
X2240Y1762D01*
X2226Y1760D01*
X2213Y1755D01*
X2202Y1747D01*
X2146Y1690D01*
X2138Y1679D01*
X2132Y1667D01*
X2131Y1653D01*
Y1420D01*
X2132Y1407D01*
X2136Y1397D01*
X2133Y1392D01*
X2075D01*
X2075Y2750D01*
X2079Y2754D01*
X2733D01*
Y2731D01*
D02*
G37*
G36*
X1855Y2836D02*
X1855Y2835D01*
X1854Y2835D01*
X1575D01*
X1576Y2834D01*
Y2823D01*
X1576Y2823D01*
X1576D01*
Y2376D01*
Y2375D01*
X1576Y2375D01*
X1576Y2374D01*
X1576Y2374D01*
X1576Y2374D01*
X1576Y2373D01*
X1576Y2373D01*
X1576Y2373D01*
X1576Y2372D01*
X1576Y2372D01*
Y2372D01*
X1575Y2369D01*
Y2161D01*
X1575Y2160D01*
X1574Y2160D01*
X1370D01*
Y2906D01*
X1375Y2906D01*
X1381Y2887D01*
X1390Y2870D01*
X1403Y2855D01*
X1418Y2842D01*
X1435Y2833D01*
X1454Y2827D01*
X1474Y2825D01*
X1494Y2827D01*
X1513Y2833D01*
X1530Y2842D01*
X1545Y2855D01*
X1558Y2870D01*
X1567Y2887D01*
X1573Y2906D01*
X1575Y2926D01*
X1573Y2946D01*
X1567Y2965D01*
X1558Y2982D01*
X1545Y2997D01*
X1530Y3010D01*
X1513Y3019D01*
X1494Y3025D01*
X1474Y3027D01*
X1454Y3025D01*
X1435Y3019D01*
X1418Y3010D01*
X1403Y2997D01*
X1390Y2982D01*
X1381Y2965D01*
X1375Y2946D01*
X1370Y2946D01*
Y3042D01*
X1855D01*
Y2836D01*
D02*
G37*
G36*
X2776Y2462D02*
Y2322D01*
X2756D01*
Y2475D01*
X2761Y2477D01*
X2776Y2462D01*
D02*
G37*
G36*
X4097Y2074D02*
X4094Y2070D01*
X4092Y2069D01*
X4091Y2069D01*
X4091Y2069D01*
X4090Y2069D01*
X4090D01*
X4090Y2069D01*
X3890D01*
X3889Y2069D01*
X3888D01*
X3887Y2069D01*
X3886Y2068D01*
X3886Y2068D01*
X3885Y2068D01*
X3882Y2067D01*
X3881Y2065D01*
X3879Y2064D01*
X3878Y2061D01*
X3878Y2060D01*
X3878Y2060D01*
X3877Y2059D01*
X3877Y2058D01*
Y2057D01*
X3877Y2056D01*
Y1250D01*
X3877Y1249D01*
Y1248D01*
X3877Y1247D01*
X3878Y1246D01*
X3878Y1246D01*
X3878Y1245D01*
X3879Y1242D01*
X3881Y1241D01*
X3882Y1239D01*
X3885Y1238D01*
X3886Y1238D01*
X3886Y1238D01*
X3887Y1237D01*
X3888Y1237D01*
X3889D01*
X3890Y1237D01*
X4090D01*
X4090Y1237D01*
X4090D01*
X4091Y1237D01*
X4091Y1237D01*
X4092Y1237D01*
X4094Y1237D01*
X4097Y1232D01*
Y308D01*
X3512D01*
Y585D01*
X3511Y590D01*
X3509Y594D01*
X3505Y596D01*
X3500Y597D01*
X3335D01*
X3335Y597D01*
X2819Y597D01*
X2814Y596D01*
X2813Y596D01*
X2803D01*
Y584D01*
X2803Y581D01*
Y310D01*
X2798Y308D01*
X1867D01*
Y530D01*
X1866Y535D01*
X1864Y539D01*
X1860Y541D01*
X1855Y542D01*
X1587D01*
Y547D01*
Y1165D01*
X1587Y1167D01*
X1587Y1169D01*
X1587Y1169D01*
X1586Y1169D01*
X1586Y1169D01*
X1586Y1170D01*
X1585Y1171D01*
X1584Y1173D01*
X1584Y1173D01*
X1584Y1173D01*
X1584Y1173D01*
X1584Y1174D01*
X1582Y1175D01*
X1580Y1176D01*
X1580Y1176D01*
X1580Y1176D01*
X1580Y1176D01*
X1580Y1176D01*
X1580Y1176D01*
X1578Y1177D01*
X1576Y1177D01*
X1576Y1177D01*
X1575Y1177D01*
X1571Y1177D01*
X1570Y1177D01*
X1570Y1177D01*
X1370D01*
Y2148D01*
X1575D01*
X1580Y2149D01*
X1584Y2151D01*
X1586Y2155D01*
X1587Y2160D01*
Y2369D01*
X1588Y2369D01*
X1588Y2370D01*
X1588Y2370D01*
X1588Y2370D01*
X1588Y2371D01*
Y2371D01*
X1588Y2372D01*
Y2374D01*
X1589Y2375D01*
Y2803D01*
Y2803D01*
D01*
Y2823D01*
X1855D01*
X1860Y2824D01*
X1864Y2826D01*
X1866Y2830D01*
X1867Y2835D01*
Y3042D01*
X2695D01*
Y3018D01*
X2667D01*
Y3007D01*
X2569D01*
X2569Y3007D01*
X2562Y3008D01*
X2554Y3007D01*
X2548Y3005D01*
X2542Y3000D01*
X2529Y2987D01*
X2450D01*
X2447Y2992D01*
X2437Y2999D01*
X2427Y3003D01*
X2415Y3005D01*
X2403Y3003D01*
X2393Y2999D01*
X2383Y2992D01*
X2376Y2982D01*
X2372Y2972D01*
X2370Y2960D01*
X2372Y2948D01*
X2376Y2938D01*
X2383Y2928D01*
X2393Y2921D01*
X2403Y2917D01*
X2415Y2915D01*
X2427Y2917D01*
X2437Y2921D01*
X2447Y2928D01*
X2450Y2933D01*
X2541D01*
X2548Y2934D01*
X2554Y2936D01*
X2560Y2941D01*
X2572Y2953D01*
X2667D01*
Y2942D01*
X2695D01*
Y2795D01*
X2045D01*
Y1300D01*
X2685D01*
Y1354D01*
X2876D01*
X2877Y1354D01*
X2880Y1349D01*
X2880Y1347D01*
X2880Y1342D01*
X2882Y1337D01*
X2882Y1337D01*
X2885Y1333D01*
X2887Y1332D01*
X2889Y1331D01*
X2894Y1330D01*
X3155Y1330D01*
X3158Y1326D01*
Y1321D01*
X3242D01*
Y1330D01*
X3388Y1330D01*
X3393Y1331D01*
X3397Y1333D01*
X3399Y1337D01*
X3400Y1342D01*
Y1350D01*
X3404Y1354D01*
X3425D01*
Y2783D01*
X2729D01*
Y2942D01*
X2793D01*
Y2954D01*
X2820D01*
X2820Y2954D01*
X2828Y2953D01*
X2862D01*
Y2942D01*
X2988D01*
Y2951D01*
X3286D01*
Y2833D01*
X3507D01*
Y3042D01*
X4097D01*
Y2074D01*
D02*
G37*
%LPC*%
G36*
X1475Y522D02*
X1455Y520D01*
X1436Y514D01*
X1419Y505D01*
X1404Y492D01*
X1391Y477D01*
X1382Y460D01*
X1376Y441D01*
X1374Y421D01*
X1376Y401D01*
X1382Y382D01*
X1391Y365D01*
X1404Y350D01*
X1419Y337D01*
X1436Y328D01*
X1455Y322D01*
X1475Y320D01*
X1495Y322D01*
X1514Y328D01*
X1531Y337D01*
X1546Y350D01*
X1559Y365D01*
X1568Y382D01*
X1574Y401D01*
X1576Y421D01*
X1574Y441D01*
X1568Y460D01*
X1559Y477D01*
X1546Y492D01*
X1531Y505D01*
X1514Y514D01*
X1495Y520D01*
X1475Y522D01*
D02*
G37*
G36*
X3984D02*
X3964Y520D01*
X3945Y514D01*
X3928Y505D01*
X3913Y492D01*
X3900Y477D01*
X3891Y460D01*
X3885Y441D01*
X3883Y421D01*
X3885Y401D01*
X3891Y382D01*
X3900Y365D01*
X3913Y350D01*
X3928Y337D01*
X3945Y328D01*
X3964Y322D01*
X3984Y320D01*
X4004Y322D01*
X4023Y328D01*
X4040Y337D01*
X4055Y350D01*
X4068Y365D01*
X4077Y382D01*
X4083Y401D01*
X4085Y421D01*
X4083Y441D01*
X4077Y460D01*
X4068Y477D01*
X4055Y492D01*
X4040Y505D01*
X4023Y514D01*
X4004Y520D01*
X3984Y522D01*
D02*
G37*
G36*
X2579Y2743D02*
X2565Y2742D01*
X2553Y2736D01*
X2552Y2736D01*
X2534D01*
Y2718D01*
X2534Y2717D01*
X2528Y2705D01*
X2527Y2691D01*
Y2613D01*
X2501Y2587D01*
X2309D01*
X2295Y2585D01*
X2282Y2580D01*
X2271Y2572D01*
X2182Y2482D01*
X2174Y2472D01*
X2169Y2459D01*
X2167Y2445D01*
Y2322D01*
X2138D01*
Y2086D01*
X2300D01*
Y2322D01*
X2272D01*
Y2424D01*
X2330Y2482D01*
X2523D01*
X2536Y2484D01*
X2549Y2489D01*
X2560Y2497D01*
X2609Y2546D01*
X2624D01*
Y2564D01*
X2624Y2565D01*
X2630Y2577D01*
X2631Y2591D01*
Y2691D01*
X2630Y2705D01*
X2624Y2717D01*
X2624Y2718D01*
Y2736D01*
X2606D01*
X2605Y2736D01*
X2593Y2742D01*
X2579Y2743D01*
D02*
G37*
G36*
X3264Y1642D02*
X3254Y1641D01*
X3245Y1637D01*
X3243Y1635D01*
X3177D01*
X3170Y1634D01*
X3166Y1632D01*
X3146D01*
X3137Y1630D01*
X3129Y1625D01*
X3124Y1617D01*
X3122Y1608D01*
X3124Y1599D01*
X3129Y1591D01*
X3137Y1586D01*
X3137Y1586D01*
Y1580D01*
X3137Y1580D01*
X3129Y1575D01*
X3124Y1567D01*
X3122Y1558D01*
X3124Y1549D01*
X3129Y1541D01*
X3137Y1536D01*
X3146Y1534D01*
X3173D01*
Y1479D01*
X3158D01*
Y1400D01*
X3242D01*
Y1442D01*
X3291Y1492D01*
X3296Y1498D01*
X3297Y1502D01*
X3298Y1503D01*
X3304Y1510D01*
X3308Y1519D01*
X3309Y1529D01*
X3308Y1539D01*
X3304Y1548D01*
X3298Y1555D01*
X3291Y1561D01*
X3282Y1565D01*
X3278Y1565D01*
X3278Y1571D01*
X3283Y1573D01*
X3290Y1579D01*
X3296Y1586D01*
X3300Y1595D01*
X3301Y1605D01*
X3300Y1615D01*
X3296Y1624D01*
X3290Y1631D01*
X3283Y1637D01*
X3274Y1641D01*
X3264Y1642D01*
D02*
G37*
G36*
X3984Y3026D02*
X3964Y3024D01*
X3945Y3018D01*
X3928Y3009D01*
X3913Y2996D01*
X3900Y2981D01*
X3891Y2964D01*
X3885Y2945D01*
X3883Y2925D01*
X3885Y2905D01*
X3891Y2886D01*
X3900Y2869D01*
X3913Y2854D01*
X3928Y2841D01*
X3945Y2832D01*
X3964Y2826D01*
X3984Y2824D01*
X4004Y2826D01*
X4023Y2832D01*
X4040Y2841D01*
X4055Y2854D01*
X4068Y2869D01*
X4077Y2886D01*
X4083Y2905D01*
X4085Y2925D01*
X4083Y2945D01*
X4077Y2964D01*
X4068Y2981D01*
X4055Y2996D01*
X4040Y3009D01*
X4023Y3018D01*
X4004Y3024D01*
X3984Y3026D01*
D02*
G37*
%LPD*%
D10*
X2421Y1768D02*
D03*
X2365D02*
D03*
X2265Y1558D02*
D03*
X2321D02*
D03*
X3106Y1766D02*
D03*
X3050D02*
D03*
D11*
X2437Y1850D02*
D03*
X2282D02*
D03*
X2901Y1846D02*
D03*
X3055D02*
D03*
D12*
X2629Y2204D02*
D03*
X2219D02*
D03*
X3238D02*
D03*
X2828D02*
D03*
D13*
X2408Y1708D02*
D03*
Y1658D02*
D03*
Y1608D02*
D03*
Y1558D02*
D03*
X2597Y1708D02*
D03*
Y1658D02*
D03*
Y1608D02*
D03*
Y1558D02*
D03*
X2989Y1708D02*
D03*
Y1658D02*
D03*
Y1608D02*
D03*
Y1558D02*
D03*
X3177Y1708D02*
D03*
Y1658D02*
D03*
Y1608D02*
D03*
Y1558D02*
D03*
D14*
X3013Y1416D02*
D03*
Y1472D02*
D03*
D15*
X3200Y1361D02*
D03*
Y1439D02*
D03*
D16*
X2956Y2980D02*
D03*
X2894D02*
D03*
X2699D02*
D03*
X2761D02*
D03*
D17*
X2878Y1619D02*
X2917Y1658D01*
D18*
X2878Y1442D02*
Y1619D01*
X2804Y1333D02*
X2918Y1447D01*
X2569Y1333D02*
X2804D01*
X2426D02*
X2569D01*
X2579Y2591D02*
Y2691D01*
X2183Y1653D02*
X2240Y1709D01*
X2779Y2533D02*
X2828Y2484D01*
Y2204D02*
Y2484D01*
X2219Y2445D02*
X2309Y2534D01*
X2219Y2204D02*
Y2445D01*
X2459Y1783D02*
X2517Y1841D01*
X2183Y1420D02*
Y1653D01*
Y1420D02*
X2229Y1374D01*
X2385D01*
X2426Y1333D01*
X2437Y1850D02*
X2629Y2042D01*
Y2204D01*
X2508Y1850D02*
X2517Y1841D01*
X2446Y1783D02*
X2459D01*
X2444Y1781D02*
X2446Y1783D01*
X3055Y1846D02*
X3195D01*
X3261Y1780D01*
X3238Y2028D02*
Y2204D01*
X3055Y1846D02*
X3238Y2028D01*
X2779Y2533D02*
Y2691D01*
Y2591D02*
Y2706D01*
X2309Y2534D02*
X2523D01*
X2579Y2591D01*
D19*
X2917Y1658D02*
X2989D01*
X3261Y1708D02*
Y1780D01*
X2713Y1688D02*
Y1825D01*
X2633Y1608D02*
X2713Y1688D01*
X2597Y1608D02*
X2633D01*
X2675Y1863D02*
X2713Y1825D01*
X3109Y1658D02*
X3177D01*
X3219D01*
X3177Y1608D02*
X3256D01*
X2508Y1850D02*
X2610D01*
X2437D02*
X2508D01*
X2610D02*
X2664Y1796D01*
Y1741D02*
Y1796D01*
X2631Y1708D02*
X2664Y1741D01*
X2597Y1708D02*
X2631D01*
X3272Y1511D02*
Y1519D01*
X3200Y1439D02*
X3272Y1511D01*
X3200Y1439D02*
Y1556D01*
X2503Y1530D02*
Y1635D01*
X2526Y1658D02*
X2597D01*
X2503Y1635D02*
Y1653D01*
X2365Y1751D02*
Y1768D01*
Y1751D02*
X2408Y1708D01*
X2989Y1496D02*
X3013Y1472D01*
X2989Y1496D02*
Y1558D01*
X2321Y1558D02*
X2408D01*
X2265Y1500D02*
Y1558D01*
Y1500D02*
X2295Y1470D01*
X2443D01*
X2503Y1530D01*
X3177Y1708D02*
X3261D01*
X3106Y1766D02*
X3203D01*
X3261Y1708D01*
X3047Y1766D02*
X3050D01*
X2989Y1708D02*
X3047Y1766D01*
X2323Y1658D02*
X2408D01*
X2273Y1708D02*
X2323Y1658D01*
X2962Y2978D02*
X3381D01*
X2827Y2981D02*
X2828Y2980D01*
X2762Y2981D02*
X2827D01*
X2828Y2980D02*
X2894D01*
X2895D01*
X2563D02*
X2699D01*
X2415Y2960D02*
X2541D01*
X2562Y2981D01*
D20*
X2597Y1558D02*
X2680D01*
D21*
X3272Y1519D02*
Y1529D01*
D22*
X1553Y2926D02*
G03*
X1553Y2926I-79J0D01*
G01*
X1554Y421D02*
G03*
X1554Y421I-79J0D01*
G01*
X4063D02*
G03*
X4063Y421I-79J0D01*
G01*
Y2925D02*
G03*
X4063Y2925I-79J0D01*
G01*
D23*
X2315Y2960D02*
D03*
X2579Y2691D02*
D03*
X2779D02*
D03*
Y2591D02*
D03*
X2579D02*
D03*
D24*
X2415Y2960D02*
D03*
X2679Y2691D02*
D03*
X2879D02*
D03*
Y2591D02*
D03*
X2679D02*
D03*
D25*
X3708Y2943D02*
D03*
X3397D02*
D03*
Y407D02*
D03*
X3708D02*
D03*
X1743D02*
D03*
X2054D02*
D03*
X1743Y2943D02*
D03*
X2054D02*
D03*
D26*
X1474Y2926D02*
D03*
Y421D02*
D03*
X3984D02*
D03*
Y2926D02*
D03*
D27*
X2503Y1635D02*
D03*
X3083Y1629D02*
D03*
D28*
X2485Y446D02*
D03*
X2953D02*
D03*
D29*
X1466Y1055D02*
D03*
Y1366D02*
D03*
Y2263D02*
D03*
Y1952D02*
D03*
X3999Y1956D02*
D03*
Y2267D02*
D03*
X3998Y1366D02*
D03*
Y1055D02*
D03*
D30*
X2311Y539D02*
D03*
X2271D02*
D03*
X2232D02*
D03*
X2193D02*
D03*
X2311Y500D02*
D03*
X2271D02*
D03*
X2232D02*
D03*
X2193D02*
D03*
X2311Y461D02*
D03*
X2271D02*
D03*
X2232D02*
D03*
X2193D02*
D03*
X2311Y421D02*
D03*
X2271D02*
D03*
X2232D02*
D03*
X2193D02*
D03*
X2311Y382D02*
D03*
X2271D02*
D03*
X2232D02*
D03*
X2193D02*
D03*
X2311Y343D02*
D03*
X2271D02*
D03*
X2232D02*
D03*
X2193D02*
D03*
X2193Y539D02*
D03*
X2232D02*
D03*
X2271D02*
D03*
X2311D02*
D03*
Y500D02*
D03*
X2271D02*
D03*
X2232D02*
D03*
X2193D02*
D03*
X2311Y461D02*
D03*
X2271D02*
D03*
X2232D02*
D03*
X2193D02*
D03*
X2311Y421D02*
D03*
X2271D02*
D03*
X2232D02*
D03*
X2193D02*
D03*
X2311Y382D02*
D03*
X2271D02*
D03*
X2232D02*
D03*
X2193D02*
D03*
X2311Y343D02*
D03*
X2271D02*
D03*
X2232D02*
D03*
X2193D02*
D03*
X3261Y534D02*
D03*
X3221D02*
D03*
X3182D02*
D03*
X3143D02*
D03*
X3261Y495D02*
D03*
X3221D02*
D03*
X3182D02*
D03*
X3143D02*
D03*
X3261Y456D02*
D03*
X3221D02*
D03*
X3182D02*
D03*
X3143D02*
D03*
X3261Y416D02*
D03*
X3221D02*
D03*
X3182D02*
D03*
X3143D02*
D03*
X3261Y377D02*
D03*
X3221D02*
D03*
X3182D02*
D03*
X3143D02*
D03*
X3261Y338D02*
D03*
X3221D02*
D03*
X3182D02*
D03*
X3143D02*
D03*
X3143Y534D02*
D03*
X3182D02*
D03*
X3221D02*
D03*
X3261D02*
D03*
Y495D02*
D03*
X3221D02*
D03*
X3182D02*
D03*
X3143D02*
D03*
X3261Y456D02*
D03*
X3221D02*
D03*
X3182D02*
D03*
X3143D02*
D03*
X3261Y416D02*
D03*
X3221D02*
D03*
X3182D02*
D03*
X3143D02*
D03*
X3261Y377D02*
D03*
X3221D02*
D03*
X3182D02*
D03*
X3143D02*
D03*
X3261Y338D02*
D03*
X3221D02*
D03*
X3182D02*
D03*
X3143D02*
D03*
X3918Y1573D02*
D03*
X3957D02*
D03*
X3996D02*
D03*
X4036D02*
D03*
X4075D02*
D03*
X3918Y1612D02*
D03*
X3957D02*
D03*
X3996D02*
D03*
X4036D02*
D03*
X4075D02*
D03*
X3918Y1651D02*
D03*
X3957D02*
D03*
X3996D02*
D03*
X4036D02*
D03*
X4075D02*
D03*
X3918Y1691D02*
D03*
X3957D02*
D03*
X3996D02*
D03*
X4036D02*
D03*
X4075D02*
D03*
X3918Y1730D02*
D03*
X3957D02*
D03*
X3996D02*
D03*
X4036D02*
D03*
X4075Y1769D02*
D03*
X4036D02*
D03*
X3996D02*
D03*
X3957D02*
D03*
X3918D02*
D03*
X3918Y1573D02*
D03*
X3957D02*
D03*
X3996D02*
D03*
X4036D02*
D03*
X4075D02*
D03*
X3918Y1612D02*
D03*
X3957D02*
D03*
X3996D02*
D03*
X4036D02*
D03*
X4075D02*
D03*
X3918Y1651D02*
D03*
X3957D02*
D03*
X3996D02*
D03*
X4036D02*
D03*
X4075D02*
D03*
X3918Y1691D02*
D03*
X3957D02*
D03*
X3996D02*
D03*
X4036D02*
D03*
X4075D02*
D03*
X3918Y1730D02*
D03*
X3957D02*
D03*
X3996D02*
D03*
X4036D02*
D03*
X4075D02*
D03*
X3918Y1769D02*
D03*
X3957D02*
D03*
X3996D02*
D03*
X4036D02*
D03*
X4075D02*
D03*
X4075Y1730D02*
D03*
X1393Y2498D02*
D03*
X1432D02*
D03*
X1471D02*
D03*
X1511D02*
D03*
X1550D02*
D03*
X1393Y2537D02*
D03*
X1432D02*
D03*
X1471D02*
D03*
X1511D02*
D03*
X1550D02*
D03*
X1393Y2576D02*
D03*
X1432D02*
D03*
X1471D02*
D03*
X1511D02*
D03*
X1550D02*
D03*
X1393Y2616D02*
D03*
X1432D02*
D03*
X1471D02*
D03*
X1511D02*
D03*
X1550D02*
D03*
X1393Y2655D02*
D03*
X1432D02*
D03*
X1471D02*
D03*
X1511D02*
D03*
X1550Y2694D02*
D03*
X1511D02*
D03*
X1471D02*
D03*
X1432D02*
D03*
X1393D02*
D03*
X1393Y2498D02*
D03*
X1432D02*
D03*
X1471D02*
D03*
X1511D02*
D03*
X1550D02*
D03*
X1393Y2537D02*
D03*
X1432D02*
D03*
X1471D02*
D03*
X1511D02*
D03*
X1550D02*
D03*
X1393Y2576D02*
D03*
X1432D02*
D03*
X1471D02*
D03*
X1511D02*
D03*
X1550D02*
D03*
X1393Y2616D02*
D03*
X1432D02*
D03*
X1471D02*
D03*
X1511D02*
D03*
X1550D02*
D03*
X1393Y2655D02*
D03*
X1432D02*
D03*
X1471D02*
D03*
X1511D02*
D03*
X1550D02*
D03*
X1393Y2694D02*
D03*
X1432D02*
D03*
X1471D02*
D03*
X1511D02*
D03*
X1550D02*
D03*
X1550Y2655D02*
D03*
X1393Y628D02*
D03*
X1432D02*
D03*
X1471D02*
D03*
X1511D02*
D03*
X1550D02*
D03*
X1393Y667D02*
D03*
X1432D02*
D03*
X1471D02*
D03*
X1511D02*
D03*
X1550D02*
D03*
X1393Y706D02*
D03*
X1432D02*
D03*
X1471D02*
D03*
X1511D02*
D03*
X1550D02*
D03*
X1393Y746D02*
D03*
X1432D02*
D03*
X1471D02*
D03*
X1511D02*
D03*
X1550D02*
D03*
X1393Y785D02*
D03*
X1432D02*
D03*
X1471D02*
D03*
X1511D02*
D03*
X1550Y824D02*
D03*
X1511D02*
D03*
X1471D02*
D03*
X1432D02*
D03*
X1393D02*
D03*
X1393Y628D02*
D03*
X1432D02*
D03*
X1471D02*
D03*
X1511D02*
D03*
X1550D02*
D03*
X1393Y667D02*
D03*
X1432D02*
D03*
X1471D02*
D03*
X1511D02*
D03*
X1550D02*
D03*
X1393Y706D02*
D03*
X1432D02*
D03*
X1471D02*
D03*
X1511D02*
D03*
X1550D02*
D03*
X1393Y746D02*
D03*
X1432D02*
D03*
X1471D02*
D03*
X1511D02*
D03*
X1550D02*
D03*
X1393Y785D02*
D03*
X1432D02*
D03*
X1471D02*
D03*
X1511D02*
D03*
X1550D02*
D03*
X1393Y824D02*
D03*
X1432D02*
D03*
X1471D02*
D03*
X1511D02*
D03*
X1550D02*
D03*
X1550Y785D02*
D03*
X3913Y633D02*
D03*
X3952D02*
D03*
X3991D02*
D03*
X4031D02*
D03*
X4070D02*
D03*
X3913Y672D02*
D03*
X3952D02*
D03*
X3991D02*
D03*
X4031D02*
D03*
X4070D02*
D03*
X3913Y711D02*
D03*
X3952D02*
D03*
X3991D02*
D03*
X4031D02*
D03*
X4070D02*
D03*
X3913Y751D02*
D03*
X3952D02*
D03*
X3991D02*
D03*
X4031D02*
D03*
X4070D02*
D03*
X3913Y790D02*
D03*
X3952D02*
D03*
X3991D02*
D03*
X4031D02*
D03*
X4070Y829D02*
D03*
X4031D02*
D03*
X3991D02*
D03*
X3952D02*
D03*
X3913D02*
D03*
X3913Y633D02*
D03*
X3952D02*
D03*
X3991D02*
D03*
X4031D02*
D03*
X4070D02*
D03*
X3913Y672D02*
D03*
X3952D02*
D03*
X3991D02*
D03*
X4031D02*
D03*
X4070D02*
D03*
X3913Y711D02*
D03*
X3952D02*
D03*
X3991D02*
D03*
X4031D02*
D03*
X4070D02*
D03*
X3913Y751D02*
D03*
X3952D02*
D03*
X3991D02*
D03*
X4031D02*
D03*
X4070D02*
D03*
X3913Y790D02*
D03*
X3952D02*
D03*
X3991D02*
D03*
X4031D02*
D03*
X4070D02*
D03*
X3913Y829D02*
D03*
X3952D02*
D03*
X3991D02*
D03*
X4031D02*
D03*
X4070D02*
D03*
X4070Y790D02*
D03*
X3918Y2528D02*
D03*
X3957D02*
D03*
X3996D02*
D03*
X4036D02*
D03*
X4075D02*
D03*
X3918Y2567D02*
D03*
X3957D02*
D03*
X3996D02*
D03*
X4036D02*
D03*
X4075D02*
D03*
X3918Y2606D02*
D03*
X3957D02*
D03*
X3996D02*
D03*
X4036D02*
D03*
X4075D02*
D03*
X3918Y2646D02*
D03*
X3957D02*
D03*
X3996D02*
D03*
X4036D02*
D03*
X4075D02*
D03*
X3918Y2685D02*
D03*
X3957D02*
D03*
X3996D02*
D03*
X4036D02*
D03*
X4075Y2724D02*
D03*
X4036D02*
D03*
X3996D02*
D03*
X3957D02*
D03*
X3918D02*
D03*
X3918Y2528D02*
D03*
X3957D02*
D03*
X3996D02*
D03*
X4036D02*
D03*
X4075D02*
D03*
X3918Y2567D02*
D03*
X3957D02*
D03*
X3996D02*
D03*
X4036D02*
D03*
X4075D02*
D03*
X3918Y2606D02*
D03*
X3957D02*
D03*
X3996D02*
D03*
X4036D02*
D03*
X4075D02*
D03*
X3918Y2646D02*
D03*
X3957D02*
D03*
X3996D02*
D03*
X4036D02*
D03*
X4075D02*
D03*
X3918Y2685D02*
D03*
X3957D02*
D03*
X3996D02*
D03*
X4036D02*
D03*
X4075D02*
D03*
X3918Y2724D02*
D03*
X3957D02*
D03*
X3996D02*
D03*
X4036D02*
D03*
X4075D02*
D03*
X4075Y2685D02*
D03*
X1550Y1715D02*
D03*
X1550Y1754D02*
D03*
X1511D02*
D03*
X1471D02*
D03*
X1432D02*
D03*
X1393D02*
D03*
X1550Y1715D02*
D03*
X1511D02*
D03*
X1471D02*
D03*
X1432D02*
D03*
X1393D02*
D03*
X1550Y1676D02*
D03*
X1511D02*
D03*
X1471D02*
D03*
X1432D02*
D03*
X1393D02*
D03*
X1550Y1636D02*
D03*
X1511D02*
D03*
X1471D02*
D03*
X1432D02*
D03*
X1393D02*
D03*
X1550Y1597D02*
D03*
X1511D02*
D03*
X1471D02*
D03*
X1432D02*
D03*
X1393D02*
D03*
X1550Y1558D02*
D03*
X1511D02*
D03*
X1471D02*
D03*
X1432D02*
D03*
X1393D02*
D03*
X1393Y1754D02*
D03*
X1432D02*
D03*
X1471D02*
D03*
X1511D02*
D03*
X1550D02*
D03*
X1511Y1715D02*
D03*
X1471D02*
D03*
X1432D02*
D03*
X1393D02*
D03*
X1550Y1676D02*
D03*
X1511D02*
D03*
X1471D02*
D03*
X1432D02*
D03*
X1393D02*
D03*
X1550Y1636D02*
D03*
X1511D02*
D03*
X1471D02*
D03*
X1432D02*
D03*
X1393D02*
D03*
X1550Y1597D02*
D03*
X1511D02*
D03*
X1471D02*
D03*
X1432D02*
D03*
X1393D02*
D03*
X1550Y1558D02*
D03*
X1511D02*
D03*
X1471D02*
D03*
X1432D02*
D03*
X1393D02*
D03*
X3338Y2888D02*
D03*
X3377D02*
D03*
X3416D02*
D03*
X3456D02*
D03*
X3338Y2928D02*
D03*
X3377D02*
D03*
X3416D02*
D03*
X3456D02*
D03*
X3338Y2967D02*
D03*
X3377D02*
D03*
X3416D02*
D03*
X3456D02*
D03*
X3338Y3006D02*
D03*
X3377D02*
D03*
X3416D02*
D03*
X3456D02*
D03*
X3653Y2888D02*
D03*
X3692D02*
D03*
X3731D02*
D03*
X3771D02*
D03*
X3653Y2928D02*
D03*
X3692D02*
D03*
X3731D02*
D03*
X3771D02*
D03*
X3653Y2967D02*
D03*
X3692D02*
D03*
X3731D02*
D03*
X3771D02*
D03*
X3653Y3006D02*
D03*
X3692D02*
D03*
X3731D02*
D03*
X3771D02*
D03*
X2502Y1654D02*
D03*
X2528Y1681D02*
D03*
X2502Y1681D02*
D03*
X2527Y1655D02*
D03*
X2526Y1626D02*
D03*
X2502D02*
D03*
X2478D02*
D03*
Y1654D02*
D03*
Y1681D02*
D03*
Y1599D02*
D03*
X2502D02*
D03*
X2527D02*
D03*
X3108Y1589D02*
D03*
X3083D02*
D03*
X3059D02*
D03*
Y1671D02*
D03*
Y1644D02*
D03*
Y1616D02*
D03*
X3083D02*
D03*
X3107D02*
D03*
X3108Y1645D02*
D03*
X3083Y1671D02*
D03*
X3109Y1671D02*
D03*
X3083Y1644D02*
D03*
X2579Y540D02*
D03*
X2540D02*
D03*
X2500D02*
D03*
X2461D02*
D03*
X2422D02*
D03*
X2382D02*
D03*
X2579Y501D02*
D03*
X2540D02*
D03*
X2500D02*
D03*
X2461D02*
D03*
X2422D02*
D03*
X2382D02*
D03*
X2579Y461D02*
D03*
X2540D02*
D03*
X2500D02*
D03*
X2461D02*
D03*
X2422D02*
D03*
X2382D02*
D03*
X2579Y422D02*
D03*
X2540D02*
D03*
X2500D02*
D03*
X2461D02*
D03*
X2422D02*
D03*
X2382D02*
D03*
X2579Y383D02*
D03*
X2540D02*
D03*
X2500D02*
D03*
X2461D02*
D03*
X2422D02*
D03*
X2382D02*
D03*
X2579Y343D02*
D03*
X2540D02*
D03*
X2500D02*
D03*
X2461D02*
D03*
X2422D02*
D03*
X2382D02*
D03*
X2382Y540D02*
D03*
X2422D02*
D03*
X2461D02*
D03*
X2500D02*
D03*
X2540D02*
D03*
X2579D02*
D03*
Y501D02*
D03*
X2540D02*
D03*
X2500D02*
D03*
X2461D02*
D03*
X2422D02*
D03*
X2382D02*
D03*
X2579Y461D02*
D03*
X2540D02*
D03*
X2500D02*
D03*
X2461D02*
D03*
X2422D02*
D03*
X2382D02*
D03*
X2579Y422D02*
D03*
X2540D02*
D03*
X2500D02*
D03*
X2461D02*
D03*
X2422D02*
D03*
X2382D02*
D03*
X2579Y383D02*
D03*
X2540D02*
D03*
X2500D02*
D03*
X2461D02*
D03*
X2422D02*
D03*
X2382D02*
D03*
X2579Y343D02*
D03*
X2540D02*
D03*
X2500D02*
D03*
X2461D02*
D03*
X2422D02*
D03*
X2382D02*
D03*
X3051Y540D02*
D03*
X3012D02*
D03*
X2973D02*
D03*
X2933D02*
D03*
X2894D02*
D03*
X2855D02*
D03*
X3051Y501D02*
D03*
X3012D02*
D03*
X2973D02*
D03*
X2933D02*
D03*
X2894D02*
D03*
X2855D02*
D03*
X3051Y461D02*
D03*
X3012D02*
D03*
X2973D02*
D03*
X2933D02*
D03*
X2894D02*
D03*
X2855D02*
D03*
X3051Y422D02*
D03*
X3012D02*
D03*
X2973D02*
D03*
X2933D02*
D03*
X2894D02*
D03*
X2855D02*
D03*
X3051Y383D02*
D03*
X3012D02*
D03*
X2973D02*
D03*
X2933D02*
D03*
X2894D02*
D03*
X2855D02*
D03*
X3051Y343D02*
D03*
X3012D02*
D03*
X2973D02*
D03*
X2933D02*
D03*
X2894D02*
D03*
X2855D02*
D03*
X1403Y1429D02*
D03*
Y1389D02*
D03*
Y1350D02*
D03*
Y1311D02*
D03*
X1442Y1429D02*
D03*
Y1389D02*
D03*
Y1350D02*
D03*
Y1311D02*
D03*
X1482Y1429D02*
D03*
Y1389D02*
D03*
Y1350D02*
D03*
Y1311D02*
D03*
X1521Y1429D02*
D03*
Y1389D02*
D03*
Y1350D02*
D03*
Y1311D02*
D03*
X1403Y1114D02*
D03*
Y1074D02*
D03*
Y1035D02*
D03*
Y996D02*
D03*
X1442Y1114D02*
D03*
Y1074D02*
D03*
Y1035D02*
D03*
Y996D02*
D03*
X1482Y1114D02*
D03*
Y1074D02*
D03*
Y1035D02*
D03*
Y996D02*
D03*
X1521Y1114D02*
D03*
Y1074D02*
D03*
Y1035D02*
D03*
Y996D02*
D03*
X1529Y1889D02*
D03*
Y1928D02*
D03*
Y1968D02*
D03*
Y2007D02*
D03*
X1490Y1889D02*
D03*
Y1928D02*
D03*
Y1968D02*
D03*
Y2007D02*
D03*
X1450Y1889D02*
D03*
Y1928D02*
D03*
Y1968D02*
D03*
Y2007D02*
D03*
X1411Y1889D02*
D03*
Y1928D02*
D03*
Y1968D02*
D03*
Y2007D02*
D03*
X1529Y2204D02*
D03*
Y2243D02*
D03*
Y2283D02*
D03*
Y2322D02*
D03*
X1490Y2204D02*
D03*
Y2243D02*
D03*
Y2283D02*
D03*
Y2322D02*
D03*
X1450Y2204D02*
D03*
Y2243D02*
D03*
Y2283D02*
D03*
Y2322D02*
D03*
X1411Y2204D02*
D03*
Y2243D02*
D03*
Y2283D02*
D03*
Y2322D02*
D03*
X3936Y2330D02*
D03*
Y2291D02*
D03*
Y2251D02*
D03*
Y2212D02*
D03*
X3975Y2330D02*
D03*
Y2291D02*
D03*
Y2251D02*
D03*
Y2212D02*
D03*
X4014Y2330D02*
D03*
Y2291D02*
D03*
Y2251D02*
D03*
Y2212D02*
D03*
X4054Y2330D02*
D03*
Y2291D02*
D03*
Y2251D02*
D03*
Y2212D02*
D03*
X3936Y2015D02*
D03*
Y1976D02*
D03*
Y1936D02*
D03*
Y1897D02*
D03*
X3975Y2015D02*
D03*
Y1976D02*
D03*
Y1936D02*
D03*
Y1897D02*
D03*
X4014Y2015D02*
D03*
Y1976D02*
D03*
Y1936D02*
D03*
Y1897D02*
D03*
X4054Y2015D02*
D03*
Y1976D02*
D03*
Y1936D02*
D03*
Y1897D02*
D03*
X4061Y992D02*
D03*
Y1031D02*
D03*
Y1071D02*
D03*
Y1110D02*
D03*
X4022Y992D02*
D03*
Y1031D02*
D03*
Y1071D02*
D03*
Y1110D02*
D03*
X3983Y992D02*
D03*
Y1031D02*
D03*
Y1071D02*
D03*
Y1110D02*
D03*
X3943Y992D02*
D03*
Y1031D02*
D03*
Y1071D02*
D03*
Y1110D02*
D03*
X4061Y1307D02*
D03*
Y1346D02*
D03*
Y1385D02*
D03*
Y1425D02*
D03*
X4022Y1307D02*
D03*
Y1346D02*
D03*
Y1385D02*
D03*
Y1425D02*
D03*
X3983Y1307D02*
D03*
Y1346D02*
D03*
Y1385D02*
D03*
Y1425D02*
D03*
X3943Y1307D02*
D03*
Y1346D02*
D03*
Y1385D02*
D03*
Y1425D02*
D03*
X3771Y470D02*
D03*
X3731D02*
D03*
X3692D02*
D03*
X3653D02*
D03*
X3771Y430D02*
D03*
X3731D02*
D03*
X3692D02*
D03*
X3653D02*
D03*
X3771Y391D02*
D03*
X3731D02*
D03*
X3692D02*
D03*
X3653D02*
D03*
X3771Y352D02*
D03*
X3731D02*
D03*
X3692D02*
D03*
X3653D02*
D03*
X3456Y470D02*
D03*
X3416D02*
D03*
X3377D02*
D03*
X3338D02*
D03*
X3456Y430D02*
D03*
X3416D02*
D03*
X3377D02*
D03*
X3338D02*
D03*
X3456Y391D02*
D03*
X3416D02*
D03*
X3377D02*
D03*
X3338D02*
D03*
X3456Y352D02*
D03*
X3416D02*
D03*
X3377D02*
D03*
X3338D02*
D03*
X2117Y470D02*
D03*
X2077D02*
D03*
X2117Y430D02*
D03*
X2077D02*
D03*
X2117Y391D02*
D03*
X2077D02*
D03*
X2117Y352D02*
D03*
X2077D02*
D03*
X1802Y470D02*
D03*
X1763D02*
D03*
X1723D02*
D03*
X1684D02*
D03*
X1802Y430D02*
D03*
X1763D02*
D03*
X1723D02*
D03*
X1684D02*
D03*
X1802Y391D02*
D03*
X1763D02*
D03*
X1723D02*
D03*
X1684D02*
D03*
X1802Y352D02*
D03*
X1763D02*
D03*
X1723D02*
D03*
X1684D02*
D03*
X2117Y3006D02*
D03*
X2077D02*
D03*
X2038D02*
D03*
X1999D02*
D03*
X2117Y2967D02*
D03*
X2077D02*
D03*
X2038D02*
D03*
X1999D02*
D03*
X2117Y2928D02*
D03*
X2077D02*
D03*
X2038D02*
D03*
X1999D02*
D03*
X2117Y2888D02*
D03*
X2077D02*
D03*
X2038D02*
D03*
X1999D02*
D03*
X1802Y3006D02*
D03*
X1763D02*
D03*
X1723D02*
D03*
X1684D02*
D03*
X1802Y2967D02*
D03*
X1763D02*
D03*
X1723D02*
D03*
X1684D02*
D03*
X1802Y2928D02*
D03*
X1763D02*
D03*
X1723D02*
D03*
X1684D02*
D03*
X1802Y2888D02*
D03*
X1763D02*
D03*
X1723D02*
D03*
X1684D02*
D03*
X2038Y352D02*
D03*
Y430D02*
D03*
Y470D02*
D03*
Y391D02*
D03*
X1999Y352D02*
D03*
Y430D02*
D03*
Y470D02*
D03*
Y391D02*
D03*
D31*
X2273Y1708D02*
D03*
X2878Y1442D02*
D03*
X3264Y1605D02*
D03*
X2675Y1863D02*
D03*
X2680Y1558D02*
D03*
X3272Y1529D02*
D03*
M02*
