G04 Layer_Color=32896*
%FSLAX23Y23*%
%MOIN*%
G70*
G01*
G75*
%ADD38C,0.008*%
%ADD40C,0.005*%
%ADD41C,0.007*%
G36*
X3927Y2150D02*
X3915D01*
Y2195D01*
X3927D01*
Y2150D01*
D02*
G37*
G36*
X3932Y2058D02*
X3962D01*
Y2046D01*
X3933D01*
Y2016D01*
X3920D01*
Y2046D01*
X3890D01*
Y2058D01*
X3920D01*
Y2088D01*
X3932D01*
Y2058D01*
D02*
G37*
G36*
Y1153D02*
X3962D01*
Y1141D01*
X3933D01*
Y1111D01*
X3920D01*
Y1141D01*
X3890D01*
Y1153D01*
X3920D01*
Y1183D01*
X3932D01*
Y1153D01*
D02*
G37*
G36*
X3927Y1245D02*
X3915D01*
Y1290D01*
X3927D01*
Y1245D01*
D02*
G37*
G36*
X1538Y1111D02*
X1526D01*
Y1156D01*
X1538D01*
Y1111D01*
D02*
G37*
G36*
X1533Y1260D02*
X1563D01*
Y1248D01*
X1533D01*
Y1218D01*
X1521D01*
Y1248D01*
X1491D01*
Y1260D01*
X1520D01*
Y1290D01*
X1533D01*
Y1260D01*
D02*
G37*
G36*
X1526Y2168D02*
X1556D01*
Y2156D01*
X1526D01*
Y2126D01*
X1514D01*
Y2156D01*
X1484D01*
Y2168D01*
X1513D01*
Y2198D01*
X1526D01*
Y2168D01*
D02*
G37*
G36*
X1531Y2019D02*
X1519D01*
Y2064D01*
X1531D01*
Y2019D01*
D02*
G37*
G36*
X3348Y463D02*
X3303D01*
Y475D01*
X3348D01*
Y463D01*
D02*
G37*
G36*
X3211Y470D02*
X3241D01*
Y458D01*
X3211D01*
Y428D01*
X3199D01*
Y457D01*
X3169D01*
Y470D01*
X3199D01*
Y500D01*
X3211D01*
Y470D01*
D02*
G37*
G36*
X2645Y488D02*
X2675D01*
Y476D01*
X2645D01*
Y446D01*
X2633D01*
Y475D01*
X2603D01*
Y488D01*
X2633D01*
Y518D01*
X2645D01*
Y488D01*
D02*
G37*
G36*
X2839Y481D02*
X2794D01*
Y493D01*
X2839D01*
Y481D01*
D02*
G37*
G36*
X2691Y2890D02*
X2646D01*
Y2902D01*
X2691D01*
Y2890D01*
D02*
G37*
G36*
X2795Y2908D02*
X2825D01*
Y2895D01*
X2795D01*
Y2865D01*
X2783D01*
Y2895D01*
X2753D01*
Y2907D01*
X2783D01*
Y2937D01*
X2795D01*
Y2908D01*
D02*
G37*
G36*
X2101Y470D02*
X2131D01*
Y458D01*
X2101D01*
Y428D01*
X2089D01*
Y457D01*
X2059D01*
Y470D01*
X2089D01*
Y500D01*
X2101D01*
Y470D01*
D02*
G37*
G36*
X2238Y463D02*
X2193D01*
Y475D01*
X2238D01*
Y463D01*
D02*
G37*
D38*
X2974Y1677D02*
X3026D01*
X3224Y1491D02*
Y1543D01*
X3128Y1677D02*
X3180D01*
X2808Y1184D02*
X2840D01*
X2808Y1082D02*
X2840D01*
X2808Y1339D02*
X2840D01*
X2808Y1237D02*
X2840D01*
X3059Y1887D02*
Y1919D01*
X2957Y1887D02*
Y1919D01*
X3209Y1887D02*
Y1919D01*
X3107Y1887D02*
Y1919D01*
X2246Y1121D02*
X2278D01*
X2246Y1223D02*
X2278D01*
X2246Y970D02*
X2278D01*
X2246Y1072D02*
X2278D01*
X2607Y1887D02*
Y1919D01*
X2504Y1887D02*
Y1919D01*
X2458Y1887D02*
Y1919D01*
X2355Y1887D02*
Y1919D01*
X2614Y1491D02*
Y1543D01*
X2466Y1677D02*
X2518D01*
X2318D02*
X2369D01*
X2484Y983D02*
Y1035D01*
X2231Y1427D02*
Y1479D01*
X2822Y1427D02*
Y1479D01*
D40*
X2908Y1365D02*
Y1395D01*
X2893D01*
X2888Y1390D01*
Y1380D01*
X2893Y1375D01*
X2908D01*
X2898D02*
X2888Y1365D01*
X2873D02*
Y1390D01*
Y1380D01*
X2878D01*
X2868D01*
X2873D01*
Y1390D01*
X2868Y1395D01*
X2853D02*
Y1365D01*
X2838D01*
X2833Y1370D01*
Y1375D01*
Y1380D01*
X2838Y1385D01*
X2853D01*
X2818Y1390D02*
Y1385D01*
X2823D01*
X2813D01*
X2818D01*
Y1370D01*
X2813Y1365D01*
X2798Y1360D02*
X2778D01*
X2748Y1395D02*
X2768D01*
Y1380D01*
X2758Y1385D01*
X2753D01*
X2748Y1380D01*
Y1370D01*
X2753Y1365D01*
X2763D01*
X2768Y1370D01*
X3218Y1575D02*
X3248D01*
Y1590D01*
X3243Y1595D01*
X3233D01*
X3228Y1590D01*
Y1575D01*
Y1585D02*
X3218Y1595D01*
X3238Y1625D02*
Y1610D01*
X3233Y1605D01*
X3223D01*
X3218Y1610D01*
Y1625D01*
Y1640D02*
Y1650D01*
X3223Y1655D01*
X3233D01*
X3238Y1650D01*
Y1640D01*
X3233Y1635D01*
X3223D01*
X3218Y1640D01*
Y1665D02*
X3238D01*
Y1670D01*
X3233Y1675D01*
X3218D01*
X3233D01*
X3238Y1680D01*
X3233Y1685D01*
X3218D01*
X3208Y1695D02*
X3238D01*
Y1710D01*
X3233Y1715D01*
X3223D01*
X3218Y1710D01*
Y1695D01*
X3213Y1725D02*
Y1745D01*
X3248Y1775D02*
Y1755D01*
X3233D01*
X3238Y1765D01*
Y1770D01*
X3233Y1775D01*
X3223D01*
X3218Y1770D01*
Y1760D01*
X3223Y1755D01*
X3270Y1824D02*
X3275Y1819D01*
Y1809D01*
X3270Y1804D01*
X3250D01*
X3245Y1809D01*
Y1819D01*
X3250Y1824D01*
X3245Y1839D02*
Y1849D01*
X3250Y1854D01*
X3260D01*
X3265Y1849D01*
Y1839D01*
X3260Y1834D01*
X3250D01*
X3245Y1839D01*
X3265Y1864D02*
X3250D01*
X3245Y1869D01*
Y1884D01*
X3265D01*
X3270Y1899D02*
X3265D01*
Y1894D01*
Y1904D01*
Y1899D01*
X3250D01*
X3245Y1904D01*
Y1939D02*
Y1919D01*
X3265Y1939D01*
X3270D01*
X3275Y1934D01*
Y1924D01*
X3270Y1919D01*
X3240Y1949D02*
Y1969D01*
X3275Y1999D02*
Y1979D01*
X3260D01*
X3265Y1989D01*
Y1994D01*
X3260Y1999D01*
X3250D01*
X3245Y1994D01*
Y1984D01*
X3250Y1979D01*
X2923Y1841D02*
X2928Y1836D01*
Y1826D01*
X2923Y1821D01*
X2903D01*
X2898Y1826D01*
Y1836D01*
X2903Y1841D01*
X2898Y1856D02*
Y1866D01*
X2903Y1871D01*
X2913D01*
X2918Y1866D01*
Y1856D01*
X2913Y1851D01*
X2903D01*
X2898Y1856D01*
X2918Y1881D02*
X2903D01*
X2898Y1886D01*
Y1901D01*
X2918D01*
X2923Y1916D02*
X2918D01*
Y1911D01*
Y1921D01*
Y1916D01*
X2903D01*
X2898Y1921D01*
Y1936D02*
Y1946D01*
Y1941D01*
X2928D01*
X2923Y1936D01*
X2893Y1961D02*
Y1981D01*
X2928Y2011D02*
Y1991D01*
X2913D01*
X2918Y2001D01*
Y2006D01*
X2913Y2011D01*
X2903D01*
X2898Y2006D01*
Y1996D01*
X2903Y1991D01*
X3087Y1331D02*
X3092Y1336D01*
X3102D01*
X3107Y1331D01*
Y1311D01*
X3102Y1306D01*
X3092D01*
X3087Y1311D01*
X3077Y1306D02*
X3067D01*
X3072D01*
Y1326D01*
X3077D01*
X3052Y1306D02*
Y1326D01*
X3037D01*
X3032Y1321D01*
Y1306D01*
X3002D02*
X3022D01*
X3002Y1326D01*
Y1331D01*
X3007Y1336D01*
X3017D01*
X3022Y1331D01*
X2992Y1301D02*
X2972D01*
X2942Y1336D02*
X2962D01*
Y1321D01*
X2952Y1326D01*
X2947D01*
X2942Y1321D01*
Y1311D01*
X2947Y1306D01*
X2957D01*
X2962Y1311D01*
X3087Y1099D02*
X3092Y1104D01*
X3102D01*
X3107Y1099D01*
Y1079D01*
X3102Y1074D01*
X3092D01*
X3087Y1079D01*
X3077Y1074D02*
X3067D01*
X3072D01*
Y1094D01*
X3077D01*
X3052Y1074D02*
Y1094D01*
X3037D01*
X3032Y1089D01*
Y1074D01*
X3022D02*
X3012D01*
X3017D01*
Y1104D01*
X3022Y1099D01*
X2997Y1069D02*
X2977D01*
X2947Y1104D02*
X2967D01*
Y1089D01*
X2957Y1094D01*
X2952D01*
X2947Y1089D01*
Y1079D01*
X2952Y1074D01*
X2962D01*
X2967Y1079D01*
X3108Y1525D02*
X3113Y1530D01*
X3123D01*
X3128Y1525D01*
Y1505D01*
X3123Y1500D01*
X3113D01*
X3108Y1505D01*
X3078Y1520D02*
X3093D01*
X3098Y1515D01*
Y1505D01*
X3093Y1500D01*
X3078D01*
X3063D02*
X3053D01*
X3048Y1505D01*
Y1515D01*
X3053Y1520D01*
X3063D01*
X3068Y1515D01*
Y1505D01*
X3063Y1500D01*
X3038D02*
Y1520D01*
X3033D01*
X3028Y1515D01*
Y1500D01*
Y1515D01*
X3023Y1520D01*
X3018Y1515D01*
Y1500D01*
X3008Y1490D02*
Y1520D01*
X2993D01*
X2988Y1515D01*
Y1505D01*
X2993Y1500D01*
X3008D01*
X2978Y1495D02*
X2958D01*
X2928Y1530D02*
X2948D01*
Y1515D01*
X2938Y1520D01*
X2933D01*
X2928Y1515D01*
Y1505D01*
X2933Y1500D01*
X2943D01*
X2948Y1505D01*
X2956Y1575D02*
X2961Y1570D01*
Y1560D01*
X2956Y1555D01*
X2936D01*
X2931Y1560D01*
Y1570D01*
X2936Y1575D01*
X2951Y1605D02*
Y1590D01*
X2946Y1585D01*
X2936D01*
X2931Y1590D01*
Y1605D01*
Y1620D02*
Y1630D01*
X2936Y1635D01*
X2946D01*
X2951Y1630D01*
Y1620D01*
X2946Y1615D01*
X2936D01*
X2931Y1620D01*
Y1645D02*
X2951D01*
Y1650D01*
X2946Y1655D01*
X2931D01*
X2946D01*
X2951Y1660D01*
X2946Y1665D01*
X2931D01*
X2921Y1675D02*
X2951D01*
Y1690D01*
X2946Y1695D01*
X2936D01*
X2931Y1690D01*
Y1675D01*
Y1725D02*
Y1705D01*
X2951Y1725D01*
X2956D01*
X2961Y1720D01*
Y1710D01*
X2956Y1705D01*
X2926Y1735D02*
Y1755D01*
X2961Y1785D02*
Y1765D01*
X2946D01*
X2951Y1775D01*
Y1780D01*
X2946Y1785D01*
X2936D01*
X2931Y1780D01*
Y1770D01*
X2936Y1765D01*
D41*
X2266Y1369D02*
Y1399D01*
X2251D01*
X2246Y1394D01*
Y1384D01*
X2251Y1379D01*
X2266D01*
X2256D02*
X2246Y1369D01*
X2231D02*
Y1394D01*
Y1384D01*
X2236D01*
X2226D01*
X2231D01*
Y1394D01*
X2226Y1399D01*
X2211D02*
Y1369D01*
X2196D01*
X2191Y1374D01*
Y1379D01*
Y1384D01*
X2196Y1389D01*
X2211D01*
X2176Y1394D02*
Y1389D01*
X2181D01*
X2171D01*
X2176D01*
Y1374D01*
X2171Y1369D01*
X2529Y1059D02*
Y1089D01*
X2514D01*
X2509Y1084D01*
Y1074D01*
X2514Y1069D01*
X2529D01*
X2519D02*
X2509Y1059D01*
X2494D02*
Y1084D01*
Y1074D01*
X2499D01*
X2489D01*
X2494D01*
Y1084D01*
X2489Y1089D01*
X2474D02*
Y1059D01*
X2459D01*
X2454Y1064D01*
Y1069D01*
Y1074D01*
X2459Y1079D01*
X2474D01*
X2444Y1089D02*
Y1059D01*
X2429D01*
X2424Y1064D01*
Y1069D01*
Y1074D01*
X2429Y1079D01*
X2444D01*
X2395Y1601D02*
X2425D01*
Y1616D01*
X2420Y1621D01*
X2410D01*
X2405Y1616D01*
Y1601D01*
Y1611D02*
X2395Y1621D01*
X2415Y1651D02*
Y1636D01*
X2410Y1631D01*
X2400D01*
X2395Y1636D01*
Y1651D01*
Y1666D02*
Y1676D01*
X2400Y1681D01*
X2410D01*
X2415Y1676D01*
Y1666D01*
X2410Y1661D01*
X2400D01*
X2395Y1666D01*
Y1691D02*
X2415D01*
Y1696D01*
X2410Y1701D01*
X2395D01*
X2410D01*
X2415Y1706D01*
X2410Y1711D01*
X2395D01*
X2385Y1721D02*
X2415D01*
Y1736D01*
X2410Y1741D01*
X2400D01*
X2395Y1736D01*
Y1721D01*
X2326Y1856D02*
X2331Y1851D01*
Y1841D01*
X2326Y1836D01*
X2306D01*
X2302Y1841D01*
Y1851D01*
X2306Y1856D01*
X2302Y1871D02*
Y1881D01*
X2306Y1886D01*
X2316D01*
X2321Y1881D01*
Y1871D01*
X2316Y1866D01*
X2306D01*
X2302Y1871D01*
X2321Y1896D02*
X2306D01*
X2302Y1901D01*
Y1916D01*
X2321D01*
X2326Y1931D02*
X2321D01*
Y1926D01*
Y1936D01*
Y1931D01*
X2306D01*
X2302Y1936D01*
Y1971D02*
Y1951D01*
X2321Y1971D01*
X2326D01*
X2331Y1966D01*
Y1956D01*
X2326Y1951D01*
X2665Y1862D02*
X2670Y1857D01*
Y1847D01*
X2665Y1842D01*
X2645D01*
X2641Y1847D01*
Y1857D01*
X2645Y1862D01*
X2641Y1877D02*
Y1887D01*
X2645Y1892D01*
X2655D01*
X2660Y1887D01*
Y1877D01*
X2655Y1872D01*
X2645D01*
X2641Y1877D01*
X2660Y1902D02*
X2645D01*
X2641Y1907D01*
Y1922D01*
X2660D01*
X2665Y1937D02*
X2660D01*
Y1932D01*
Y1942D01*
Y1937D01*
X2645D01*
X2641Y1942D01*
Y1957D02*
Y1967D01*
Y1962D01*
X2670D01*
X2665Y1957D01*
X2284Y920D02*
X2289Y925D01*
X2299D01*
X2304Y920D01*
Y900D01*
X2299Y895D01*
X2289D01*
X2284Y900D01*
X2274Y895D02*
X2264D01*
X2269D01*
Y915D01*
X2274D01*
X2249Y895D02*
Y915D01*
X2234D01*
X2229Y910D01*
Y895D01*
X2199D02*
X2219D01*
X2199Y915D01*
Y920D01*
X2204Y925D01*
X2214D01*
X2219Y920D01*
X2287Y1280D02*
X2292Y1285D01*
X2302D01*
X2307Y1280D01*
Y1260D01*
X2302Y1255D01*
X2292D01*
X2287Y1260D01*
X2277Y1255D02*
X2267D01*
X2272D01*
Y1275D01*
X2277D01*
X2252Y1255D02*
Y1275D01*
X2237D01*
X2232Y1270D01*
Y1255D01*
X2222D02*
X2212D01*
X2217D01*
Y1285D01*
X2222Y1280D01*
X2582Y1624D02*
X2587Y1619D01*
Y1609D01*
X2582Y1604D01*
X2562D01*
X2557Y1609D01*
Y1619D01*
X2562Y1624D01*
X2577Y1654D02*
Y1639D01*
X2572Y1634D01*
X2562D01*
X2557Y1639D01*
Y1654D01*
Y1669D02*
Y1679D01*
X2562Y1684D01*
X2572D01*
X2577Y1679D01*
Y1669D01*
X2572Y1664D01*
X2562D01*
X2557Y1669D01*
Y1694D02*
X2577D01*
Y1699D01*
X2572Y1704D01*
X2557D01*
X2572D01*
X2577Y1709D01*
X2572Y1714D01*
X2557D01*
X2547Y1724D02*
X2577D01*
Y1739D01*
X2572Y1744D01*
X2562D01*
X2557Y1739D01*
Y1724D01*
X2493Y1525D02*
X2498Y1530D01*
X2508D01*
X2513Y1525D01*
Y1505D01*
X2508Y1500D01*
X2498D01*
X2493Y1505D01*
X2463Y1520D02*
X2478D01*
X2483Y1515D01*
Y1505D01*
X2478Y1500D01*
X2463D01*
X2448D02*
X2438D01*
X2433Y1505D01*
Y1515D01*
X2438Y1520D01*
X2448D01*
X2453Y1515D01*
Y1505D01*
X2448Y1500D01*
X2423D02*
Y1520D01*
X2418D01*
X2413Y1515D01*
Y1500D01*
Y1515D01*
X2408Y1520D01*
X2403Y1515D01*
Y1500D01*
X2393Y1490D02*
Y1520D01*
X2378D01*
X2373Y1515D01*
Y1505D01*
X2378Y1500D01*
X2393D01*
X2343D02*
X2363D01*
X2343Y1520D01*
Y1525D01*
X2348Y1530D01*
X2358D01*
X2363Y1525D01*
M02*
