G04 Layer_Color=128*
%FSLAX23Y23*%
%MOIN*%
G70*
G01*
G75*
%ADD40C,0.005*%
D40*
X2759Y707D02*
X2793D01*
X2776Y689D02*
Y725D01*
X2658Y707D02*
X2694D01*
X2676Y689D02*
Y725D01*
X2562Y2251D02*
X2596D01*
X2579Y2234D02*
Y2269D01*
X2661Y2251D02*
X2697D01*
X2679Y2234D02*
Y2269D01*
X2761Y2251D02*
X2796D01*
X2779Y2234D02*
Y2269D01*
X2862Y2251D02*
X2897D01*
X2879Y2234D02*
Y2269D01*
X2862Y2435D02*
X2897D01*
X2879Y2418D02*
Y2453D01*
X2761Y2435D02*
X2796D01*
X2779Y2418D02*
Y2453D01*
X2661Y2435D02*
X2697D01*
X2679Y2418D02*
Y2453D01*
X2562Y2435D02*
X2596D01*
X2579Y2418D02*
Y2453D01*
X3921Y2926D02*
X4047D01*
X3984Y2864D02*
Y2989D01*
X3921Y421D02*
X4047D01*
X3984Y359D02*
Y484D01*
X1411Y421D02*
X1536D01*
X1474Y359D02*
Y484D01*
X1411Y2926D02*
X1536D01*
X1474Y2864D02*
Y2989D01*
X2774Y406D02*
X2784D01*
X2779Y401D02*
Y411D01*
X2794Y406D02*
X2804D01*
X2799Y401D02*
Y411D01*
X2813Y406D02*
X2823D01*
X2818Y401D02*
Y411D01*
X2833Y406D02*
X2843D01*
X2838Y401D02*
Y411D01*
X2853Y406D02*
X2863D01*
X2858Y401D02*
Y411D01*
X2853Y387D02*
X2863D01*
X2858Y382D02*
Y392D01*
X2833Y387D02*
X2843D01*
X2838Y382D02*
Y392D01*
X2813Y387D02*
X2823D01*
X2818Y382D02*
Y392D01*
X2794Y387D02*
X2804D01*
X2799Y382D02*
Y392D01*
X2774Y387D02*
X2784D01*
X2779Y382D02*
Y392D01*
X2853Y367D02*
X2863D01*
X2858Y362D02*
Y372D01*
X2833Y367D02*
X2843D01*
X2838Y362D02*
Y372D01*
X2813Y367D02*
X2823D01*
X2818Y362D02*
Y372D01*
X2794Y367D02*
X2804D01*
X2799Y362D02*
Y372D01*
X2774Y367D02*
X2784D01*
X2779Y362D02*
Y372D01*
X2853Y347D02*
X2863D01*
X2858Y342D02*
Y352D01*
X2833Y347D02*
X2843D01*
X2838Y342D02*
Y352D01*
X2813Y347D02*
X2823D01*
X2818Y342D02*
Y352D01*
X2794Y347D02*
X2804D01*
X2799Y342D02*
Y352D01*
X2774Y347D02*
X2784D01*
X2779Y342D02*
Y352D01*
X2853Y328D02*
X2863D01*
X2858Y323D02*
Y333D01*
X2833Y328D02*
X2843D01*
X2838Y323D02*
Y333D01*
X2813Y328D02*
X2823D01*
X2818Y323D02*
Y333D01*
X2794Y328D02*
X2804D01*
X2799Y323D02*
Y333D01*
X2774Y328D02*
X2784D01*
X2779Y323D02*
Y333D01*
X2676Y406D02*
X2686D01*
X2681Y401D02*
Y411D01*
X2656Y406D02*
X2666D01*
X2661Y401D02*
Y411D01*
X2636Y406D02*
X2646D01*
X2641Y401D02*
Y411D01*
X2617Y406D02*
X2627D01*
X2622Y401D02*
Y411D01*
X2597Y406D02*
X2607D01*
X2602Y401D02*
Y411D01*
X2676Y387D02*
X2686D01*
X2681Y382D02*
Y392D01*
X2656Y387D02*
X2666D01*
X2661Y382D02*
Y392D01*
X2636Y387D02*
X2646D01*
X2641Y382D02*
Y392D01*
X2617Y387D02*
X2627D01*
X2622Y382D02*
Y392D01*
X2597Y387D02*
X2607D01*
X2602Y382D02*
Y392D01*
X2676Y367D02*
X2686D01*
X2681Y362D02*
Y372D01*
X2656Y367D02*
X2666D01*
X2661Y362D02*
Y372D01*
X2636Y367D02*
X2646D01*
X2641Y362D02*
Y372D01*
X2617Y367D02*
X2627D01*
X2622Y362D02*
Y372D01*
X2597Y367D02*
X2607D01*
X2602Y362D02*
Y372D01*
X2676Y347D02*
X2686D01*
X2681Y342D02*
Y352D01*
X2656Y347D02*
X2666D01*
X2661Y342D02*
Y352D01*
X2636Y347D02*
X2646D01*
X2641Y342D02*
Y352D01*
X2617Y347D02*
X2627D01*
X2622Y342D02*
Y352D01*
X2597Y347D02*
X2607D01*
X2602Y342D02*
Y352D01*
X2676Y328D02*
X2686D01*
X2681Y323D02*
Y333D01*
X2656Y328D02*
X2666D01*
X2661Y323D02*
Y333D01*
X2636Y328D02*
X2646D01*
X2641Y323D02*
Y333D01*
X2617Y328D02*
X2627D01*
X2622Y323D02*
Y333D01*
X2597Y328D02*
X2607D01*
X2602Y323D02*
Y333D01*
X1385Y1285D02*
X1395D01*
X1390Y1280D02*
Y1290D01*
X1385Y1265D02*
X1395D01*
X1390Y1260D02*
Y1270D01*
X1385Y1245D02*
X1395D01*
X1390Y1240D02*
Y1250D01*
X1405Y1285D02*
X1415D01*
X1410Y1280D02*
Y1290D01*
X1405Y1265D02*
X1415D01*
X1410Y1260D02*
Y1270D01*
X1405Y1245D02*
X1415D01*
X1410Y1240D02*
Y1250D01*
X1424Y1285D02*
X1434D01*
X1429Y1280D02*
Y1290D01*
X1424Y1265D02*
X1434D01*
X1429Y1260D02*
Y1270D01*
X1424Y1245D02*
X1434D01*
X1429Y1240D02*
Y1250D01*
X1385Y1163D02*
X1395D01*
X1390Y1158D02*
Y1168D01*
X1385Y1143D02*
X1395D01*
X1390Y1138D02*
Y1148D01*
X1385Y1123D02*
X1395D01*
X1390Y1118D02*
Y1128D01*
X1405Y1163D02*
X1415D01*
X1410Y1158D02*
Y1168D01*
X1405Y1143D02*
X1415D01*
X1410Y1138D02*
Y1148D01*
X1405Y1123D02*
X1415D01*
X1410Y1118D02*
Y1128D01*
X1424Y1163D02*
X1434D01*
X1429Y1158D02*
Y1168D01*
X1424Y1143D02*
X1434D01*
X1429Y1138D02*
Y1148D01*
X1424Y1123D02*
X1434D01*
X1429Y1118D02*
Y1128D01*
X1383Y2190D02*
X1393D01*
X1388Y2185D02*
Y2195D01*
X1383Y2170D02*
X1393D01*
X1388Y2165D02*
Y2175D01*
X1383Y2151D02*
X1393D01*
X1388Y2146D02*
Y2156D01*
X1403Y2190D02*
X1413D01*
X1408Y2185D02*
Y2195D01*
X1403Y2170D02*
X1413D01*
X1408Y2165D02*
Y2175D01*
X1403Y2151D02*
X1413D01*
X1408Y2146D02*
Y2156D01*
X1422Y2190D02*
X1432D01*
X1427Y2185D02*
Y2195D01*
X1422Y2170D02*
X1432D01*
X1427Y2165D02*
Y2175D01*
X1422Y2151D02*
X1432D01*
X1427Y2146D02*
Y2156D01*
X1383Y2068D02*
X1393D01*
X1388Y2063D02*
Y2073D01*
X1383Y2048D02*
X1393D01*
X1388Y2043D02*
Y2053D01*
X1383Y2029D02*
X1393D01*
X1388Y2024D02*
Y2034D01*
X1403Y2068D02*
X1413D01*
X1408Y2063D02*
Y2073D01*
X1403Y2048D02*
X1413D01*
X1408Y2043D02*
Y2053D01*
X1403Y2029D02*
X1413D01*
X1408Y2024D02*
Y2034D01*
X1422Y2068D02*
X1432D01*
X1427Y2063D02*
Y2073D01*
X1422Y2048D02*
X1432D01*
X1427Y2043D02*
Y2053D01*
X1422Y2029D02*
X1432D01*
X1427Y2024D02*
Y2034D01*
X4071Y2029D02*
X4081D01*
X4076Y2024D02*
Y2034D01*
X4071Y2048D02*
X4081D01*
X4076Y2043D02*
Y2053D01*
X4071Y2068D02*
X4081D01*
X4076Y2063D02*
Y2073D01*
X4052Y2029D02*
X4062D01*
X4057Y2024D02*
Y2034D01*
X4052Y2048D02*
X4062D01*
X4057Y2043D02*
Y2053D01*
X4052Y2068D02*
X4062D01*
X4057Y2063D02*
Y2073D01*
X4032Y2029D02*
X4042D01*
X4037Y2024D02*
Y2034D01*
X4032Y2048D02*
X4042D01*
X4037Y2043D02*
Y2053D01*
X4032Y2068D02*
X4042D01*
X4037Y2063D02*
Y2073D01*
X4071Y2151D02*
X4081D01*
X4076Y2146D02*
Y2156D01*
X4071Y2170D02*
X4081D01*
X4076Y2165D02*
Y2175D01*
X4071Y2190D02*
X4081D01*
X4076Y2185D02*
Y2195D01*
X4052Y2151D02*
X4062D01*
X4057Y2146D02*
Y2156D01*
X4052Y2170D02*
X4062D01*
X4057Y2165D02*
Y2175D01*
X4052Y2190D02*
X4062D01*
X4057Y2185D02*
Y2195D01*
X4032Y2151D02*
X4042D01*
X4037Y2146D02*
Y2156D01*
X4032Y2170D02*
X4042D01*
X4037Y2165D02*
Y2175D01*
X4032Y2190D02*
X4042D01*
X4037Y2185D02*
Y2195D01*
X4071Y1123D02*
X4081D01*
X4076Y1118D02*
Y1128D01*
X4071Y1143D02*
X4081D01*
X4076Y1138D02*
Y1148D01*
X4071Y1163D02*
X4081D01*
X4076Y1158D02*
Y1168D01*
X4052Y1123D02*
X4062D01*
X4057Y1118D02*
Y1128D01*
X4052Y1143D02*
X4062D01*
X4057Y1138D02*
Y1148D01*
X4052Y1163D02*
X4062D01*
X4057Y1158D02*
Y1168D01*
X4032Y1123D02*
X4042D01*
X4037Y1118D02*
Y1128D01*
X4032Y1143D02*
X4042D01*
X4037Y1138D02*
Y1148D01*
X4032Y1163D02*
X4042D01*
X4037Y1158D02*
Y1168D01*
X4071Y1245D02*
X4081D01*
X4076Y1240D02*
Y1250D01*
X4071Y1265D02*
X4081D01*
X4076Y1260D02*
Y1270D01*
X4071Y1285D02*
X4081D01*
X4076Y1280D02*
Y1290D01*
X4052Y1245D02*
X4062D01*
X4057Y1240D02*
Y1250D01*
X4052Y1265D02*
X4062D01*
X4057Y1260D02*
Y1270D01*
X4052Y1285D02*
X4062D01*
X4057Y1280D02*
Y1290D01*
X4032Y1245D02*
X4042D01*
X4037Y1240D02*
Y1250D01*
X4032Y1265D02*
X4042D01*
X4037Y1260D02*
Y1270D01*
X4032Y1285D02*
X4042D01*
X4037Y1280D02*
Y1290D01*
X3184Y327D02*
X3194D01*
X3189Y322D02*
Y332D01*
X3203Y327D02*
X3213D01*
X3208Y322D02*
Y332D01*
X3223Y327D02*
X3233D01*
X3228Y322D02*
Y332D01*
X3184Y347D02*
X3194D01*
X3189Y342D02*
Y352D01*
X3203Y347D02*
X3213D01*
X3208Y342D02*
Y352D01*
X3223Y347D02*
X3233D01*
X3228Y342D02*
Y352D01*
X3184Y367D02*
X3194D01*
X3189Y362D02*
Y372D01*
X3203Y367D02*
X3213D01*
X3208Y362D02*
Y372D01*
X3223Y367D02*
X3233D01*
X3228Y362D02*
Y372D01*
X3306Y327D02*
X3316D01*
X3311Y322D02*
Y332D01*
X3325Y327D02*
X3335D01*
X3330Y322D02*
Y332D01*
X3345Y327D02*
X3355D01*
X3350Y322D02*
Y332D01*
X3306Y347D02*
X3316D01*
X3311Y342D02*
Y352D01*
X3325Y347D02*
X3335D01*
X3330Y342D02*
Y352D01*
X3345Y347D02*
X3355D01*
X3350Y342D02*
Y352D01*
X3306Y367D02*
X3316D01*
X3311Y362D02*
Y372D01*
X3325Y367D02*
X3335D01*
X3330Y362D02*
Y372D01*
X3345Y367D02*
X3355D01*
X3350Y362D02*
Y372D01*
X2066Y327D02*
X2076D01*
X2071Y322D02*
Y332D01*
X2086Y327D02*
X2096D01*
X2091Y322D02*
Y332D01*
X2106Y327D02*
X2116D01*
X2111Y322D02*
Y332D01*
X2066Y347D02*
X2076D01*
X2071Y342D02*
Y352D01*
X2086Y347D02*
X2096D01*
X2091Y342D02*
Y352D01*
X2106Y347D02*
X2116D01*
X2111Y342D02*
Y352D01*
X2066Y367D02*
X2076D01*
X2071Y362D02*
Y372D01*
X2086Y367D02*
X2096D01*
X2091Y362D02*
Y372D01*
X2106Y367D02*
X2116D01*
X2111Y362D02*
Y372D01*
X2188Y327D02*
X2198D01*
X2193Y322D02*
Y332D01*
X2208Y327D02*
X2218D01*
X2213Y322D02*
Y332D01*
X2228Y327D02*
X2238D01*
X2233Y322D02*
Y332D01*
X2188Y347D02*
X2198D01*
X2193Y342D02*
Y352D01*
X2208Y347D02*
X2218D01*
X2213Y342D02*
Y352D01*
X2228Y347D02*
X2238D01*
X2233Y342D02*
Y352D01*
X2188Y367D02*
X2198D01*
X2193Y362D02*
Y372D01*
X2208Y367D02*
X2218D01*
X2213Y362D02*
Y372D01*
X2228Y367D02*
X2238D01*
X2233Y362D02*
Y372D01*
X2806Y3017D02*
X2816D01*
X2811Y3012D02*
Y3022D01*
X2786Y3017D02*
X2796D01*
X2791Y3012D02*
Y3022D01*
X2766Y3017D02*
X2776D01*
X2771Y3012D02*
Y3022D01*
X2806Y2997D02*
X2816D01*
X2811Y2992D02*
Y3002D01*
X2786Y2997D02*
X2796D01*
X2791Y2992D02*
Y3002D01*
X2766Y2997D02*
X2776D01*
X2771Y2992D02*
Y3002D01*
X2806Y2978D02*
X2816D01*
X2811Y2973D02*
Y2983D01*
X2786Y2978D02*
X2796D01*
X2791Y2973D02*
Y2983D01*
X2766Y2978D02*
X2776D01*
X2771Y2973D02*
Y2983D01*
X2683Y3017D02*
X2693D01*
X2688Y3012D02*
Y3022D01*
X2664Y3017D02*
X2674D01*
X2669Y3012D02*
Y3022D01*
X2644Y3017D02*
X2654D01*
X2649Y3012D02*
Y3022D01*
X2683Y2997D02*
X2693D01*
X2688Y2992D02*
Y3002D01*
X2664Y2997D02*
X2674D01*
X2669Y2992D02*
Y3002D01*
X2644Y2997D02*
X2654D01*
X2649Y2992D02*
Y3002D01*
X2683Y2978D02*
X2693D01*
X2688Y2973D02*
Y2983D01*
X2664Y2978D02*
X2674D01*
X2669Y2973D02*
Y2983D01*
X2644Y2978D02*
X2654D01*
X2649Y2973D02*
Y2983D01*
X3078Y1204D02*
X3088D01*
X3083Y1199D02*
Y1209D01*
X3104Y1231D02*
X3114D01*
X3109Y1226D02*
Y1236D01*
X3078Y1231D02*
X3088D01*
X3083Y1226D02*
Y1236D01*
X3103Y1205D02*
X3113D01*
X3108Y1200D02*
Y1210D01*
X3102Y1176D02*
X3112D01*
X3107Y1171D02*
Y1181D01*
X3078Y1176D02*
X3088D01*
X3083Y1171D02*
Y1181D01*
X3054Y1176D02*
X3064D01*
X3059Y1171D02*
Y1181D01*
X3054Y1204D02*
X3064D01*
X3059Y1199D02*
Y1209D01*
X3054Y1231D02*
X3064D01*
X3059Y1226D02*
Y1236D01*
X3054Y1149D02*
X3064D01*
X3059Y1144D02*
Y1154D01*
X3078Y1149D02*
X3088D01*
X3083Y1144D02*
Y1154D01*
X3103Y1149D02*
X3113D01*
X3108Y1144D02*
Y1154D01*
X2522Y1159D02*
X2532D01*
X2527Y1154D02*
Y1164D01*
X2497Y1159D02*
X2507D01*
X2502Y1154D02*
Y1164D01*
X2473Y1159D02*
X2483D01*
X2478Y1154D02*
Y1164D01*
X2473Y1241D02*
X2483D01*
X2478Y1236D02*
Y1246D01*
X2473Y1214D02*
X2483D01*
X2478Y1209D02*
Y1219D01*
X2473Y1186D02*
X2483D01*
X2478Y1181D02*
Y1191D01*
X2497Y1186D02*
X2507D01*
X2502Y1181D02*
Y1191D01*
X2521Y1186D02*
X2531D01*
X2526Y1181D02*
Y1191D01*
X2522Y1215D02*
X2532D01*
X2527Y1210D02*
Y1220D01*
X2497Y1241D02*
X2507D01*
X2502Y1236D02*
Y1246D01*
X2523Y1241D02*
X2533D01*
X2528Y1236D02*
Y1246D01*
X2497Y1214D02*
X2507D01*
X2502Y1209D02*
Y1219D01*
X3258Y1089D02*
X3286D01*
X3272Y1075D02*
Y1103D01*
X2666Y1118D02*
X2694D01*
X2680Y1104D02*
Y1132D01*
X2661Y1423D02*
X2689D01*
X2675Y1409D02*
Y1437D01*
X3250Y1165D02*
X3278D01*
X3264Y1151D02*
Y1179D01*
X2865Y1002D02*
X2891D01*
X2878Y989D02*
Y1015D01*
X2260Y1268D02*
X2286D01*
X2273Y1255D02*
Y1281D01*
M02*
