G04 Layer_Color=16711935*
%FSLAX23Y23*%
%MOIN*%
G70*
G01*
G75*
%ADD44R,0.067X0.063*%
%ADD50R,0.073X0.073*%
%ADD51C,0.073*%
%ADD52R,0.126X0.126*%
%ADD53R,0.087X0.087*%
%ADD54R,0.087X0.087*%
%ADD55R,0.073X0.126*%
%ADD56C,0.087*%
%ADD57C,0.018*%
%ADD58C,0.028*%
%ADD59C,0.058*%
%ADD60R,0.063X0.067*%
%ADD61R,0.067X0.118*%
%ADD62R,0.118X0.067*%
D44*
X3000Y1716D02*
D03*
Y1638D02*
D03*
X3154Y1716D02*
D03*
Y1638D02*
D03*
X2492D02*
D03*
Y1716D02*
D03*
X2343Y1638D02*
D03*
Y1716D02*
D03*
D50*
X2776Y707D02*
D03*
X2579Y2251D02*
D03*
X2779D02*
D03*
Y2435D02*
D03*
X2579D02*
D03*
D51*
X2676Y707D02*
D03*
X2679Y2251D02*
D03*
X2879D02*
D03*
Y2435D02*
D03*
X2679D02*
D03*
D52*
X2818Y367D02*
D03*
X2641D02*
D03*
D53*
X1410Y1265D02*
D03*
Y1143D02*
D03*
X1408Y2170D02*
D03*
Y2048D02*
D03*
X4057D02*
D03*
Y2170D02*
D03*
Y1143D02*
D03*
Y1265D02*
D03*
D54*
X3208Y347D02*
D03*
X3330D02*
D03*
X2091D02*
D03*
X2213D02*
D03*
X2791Y2997D02*
D03*
X2669D02*
D03*
D55*
X3083Y1189D02*
D03*
X2503Y1195D02*
D03*
D56*
X3984Y2926D02*
D03*
Y421D02*
D03*
X1474D02*
D03*
Y2926D02*
D03*
D57*
X2779Y406D02*
D03*
X2799D02*
D03*
X2818D02*
D03*
X2838D02*
D03*
X2858D02*
D03*
Y387D02*
D03*
X2838D02*
D03*
X2818D02*
D03*
X2799D02*
D03*
X2779D02*
D03*
X2858Y367D02*
D03*
X2838D02*
D03*
X2818D02*
D03*
X2799D02*
D03*
X2779D02*
D03*
X2858Y347D02*
D03*
X2838D02*
D03*
X2818D02*
D03*
X2799D02*
D03*
X2779D02*
D03*
X2858Y328D02*
D03*
X2838D02*
D03*
X2818D02*
D03*
X2799D02*
D03*
X2779D02*
D03*
X2681Y406D02*
D03*
X2661D02*
D03*
X2641D02*
D03*
X2622D02*
D03*
X2602D02*
D03*
X2681Y387D02*
D03*
X2661D02*
D03*
X2641D02*
D03*
X2622D02*
D03*
X2602D02*
D03*
X2681Y367D02*
D03*
X2661D02*
D03*
X2641D02*
D03*
X2622D02*
D03*
X2602D02*
D03*
X2681Y347D02*
D03*
X2661D02*
D03*
X2641D02*
D03*
X2622D02*
D03*
X2602D02*
D03*
X2681Y328D02*
D03*
X2661D02*
D03*
X2641D02*
D03*
X2622D02*
D03*
X2602D02*
D03*
X1390Y1285D02*
D03*
Y1265D02*
D03*
Y1245D02*
D03*
X1410Y1285D02*
D03*
Y1265D02*
D03*
Y1245D02*
D03*
X1429Y1285D02*
D03*
Y1265D02*
D03*
Y1245D02*
D03*
X1390Y1163D02*
D03*
Y1143D02*
D03*
Y1123D02*
D03*
X1410Y1163D02*
D03*
Y1143D02*
D03*
Y1123D02*
D03*
X1429Y1163D02*
D03*
Y1143D02*
D03*
Y1123D02*
D03*
X1388Y2190D02*
D03*
Y2170D02*
D03*
Y2151D02*
D03*
X1408Y2190D02*
D03*
Y2170D02*
D03*
Y2151D02*
D03*
X1427Y2190D02*
D03*
Y2170D02*
D03*
Y2151D02*
D03*
X1388Y2068D02*
D03*
Y2048D02*
D03*
Y2029D02*
D03*
X1408Y2068D02*
D03*
Y2048D02*
D03*
Y2029D02*
D03*
X1427Y2068D02*
D03*
Y2048D02*
D03*
Y2029D02*
D03*
X4076Y2029D02*
D03*
Y2048D02*
D03*
Y2068D02*
D03*
X4057Y2029D02*
D03*
Y2048D02*
D03*
Y2068D02*
D03*
X4037Y2029D02*
D03*
Y2048D02*
D03*
Y2068D02*
D03*
X4076Y2151D02*
D03*
Y2170D02*
D03*
Y2190D02*
D03*
X4057Y2151D02*
D03*
Y2170D02*
D03*
Y2190D02*
D03*
X4037Y2151D02*
D03*
Y2170D02*
D03*
Y2190D02*
D03*
X4076Y1123D02*
D03*
Y1143D02*
D03*
Y1163D02*
D03*
X4057Y1123D02*
D03*
Y1143D02*
D03*
Y1163D02*
D03*
X4037Y1123D02*
D03*
Y1143D02*
D03*
Y1163D02*
D03*
X4076Y1245D02*
D03*
Y1265D02*
D03*
Y1285D02*
D03*
X4057Y1245D02*
D03*
Y1265D02*
D03*
Y1285D02*
D03*
X4037Y1245D02*
D03*
Y1265D02*
D03*
Y1285D02*
D03*
X3189Y327D02*
D03*
X3208D02*
D03*
X3228D02*
D03*
X3189Y347D02*
D03*
X3208D02*
D03*
X3228D02*
D03*
X3189Y367D02*
D03*
X3208D02*
D03*
X3228D02*
D03*
X3311Y327D02*
D03*
X3330D02*
D03*
X3350D02*
D03*
X3311Y347D02*
D03*
X3330D02*
D03*
X3350D02*
D03*
X3311Y367D02*
D03*
X3330D02*
D03*
X3350D02*
D03*
X2071Y327D02*
D03*
X2091D02*
D03*
X2111D02*
D03*
X2071Y347D02*
D03*
X2091D02*
D03*
X2111D02*
D03*
X2071Y367D02*
D03*
X2091D02*
D03*
X2111D02*
D03*
X2193Y327D02*
D03*
X2213D02*
D03*
X2233D02*
D03*
X2193Y347D02*
D03*
X2213D02*
D03*
X2233D02*
D03*
X2193Y367D02*
D03*
X2213D02*
D03*
X2233D02*
D03*
X2811Y3017D02*
D03*
X2791D02*
D03*
X2771D02*
D03*
X2811Y2997D02*
D03*
X2791D02*
D03*
X2771D02*
D03*
X2811Y2978D02*
D03*
X2791D02*
D03*
X2771D02*
D03*
X2688Y3017D02*
D03*
X2669D02*
D03*
X2649D02*
D03*
X2688Y2997D02*
D03*
X2669D02*
D03*
X2649D02*
D03*
X2688Y2978D02*
D03*
X2669D02*
D03*
X2649D02*
D03*
D58*
X3083Y1204D02*
D03*
X3109Y1231D02*
D03*
X3083Y1231D02*
D03*
X3108Y1205D02*
D03*
X3107Y1176D02*
D03*
X3083D02*
D03*
X3059D02*
D03*
Y1204D02*
D03*
Y1231D02*
D03*
Y1149D02*
D03*
X3083D02*
D03*
X3108D02*
D03*
X2527Y1159D02*
D03*
X2502D02*
D03*
X2478D02*
D03*
Y1241D02*
D03*
Y1214D02*
D03*
Y1186D02*
D03*
X2502D02*
D03*
X2526D02*
D03*
X2527Y1215D02*
D03*
X2502Y1241D02*
D03*
X2528Y1241D02*
D03*
X2502Y1214D02*
D03*
D59*
X3272Y1089D02*
D03*
X2680Y1118D02*
D03*
X2675Y1423D02*
D03*
X3264Y1165D02*
D03*
X2878Y1002D02*
D03*
X2273Y1268D02*
D03*
D60*
X3263Y1517D02*
D03*
X3185D02*
D03*
X2653D02*
D03*
X2575D02*
D03*
X2445Y1009D02*
D03*
X2523D02*
D03*
X2192Y1453D02*
D03*
X2270D02*
D03*
X2783D02*
D03*
X2861D02*
D03*
D61*
X2885Y1133D02*
D03*
X2763D02*
D03*
X2885Y1288D02*
D03*
X2763D02*
D03*
X2201Y1172D02*
D03*
X2323D02*
D03*
X2201Y1021D02*
D03*
X2323D02*
D03*
D62*
X3008Y1842D02*
D03*
Y1964D02*
D03*
X3158Y1842D02*
D03*
Y1964D02*
D03*
X2556Y1842D02*
D03*
Y1964D02*
D03*
X2407Y1842D02*
D03*
Y1964D02*
D03*
M02*
