M48
;Layer_Color=9474304
;FILE_FORMAT=2:3
INCH,LZ
;TYPE=PLATED
T1F00S00C0.015
T2F00S00C0.020
T3F00S00C0.025
T4F00S00C0.028
T5F00S00C0.035
T6F00S00C0.125
%
T01
X02478Y01599
X02502
X02527
X02526Y01626
X02502
X02478
Y01654
X02502Y01654
X02527Y01655
X02528Y01681
X02502Y01681
X02478
X03059Y01671
X03083
X03109Y01671
X03108Y01645
X03083Y01644
X03059Y01644
Y01616
X03083
X03107
X03108Y01589
X03083
X03059
T02
X01403Y00996
X01442
X01482
X01521
Y01035
Y01074
X01482
Y01035
X01442
Y01074
Y01114
X01482
X01521
X01403
Y01074
Y01035
Y01311
X01442
X01482
X01521
Y0135
Y01389
X01482
Y0135
X01442
Y01389
Y01429
X01482
X01521
X01403
Y01389
Y0135
X01684Y0047
Y0043
Y00391
Y00352
X01723
X01763
Y00391
X01723
Y0043
X01763
X01802
Y00391
Y00352
Y0047
X01763
X01723
X01999
Y0043
Y00391
Y00352
X02038
Y00391
X02077
Y00352
X02117
Y00391
Y0043
X02077
X02038
Y0047
X02077
X02117
X02382Y00461
X02382
X02422
X02422
X02461
X02461
X025
X025
X0254
X0254
X02579
X02579
Y00422
X02579
X0254
X0254
X025
X025
X02461
X02461
X02422
X02422
X02382
X02382
Y00383
X02382
X02422
X02422
X02461
X02461
X025
X025
X0254
X0254
X02579
X02579
Y00343
X02579
X0254
X0254
X025
X025
X02461
X02461
X02422
X02422
X02382
X02382
Y00501
X02382
X02422
X02422
X02461
X02461
X025
X025
X0254
X0254
X02579
X02579
Y0054
X02579
X0254
X0254
X025
X025
X02461
X02461
X02422
X02422
X02382
X02382
X02855
Y00501
Y00461
Y00422
Y00383
Y00343
X02894
X02933
X02973
X03012
X03051
Y00383
X03012
X02973
X02933
X02894
Y00422
X02933
Y00461
X02894
Y00501
X02933
X02973
Y00461
Y00422
X03012
Y00461
X03051
Y00422
Y00501
X03012
Y0054
X02973
X02933
X02894
X03051
X03338Y0047
Y0043
Y00391
Y00352
X03377
X03416
Y00391
X03377
Y0043
X03416
X03456
Y00391
Y00352
Y0047
X03416
X03377
X03653
Y0043
Y00391
Y00352
X03692
X03731
Y00391
X03692
Y0043
X03731
X03771
Y00391
Y00352
Y0047
X03731
X03692
X03943Y00992
X03983
Y01031
X03943
Y01071
X03983
Y0111
X03943
X04022
Y01071
Y01031
Y00992
X04061
Y01031
Y01071
Y0111
Y01307
X04022
X03983
X03943
Y01346
Y01385
X03983
Y01346
X04022
Y01385
Y01425
X03983
X03943
X04061
Y01385
Y01346
X04054Y01897
X04014
Y01936
X04054
Y01976
X04014
Y02015
X04054
X03975
Y01976
Y01936
Y01897
X03936
Y01936
Y01976
Y02015
Y02212
X03975
X04014
X04054
Y02251
Y02291
X04014
Y02251
X03975
Y02291
Y0233
X04014
X04054
X03936
Y02291
Y02251
X03771Y02888
Y02928
Y02967
Y03006
X03731
X03692
X03653
Y02967
X03692
X03731
Y02928
X03692
Y02888
X03731
X03653
Y02928
X03456
Y02888
X03416
Y02928
X03377
Y02888
X03338
Y02928
Y02967
Y03006
X03377
X03416
X03456
Y02967
X03416
X03377
X02117
Y02928
Y02888
X02077
X02038
Y02928
X02077
Y02967
X02038
X01999
Y02928
Y02888
Y03006
X02038
X02077
X02117
X01802
Y02967
Y02928
Y02888
X01763
X01723
Y02928
X01763
Y02967
X01723
X01684
Y02928
Y02888
Y03006
X01723
X01763
X01529Y02322
X0149
X0145
X01411
Y02283
Y02243
X0145
Y02283
X0149
Y02243
Y02204
X0145
X01411
X01529
Y02243
Y02283
Y02007
X0149
X0145
X01411
Y01968
Y01928
X0145
Y01968
X0149
Y01928
Y01889
X0145
X01411
X01529
Y01928
Y01968
T03
X0268Y01558
X02878Y01442
X02273Y01708
T04
X03272Y01529
X03264Y01605
X02675Y01863
T05
X02579Y02591
X02679
X02779
X02879
Y02691
X02779
X02679
X02579
X02415Y0296
X02315
T06
X01474Y00421
X03984
Y02926
X01474
M30
