G04 Layer_Color=128*
%FSLAX23Y23*%
%MOIN*%
G70*
G01*
G75*
%ADD41C,0.005*%
D41*
X2562Y2591D02*
X2596D01*
X2579Y2573D02*
Y2609D01*
X2661Y2591D02*
X2697D01*
X2679Y2573D02*
Y2609D01*
X2761Y2591D02*
X2796D01*
X2779Y2573D02*
Y2609D01*
X2862Y2591D02*
X2897D01*
X2879Y2573D02*
Y2609D01*
X2862Y2691D02*
X2897D01*
X2879Y2674D02*
Y2708D01*
X2761Y2691D02*
X2796D01*
X2779Y2674D02*
Y2708D01*
X2661Y2691D02*
X2697D01*
X2679Y2674D02*
Y2708D01*
X2562Y2691D02*
X2596D01*
X2579Y2674D02*
Y2708D01*
X3921Y2926D02*
X4047D01*
X3984Y2864D02*
Y2989D01*
X3921Y421D02*
X4047D01*
X3984Y359D02*
Y484D01*
X1411Y421D02*
X1536D01*
X1474Y359D02*
Y484D01*
X1411Y2926D02*
X1536D01*
X1474Y2864D02*
Y2989D01*
X2398Y2960D02*
X2432D01*
X2415Y2943D02*
Y2977D01*
X2297Y2960D02*
X2332D01*
X2315Y2943D02*
Y2977D01*
X1989Y391D02*
X2009D01*
X1999Y381D02*
Y401D01*
X1989Y470D02*
X2009D01*
X1999Y460D02*
Y480D01*
X1989Y430D02*
X2009D01*
X1999Y420D02*
Y440D01*
X1989Y352D02*
X2009D01*
X1999Y342D02*
Y362D01*
X2028Y391D02*
X2048D01*
X2038Y381D02*
Y401D01*
X2028Y470D02*
X2048D01*
X2038Y460D02*
Y480D01*
X2028Y430D02*
X2048D01*
X2038Y420D02*
Y440D01*
X2028Y352D02*
X2048D01*
X2038Y342D02*
Y362D01*
X1674Y2888D02*
X1694D01*
X1684Y2878D02*
Y2898D01*
X1713Y2888D02*
X1733D01*
X1723Y2878D02*
Y2898D01*
X1753Y2888D02*
X1773D01*
X1763Y2878D02*
Y2898D01*
X1792Y2888D02*
X1812D01*
X1802Y2878D02*
Y2898D01*
X1674Y2928D02*
X1694D01*
X1684Y2918D02*
Y2938D01*
X1713Y2928D02*
X1733D01*
X1723Y2918D02*
Y2938D01*
X1753Y2928D02*
X1773D01*
X1763Y2918D02*
Y2938D01*
X1792Y2928D02*
X1812D01*
X1802Y2918D02*
Y2938D01*
X1674Y2967D02*
X1694D01*
X1684Y2957D02*
Y2977D01*
X1713Y2967D02*
X1733D01*
X1723Y2957D02*
Y2977D01*
X1753Y2967D02*
X1773D01*
X1763Y2957D02*
Y2977D01*
X1792Y2967D02*
X1812D01*
X1802Y2957D02*
Y2977D01*
X1674Y3006D02*
X1694D01*
X1684Y2996D02*
Y3016D01*
X1713Y3006D02*
X1733D01*
X1723Y2996D02*
Y3016D01*
X1753Y3006D02*
X1773D01*
X1763Y2996D02*
Y3016D01*
X1792Y3006D02*
X1812D01*
X1802Y2996D02*
Y3016D01*
X1989Y2888D02*
X2009D01*
X1999Y2878D02*
Y2898D01*
X2028Y2888D02*
X2048D01*
X2038Y2878D02*
Y2898D01*
X2067Y2888D02*
X2087D01*
X2077Y2878D02*
Y2898D01*
X2107Y2888D02*
X2127D01*
X2117Y2878D02*
Y2898D01*
X1989Y2928D02*
X2009D01*
X1999Y2918D02*
Y2938D01*
X2028Y2928D02*
X2048D01*
X2038Y2918D02*
Y2938D01*
X2067Y2928D02*
X2087D01*
X2077Y2918D02*
Y2938D01*
X2107Y2928D02*
X2127D01*
X2117Y2918D02*
Y2938D01*
X1989Y2967D02*
X2009D01*
X1999Y2957D02*
Y2977D01*
X2028Y2967D02*
X2048D01*
X2038Y2957D02*
Y2977D01*
X2067Y2967D02*
X2087D01*
X2077Y2957D02*
Y2977D01*
X2107Y2967D02*
X2127D01*
X2117Y2957D02*
Y2977D01*
X1989Y3006D02*
X2009D01*
X1999Y2996D02*
Y3016D01*
X2028Y3006D02*
X2048D01*
X2038Y2996D02*
Y3016D01*
X2067Y3006D02*
X2087D01*
X2077Y2996D02*
Y3016D01*
X2107Y3006D02*
X2127D01*
X2117Y2996D02*
Y3016D01*
X1674Y352D02*
X1694D01*
X1684Y342D02*
Y362D01*
X1713Y352D02*
X1733D01*
X1723Y342D02*
Y362D01*
X1753Y352D02*
X1773D01*
X1763Y342D02*
Y362D01*
X1792Y352D02*
X1812D01*
X1802Y342D02*
Y362D01*
X1674Y391D02*
X1694D01*
X1684Y381D02*
Y401D01*
X1713Y391D02*
X1733D01*
X1723Y381D02*
Y401D01*
X1753Y391D02*
X1773D01*
X1763Y381D02*
Y401D01*
X1792Y391D02*
X1812D01*
X1802Y381D02*
Y401D01*
X1674Y430D02*
X1694D01*
X1684Y420D02*
Y440D01*
X1713Y430D02*
X1733D01*
X1723Y420D02*
Y440D01*
X1753Y430D02*
X1773D01*
X1763Y420D02*
Y440D01*
X1792Y430D02*
X1812D01*
X1802Y420D02*
Y440D01*
X1674Y470D02*
X1694D01*
X1684Y460D02*
Y480D01*
X1713Y470D02*
X1733D01*
X1723Y460D02*
Y480D01*
X1753Y470D02*
X1773D01*
X1763Y460D02*
Y480D01*
X1792Y470D02*
X1812D01*
X1802Y460D02*
Y480D01*
X2067Y352D02*
X2087D01*
X2077Y342D02*
Y362D01*
X2107Y352D02*
X2127D01*
X2117Y342D02*
Y362D01*
X2067Y391D02*
X2087D01*
X2077Y381D02*
Y401D01*
X2107Y391D02*
X2127D01*
X2117Y381D02*
Y401D01*
X2067Y430D02*
X2087D01*
X2077Y420D02*
Y440D01*
X2107Y430D02*
X2127D01*
X2117Y420D02*
Y440D01*
X2067Y470D02*
X2087D01*
X2077Y460D02*
Y480D01*
X2107Y470D02*
X2127D01*
X2117Y460D02*
Y480D01*
X3328Y352D02*
X3348D01*
X3338Y342D02*
Y362D01*
X3367Y352D02*
X3387D01*
X3377Y342D02*
Y362D01*
X3406Y352D02*
X3426D01*
X3416Y342D02*
Y362D01*
X3446Y352D02*
X3466D01*
X3456Y342D02*
Y362D01*
X3328Y391D02*
X3348D01*
X3338Y381D02*
Y401D01*
X3367Y391D02*
X3387D01*
X3377Y381D02*
Y401D01*
X3406Y391D02*
X3426D01*
X3416Y381D02*
Y401D01*
X3446Y391D02*
X3466D01*
X3456Y381D02*
Y401D01*
X3328Y430D02*
X3348D01*
X3338Y420D02*
Y440D01*
X3367Y430D02*
X3387D01*
X3377Y420D02*
Y440D01*
X3406Y430D02*
X3426D01*
X3416Y420D02*
Y440D01*
X3446Y430D02*
X3466D01*
X3456Y420D02*
Y440D01*
X3328Y470D02*
X3348D01*
X3338Y460D02*
Y480D01*
X3367Y470D02*
X3387D01*
X3377Y460D02*
Y480D01*
X3406Y470D02*
X3426D01*
X3416Y460D02*
Y480D01*
X3446Y470D02*
X3466D01*
X3456Y460D02*
Y480D01*
X3643Y352D02*
X3663D01*
X3653Y342D02*
Y362D01*
X3682Y352D02*
X3702D01*
X3692Y342D02*
Y362D01*
X3721Y352D02*
X3741D01*
X3731Y342D02*
Y362D01*
X3761Y352D02*
X3781D01*
X3771Y342D02*
Y362D01*
X3643Y391D02*
X3663D01*
X3653Y381D02*
Y401D01*
X3682Y391D02*
X3702D01*
X3692Y381D02*
Y401D01*
X3721Y391D02*
X3741D01*
X3731Y381D02*
Y401D01*
X3761Y391D02*
X3781D01*
X3771Y381D02*
Y401D01*
X3643Y430D02*
X3663D01*
X3653Y420D02*
Y440D01*
X3682Y430D02*
X3702D01*
X3692Y420D02*
Y440D01*
X3721Y430D02*
X3741D01*
X3731Y420D02*
Y440D01*
X3761Y430D02*
X3781D01*
X3771Y420D02*
Y440D01*
X3643Y470D02*
X3663D01*
X3653Y460D02*
Y480D01*
X3682Y470D02*
X3702D01*
X3692Y460D02*
Y480D01*
X3721Y470D02*
X3741D01*
X3731Y460D02*
Y480D01*
X3761Y470D02*
X3781D01*
X3771Y460D02*
Y480D01*
X3933Y1425D02*
X3953D01*
X3943Y1415D02*
Y1435D01*
X3933Y1385D02*
X3953D01*
X3943Y1375D02*
Y1395D01*
X3933Y1346D02*
X3953D01*
X3943Y1336D02*
Y1356D01*
X3933Y1307D02*
X3953D01*
X3943Y1297D02*
Y1317D01*
X3973Y1425D02*
X3993D01*
X3983Y1415D02*
Y1435D01*
X3973Y1385D02*
X3993D01*
X3983Y1375D02*
Y1395D01*
X3973Y1346D02*
X3993D01*
X3983Y1336D02*
Y1356D01*
X3973Y1307D02*
X3993D01*
X3983Y1297D02*
Y1317D01*
X4012Y1425D02*
X4032D01*
X4022Y1415D02*
Y1435D01*
X4012Y1385D02*
X4032D01*
X4022Y1375D02*
Y1395D01*
X4012Y1346D02*
X4032D01*
X4022Y1336D02*
Y1356D01*
X4012Y1307D02*
X4032D01*
X4022Y1297D02*
Y1317D01*
X4051Y1425D02*
X4071D01*
X4061Y1415D02*
Y1435D01*
X4051Y1385D02*
X4071D01*
X4061Y1375D02*
Y1395D01*
X4051Y1346D02*
X4071D01*
X4061Y1336D02*
Y1356D01*
X4051Y1307D02*
X4071D01*
X4061Y1297D02*
Y1317D01*
X3933Y1110D02*
X3953D01*
X3943Y1100D02*
Y1120D01*
X3933Y1071D02*
X3953D01*
X3943Y1061D02*
Y1081D01*
X3933Y1031D02*
X3953D01*
X3943Y1021D02*
Y1041D01*
X3933Y992D02*
X3953D01*
X3943Y982D02*
Y1002D01*
X3973Y1110D02*
X3993D01*
X3983Y1100D02*
Y1120D01*
X3973Y1071D02*
X3993D01*
X3983Y1061D02*
Y1081D01*
X3973Y1031D02*
X3993D01*
X3983Y1021D02*
Y1041D01*
X3973Y992D02*
X3993D01*
X3983Y982D02*
Y1002D01*
X4012Y1110D02*
X4032D01*
X4022Y1100D02*
Y1120D01*
X4012Y1071D02*
X4032D01*
X4022Y1061D02*
Y1081D01*
X4012Y1031D02*
X4032D01*
X4022Y1021D02*
Y1041D01*
X4012Y992D02*
X4032D01*
X4022Y982D02*
Y1002D01*
X4051Y1110D02*
X4071D01*
X4061Y1100D02*
Y1120D01*
X4051Y1071D02*
X4071D01*
X4061Y1061D02*
Y1081D01*
X4051Y1031D02*
X4071D01*
X4061Y1021D02*
Y1041D01*
X4051Y992D02*
X4071D01*
X4061Y982D02*
Y1002D01*
X4044Y1897D02*
X4064D01*
X4054Y1887D02*
Y1907D01*
X4044Y1936D02*
X4064D01*
X4054Y1926D02*
Y1946D01*
X4044Y1976D02*
X4064D01*
X4054Y1966D02*
Y1986D01*
X4044Y2015D02*
X4064D01*
X4054Y2005D02*
Y2025D01*
X4004Y1897D02*
X4024D01*
X4014Y1887D02*
Y1907D01*
X4004Y1936D02*
X4024D01*
X4014Y1926D02*
Y1946D01*
X4004Y1976D02*
X4024D01*
X4014Y1966D02*
Y1986D01*
X4004Y2015D02*
X4024D01*
X4014Y2005D02*
Y2025D01*
X3965Y1897D02*
X3985D01*
X3975Y1887D02*
Y1907D01*
X3965Y1936D02*
X3985D01*
X3975Y1926D02*
Y1946D01*
X3965Y1976D02*
X3985D01*
X3975Y1966D02*
Y1986D01*
X3965Y2015D02*
X3985D01*
X3975Y2005D02*
Y2025D01*
X3926Y1897D02*
X3946D01*
X3936Y1887D02*
Y1907D01*
X3926Y1936D02*
X3946D01*
X3936Y1926D02*
Y1946D01*
X3926Y1976D02*
X3946D01*
X3936Y1966D02*
Y1986D01*
X3926Y2015D02*
X3946D01*
X3936Y2005D02*
Y2025D01*
X4044Y2212D02*
X4064D01*
X4054Y2202D02*
Y2222D01*
X4044Y2251D02*
X4064D01*
X4054Y2241D02*
Y2261D01*
X4044Y2291D02*
X4064D01*
X4054Y2281D02*
Y2301D01*
X4044Y2330D02*
X4064D01*
X4054Y2320D02*
Y2340D01*
X4004Y2212D02*
X4024D01*
X4014Y2202D02*
Y2222D01*
X4004Y2251D02*
X4024D01*
X4014Y2241D02*
Y2261D01*
X4004Y2291D02*
X4024D01*
X4014Y2281D02*
Y2301D01*
X4004Y2330D02*
X4024D01*
X4014Y2320D02*
Y2340D01*
X3965Y2212D02*
X3985D01*
X3975Y2202D02*
Y2222D01*
X3965Y2251D02*
X3985D01*
X3975Y2241D02*
Y2261D01*
X3965Y2291D02*
X3985D01*
X3975Y2281D02*
Y2301D01*
X3965Y2330D02*
X3985D01*
X3975Y2320D02*
Y2340D01*
X3926Y2212D02*
X3946D01*
X3936Y2202D02*
Y2222D01*
X3926Y2251D02*
X3946D01*
X3936Y2241D02*
Y2261D01*
X3926Y2291D02*
X3946D01*
X3936Y2281D02*
Y2301D01*
X3926Y2330D02*
X3946D01*
X3936Y2320D02*
Y2340D01*
X1401Y2322D02*
X1421D01*
X1411Y2312D02*
Y2332D01*
X1401Y2283D02*
X1421D01*
X1411Y2273D02*
Y2293D01*
X1401Y2243D02*
X1421D01*
X1411Y2233D02*
Y2253D01*
X1401Y2204D02*
X1421D01*
X1411Y2194D02*
Y2214D01*
X1440Y2322D02*
X1460D01*
X1450Y2312D02*
Y2332D01*
X1440Y2283D02*
X1460D01*
X1450Y2273D02*
Y2293D01*
X1440Y2243D02*
X1460D01*
X1450Y2233D02*
Y2253D01*
X1440Y2204D02*
X1460D01*
X1450Y2194D02*
Y2214D01*
X1480Y2322D02*
X1500D01*
X1490Y2312D02*
Y2332D01*
X1480Y2283D02*
X1500D01*
X1490Y2273D02*
Y2293D01*
X1480Y2243D02*
X1500D01*
X1490Y2233D02*
Y2253D01*
X1480Y2204D02*
X1500D01*
X1490Y2194D02*
Y2214D01*
X1519Y2322D02*
X1539D01*
X1529Y2312D02*
Y2332D01*
X1519Y2283D02*
X1539D01*
X1529Y2273D02*
Y2293D01*
X1519Y2243D02*
X1539D01*
X1529Y2233D02*
Y2253D01*
X1519Y2204D02*
X1539D01*
X1529Y2194D02*
Y2214D01*
X1401Y2007D02*
X1421D01*
X1411Y1997D02*
Y2017D01*
X1401Y1968D02*
X1421D01*
X1411Y1958D02*
Y1978D01*
X1401Y1928D02*
X1421D01*
X1411Y1918D02*
Y1938D01*
X1401Y1889D02*
X1421D01*
X1411Y1879D02*
Y1899D01*
X1440Y2007D02*
X1460D01*
X1450Y1997D02*
Y2017D01*
X1440Y1968D02*
X1460D01*
X1450Y1958D02*
Y1978D01*
X1440Y1928D02*
X1460D01*
X1450Y1918D02*
Y1938D01*
X1440Y1889D02*
X1460D01*
X1450Y1879D02*
Y1899D01*
X1480Y2007D02*
X1500D01*
X1490Y1997D02*
Y2017D01*
X1480Y1968D02*
X1500D01*
X1490Y1958D02*
Y1978D01*
X1480Y1928D02*
X1500D01*
X1490Y1918D02*
Y1938D01*
X1480Y1889D02*
X1500D01*
X1490Y1879D02*
Y1899D01*
X1519Y2007D02*
X1539D01*
X1529Y1997D02*
Y2017D01*
X1519Y1968D02*
X1539D01*
X1529Y1958D02*
Y1978D01*
X1519Y1928D02*
X1539D01*
X1529Y1918D02*
Y1938D01*
X1519Y1889D02*
X1539D01*
X1529Y1879D02*
Y1899D01*
X1511Y996D02*
X1531D01*
X1521Y986D02*
Y1006D01*
X1511Y1035D02*
X1531D01*
X1521Y1025D02*
Y1045D01*
X1511Y1074D02*
X1531D01*
X1521Y1064D02*
Y1084D01*
X1511Y1114D02*
X1531D01*
X1521Y1104D02*
Y1124D01*
X1472Y996D02*
X1492D01*
X1482Y986D02*
Y1006D01*
X1472Y1035D02*
X1492D01*
X1482Y1025D02*
Y1045D01*
X1472Y1074D02*
X1492D01*
X1482Y1064D02*
Y1084D01*
X1472Y1114D02*
X1492D01*
X1482Y1104D02*
Y1124D01*
X1432Y996D02*
X1452D01*
X1442Y986D02*
Y1006D01*
X1432Y1035D02*
X1452D01*
X1442Y1025D02*
Y1045D01*
X1432Y1074D02*
X1452D01*
X1442Y1064D02*
Y1084D01*
X1432Y1114D02*
X1452D01*
X1442Y1104D02*
Y1124D01*
X1393Y996D02*
X1413D01*
X1403Y986D02*
Y1006D01*
X1393Y1035D02*
X1413D01*
X1403Y1025D02*
Y1045D01*
X1393Y1074D02*
X1413D01*
X1403Y1064D02*
Y1084D01*
X1393Y1114D02*
X1413D01*
X1403Y1104D02*
Y1124D01*
X1511Y1311D02*
X1531D01*
X1521Y1301D02*
Y1321D01*
X1511Y1350D02*
X1531D01*
X1521Y1340D02*
Y1360D01*
X1511Y1389D02*
X1531D01*
X1521Y1379D02*
Y1399D01*
X1511Y1429D02*
X1531D01*
X1521Y1419D02*
Y1439D01*
X1472Y1311D02*
X1492D01*
X1482Y1301D02*
Y1321D01*
X1472Y1350D02*
X1492D01*
X1482Y1340D02*
Y1360D01*
X1472Y1389D02*
X1492D01*
X1482Y1379D02*
Y1399D01*
X1472Y1429D02*
X1492D01*
X1482Y1419D02*
Y1439D01*
X1432Y1311D02*
X1452D01*
X1442Y1301D02*
Y1321D01*
X1432Y1350D02*
X1452D01*
X1442Y1340D02*
Y1360D01*
X1432Y1389D02*
X1452D01*
X1442Y1379D02*
Y1399D01*
X1432Y1429D02*
X1452D01*
X1442Y1419D02*
Y1439D01*
X1393Y1311D02*
X1413D01*
X1403Y1301D02*
Y1321D01*
X1393Y1350D02*
X1413D01*
X1403Y1340D02*
Y1360D01*
X1393Y1389D02*
X1413D01*
X1403Y1379D02*
Y1399D01*
X1393Y1429D02*
X1413D01*
X1403Y1419D02*
Y1439D01*
X2845Y343D02*
X2865D01*
X2855Y333D02*
Y353D01*
X2884Y343D02*
X2904D01*
X2894Y333D02*
Y353D01*
X2923Y343D02*
X2943D01*
X2933Y333D02*
Y353D01*
X2963Y343D02*
X2983D01*
X2973Y333D02*
Y353D01*
X3002Y343D02*
X3022D01*
X3012Y333D02*
Y353D01*
X3041Y343D02*
X3061D01*
X3051Y333D02*
Y353D01*
X2845Y383D02*
X2865D01*
X2855Y373D02*
Y393D01*
X2884Y383D02*
X2904D01*
X2894Y373D02*
Y393D01*
X2923Y383D02*
X2943D01*
X2933Y373D02*
Y393D01*
X2963Y383D02*
X2983D01*
X2973Y373D02*
Y393D01*
X3002Y383D02*
X3022D01*
X3012Y373D02*
Y393D01*
X3041Y383D02*
X3061D01*
X3051Y373D02*
Y393D01*
X2845Y422D02*
X2865D01*
X2855Y412D02*
Y432D01*
X2884Y422D02*
X2904D01*
X2894Y412D02*
Y432D01*
X2923Y422D02*
X2943D01*
X2933Y412D02*
Y432D01*
X2963Y422D02*
X2983D01*
X2973Y412D02*
Y432D01*
X3002Y422D02*
X3022D01*
X3012Y412D02*
Y432D01*
X3041Y422D02*
X3061D01*
X3051Y412D02*
Y432D01*
X2845Y461D02*
X2865D01*
X2855Y451D02*
Y471D01*
X2884Y461D02*
X2904D01*
X2894Y451D02*
Y471D01*
X2923Y461D02*
X2943D01*
X2933Y451D02*
Y471D01*
X2963Y461D02*
X2983D01*
X2973Y451D02*
Y471D01*
X3002Y461D02*
X3022D01*
X3012Y451D02*
Y471D01*
X3041Y461D02*
X3061D01*
X3051Y451D02*
Y471D01*
X2845Y501D02*
X2865D01*
X2855Y491D02*
Y511D01*
X2884Y501D02*
X2904D01*
X2894Y491D02*
Y511D01*
X2923Y501D02*
X2943D01*
X2933Y491D02*
Y511D01*
X2963Y501D02*
X2983D01*
X2973Y491D02*
Y511D01*
X3002Y501D02*
X3022D01*
X3012Y491D02*
Y511D01*
X3041Y501D02*
X3061D01*
X3051Y491D02*
Y511D01*
X2845Y540D02*
X2865D01*
X2855Y530D02*
Y550D01*
X2884Y540D02*
X2904D01*
X2894Y530D02*
Y550D01*
X2923Y540D02*
X2943D01*
X2933Y530D02*
Y550D01*
X2963Y540D02*
X2983D01*
X2973Y530D02*
Y550D01*
X3002Y540D02*
X3022D01*
X3012Y530D02*
Y550D01*
X3041Y540D02*
X3061D01*
X3051Y530D02*
Y550D01*
X2372Y343D02*
X2392D01*
X2382Y333D02*
Y353D01*
X2412Y343D02*
X2432D01*
X2422Y333D02*
Y353D01*
X2451Y343D02*
X2471D01*
X2461Y333D02*
Y353D01*
X2490Y343D02*
X2510D01*
X2500Y333D02*
Y353D01*
X2530Y343D02*
X2550D01*
X2540Y333D02*
Y353D01*
X2569Y343D02*
X2589D01*
X2579Y333D02*
Y353D01*
X2372Y383D02*
X2392D01*
X2382Y373D02*
Y393D01*
X2412Y383D02*
X2432D01*
X2422Y373D02*
Y393D01*
X2451Y383D02*
X2471D01*
X2461Y373D02*
Y393D01*
X2490Y383D02*
X2510D01*
X2500Y373D02*
Y393D01*
X2530Y383D02*
X2550D01*
X2540Y373D02*
Y393D01*
X2569Y383D02*
X2589D01*
X2579Y373D02*
Y393D01*
X2372Y422D02*
X2392D01*
X2382Y412D02*
Y432D01*
X2412Y422D02*
X2432D01*
X2422Y412D02*
Y432D01*
X2451Y422D02*
X2471D01*
X2461Y412D02*
Y432D01*
X2490Y422D02*
X2510D01*
X2500Y412D02*
Y432D01*
X2530Y422D02*
X2550D01*
X2540Y412D02*
Y432D01*
X2569Y422D02*
X2589D01*
X2579Y412D02*
Y432D01*
X2372Y461D02*
X2392D01*
X2382Y451D02*
Y471D01*
X2412Y461D02*
X2432D01*
X2422Y451D02*
Y471D01*
X2451Y461D02*
X2471D01*
X2461Y451D02*
Y471D01*
X2490Y461D02*
X2510D01*
X2500Y451D02*
Y471D01*
X2530Y461D02*
X2550D01*
X2540Y451D02*
Y471D01*
X2569Y461D02*
X2589D01*
X2579Y451D02*
Y471D01*
X2372Y501D02*
X2392D01*
X2382Y491D02*
Y511D01*
X2412Y501D02*
X2432D01*
X2422Y491D02*
Y511D01*
X2451Y501D02*
X2471D01*
X2461Y491D02*
Y511D01*
X2490Y501D02*
X2510D01*
X2500Y491D02*
Y511D01*
X2530Y501D02*
X2550D01*
X2540Y491D02*
Y511D01*
X2569Y501D02*
X2589D01*
X2579Y491D02*
Y511D01*
X2569Y540D02*
X2589D01*
X2579Y530D02*
Y550D01*
X2530Y540D02*
X2550D01*
X2540Y530D02*
Y550D01*
X2490Y540D02*
X2510D01*
X2500Y530D02*
Y550D01*
X2451Y540D02*
X2471D01*
X2461Y530D02*
Y550D01*
X2412Y540D02*
X2432D01*
X2422Y530D02*
Y550D01*
X2372Y540D02*
X2392D01*
X2382Y530D02*
Y550D01*
X2372Y343D02*
X2392D01*
X2382Y333D02*
Y353D01*
X2412Y343D02*
X2432D01*
X2422Y333D02*
Y353D01*
X2451Y343D02*
X2471D01*
X2461Y333D02*
Y353D01*
X2490Y343D02*
X2510D01*
X2500Y333D02*
Y353D01*
X2530Y343D02*
X2550D01*
X2540Y333D02*
Y353D01*
X2569Y343D02*
X2589D01*
X2579Y333D02*
Y353D01*
X2372Y383D02*
X2392D01*
X2382Y373D02*
Y393D01*
X2412Y383D02*
X2432D01*
X2422Y373D02*
Y393D01*
X2451Y383D02*
X2471D01*
X2461Y373D02*
Y393D01*
X2490Y383D02*
X2510D01*
X2500Y373D02*
Y393D01*
X2530Y383D02*
X2550D01*
X2540Y373D02*
Y393D01*
X2569Y383D02*
X2589D01*
X2579Y373D02*
Y393D01*
X2372Y422D02*
X2392D01*
X2382Y412D02*
Y432D01*
X2412Y422D02*
X2432D01*
X2422Y412D02*
Y432D01*
X2451Y422D02*
X2471D01*
X2461Y412D02*
Y432D01*
X2490Y422D02*
X2510D01*
X2500Y412D02*
Y432D01*
X2530Y422D02*
X2550D01*
X2540Y412D02*
Y432D01*
X2569Y422D02*
X2589D01*
X2579Y412D02*
Y432D01*
X2372Y461D02*
X2392D01*
X2382Y451D02*
Y471D01*
X2412Y461D02*
X2432D01*
X2422Y451D02*
Y471D01*
X2451Y461D02*
X2471D01*
X2461Y451D02*
Y471D01*
X2490Y461D02*
X2510D01*
X2500Y451D02*
Y471D01*
X2530Y461D02*
X2550D01*
X2540Y451D02*
Y471D01*
X2569Y461D02*
X2589D01*
X2579Y451D02*
Y471D01*
X2372Y501D02*
X2392D01*
X2382Y491D02*
Y511D01*
X2412Y501D02*
X2432D01*
X2422Y491D02*
Y511D01*
X2451Y501D02*
X2471D01*
X2461Y491D02*
Y511D01*
X2490Y501D02*
X2510D01*
X2500Y491D02*
Y511D01*
X2530Y501D02*
X2550D01*
X2540Y491D02*
Y511D01*
X2569Y501D02*
X2589D01*
X2579Y491D02*
Y511D01*
X2372Y540D02*
X2392D01*
X2382Y530D02*
Y550D01*
X2412Y540D02*
X2432D01*
X2422Y530D02*
Y550D01*
X2451Y540D02*
X2471D01*
X2461Y530D02*
Y550D01*
X2490Y540D02*
X2510D01*
X2500Y530D02*
Y550D01*
X2530Y540D02*
X2550D01*
X2540Y530D02*
Y550D01*
X2569Y540D02*
X2589D01*
X2579Y530D02*
Y550D01*
X3076Y1644D02*
X3091D01*
X3083Y1637D02*
Y1652D01*
X3102Y1671D02*
X3116D01*
X3109Y1663D02*
Y1679D01*
X3076Y1671D02*
X3091D01*
X3083Y1663D02*
Y1679D01*
X3101Y1645D02*
X3115D01*
X3108Y1638D02*
Y1653D01*
X3099Y1616D02*
X3115D01*
X3107Y1609D02*
Y1623D01*
X3076Y1616D02*
X3091D01*
X3083Y1609D02*
Y1623D01*
X3052Y1616D02*
X3066D01*
X3059Y1609D02*
Y1623D01*
X3052Y1644D02*
X3066D01*
X3059Y1637D02*
Y1651D01*
X3052Y1671D02*
X3066D01*
X3059Y1663D02*
Y1679D01*
X3052Y1589D02*
X3066D01*
X3059Y1582D02*
Y1597D01*
X3076Y1589D02*
X3091D01*
X3083Y1582D02*
Y1597D01*
X3101Y1589D02*
X3115D01*
X3108Y1582D02*
Y1597D01*
X2520Y1599D02*
X2534D01*
X2527Y1592D02*
Y1607D01*
X2494Y1599D02*
X2510D01*
X2502Y1592D02*
Y1607D01*
X2470Y1599D02*
X2486D01*
X2478Y1592D02*
Y1607D01*
X2470Y1681D02*
X2486D01*
X2478Y1673D02*
Y1689D01*
X2470Y1654D02*
X2486D01*
X2478Y1646D02*
Y1661D01*
X2470Y1626D02*
X2486D01*
X2478Y1618D02*
Y1633D01*
X2494Y1626D02*
X2510D01*
X2502Y1618D02*
Y1633D01*
X2519Y1626D02*
X2533D01*
X2526Y1618D02*
Y1633D01*
X2520Y1655D02*
X2534D01*
X2527Y1648D02*
Y1663D01*
X2494Y1681D02*
X2510D01*
X2502Y1673D02*
Y1689D01*
X2520Y1681D02*
X2536D01*
X2528Y1673D02*
Y1689D01*
X2494Y1654D02*
X2510D01*
X2502Y1647D02*
Y1662D01*
X3258Y1529D02*
X3286D01*
X3272Y1515D02*
Y1543D01*
X2668Y1558D02*
X2693D01*
X2680Y1546D02*
Y1571D01*
X2661Y1863D02*
X2689D01*
X2675Y1849D02*
Y1877D01*
X3250Y1605D02*
X3278D01*
X3264Y1591D02*
Y1619D01*
X2865Y1442D02*
X2891D01*
X2878Y1429D02*
Y1454D01*
X2260Y1708D02*
X2286D01*
X2273Y1696D02*
Y1720D01*
X3761Y3006D02*
X3781D01*
X3771Y2996D02*
Y3016D01*
X3721Y3006D02*
X3741D01*
X3731Y2996D02*
Y3016D01*
X3682Y3006D02*
X3702D01*
X3692Y2996D02*
Y3016D01*
X3643Y3006D02*
X3663D01*
X3653Y2996D02*
Y3016D01*
X3761Y2967D02*
X3781D01*
X3771Y2957D02*
Y2977D01*
X3721Y2967D02*
X3741D01*
X3731Y2957D02*
Y2977D01*
X3682Y2967D02*
X3702D01*
X3692Y2957D02*
Y2977D01*
X3643Y2967D02*
X3663D01*
X3653Y2957D02*
Y2977D01*
X3761Y2928D02*
X3781D01*
X3771Y2918D02*
Y2938D01*
X3721Y2928D02*
X3741D01*
X3731Y2918D02*
Y2938D01*
X3682Y2928D02*
X3702D01*
X3692Y2918D02*
Y2938D01*
X3643Y2928D02*
X3663D01*
X3653Y2918D02*
Y2938D01*
X3761Y2888D02*
X3781D01*
X3771Y2878D02*
Y2898D01*
X3721Y2888D02*
X3741D01*
X3731Y2878D02*
Y2898D01*
X3682Y2888D02*
X3702D01*
X3692Y2878D02*
Y2898D01*
X3643Y2888D02*
X3663D01*
X3653Y2878D02*
Y2898D01*
X3446Y3006D02*
X3466D01*
X3456Y2996D02*
Y3016D01*
X3406Y3006D02*
X3426D01*
X3416Y2996D02*
Y3016D01*
X3367Y3006D02*
X3387D01*
X3377Y2996D02*
Y3016D01*
X3328Y3006D02*
X3348D01*
X3338Y2996D02*
Y3016D01*
X3446Y2967D02*
X3466D01*
X3456Y2957D02*
Y2977D01*
X3406Y2967D02*
X3426D01*
X3416Y2957D02*
Y2977D01*
X3367Y2967D02*
X3387D01*
X3377Y2957D02*
Y2977D01*
X3328Y2967D02*
X3348D01*
X3338Y2957D02*
Y2977D01*
X3446Y2928D02*
X3466D01*
X3456Y2918D02*
Y2938D01*
X3406Y2928D02*
X3426D01*
X3416Y2918D02*
Y2938D01*
X3367Y2928D02*
X3387D01*
X3377Y2918D02*
Y2938D01*
X3328Y2928D02*
X3348D01*
X3338Y2918D02*
Y2938D01*
X3446Y2888D02*
X3466D01*
X3456Y2878D02*
Y2898D01*
X3406Y2888D02*
X3426D01*
X3416Y2878D02*
Y2898D01*
X3367Y2888D02*
X3387D01*
X3377Y2878D02*
Y2898D01*
X3328Y2888D02*
X3348D01*
X3338Y2878D02*
Y2898D01*
M02*
