G04 Layer_Color=2752767*
%FSLAX23Y23*%
%MOIN*%
G70*
G01*
G75*
%ADD43C,0.005*%
%ADD65C,0.007*%
D43*
X2665Y2892D02*
Y2932D01*
X2705D01*
Y2892D01*
X2665D01*
X2765D02*
Y2932D01*
X2805D01*
Y2892D01*
X2765D01*
X2559Y2331D02*
Y2371D01*
X2599D01*
Y2331D01*
X2559D01*
X2659D02*
Y2371D01*
X2699D01*
Y2331D01*
X2659D01*
X2759D02*
Y2371D01*
X2799D01*
Y2331D01*
X2759D01*
X2859D02*
Y2371D01*
X2899D01*
Y2331D01*
X2859D01*
Y2231D02*
Y2271D01*
X2899D01*
Y2231D01*
X2859D01*
X2759D02*
Y2271D01*
X2799D01*
Y2231D01*
X2759D01*
X2659D02*
Y2271D01*
X2699D01*
Y2231D01*
X2659D01*
X2559D02*
Y2271D01*
X2599D01*
Y2231D01*
X2559D01*
X2952Y2868D02*
X2932Y2908D01*
X2972D01*
X2952Y2868D01*
X2991D02*
X2971Y2908D01*
X3011D01*
X2991Y2868D01*
X3030D02*
X3010Y2908D01*
X3050D01*
X3030Y2868D01*
X3070D02*
X3050Y2908D01*
X3090D01*
X3070Y2868D01*
X2952Y2908D02*
X2932Y2948D01*
X2972D01*
X2952Y2908D01*
X2991D02*
X2971Y2948D01*
X3011D01*
X2991Y2908D01*
X3030D02*
X3010Y2948D01*
X3050D01*
X3030Y2908D01*
X3070D02*
X3050Y2948D01*
X3090D01*
X3070Y2908D01*
X2952Y2947D02*
X2932Y2987D01*
X2972D01*
X2952Y2947D01*
X2991D02*
X2971Y2987D01*
X3011D01*
X2991Y2947D01*
X3030D02*
X3010Y2987D01*
X3050D01*
X3030Y2947D01*
X3070D02*
X3050Y2987D01*
X3090D01*
X3070Y2947D01*
X2952Y2986D02*
X2932Y3026D01*
X2972D01*
X2952Y2986D01*
X2991D02*
X2971Y3026D01*
X3011D01*
X2991Y2986D01*
X3030D02*
X3010Y3026D01*
X3050D01*
X3030Y2986D01*
X3070D02*
X3050Y3026D01*
X3090D01*
X3070Y2986D01*
X3267Y2868D02*
X3247Y2908D01*
X3287D01*
X3267Y2868D01*
X3306D02*
X3286Y2908D01*
X3326D01*
X3306Y2868D01*
X3345D02*
X3325Y2908D01*
X3365D01*
X3345Y2868D01*
X3385D02*
X3365Y2908D01*
X3405D01*
X3385Y2868D01*
X3267Y2908D02*
X3247Y2948D01*
X3287D01*
X3267Y2908D01*
X3306D02*
X3286Y2948D01*
X3326D01*
X3306Y2908D01*
X3345D02*
X3325Y2948D01*
X3365D01*
X3345Y2908D01*
X3385D02*
X3365Y2948D01*
X3405D01*
X3385Y2908D01*
X3267Y2947D02*
X3247Y2987D01*
X3287D01*
X3267Y2947D01*
X3306D02*
X3286Y2987D01*
X3326D01*
X3306Y2947D01*
X3345D02*
X3325Y2987D01*
X3365D01*
X3345Y2947D01*
X3385D02*
X3365Y2987D01*
X3405D01*
X3385Y2947D01*
X3267Y2986D02*
X3247Y3026D01*
X3287D01*
X3267Y2986D01*
X3306D02*
X3286Y3026D01*
X3326D01*
X3306Y2986D01*
X3345D02*
X3325Y3026D01*
X3365D01*
X3345Y2986D01*
X3385D02*
X3365Y3026D01*
X3405D01*
X3385Y2986D01*
X2273Y1248D02*
X2283Y1258D01*
X2293D01*
X2283Y1268D01*
X2293Y1278D01*
X2283D01*
X2273Y1288D01*
X2263Y1278D01*
X2253D01*
X2263Y1268D01*
X2253Y1258D01*
X2263D01*
X2273Y1248D01*
X2878Y982D02*
X2888Y992D01*
X2898D01*
X2888Y1002D01*
X2898Y1012D01*
X2888D01*
X2878Y1022D01*
X2868Y1012D01*
X2858D01*
X2868Y1002D01*
X2858Y992D01*
X2868D01*
X2878Y982D01*
X3244Y1145D02*
X3254Y1165D01*
X3244Y1185D01*
X3264Y1175D01*
X3284Y1185D01*
X3274Y1165D01*
X3284Y1145D01*
X3264Y1155D01*
X3244Y1145D01*
X2655Y1403D02*
X2665Y1423D01*
X2655Y1443D01*
X2675Y1433D01*
X2695Y1443D01*
X2685Y1423D01*
X2695Y1403D01*
X2675Y1413D01*
X2655Y1403D01*
X2680Y1098D02*
X2690Y1108D01*
X2700D01*
X2690Y1118D01*
X2700Y1128D01*
X2690D01*
X2680Y1138D01*
X2670Y1128D01*
X2660D01*
X2670Y1118D01*
X2660Y1108D01*
X2670D01*
X2680Y1098D01*
X3252Y1069D02*
X3262Y1089D01*
X3252Y1109D01*
X3272Y1099D01*
X3292Y1109D01*
X3282Y1089D01*
X3292Y1069D01*
X3272Y1079D01*
X3252Y1069D01*
X2492Y1204D02*
Y1194D01*
X2512D01*
Y1204D01*
X2522D01*
Y1224D01*
X2512D01*
Y1234D01*
X2492D01*
Y1224D01*
X2482D01*
Y1204D01*
X2492D01*
X2518Y1231D02*
Y1221D01*
X2538D01*
Y1231D01*
X2548D01*
Y1251D01*
X2538D01*
Y1261D01*
X2518D01*
Y1251D01*
X2508D01*
Y1231D01*
X2518D01*
X2492Y1231D02*
Y1221D01*
X2512D01*
Y1231D01*
X2522D01*
Y1251D01*
X2512D01*
Y1261D01*
X2492D01*
Y1251D01*
X2482D01*
Y1231D01*
X2492D01*
X2517Y1205D02*
Y1195D01*
X2537D01*
Y1205D01*
X2547D01*
Y1225D01*
X2537D01*
Y1235D01*
X2517D01*
Y1225D01*
X2507D01*
Y1205D01*
X2517D01*
X2516Y1176D02*
Y1166D01*
X2536D01*
Y1176D01*
X2546D01*
Y1196D01*
X2536D01*
Y1206D01*
X2516D01*
Y1196D01*
X2506D01*
Y1176D01*
X2516D01*
X2492D02*
Y1166D01*
X2512D01*
Y1176D01*
X2522D01*
Y1196D01*
X2512D01*
Y1206D01*
X2492D01*
Y1196D01*
X2482D01*
Y1176D01*
X2492D01*
X2468D02*
Y1166D01*
X2488D01*
Y1176D01*
X2498D01*
Y1196D01*
X2488D01*
Y1206D01*
X2468D01*
Y1196D01*
X2458D01*
Y1176D01*
X2468D01*
Y1204D02*
Y1194D01*
X2488D01*
Y1204D01*
X2498D01*
Y1224D01*
X2488D01*
Y1234D01*
X2468D01*
Y1224D01*
X2458D01*
Y1204D01*
X2468D01*
Y1231D02*
Y1221D01*
X2488D01*
Y1231D01*
X2498D01*
Y1251D01*
X2488D01*
Y1261D01*
X2468D01*
Y1251D01*
X2458D01*
Y1231D01*
X2468D01*
Y1149D02*
Y1139D01*
X2488D01*
Y1149D01*
X2498D01*
Y1169D01*
X2488D01*
Y1179D01*
X2468D01*
Y1169D01*
X2458D01*
Y1149D01*
X2468D01*
X2492D02*
Y1139D01*
X2512D01*
Y1149D01*
X2522D01*
Y1169D01*
X2512D01*
Y1179D01*
X2492D01*
Y1169D01*
X2482D01*
Y1149D01*
X2492D01*
X2517D02*
Y1139D01*
X2537D01*
Y1149D01*
X2547D01*
Y1169D01*
X2537D01*
Y1179D01*
X2517D01*
Y1169D01*
X2507D01*
Y1149D01*
X2517D01*
X3098Y1139D02*
Y1129D01*
X3118D01*
Y1139D01*
X3128D01*
Y1159D01*
X3118D01*
Y1169D01*
X3098D01*
Y1159D01*
X3088D01*
Y1139D01*
X3098D01*
X3073D02*
Y1129D01*
X3093D01*
Y1139D01*
X3103D01*
Y1159D01*
X3093D01*
Y1169D01*
X3073D01*
Y1159D01*
X3063D01*
Y1139D01*
X3073D01*
X3049D02*
Y1129D01*
X3069D01*
Y1139D01*
X3079D01*
Y1159D01*
X3069D01*
Y1169D01*
X3049D01*
Y1159D01*
X3039D01*
Y1139D01*
X3049D01*
Y1221D02*
Y1211D01*
X3069D01*
Y1221D01*
X3079D01*
Y1241D01*
X3069D01*
Y1251D01*
X3049D01*
Y1241D01*
X3039D01*
Y1221D01*
X3049D01*
Y1194D02*
Y1184D01*
X3069D01*
Y1194D01*
X3079D01*
Y1214D01*
X3069D01*
Y1224D01*
X3049D01*
Y1214D01*
X3039D01*
Y1194D01*
X3049D01*
Y1166D02*
Y1156D01*
X3069D01*
Y1166D01*
X3079D01*
Y1186D01*
X3069D01*
Y1196D01*
X3049D01*
Y1186D01*
X3039D01*
Y1166D01*
X3049D01*
X3073D02*
Y1156D01*
X3093D01*
Y1166D01*
X3103D01*
Y1186D01*
X3093D01*
Y1196D01*
X3073D01*
Y1186D01*
X3063D01*
Y1166D01*
X3073D01*
X3097D02*
Y1156D01*
X3117D01*
Y1166D01*
X3127D01*
Y1186D01*
X3117D01*
Y1196D01*
X3097D01*
Y1186D01*
X3087D01*
Y1166D01*
X3097D01*
X3098Y1195D02*
Y1185D01*
X3118D01*
Y1195D01*
X3128D01*
Y1215D01*
X3118D01*
Y1225D01*
X3098D01*
Y1215D01*
X3088D01*
Y1195D01*
X3098D01*
X3073Y1221D02*
Y1211D01*
X3093D01*
Y1221D01*
X3103D01*
Y1241D01*
X3093D01*
Y1251D01*
X3073D01*
Y1241D01*
X3063D01*
Y1221D01*
X3073D01*
X3099Y1221D02*
Y1211D01*
X3119D01*
Y1221D01*
X3129D01*
Y1241D01*
X3119D01*
Y1251D01*
X3099D01*
Y1241D01*
X3089D01*
Y1221D01*
X3099D01*
X3073Y1194D02*
Y1184D01*
X3093D01*
Y1194D01*
X3103D01*
Y1214D01*
X3093D01*
Y1224D01*
X3073D01*
Y1214D01*
X3063D01*
Y1194D01*
X3073D01*
X2579Y520D02*
X2559Y560D01*
X2599D01*
X2579Y520D01*
X2540D02*
X2520Y560D01*
X2560D01*
X2540Y520D01*
X2500D02*
X2480Y560D01*
X2520D01*
X2500Y520D01*
X2461D02*
X2441Y560D01*
X2481D01*
X2461Y520D01*
X2422D02*
X2402Y560D01*
X2442D01*
X2422Y520D01*
X2382D02*
X2362Y560D01*
X2402D01*
X2382Y520D01*
X2579Y481D02*
X2559Y521D01*
X2599D01*
X2579Y481D01*
X2540D02*
X2520Y521D01*
X2560D01*
X2540Y481D01*
X2500D02*
X2480Y521D01*
X2520D01*
X2500Y481D01*
X2461D02*
X2441Y521D01*
X2481D01*
X2461Y481D01*
X2422D02*
X2402Y521D01*
X2442D01*
X2422Y481D01*
X2382D02*
X2362Y521D01*
X2402D01*
X2382Y481D01*
X2579Y441D02*
X2559Y481D01*
X2599D01*
X2579Y441D01*
X2540D02*
X2520Y481D01*
X2560D01*
X2540Y441D01*
X2500D02*
X2480Y481D01*
X2520D01*
X2500Y441D01*
X2461D02*
X2441Y481D01*
X2481D01*
X2461Y441D01*
X2422D02*
X2402Y481D01*
X2442D01*
X2422Y441D01*
X2382D02*
X2362Y481D01*
X2402D01*
X2382Y441D01*
X2579Y402D02*
X2559Y442D01*
X2599D01*
X2579Y402D01*
X2540D02*
X2520Y442D01*
X2560D01*
X2540Y402D01*
X2500D02*
X2480Y442D01*
X2520D01*
X2500Y402D01*
X2461D02*
X2441Y442D01*
X2481D01*
X2461Y402D01*
X2422D02*
X2402Y442D01*
X2442D01*
X2422Y402D01*
X2382D02*
X2362Y442D01*
X2402D01*
X2382Y402D01*
X2579Y363D02*
X2559Y403D01*
X2599D01*
X2579Y363D01*
X2540D02*
X2520Y403D01*
X2560D01*
X2540Y363D01*
X2500D02*
X2480Y403D01*
X2520D01*
X2500Y363D01*
X2461D02*
X2441Y403D01*
X2481D01*
X2461Y363D01*
X2422D02*
X2402Y403D01*
X2442D01*
X2422Y363D01*
X2382D02*
X2362Y403D01*
X2402D01*
X2382Y363D01*
X2579Y323D02*
X2559Y363D01*
X2599D01*
X2579Y323D01*
X2540D02*
X2520Y363D01*
X2560D01*
X2540Y323D01*
X2500D02*
X2480Y363D01*
X2520D01*
X2500Y323D01*
X2461D02*
X2441Y363D01*
X2481D01*
X2461Y323D01*
X2422D02*
X2402Y363D01*
X2442D01*
X2422Y323D01*
X2382D02*
X2362Y363D01*
X2402D01*
X2382Y323D01*
X2382Y520D02*
X2362Y560D01*
X2402D01*
X2382Y520D01*
X2422D02*
X2402Y560D01*
X2442D01*
X2422Y520D01*
X2461D02*
X2441Y560D01*
X2481D01*
X2461Y520D01*
X2500D02*
X2480Y560D01*
X2520D01*
X2500Y520D01*
X2540D02*
X2520Y560D01*
X2560D01*
X2540Y520D01*
X2579D02*
X2559Y560D01*
X2599D01*
X2579Y520D01*
Y481D02*
X2559Y521D01*
X2599D01*
X2579Y481D01*
X2540D02*
X2520Y521D01*
X2560D01*
X2540Y481D01*
X2500D02*
X2480Y521D01*
X2520D01*
X2500Y481D01*
X2461D02*
X2441Y521D01*
X2481D01*
X2461Y481D01*
X2422D02*
X2402Y521D01*
X2442D01*
X2422Y481D01*
X2382D02*
X2362Y521D01*
X2402D01*
X2382Y481D01*
X2579Y441D02*
X2559Y481D01*
X2599D01*
X2579Y441D01*
X2540D02*
X2520Y481D01*
X2560D01*
X2540Y441D01*
X2500D02*
X2480Y481D01*
X2520D01*
X2500Y441D01*
X2461D02*
X2441Y481D01*
X2481D01*
X2461Y441D01*
X2422D02*
X2402Y481D01*
X2442D01*
X2422Y441D01*
X2382D02*
X2362Y481D01*
X2402D01*
X2382Y441D01*
X2579Y402D02*
X2559Y442D01*
X2599D01*
X2579Y402D01*
X2540D02*
X2520Y442D01*
X2560D01*
X2540Y402D01*
X2500D02*
X2480Y442D01*
X2520D01*
X2500Y402D01*
X2461D02*
X2441Y442D01*
X2481D01*
X2461Y402D01*
X2422D02*
X2402Y442D01*
X2442D01*
X2422Y402D01*
X2382D02*
X2362Y442D01*
X2402D01*
X2382Y402D01*
X2579Y363D02*
X2559Y403D01*
X2599D01*
X2579Y363D01*
X2540D02*
X2520Y403D01*
X2560D01*
X2540Y363D01*
X2500D02*
X2480Y403D01*
X2520D01*
X2500Y363D01*
X2461D02*
X2441Y403D01*
X2481D01*
X2461Y363D01*
X2422D02*
X2402Y403D01*
X2442D01*
X2422Y363D01*
X2382D02*
X2362Y403D01*
X2402D01*
X2382Y363D01*
X2579Y323D02*
X2559Y363D01*
X2599D01*
X2579Y323D01*
X2540D02*
X2520Y363D01*
X2560D01*
X2540Y323D01*
X2500D02*
X2480Y363D01*
X2520D01*
X2500Y323D01*
X2461D02*
X2441Y363D01*
X2481D01*
X2461Y323D01*
X2422D02*
X2402Y363D01*
X2442D01*
X2422Y323D01*
X2382D02*
X2362Y363D01*
X2402D01*
X2382Y323D01*
X3051Y520D02*
X3031Y560D01*
X3071D01*
X3051Y520D01*
X3012D02*
X2992Y560D01*
X3032D01*
X3012Y520D01*
X2973D02*
X2953Y560D01*
X2993D01*
X2973Y520D01*
X2933D02*
X2913Y560D01*
X2953D01*
X2933Y520D01*
X2894D02*
X2874Y560D01*
X2914D01*
X2894Y520D01*
X2855D02*
X2835Y560D01*
X2875D01*
X2855Y520D01*
X3051Y481D02*
X3031Y521D01*
X3071D01*
X3051Y481D01*
X3012D02*
X2992Y521D01*
X3032D01*
X3012Y481D01*
X2973D02*
X2953Y521D01*
X2993D01*
X2973Y481D01*
X2933D02*
X2913Y521D01*
X2953D01*
X2933Y481D01*
X2894D02*
X2874Y521D01*
X2914D01*
X2894Y481D01*
X2855D02*
X2835Y521D01*
X2875D01*
X2855Y481D01*
X3051Y441D02*
X3031Y481D01*
X3071D01*
X3051Y441D01*
X3012D02*
X2992Y481D01*
X3032D01*
X3012Y441D01*
X2973D02*
X2953Y481D01*
X2993D01*
X2973Y441D01*
X2933D02*
X2913Y481D01*
X2953D01*
X2933Y441D01*
X2894D02*
X2874Y481D01*
X2914D01*
X2894Y441D01*
X2855D02*
X2835Y481D01*
X2875D01*
X2855Y441D01*
X3051Y402D02*
X3031Y442D01*
X3071D01*
X3051Y402D01*
X3012D02*
X2992Y442D01*
X3032D01*
X3012Y402D01*
X2973D02*
X2953Y442D01*
X2993D01*
X2973Y402D01*
X2933D02*
X2913Y442D01*
X2953D01*
X2933Y402D01*
X2894D02*
X2874Y442D01*
X2914D01*
X2894Y402D01*
X2855D02*
X2835Y442D01*
X2875D01*
X2855Y402D01*
X3051Y363D02*
X3031Y403D01*
X3071D01*
X3051Y363D01*
X3012D02*
X2992Y403D01*
X3032D01*
X3012Y363D01*
X2973D02*
X2953Y403D01*
X2993D01*
X2973Y363D01*
X2933D02*
X2913Y403D01*
X2953D01*
X2933Y363D01*
X2894D02*
X2874Y403D01*
X2914D01*
X2894Y363D01*
X2855D02*
X2835Y403D01*
X2875D01*
X2855Y363D01*
X3051Y323D02*
X3031Y363D01*
X3071D01*
X3051Y323D01*
X3012D02*
X2992Y363D01*
X3032D01*
X3012Y323D01*
X2973D02*
X2953Y363D01*
X2993D01*
X2973Y323D01*
X2933D02*
X2913Y363D01*
X2953D01*
X2933Y323D01*
X2894D02*
X2874Y363D01*
X2914D01*
X2894Y323D01*
X2855D02*
X2835Y363D01*
X2875D01*
X2855Y323D01*
X1405Y1409D02*
X1385Y1449D01*
X1425D01*
X1405Y1409D01*
Y1369D02*
X1385Y1409D01*
X1425D01*
X1405Y1369D01*
Y1330D02*
X1385Y1370D01*
X1425D01*
X1405Y1330D01*
Y1291D02*
X1385Y1331D01*
X1425D01*
X1405Y1291D01*
X1444Y1409D02*
X1424Y1449D01*
X1464D01*
X1444Y1409D01*
Y1369D02*
X1424Y1409D01*
X1464D01*
X1444Y1369D01*
Y1330D02*
X1424Y1370D01*
X1464D01*
X1444Y1330D01*
Y1291D02*
X1424Y1331D01*
X1464D01*
X1444Y1291D01*
X1484Y1409D02*
X1464Y1449D01*
X1504D01*
X1484Y1409D01*
Y1369D02*
X1464Y1409D01*
X1504D01*
X1484Y1369D01*
Y1330D02*
X1464Y1370D01*
X1504D01*
X1484Y1330D01*
Y1291D02*
X1464Y1331D01*
X1504D01*
X1484Y1291D01*
X1523Y1409D02*
X1503Y1449D01*
X1543D01*
X1523Y1409D01*
Y1369D02*
X1503Y1409D01*
X1543D01*
X1523Y1369D01*
Y1330D02*
X1503Y1370D01*
X1543D01*
X1523Y1330D01*
Y1291D02*
X1503Y1331D01*
X1543D01*
X1523Y1291D01*
X1405Y1094D02*
X1385Y1134D01*
X1425D01*
X1405Y1094D01*
Y1054D02*
X1385Y1094D01*
X1425D01*
X1405Y1054D01*
Y1015D02*
X1385Y1055D01*
X1425D01*
X1405Y1015D01*
Y976D02*
X1385Y1016D01*
X1425D01*
X1405Y976D01*
X1444Y1094D02*
X1424Y1134D01*
X1464D01*
X1444Y1094D01*
Y1054D02*
X1424Y1094D01*
X1464D01*
X1444Y1054D01*
Y1015D02*
X1424Y1055D01*
X1464D01*
X1444Y1015D01*
Y976D02*
X1424Y1016D01*
X1464D01*
X1444Y976D01*
X1484Y1094D02*
X1464Y1134D01*
X1504D01*
X1484Y1094D01*
Y1054D02*
X1464Y1094D01*
X1504D01*
X1484Y1054D01*
Y1015D02*
X1464Y1055D01*
X1504D01*
X1484Y1015D01*
Y976D02*
X1464Y1016D01*
X1504D01*
X1484Y976D01*
X1523Y1094D02*
X1503Y1134D01*
X1543D01*
X1523Y1094D01*
Y1054D02*
X1503Y1094D01*
X1543D01*
X1523Y1054D01*
Y1015D02*
X1503Y1055D01*
X1543D01*
X1523Y1015D01*
Y976D02*
X1503Y1016D01*
X1543D01*
X1523Y976D01*
X1403Y2314D02*
X1383Y2354D01*
X1423D01*
X1403Y2314D01*
Y2275D02*
X1383Y2315D01*
X1423D01*
X1403Y2275D01*
Y2235D02*
X1383Y2275D01*
X1423D01*
X1403Y2235D01*
Y2196D02*
X1383Y2236D01*
X1423D01*
X1403Y2196D01*
X1442Y2314D02*
X1422Y2354D01*
X1462D01*
X1442Y2314D01*
Y2275D02*
X1422Y2315D01*
X1462D01*
X1442Y2275D01*
Y2235D02*
X1422Y2275D01*
X1462D01*
X1442Y2235D01*
Y2196D02*
X1422Y2236D01*
X1462D01*
X1442Y2196D01*
X1482Y2314D02*
X1462Y2354D01*
X1502D01*
X1482Y2314D01*
Y2275D02*
X1462Y2315D01*
X1502D01*
X1482Y2275D01*
Y2235D02*
X1462Y2275D01*
X1502D01*
X1482Y2235D01*
Y2196D02*
X1462Y2236D01*
X1502D01*
X1482Y2196D01*
X1521Y2314D02*
X1501Y2354D01*
X1541D01*
X1521Y2314D01*
Y2275D02*
X1501Y2315D01*
X1541D01*
X1521Y2275D01*
Y2235D02*
X1501Y2275D01*
X1541D01*
X1521Y2235D01*
Y2196D02*
X1501Y2236D01*
X1541D01*
X1521Y2196D01*
X1403Y1999D02*
X1383Y2039D01*
X1423D01*
X1403Y1999D01*
Y1960D02*
X1383Y2000D01*
X1423D01*
X1403Y1960D01*
Y1920D02*
X1383Y1960D01*
X1423D01*
X1403Y1920D01*
Y1881D02*
X1383Y1921D01*
X1423D01*
X1403Y1881D01*
X1442Y1999D02*
X1422Y2039D01*
X1462D01*
X1442Y1999D01*
Y1960D02*
X1422Y2000D01*
X1462D01*
X1442Y1960D01*
Y1920D02*
X1422Y1960D01*
X1462D01*
X1442Y1920D01*
Y1881D02*
X1422Y1921D01*
X1462D01*
X1442Y1881D01*
X1482Y1999D02*
X1462Y2039D01*
X1502D01*
X1482Y1999D01*
Y1960D02*
X1462Y2000D01*
X1502D01*
X1482Y1960D01*
Y1920D02*
X1462Y1960D01*
X1502D01*
X1482Y1920D01*
Y1881D02*
X1462Y1921D01*
X1502D01*
X1482Y1881D01*
X1521Y1999D02*
X1501Y2039D01*
X1541D01*
X1521Y1999D01*
Y1960D02*
X1501Y2000D01*
X1541D01*
X1521Y1960D01*
Y1920D02*
X1501Y1960D01*
X1541D01*
X1521Y1920D01*
Y1881D02*
X1501Y1921D01*
X1541D01*
X1521Y1881D01*
X4061Y1877D02*
X4041Y1917D01*
X4081D01*
X4061Y1877D01*
Y1916D02*
X4041Y1956D01*
X4081D01*
X4061Y1916D01*
Y1956D02*
X4041Y1996D01*
X4081D01*
X4061Y1956D01*
Y1995D02*
X4041Y2035D01*
X4081D01*
X4061Y1995D01*
X4022Y1877D02*
X4002Y1917D01*
X4042D01*
X4022Y1877D01*
Y1916D02*
X4002Y1956D01*
X4042D01*
X4022Y1916D01*
Y1956D02*
X4002Y1996D01*
X4042D01*
X4022Y1956D01*
Y1995D02*
X4002Y2035D01*
X4042D01*
X4022Y1995D01*
X3983Y1877D02*
X3963Y1917D01*
X4003D01*
X3983Y1877D01*
Y1916D02*
X3963Y1956D01*
X4003D01*
X3983Y1916D01*
Y1956D02*
X3963Y1996D01*
X4003D01*
X3983Y1956D01*
Y1995D02*
X3963Y2035D01*
X4003D01*
X3983Y1995D01*
X3943Y1877D02*
X3923Y1917D01*
X3963D01*
X3943Y1877D01*
Y1916D02*
X3923Y1956D01*
X3963D01*
X3943Y1916D01*
Y1956D02*
X3923Y1996D01*
X3963D01*
X3943Y1956D01*
Y1995D02*
X3923Y2035D01*
X3963D01*
X3943Y1995D01*
X4061Y2192D02*
X4041Y2232D01*
X4081D01*
X4061Y2192D01*
Y2231D02*
X4041Y2271D01*
X4081D01*
X4061Y2231D01*
Y2271D02*
X4041Y2311D01*
X4081D01*
X4061Y2271D01*
Y2310D02*
X4041Y2350D01*
X4081D01*
X4061Y2310D01*
X4022Y2192D02*
X4002Y2232D01*
X4042D01*
X4022Y2192D01*
Y2231D02*
X4002Y2271D01*
X4042D01*
X4022Y2231D01*
Y2271D02*
X4002Y2311D01*
X4042D01*
X4022Y2271D01*
Y2310D02*
X4002Y2350D01*
X4042D01*
X4022Y2310D01*
X3983Y2192D02*
X3963Y2232D01*
X4003D01*
X3983Y2192D01*
Y2231D02*
X3963Y2271D01*
X4003D01*
X3983Y2231D01*
Y2271D02*
X3963Y2311D01*
X4003D01*
X3983Y2271D01*
Y2310D02*
X3963Y2350D01*
X4003D01*
X3983Y2310D01*
X3943Y2192D02*
X3923Y2232D01*
X3963D01*
X3943Y2192D01*
Y2231D02*
X3923Y2271D01*
X3963D01*
X3943Y2231D01*
Y2271D02*
X3923Y2311D01*
X3963D01*
X3943Y2271D01*
Y2310D02*
X3923Y2350D01*
X3963D01*
X3943Y2310D01*
X4061Y972D02*
X4041Y1012D01*
X4081D01*
X4061Y972D01*
Y1011D02*
X4041Y1051D01*
X4081D01*
X4061Y1011D01*
Y1051D02*
X4041Y1091D01*
X4081D01*
X4061Y1051D01*
Y1090D02*
X4041Y1130D01*
X4081D01*
X4061Y1090D01*
X4022Y972D02*
X4002Y1012D01*
X4042D01*
X4022Y972D01*
Y1011D02*
X4002Y1051D01*
X4042D01*
X4022Y1011D01*
Y1051D02*
X4002Y1091D01*
X4042D01*
X4022Y1051D01*
Y1090D02*
X4002Y1130D01*
X4042D01*
X4022Y1090D01*
X3983Y972D02*
X3963Y1012D01*
X4003D01*
X3983Y972D01*
Y1011D02*
X3963Y1051D01*
X4003D01*
X3983Y1011D01*
Y1051D02*
X3963Y1091D01*
X4003D01*
X3983Y1051D01*
Y1090D02*
X3963Y1130D01*
X4003D01*
X3983Y1090D01*
X3943Y972D02*
X3923Y1012D01*
X3963D01*
X3943Y972D01*
Y1011D02*
X3923Y1051D01*
X3963D01*
X3943Y1011D01*
Y1051D02*
X3923Y1091D01*
X3963D01*
X3943Y1051D01*
Y1090D02*
X3923Y1130D01*
X3963D01*
X3943Y1090D01*
X4061Y1287D02*
X4041Y1327D01*
X4081D01*
X4061Y1287D01*
Y1326D02*
X4041Y1366D01*
X4081D01*
X4061Y1326D01*
Y1365D02*
X4041Y1405D01*
X4081D01*
X4061Y1365D01*
Y1405D02*
X4041Y1445D01*
X4081D01*
X4061Y1405D01*
X4022Y1287D02*
X4002Y1327D01*
X4042D01*
X4022Y1287D01*
Y1326D02*
X4002Y1366D01*
X4042D01*
X4022Y1326D01*
Y1365D02*
X4002Y1405D01*
X4042D01*
X4022Y1365D01*
Y1405D02*
X4002Y1445D01*
X4042D01*
X4022Y1405D01*
X3983Y1287D02*
X3963Y1327D01*
X4003D01*
X3983Y1287D01*
Y1326D02*
X3963Y1366D01*
X4003D01*
X3983Y1326D01*
Y1365D02*
X3963Y1405D01*
X4003D01*
X3983Y1365D01*
Y1405D02*
X3963Y1445D01*
X4003D01*
X3983Y1405D01*
X3943Y1287D02*
X3923Y1327D01*
X3963D01*
X3943Y1287D01*
Y1326D02*
X3923Y1366D01*
X3963D01*
X3943Y1326D01*
Y1365D02*
X3923Y1405D01*
X3963D01*
X3943Y1365D01*
Y1405D02*
X3923Y1445D01*
X3963D01*
X3943Y1405D01*
X3335Y323D02*
X3315Y363D01*
X3355D01*
X3335Y323D01*
X3375D02*
X3355Y363D01*
X3395D01*
X3375Y323D01*
X3414D02*
X3394Y363D01*
X3434D01*
X3414Y323D01*
X3453D02*
X3433Y363D01*
X3473D01*
X3453Y323D01*
X3335Y363D02*
X3315Y403D01*
X3355D01*
X3335Y363D01*
X3375D02*
X3355Y403D01*
X3395D01*
X3375Y363D01*
X3414D02*
X3394Y403D01*
X3434D01*
X3414Y363D01*
X3453D02*
X3433Y403D01*
X3473D01*
X3453Y363D01*
X3335Y402D02*
X3315Y442D01*
X3355D01*
X3335Y402D01*
X3375D02*
X3355Y442D01*
X3395D01*
X3375Y402D01*
X3414D02*
X3394Y442D01*
X3434D01*
X3414Y402D01*
X3453D02*
X3433Y442D01*
X3473D01*
X3453Y402D01*
X3335Y441D02*
X3315Y481D01*
X3355D01*
X3335Y441D01*
X3375D02*
X3355Y481D01*
X3395D01*
X3375Y441D01*
X3414D02*
X3394Y481D01*
X3434D01*
X3414Y441D01*
X3453D02*
X3433Y481D01*
X3473D01*
X3453Y441D01*
X3650Y323D02*
X3630Y363D01*
X3670D01*
X3650Y323D01*
X3690D02*
X3670Y363D01*
X3710D01*
X3690Y323D01*
X3729D02*
X3709Y363D01*
X3749D01*
X3729Y323D01*
X3768D02*
X3748Y363D01*
X3788D01*
X3768Y323D01*
X3650Y363D02*
X3630Y403D01*
X3670D01*
X3650Y363D01*
X3690D02*
X3670Y403D01*
X3710D01*
X3690Y363D01*
X3729D02*
X3709Y403D01*
X3749D01*
X3729Y363D01*
X3768D02*
X3748Y403D01*
X3788D01*
X3768Y363D01*
X3650Y402D02*
X3630Y442D01*
X3670D01*
X3650Y402D01*
X3690D02*
X3670Y442D01*
X3710D01*
X3690Y402D01*
X3729D02*
X3709Y442D01*
X3749D01*
X3729Y402D01*
X3768D02*
X3748Y442D01*
X3788D01*
X3768Y402D01*
X3650Y441D02*
X3630Y481D01*
X3670D01*
X3650Y441D01*
X3690D02*
X3670Y481D01*
X3710D01*
X3690Y441D01*
X3729D02*
X3709Y481D01*
X3749D01*
X3729Y441D01*
X3768D02*
X3748Y481D01*
X3788D01*
X3768Y441D01*
X1686Y323D02*
X1666Y363D01*
X1706D01*
X1686Y323D01*
X1726D02*
X1706Y363D01*
X1746D01*
X1726Y323D01*
X1765D02*
X1745Y363D01*
X1785D01*
X1765Y323D01*
X1804D02*
X1784Y363D01*
X1824D01*
X1804Y323D01*
X1686Y363D02*
X1666Y403D01*
X1706D01*
X1686Y363D01*
X1726D02*
X1706Y403D01*
X1746D01*
X1726Y363D01*
X1765D02*
X1745Y403D01*
X1785D01*
X1765Y363D01*
X1804D02*
X1784Y403D01*
X1824D01*
X1804Y363D01*
X1686Y402D02*
X1666Y442D01*
X1706D01*
X1686Y402D01*
X1726D02*
X1706Y442D01*
X1746D01*
X1726Y402D01*
X1765D02*
X1745Y442D01*
X1785D01*
X1765Y402D01*
X1804D02*
X1784Y442D01*
X1824D01*
X1804Y402D01*
X1686Y441D02*
X1666Y481D01*
X1706D01*
X1686Y441D01*
X1726D02*
X1706Y481D01*
X1746D01*
X1726Y441D01*
X1765D02*
X1745Y481D01*
X1785D01*
X1765Y441D01*
X1804D02*
X1784Y481D01*
X1824D01*
X1804Y441D01*
X2001Y323D02*
X1981Y363D01*
X2021D01*
X2001Y323D01*
X2040D02*
X2020Y363D01*
X2060D01*
X2040Y323D01*
X2080D02*
X2060Y363D01*
X2100D01*
X2080Y323D01*
X2119D02*
X2099Y363D01*
X2139D01*
X2119Y323D01*
X2001Y363D02*
X1981Y403D01*
X2021D01*
X2001Y363D01*
X2040D02*
X2020Y403D01*
X2060D01*
X2040Y363D01*
X2080D02*
X2060Y403D01*
X2100D01*
X2080Y363D01*
X2119D02*
X2099Y403D01*
X2139D01*
X2119Y363D01*
X2001Y402D02*
X1981Y442D01*
X2021D01*
X2001Y402D01*
X2040D02*
X2020Y442D01*
X2060D01*
X2040Y402D01*
X2080D02*
X2060Y442D01*
X2100D01*
X2080Y402D01*
X2119D02*
X2099Y442D01*
X2139D01*
X2119Y402D01*
X2001Y441D02*
X1981Y481D01*
X2021D01*
X2001Y441D01*
X2040D02*
X2020Y481D01*
X2060D01*
X2040Y441D01*
X2080D02*
X2060Y481D01*
X2100D01*
X2080Y441D01*
X2119D02*
X2099Y481D01*
X2139D01*
X2119Y441D01*
X2478Y2986D02*
X2458Y3026D01*
X2498D01*
X2478Y2986D01*
X2439D02*
X2419Y3026D01*
X2459D01*
X2439Y2986D01*
X2400D02*
X2380Y3026D01*
X2420D01*
X2400Y2986D01*
X2360D02*
X2340Y3026D01*
X2380D01*
X2360Y2986D01*
X2478Y2947D02*
X2458Y2987D01*
X2498D01*
X2478Y2947D01*
X2439D02*
X2419Y2987D01*
X2459D01*
X2439Y2947D01*
X2400D02*
X2380Y2987D01*
X2420D01*
X2400Y2947D01*
X2360D02*
X2340Y2987D01*
X2380D01*
X2360Y2947D01*
X2478Y2908D02*
X2458Y2948D01*
X2498D01*
X2478Y2908D01*
X2439D02*
X2419Y2948D01*
X2459D01*
X2439Y2908D01*
X2400D02*
X2380Y2948D01*
X2420D01*
X2400Y2908D01*
X2360D02*
X2340Y2948D01*
X2380D01*
X2360Y2908D01*
X2478Y2868D02*
X2458Y2908D01*
X2498D01*
X2478Y2868D01*
X2439D02*
X2419Y2908D01*
X2459D01*
X2439Y2868D01*
X2400D02*
X2380Y2908D01*
X2420D01*
X2400Y2868D01*
X2360D02*
X2340Y2908D01*
X2380D01*
X2360Y2868D01*
X2163Y2986D02*
X2143Y3026D01*
X2183D01*
X2163Y2986D01*
X2124D02*
X2104Y3026D01*
X2144D01*
X2124Y2986D01*
X2085D02*
X2065Y3026D01*
X2105D01*
X2085Y2986D01*
X2045D02*
X2025Y3026D01*
X2065D01*
X2045Y2986D01*
X2163Y2947D02*
X2143Y2987D01*
X2183D01*
X2163Y2947D01*
X2124D02*
X2104Y2987D01*
X2144D01*
X2124Y2947D01*
X2085D02*
X2065Y2987D01*
X2105D01*
X2085Y2947D01*
X2045D02*
X2025Y2987D01*
X2065D01*
X2045Y2947D01*
X2163Y2908D02*
X2143Y2948D01*
X2183D01*
X2163Y2908D01*
X2124D02*
X2104Y2948D01*
X2144D01*
X2124Y2908D01*
X2085D02*
X2065Y2948D01*
X2105D01*
X2085Y2908D01*
X2045D02*
X2025Y2948D01*
X2065D01*
X2045Y2908D01*
X2163Y2868D02*
X2143Y2908D01*
X2183D01*
X2163Y2868D01*
X2124D02*
X2104Y2908D01*
X2144D01*
X2124Y2868D01*
X2085D02*
X2065Y2908D01*
X2105D01*
X2085Y2868D01*
X2045D02*
X2025Y2908D01*
X2065D01*
X2045Y2868D01*
D65*
X1494Y2926D02*
G03*
X1494Y2926I-20J0D01*
G01*
Y421D02*
G03*
X1494Y421I-20J0D01*
G01*
X4004D02*
G03*
X4004Y421I-20J0D01*
G01*
Y2926D02*
G03*
X4004Y2926I-20J0D01*
G01*
M02*
