M48
;Layer_Color=9474304
;FILE_FORMAT=2:3
INCH,LZ
;TYPE=PLATED
T1F00S00C0.010
T2F00S00C0.020
T3F00S00C0.025
T4F00S00C0.028
T5F00S00C0.035
T6F00S00C0.125
%
T01
X02478Y01159
X02502
X02527
X02526Y01186
X02502
X02478
Y01214
X02502Y01214
X02527Y01215
X02528Y01241
X02502Y01241
X02478
X03059Y01231
X03083
X03109Y01231
X03108Y01205
X03083Y01204
X03059Y01204
Y01176
X03083
X03107
X03108Y01149
X03083
X03059
T02
X01405Y00996
Y01035
Y01074
Y01114
X01444
Y01074
Y01035
Y00996
X01484
X01523
Y01035
X01484
Y01074
X01523
Y01114
X01484
Y01311
X01523
Y0135
X01484
Y01389
X01523
Y01429
X01484
X01444
X01405
Y01389
Y0135
Y01311
X01444
Y0135
Y01389
X01686Y00461
Y00422
Y00383
Y00343
X01726
X01765
X01804
Y00383
X01765
X01726
Y00422
X01765
Y00461
X01726
X01804
Y00422
X02001
Y00461
X0204
Y00422
X0208
Y00461
X02119
Y00422
Y00383
Y00343
X0208
X0204
X02001
Y00383
X0204
X0208
X02382
X02382
X02422
X02422
X02461
X02461
X025
X025
X0254
X0254
X02579
X02579
Y00422
X02579
X0254
X0254
X025
X025
X02461
X02461
X02422
X02422
X02382
X02382
Y00461
X02382
X02422
X02422
X02461
X02461
X025
X025
X0254
X0254
X02579
X02579
Y00501
X02579
X0254
X0254
X025
X025
X02461
X02461
X02422
X02422
X02382
X02382
Y0054
X02382
X02422
X02422
X02461
X02461
X025
X025
X0254
X0254
X02579
X02579
Y00343
X02579
X0254
X0254
X025
X025
X02461
X02461
X02422
X02422
X02382
X02382
X02855
Y00383
Y00422
Y00461
Y00501
Y0054
X02894
X02933
X02973
X03012
X03051
Y00501
X03012
X02973
X02933
X02894
Y00461
X02933
Y00422
X02894
Y00383
X02933
X02973
Y00422
Y00461
X03012
Y00422
X03051
Y00461
Y00383
X03012
Y00343
X03051
X02973
X02933
X02894
X03335
X03375
X03414
X03453
Y00383
X03414
X03375
X03335
Y00422
Y00461
X03375
Y00422
X03414
Y00461
X03453
Y00422
X0365
Y00461
X0369
Y00422
X03729
Y00461
X03768
Y00422
Y00383
Y00343
X03729
X0369
X0365
Y00383
X0369
X03729
X03943Y00992
X03983
X04022
X04061
Y01031
Y01071
Y0111
X04022
Y01071
Y01031
X03983
Y01071
X03943
Y01031
Y0111
X03983
Y01307
X03943
Y01346
X03983
Y01385
X03943
Y01425
X03983
X04022
X04061
Y01385
Y01346
Y01307
X04022
Y01346
Y01385
Y01897
X04061
Y01936
Y01976
Y02015
X04022
Y01976
Y01936
X03983
Y01976
X03943
Y01936
Y01897
X03983
Y02015
X03943
Y02212
X03983
X04022
X04061
Y02251
Y02291
Y0233
X04022
Y02291
Y02251
X03983
Y02291
X03943
Y02251
Y0233
X03983
X02948Y02889
Y02928
Y02968
Y03007
X02909
X0287
X0283
Y02968
X0287
X02909
Y02928
X0287
Y02889
X02909
X0283
Y02928
X02633
Y02889
X02594
Y02928
X02555
Y02889
X02515
Y02928
Y02968
Y03007
X02555
X02594
X02633
Y02968
X02594
X02555
X01521Y02334
X01482
X01442
X01403
Y02295
Y02255
Y02216
X01442
Y02255
Y02295
X01482
Y02255
X01521
Y02295
Y02216
X01482
Y02019
X01521
Y0198
X01482
Y0194
X01521
Y01901
X01482
X01442
X01403
Y0194
Y0198
Y02019
X01442
Y0198
Y0194
T03
X02273Y01268
X0268Y01118
X02878Y01002
T04
X02675Y01423
X03264Y01165
X03272Y01089
T05
X02672Y00784
X02772
X02779Y02251
Y02351
X02679
X02579
Y02251
X02679
X02879
Y02351
T06
X01474Y00421
X03984
Y02926
X01474
M30
