G04 Layer_Color=65535*
%FSLAX23Y23*%
%MOIN*%
G70*
G01*
G75*
%ADD34C,0.010*%
%ADD35C,0.016*%
%ADD36C,0.008*%
%ADD37C,0.010*%
%ADD38C,0.002*%
%ADD39C,0.007*%
%ADD40C,0.005*%
G36*
X2090Y576D02*
X2045D01*
Y588D01*
X2090D01*
Y576D01*
D02*
G37*
G36*
X1753Y583D02*
X1783D01*
Y571D01*
X1753D01*
Y541D01*
X1741D01*
Y570D01*
X1711D01*
Y583D01*
X1741D01*
Y613D01*
X1753D01*
Y583D01*
D02*
G37*
G36*
X2897Y2804D02*
X2927D01*
Y2791D01*
X2897D01*
Y2761D01*
X2885D01*
Y2791D01*
X2855D01*
Y2803D01*
X2885D01*
Y2833D01*
X2897D01*
Y2804D01*
D02*
G37*
G36*
X2601Y2786D02*
X2556D01*
Y2798D01*
X2601D01*
Y2786D01*
D02*
G37*
G36*
X2478Y781D02*
X2508D01*
Y769D01*
X2478D01*
Y739D01*
X2466D01*
Y768D01*
X2436D01*
Y781D01*
X2466D01*
Y811D01*
X2478D01*
Y781D01*
D02*
G37*
G36*
X2969Y770D02*
X2924D01*
Y782D01*
X2969D01*
Y770D01*
D02*
G37*
G36*
X3404Y583D02*
X3434D01*
Y571D01*
X3404D01*
Y541D01*
X3392D01*
Y570D01*
X3362D01*
Y583D01*
X3392D01*
Y613D01*
X3404D01*
Y583D01*
D02*
G37*
G36*
X3741Y576D02*
X3696D01*
Y588D01*
X3741D01*
Y576D01*
D02*
G37*
G36*
X1641Y1949D02*
X1629D01*
Y1994D01*
X1641D01*
Y1949D01*
D02*
G37*
G36*
X1636Y2268D02*
X1666D01*
Y2256D01*
X1636D01*
Y2226D01*
X1624D01*
Y2256D01*
X1594D01*
Y2268D01*
X1623D01*
Y2298D01*
X1636D01*
Y2268D01*
D02*
G37*
G36*
X1633Y1360D02*
X1663D01*
Y1348D01*
X1633D01*
Y1318D01*
X1621D01*
Y1348D01*
X1591D01*
Y1360D01*
X1620D01*
Y1390D01*
X1633D01*
Y1360D01*
D02*
G37*
G36*
X1638Y1031D02*
X1626D01*
Y1076D01*
X1638D01*
Y1031D01*
D02*
G37*
G36*
X3835Y1335D02*
X3823D01*
Y1380D01*
X3835D01*
Y1335D01*
D02*
G37*
G36*
X3840Y1053D02*
X3870D01*
Y1041D01*
X3841D01*
Y1011D01*
X3828D01*
Y1041D01*
X3798D01*
Y1053D01*
X3828D01*
Y1083D01*
X3840D01*
Y1053D01*
D02*
G37*
G36*
Y1958D02*
X3870D01*
Y1946D01*
X3841D01*
Y1916D01*
X3828D01*
Y1946D01*
X3798D01*
Y1958D01*
X3828D01*
Y1988D01*
X3840D01*
Y1958D01*
D02*
G37*
G36*
X3835Y2240D02*
X3823D01*
Y2285D01*
X3835D01*
Y2240D01*
D02*
G37*
D34*
X2413Y1301D02*
G03*
X2413Y1301I-5J0D01*
G01*
X2993D02*
G03*
X2993Y1301I-5J0D01*
G01*
D35*
X2506Y1260D02*
G03*
X2506Y1260I-8J0D01*
G01*
X3087D02*
G03*
X3087Y1260I-8J0D01*
G01*
D36*
X2622Y734D02*
X2822D01*
Y834D01*
X2622D02*
X2822D01*
X2622Y734D02*
Y834D01*
X2929Y2301D02*
Y2401D01*
X2529Y2301D02*
X2929D01*
X2529Y2401D02*
X2929D01*
X2529Y2301D02*
Y2401D01*
Y2201D02*
Y2301D01*
X2929D01*
X2529Y2201D02*
X2929D01*
Y2301D01*
X2486Y1410D02*
Y1457D01*
X2234D02*
X2470D01*
X2234Y1363D02*
Y1457D01*
Y1363D02*
X2470D01*
X2486D02*
Y1410D01*
X2470Y1363D02*
X2486D01*
X2470Y1457D02*
X2486D01*
Y1363D02*
X2509D01*
Y1457D01*
X2486D02*
X2509D01*
X2467Y1095D02*
Y1291D01*
X2538Y1095D02*
Y1291D01*
X2467D02*
X2538D01*
X2467Y1095D02*
X2538D01*
X3048D02*
Y1291D01*
X3118Y1095D02*
Y1291D01*
X3048D02*
X3118D01*
X3048Y1095D02*
X3118D01*
X3105Y1453D02*
X3128D01*
Y1359D02*
Y1453D01*
X3105Y1359D02*
X3128D01*
X3089Y1453D02*
X3105D01*
X3089Y1359D02*
X3105D01*
Y1406D01*
X2852Y1359D02*
X3089D01*
X2852D02*
Y1453D01*
X3089D01*
X3105Y1406D02*
Y1453D01*
X3174Y960D02*
X3226D01*
X2250Y647D02*
Y691D01*
Y801D02*
Y845D01*
D37*
X2532Y1512D02*
X2532Y1512D01*
X2536Y2012D02*
X2536Y2012D01*
X2532Y1512D02*
X2674D01*
X2532Y2012D02*
X2674D01*
X2320Y1512D02*
X2532D01*
X2320Y1512D02*
X2320Y1512D01*
X2316Y2012D02*
X2316Y2012D01*
X2316Y2012D02*
X2536D01*
X2178Y1512D02*
X2320D01*
X2178Y2012D02*
X2316D01*
X2674Y1512D02*
Y1638D01*
X2552D02*
X2674D01*
X2544Y1646D02*
X2552Y1638D01*
X2544Y1646D02*
Y1878D01*
X2552Y1886D01*
X2674D01*
Y2012D01*
X2178Y1890D02*
Y2012D01*
Y1890D02*
X2288D01*
X2304Y1874D01*
Y1658D02*
Y1874D01*
X2288Y1642D02*
X2304Y1658D01*
X2178Y1642D02*
X2288D01*
X2178Y1642D02*
X2178Y1642D01*
X2178Y1512D02*
Y1642D01*
X3141Y1512D02*
X3141Y1512D01*
X3145Y2012D02*
X3145Y2012D01*
X3141Y1512D02*
X3283D01*
X3141Y2012D02*
X3283D01*
X2929Y1512D02*
X3141D01*
X2929Y1512D02*
X2929Y1512D01*
X2925Y2012D02*
X2925Y2012D01*
X2925Y2012D02*
X3145D01*
X2787Y1512D02*
X2929D01*
X2787Y2012D02*
X2925D01*
X3283Y1512D02*
Y1638D01*
X3161D02*
X3283D01*
X3153Y1646D02*
X3161Y1638D01*
X3153Y1646D02*
Y1878D01*
X3161Y1886D01*
X3283D01*
Y2012D01*
X2787Y1890D02*
Y2012D01*
Y1890D02*
X2897D01*
X2913Y1874D01*
Y1658D02*
Y1874D01*
X2897Y1642D02*
X2913Y1658D01*
X2787Y1642D02*
X2897D01*
X2787Y1642D02*
X2787Y1642D01*
X2787Y1512D02*
Y1642D01*
X3003Y2278D02*
X2990D01*
X2983Y2271D01*
Y2245D01*
X2990Y2238D01*
X3003D01*
X3010Y2245D01*
Y2271D01*
X3003Y2278D01*
X3023Y2265D02*
Y2245D01*
X3030Y2238D01*
X3050D01*
Y2265D01*
X3070Y2271D02*
Y2265D01*
X3063D01*
X3077D01*
X3070D01*
Y2245D01*
X3077Y2238D01*
X3123D02*
X3097D01*
X3123Y2265D01*
Y2271D01*
X3117Y2278D01*
X3103D01*
X3097Y2271D01*
X2648Y2693D02*
Y2733D01*
X2668Y2753D01*
X2688Y2733D01*
Y2693D01*
Y2723D01*
X2648D01*
X2708Y2753D02*
Y2703D01*
X2718Y2693D01*
X2738D01*
X2748Y2703D01*
Y2753D01*
X2768D02*
X2808Y2693D01*
Y2753D02*
X2768Y2693D01*
X2647Y536D02*
Y496D01*
X2667Y476D01*
X2687Y496D01*
Y536D01*
X2707Y476D02*
X2727D01*
X2717D01*
Y516D01*
X2707D01*
X2757Y476D02*
Y516D01*
X2787D01*
X2797Y506D01*
Y476D01*
X1856Y757D02*
X1816D01*
Y697D01*
X1856D01*
X1816Y727D02*
X1836D01*
X1916Y747D02*
X1906Y757D01*
X1886D01*
X1876Y747D01*
Y737D01*
X1886Y727D01*
X1906D01*
X1916Y717D01*
Y707D01*
X1906Y697D01*
X1886D01*
X1876Y707D01*
X1976Y747D02*
X1966Y757D01*
X1946D01*
X1936Y747D01*
Y707D01*
X1946Y697D01*
X1966D01*
X1976Y707D01*
X1996Y697D02*
X2016D01*
X2006D01*
Y757D01*
X1996Y747D01*
X3486Y757D02*
X3446D01*
Y697D01*
X3486D01*
X3446Y727D02*
X3466D01*
X3546Y747D02*
X3536Y757D01*
X3516D01*
X3506Y747D01*
Y737D01*
X3516Y727D01*
X3536D01*
X3546Y717D01*
Y707D01*
X3536Y697D01*
X3516D01*
X3506Y707D01*
X3606Y747D02*
X3596Y757D01*
X3576D01*
X3566Y747D01*
Y707D01*
X3576Y697D01*
X3596D01*
X3606Y707D01*
X3666Y697D02*
X3626D01*
X3666Y737D01*
Y747D01*
X3656Y757D01*
X3636D01*
X3626Y747D01*
X3724Y1145D02*
Y1105D01*
X3784D01*
Y1145D01*
X3754Y1105D02*
Y1125D01*
X3734Y1205D02*
X3724Y1195D01*
Y1175D01*
X3734Y1165D01*
X3744D01*
X3754Y1175D01*
Y1195D01*
X3764Y1205D01*
X3774D01*
X3784Y1195D01*
Y1175D01*
X3774Y1165D01*
X3734Y1265D02*
X3724Y1255D01*
Y1235D01*
X3734Y1225D01*
X3774D01*
X3784Y1235D01*
Y1255D01*
X3774Y1265D01*
X3734Y1285D02*
X3724Y1295D01*
Y1315D01*
X3734Y1325D01*
X3744D01*
X3754Y1315D01*
Y1305D01*
Y1315D01*
X3764Y1325D01*
X3774D01*
X3784Y1315D01*
Y1295D01*
X3774Y1285D01*
X3724Y2043D02*
Y2003D01*
X3784D01*
Y2043D01*
X3754Y2003D02*
Y2023D01*
X3734Y2103D02*
X3724Y2093D01*
Y2073D01*
X3734Y2063D01*
X3744D01*
X3754Y2073D01*
Y2093D01*
X3764Y2103D01*
X3774D01*
X3784Y2093D01*
Y2073D01*
X3774Y2063D01*
X3734Y2163D02*
X3724Y2153D01*
Y2133D01*
X3734Y2123D01*
X3774D01*
X3784Y2133D01*
Y2153D01*
X3774Y2163D01*
X3784Y2213D02*
X3724D01*
X3754Y2183D01*
Y2223D01*
X1708Y2043D02*
Y2003D01*
X1768D01*
Y2043D01*
X1738Y2003D02*
Y2023D01*
X1718Y2103D02*
X1708Y2093D01*
Y2073D01*
X1718Y2063D01*
X1728D01*
X1738Y2073D01*
Y2093D01*
X1748Y2103D01*
X1758D01*
X1768Y2093D01*
Y2073D01*
X1758Y2063D01*
X1718Y2163D02*
X1708Y2153D01*
Y2133D01*
X1718Y2123D01*
X1758D01*
X1768Y2133D01*
Y2153D01*
X1758Y2163D01*
X1708Y2223D02*
Y2183D01*
X1738D01*
X1728Y2203D01*
Y2213D01*
X1738Y2223D01*
X1758D01*
X1768Y2213D01*
Y2193D01*
X1758Y2183D01*
X1708Y1145D02*
Y1105D01*
X1768D01*
Y1145D01*
X1738Y1105D02*
Y1125D01*
X1718Y1205D02*
X1708Y1195D01*
Y1175D01*
X1718Y1165D01*
X1728D01*
X1738Y1175D01*
Y1195D01*
X1748Y1205D01*
X1758D01*
X1768Y1195D01*
Y1175D01*
X1758Y1165D01*
X1718Y1265D02*
X1708Y1255D01*
Y1235D01*
X1718Y1225D01*
X1758D01*
X1768Y1235D01*
Y1255D01*
X1758Y1265D01*
X1708Y1325D02*
X1718Y1305D01*
X1738Y1285D01*
X1758D01*
X1768Y1295D01*
Y1315D01*
X1758Y1325D01*
X1748D01*
X1738Y1315D01*
Y1285D01*
X3010Y2373D02*
X2997D01*
X2990Y2366D01*
Y2340D01*
X2997Y2333D01*
X3010D01*
X3017Y2340D01*
Y2366D01*
X3010Y2373D01*
X3030Y2360D02*
Y2340D01*
X3037Y2333D01*
X3057D01*
Y2360D01*
X3077Y2366D02*
Y2360D01*
X3070D01*
X3083D01*
X3077D01*
Y2340D01*
X3083Y2333D01*
X3103D02*
X3117D01*
X3110D01*
Y2373D01*
X3103Y2366D01*
X2526Y613D02*
X2546D01*
X2536D01*
Y673D01*
X2526Y663D01*
X2616Y673D02*
X2596Y663D01*
X2576Y643D01*
Y623D01*
X2586Y613D01*
X2606D01*
X2616Y623D01*
Y633D01*
X2606Y643D01*
X2576D01*
X2636Y673D02*
Y633D01*
X2656Y613D01*
X2676Y633D01*
Y673D01*
X2696Y643D02*
X2736D01*
X2796Y613D02*
X2756D01*
X2796Y653D01*
Y663D01*
X2786Y673D01*
X2766D01*
X2756Y663D01*
X2856Y673D02*
X2836Y663D01*
X2816Y643D01*
Y623D01*
X2826Y613D01*
X2846D01*
X2856Y623D01*
Y633D01*
X2846Y643D01*
X2816D01*
X2876Y673D02*
Y633D01*
X2896Y613D01*
X2916Y633D01*
Y673D01*
X2779Y2435D02*
Y2462D01*
X2766Y2448D02*
X2792D01*
X2759Y2502D02*
Y2475D01*
X2779D01*
X2772Y2488D01*
Y2495D01*
X2779Y2502D01*
X2792D01*
X2799Y2495D01*
Y2482D01*
X2792Y2475D01*
X2759Y2515D02*
X2786D01*
X2799Y2528D01*
X2786Y2542D01*
X2759D01*
X2866Y2467D02*
X2859Y2460D01*
Y2447D01*
X2866Y2440D01*
X2892D01*
X2899Y2447D01*
Y2460D01*
X2892Y2467D01*
X2879D01*
Y2453D01*
X2899Y2480D02*
X2859D01*
X2899Y2507D01*
X2859D01*
Y2520D02*
X2899D01*
Y2540D01*
X2892Y2547D01*
X2866D01*
X2859Y2540D01*
Y2520D01*
X2666Y2471D02*
X2659Y2464D01*
Y2451D01*
X2666Y2444D01*
X2692D01*
X2699Y2451D01*
Y2464D01*
X2692Y2471D01*
X2679D01*
Y2457D01*
X2699Y2484D02*
X2659D01*
X2699Y2511D01*
X2659D01*
Y2524D02*
X2699D01*
Y2544D01*
X2692Y2551D01*
X2666D01*
X2659Y2544D01*
Y2524D01*
X2579Y2439D02*
Y2466D01*
X2566Y2452D02*
X2592D01*
X2599Y2479D02*
Y2492D01*
Y2486D01*
X2559D01*
X2566Y2479D01*
X2599Y2539D02*
Y2512D01*
X2572Y2539D01*
X2566D01*
X2559Y2532D01*
Y2519D01*
X2566Y2512D01*
X2559Y2552D02*
X2586D01*
X2599Y2566D01*
X2586Y2579D01*
X2559D01*
D38*
X1848Y2103D02*
X2448D01*
X1848Y2105D02*
X2448D01*
X1848Y2107D02*
X2448D01*
X1848Y2109D02*
X2448D01*
X2438Y2111D02*
X2448D01*
X1848D02*
X1858D01*
X2438Y2113D02*
X2448D01*
X1848D02*
X1858D01*
X2438Y2115D02*
X2448D01*
X1848D02*
X1858D01*
X2438Y2117D02*
X2448D01*
X1848D02*
X1858D01*
X2438Y2119D02*
X2448D01*
X1848D02*
X1858D01*
X2438Y2121D02*
X2448D01*
X1848D02*
X1858D01*
X2438Y2123D02*
X2448D01*
X1848D02*
X1858D01*
X2438Y2125D02*
X2448D01*
X1848D02*
X1858D01*
X2438Y2127D02*
X2448D01*
X1848D02*
X1858D01*
X2438Y2129D02*
X2448D01*
X1952D02*
X2416D01*
X1848D02*
X1858D01*
X2438Y2131D02*
X2448D01*
X1950D02*
X2416D01*
X1848D02*
X1858D01*
X2438Y2133D02*
X2448D01*
X1950D02*
X2416D01*
X1848D02*
X1858D01*
X2438Y2135D02*
X2448D01*
X1950D02*
X2416D01*
X1848D02*
X1858D01*
X2438Y2137D02*
X2448D01*
X1950D02*
X2416D01*
X1848D02*
X1858D01*
X2438Y2139D02*
X2448D01*
X1950D02*
X2416D01*
X1848D02*
X1858D01*
X2438Y2141D02*
X2448D01*
X1950D02*
X2416D01*
X1848D02*
X1858D01*
X2438Y2143D02*
X2448D01*
X1950D02*
X2416D01*
X1848D02*
X1858D01*
X2438Y2145D02*
X2448D01*
X2368D02*
X2416D01*
X2304D02*
X2354D01*
X2246D02*
X2290D01*
X2196D02*
X2240D01*
X2136D02*
X2182D01*
X2126D02*
X2132D01*
X2072D02*
X2116D01*
X2052D02*
X2064D01*
X2006D02*
X2046D01*
X1994D02*
X2000D01*
X1950D02*
X1984D01*
X1848D02*
X1858D01*
X2438Y2147D02*
X2448D01*
X2370D02*
X2416D01*
X2306D02*
X2352D01*
X2246D02*
X2288D01*
X2198D02*
X2240D01*
X2136D02*
X2178D01*
X2070D02*
X2114D01*
X2052D02*
X2066D01*
X2006D02*
X2046D01*
X1996D02*
X2000D01*
X1950D02*
X1982D01*
X1848D02*
X1858D01*
X2438Y2149D02*
X2448D01*
X2372D02*
X2416D01*
X2358D02*
X2364D01*
X2308D02*
X2350D01*
X2294D02*
X2302D01*
X2246D02*
X2286D01*
X2200D02*
X2240D01*
X2184D02*
X2192D01*
X2136D02*
X2178D01*
X2120D02*
X2126D01*
X2070D02*
X2112D01*
X2052D02*
X2066D01*
X2006D02*
X2046D01*
X1988D02*
X1996D01*
X1950D02*
X1980D01*
X1848D02*
X1858D01*
X2438Y2151D02*
X2448D01*
X2372D02*
X2416D01*
X2356D02*
X2366D01*
X2308D02*
X2348D01*
X2292D02*
X2302D01*
X2246D02*
X2286D01*
X2200D02*
X2240D01*
X2182D02*
X2194D01*
X2136D02*
X2176D01*
X2118D02*
X2128D01*
X2070D02*
X2112D01*
X2052D02*
X2066D01*
X2006D02*
X2046D01*
X1986D02*
X1998D01*
X1950D02*
X1980D01*
X1848D02*
X1858D01*
X2438Y2153D02*
X2448D01*
X2372D02*
X2416D01*
X2354D02*
X2366D01*
X2292D02*
X2348D01*
X2246D02*
X2286D01*
X2182D02*
X2240D01*
X2136D02*
X2176D01*
X2116D02*
X2130D01*
X2070D02*
X2110D01*
X2052D02*
X2066D01*
X2006D02*
X2046D01*
X1986D02*
X1998D01*
X1950D02*
X1980D01*
X1848D02*
X1858D01*
X2438Y2155D02*
X2448D01*
X2354D02*
X2416D01*
X2290D02*
X2348D01*
X2246D02*
X2284D01*
X2182D02*
X2240D01*
X2136D02*
X2176D01*
X2116D02*
X2130D01*
X2070D02*
X2110D01*
X2052D02*
X2066D01*
X2006D02*
X2046D01*
X1986D02*
X1998D01*
X1950D02*
X1980D01*
X1848D02*
X1858D01*
X2438Y2157D02*
X2448D01*
X2354D02*
X2416D01*
X2290D02*
X2348D01*
X2246D02*
X2284D01*
X2182D02*
X2240D01*
X2136D02*
X2176D01*
X2116D02*
X2130D01*
X2070D02*
X2110D01*
X2052D02*
X2066D01*
X2006D02*
X2046D01*
X1986D02*
X2000D01*
X1950D02*
X1980D01*
X1848D02*
X1858D01*
X2438Y2159D02*
X2448D01*
X2354D02*
X2416D01*
X2310D02*
X2348D01*
X2246D02*
X2284D01*
X2200D02*
X2240D01*
X2136D02*
X2176D01*
X2116D02*
X2130D01*
X2070D02*
X2110D01*
X2052D02*
X2066D01*
X2006D02*
X2046D01*
X1986D02*
X2000D01*
X1950D02*
X1980D01*
X1848D02*
X1858D01*
X2438Y2161D02*
X2448D01*
X2354D02*
X2416D01*
X2310D02*
X2348D01*
X2290D02*
X2304D01*
X2246D02*
X2284D01*
X2200D02*
X2240D01*
X2182D02*
X2194D01*
X2136D02*
X2176D01*
X2116D02*
X2130D01*
X2070D02*
X2110D01*
X2052D02*
X2066D01*
X2006D02*
X2046D01*
X1986D02*
X2000D01*
X1950D02*
X1980D01*
X1848D02*
X1858D01*
X2438Y2163D02*
X2448D01*
X2354D02*
X2416D01*
X2310D02*
X2348D01*
X2290D02*
X2304D01*
X2246D02*
X2284D01*
X2200D02*
X2240D01*
X2182D02*
X2194D01*
X2136D02*
X2176D01*
X2116D02*
X2130D01*
X2070D02*
X2110D01*
X2052D02*
X2064D01*
X2006D02*
X2046D01*
X1986D02*
X2000D01*
X1950D02*
X1980D01*
X1848D02*
X1858D01*
X2438Y2165D02*
X2448D01*
X2368D02*
X2416D01*
X2354D02*
X2366D01*
X2308D02*
X2348D01*
X2292D02*
X2304D01*
X2246D02*
X2286D01*
X2200D02*
X2240D01*
X2182D02*
X2194D01*
X2136D02*
X2176D01*
X2118D02*
X2130D01*
X2070D02*
X2110D01*
X2052D02*
X2064D01*
X2006D02*
X2046D01*
X1986D02*
X2000D01*
X1950D02*
X1980D01*
X1848D02*
X1858D01*
X2438Y2167D02*
X2448D01*
X2372D02*
X2416D01*
X2356D02*
X2366D01*
X2308D02*
X2348D01*
X2292D02*
X2302D01*
X2246D02*
X2286D01*
X2198D02*
X2240D01*
X2182D02*
X2194D01*
X2136D02*
X2176D01*
X2118D02*
X2128D01*
X2070D02*
X2112D01*
X2054D02*
X2064D01*
X2006D02*
X2046D01*
X1986D02*
X2000D01*
X1950D02*
X1980D01*
X1848D02*
X1858D01*
X2438Y2169D02*
X2448D01*
X2372D02*
X2416D01*
X2358D02*
X2362D01*
X2308D02*
X2350D01*
X2296D02*
X2300D01*
X2246D02*
X2288D01*
X2198D02*
X2240D01*
X2186D02*
X2190D01*
X2136D02*
X2178D01*
X2122D02*
X2126D01*
X2070D02*
X2112D01*
X2056D02*
X2062D01*
X2006D02*
X2046D01*
X1986D02*
X2000D01*
X1950D02*
X1980D01*
X1848D02*
X1858D01*
X2438Y2171D02*
X2448D01*
X2370D02*
X2416D01*
X2306D02*
X2352D01*
X2246D02*
X2288D01*
X2196D02*
X2240D01*
X2136D02*
X2180D01*
X2128D02*
X2132D01*
X2070D02*
X2114D01*
X2052D02*
X2054D01*
X2006D02*
X2046D01*
X1986D02*
X2000D01*
X1950D02*
X1980D01*
X1848D02*
X1858D01*
X2438Y2173D02*
X2448D01*
X2366D02*
X2416D01*
X2302D02*
X2356D01*
X2246D02*
X2292D01*
X2194D02*
X2240D01*
X2136D02*
X2182D01*
X2126D02*
X2132D01*
X2066D02*
X2116D01*
X2052D02*
X2058D01*
X2006D02*
X2046D01*
X1986D02*
X2000D01*
X1950D02*
X1980D01*
X1848D02*
X1858D01*
X2438Y2175D02*
X2448D01*
X2246D02*
X2416D01*
X2136D02*
X2240D01*
X1950D02*
X2130D01*
X1848D02*
X1858D01*
X2438Y2177D02*
X2448D01*
X2246D02*
X2416D01*
X2136D02*
X2240D01*
X1950D02*
X2130D01*
X1848D02*
X1858D01*
X2438Y2179D02*
X2448D01*
X2246D02*
X2416D01*
X2136D02*
X2240D01*
X1950D02*
X2130D01*
X1848D02*
X1858D01*
X2438Y2181D02*
X2448D01*
X2246D02*
X2416D01*
X2136D02*
X2240D01*
X1950D02*
X2130D01*
X1848D02*
X1858D01*
X2438Y2183D02*
X2448D01*
X2246D02*
X2416D01*
X2136D02*
X2240D01*
X1950D02*
X2130D01*
X1848D02*
X1858D01*
X2438Y2185D02*
X2448D01*
X2246D02*
X2416D01*
X2136D02*
X2240D01*
X1950D02*
X2130D01*
X1848D02*
X1858D01*
X2438Y2187D02*
X2448D01*
X1950D02*
X2416D01*
X1848D02*
X1858D01*
X2438Y2189D02*
X2448D01*
X1950D02*
X2416D01*
X1848D02*
X1858D01*
X2438Y2191D02*
X2448D01*
X1950D02*
X2416D01*
X1848D02*
X1858D01*
X2438Y2193D02*
X2448D01*
X1950D02*
X2416D01*
X1848D02*
X1858D01*
X2438Y2195D02*
X2448D01*
X1950D02*
X2416D01*
X1848D02*
X1858D01*
X2438Y2197D02*
X2448D01*
X1950D02*
X2416D01*
X1848D02*
X1858D01*
X2438Y2199D02*
X2448D01*
X1952D02*
X2416D01*
X1848D02*
X1858D01*
X2438Y2201D02*
X2448D01*
X1848D02*
X1858D01*
X2438Y2203D02*
X2448D01*
X1848D02*
X1858D01*
X2438Y2205D02*
X2448D01*
X1848D02*
X1858D01*
X2438Y2207D02*
X2448D01*
X1848D02*
X1858D01*
X2438Y2209D02*
X2448D01*
X1848D02*
X1858D01*
X2438Y2211D02*
X2448D01*
X1848D02*
X1858D01*
X2438Y2213D02*
X2448D01*
X1848D02*
X1858D01*
X2438Y2215D02*
X2448D01*
X1848D02*
X1858D01*
X2438Y2217D02*
X2448D01*
X1952D02*
X2416D01*
X1848D02*
X1858D01*
X2438Y2219D02*
X2448D01*
X1950D02*
X2416D01*
X1848D02*
X1858D01*
X2438Y2221D02*
X2448D01*
X1950D02*
X2416D01*
X1848D02*
X1858D01*
X2438Y2223D02*
X2448D01*
X1950D02*
X2416D01*
X1848D02*
X1858D01*
X2438Y2225D02*
X2448D01*
X1950D02*
X2416D01*
X1848D02*
X1858D01*
X2438Y2227D02*
X2448D01*
X1950D02*
X2416D01*
X1848D02*
X1858D01*
X2438Y2229D02*
X2448D01*
X1950D02*
X2416D01*
X1848D02*
X1858D01*
X2438Y2231D02*
X2448D01*
X1848D02*
X1858D01*
X2438Y2233D02*
X2448D01*
X1848D02*
X1858D01*
X2438Y2235D02*
X2448D01*
X1848D02*
X1858D01*
X2438Y2237D02*
X2448D01*
X1848D02*
X1858D01*
X2438Y2239D02*
X2448D01*
X1848D02*
X1858D01*
X2438Y2241D02*
X2448D01*
X1848D02*
X1858D01*
X2438Y2243D02*
X2448D01*
X1848D02*
X1858D01*
X2438Y2245D02*
X2448D01*
X1952D02*
X2416D01*
X1848D02*
X1858D01*
X2438Y2247D02*
X2448D01*
X1950D02*
X2416D01*
X1848D02*
X1858D01*
X2438Y2249D02*
X2448D01*
X1950D02*
X2416D01*
X1848D02*
X1858D01*
X2438Y2251D02*
X2448D01*
X1950D02*
X2416D01*
X1848D02*
X1858D01*
X2438Y2253D02*
X2448D01*
X1950D02*
X2416D01*
X1848D02*
X1858D01*
X2438Y2255D02*
X2448D01*
X1950D02*
X2416D01*
X1848D02*
X1858D01*
X2438Y2257D02*
X2448D01*
X1950D02*
X2416D01*
X1848D02*
X1858D01*
X2438Y2259D02*
X2448D01*
X1848D02*
X1858D01*
X2438Y2261D02*
X2448D01*
X1848D02*
X1858D01*
X2438Y2263D02*
X2448D01*
X1848D02*
X1858D01*
X2438Y2265D02*
X2448D01*
X1848D02*
X1858D01*
X2438Y2267D02*
X2448D01*
X1848D02*
X1858D01*
X2438Y2269D02*
X2448D01*
X1848D02*
X1858D01*
X2438Y2271D02*
X2448D01*
X1848D02*
X1858D01*
X2438Y2273D02*
X2448D01*
X1950D02*
X2416D01*
X1848D02*
X1858D01*
X2438Y2275D02*
X2448D01*
X1950D02*
X2416D01*
X1848D02*
X1858D01*
X2438Y2277D02*
X2448D01*
X1950D02*
X2416D01*
X1848D02*
X1858D01*
X2438Y2279D02*
X2448D01*
X1950D02*
X2416D01*
X1848D02*
X1858D01*
X2438Y2281D02*
X2448D01*
X1950D02*
X2416D01*
X1848D02*
X1858D01*
X2438Y2283D02*
X2448D01*
X1950D02*
X2416D01*
X1848D02*
X1858D01*
X2438Y2285D02*
X2448D01*
X1952D02*
X2416D01*
X1848D02*
X1858D01*
X2438Y2287D02*
X2448D01*
X1848D02*
X1858D01*
X2438Y2289D02*
X2448D01*
X1848D02*
X1858D01*
X2438Y2291D02*
X2448D01*
X1848D02*
X1858D01*
X2438Y2293D02*
X2448D01*
X1848D02*
X1858D01*
X2438Y2295D02*
X2448D01*
X1848D02*
X1858D01*
X2438Y2297D02*
X2448D01*
X1848D02*
X1858D01*
X2438Y2299D02*
X2448D01*
X2016D02*
X2416D01*
X1848D02*
X1858D01*
X2438Y2301D02*
X2448D01*
X2016D02*
X2416D01*
X1848D02*
X1858D01*
X2438Y2303D02*
X2448D01*
X2016D02*
X2416D01*
X1848D02*
X1858D01*
X2438Y2305D02*
X2448D01*
X2016D02*
X2416D01*
X1848D02*
X1858D01*
X2438Y2307D02*
X2448D01*
X2016D02*
X2416D01*
X1848D02*
X1858D01*
X2438Y2309D02*
X2448D01*
X2016D02*
X2416D01*
X1848D02*
X1858D01*
X2438Y2311D02*
X2448D01*
X2016D02*
X2416D01*
X1848D02*
X1858D01*
X2438Y2313D02*
X2448D01*
X1848D02*
X1858D01*
X2438Y2315D02*
X2448D01*
X1848D02*
X1858D01*
X2438Y2317D02*
X2448D01*
X1848D02*
X1858D01*
X2438Y2319D02*
X2448D01*
X1848D02*
X1858D01*
X2438Y2321D02*
X2448D01*
X1848D02*
X1858D01*
X2438Y2323D02*
X2448D01*
X1848D02*
X1858D01*
X2438Y2325D02*
X2448D01*
X1848D02*
X1858D01*
X2438Y2327D02*
X2448D01*
X2016D02*
X2416D01*
X1848D02*
X1858D01*
X2438Y2329D02*
X2448D01*
X2016D02*
X2416D01*
X1848D02*
X1858D01*
X2438Y2331D02*
X2448D01*
X2016D02*
X2416D01*
X1848D02*
X1858D01*
X2438Y2333D02*
X2448D01*
X2016D02*
X2416D01*
X1848D02*
X1858D01*
X2438Y2335D02*
X2448D01*
X2016D02*
X2416D01*
X1848D02*
X1858D01*
X2438Y2337D02*
X2448D01*
X2016D02*
X2416D01*
X1848D02*
X1858D01*
X2438Y2339D02*
X2448D01*
X2016D02*
X2416D01*
X1848D02*
X1858D01*
X2438Y2341D02*
X2448D01*
X1848D02*
X1858D01*
X2438Y2343D02*
X2448D01*
X1848D02*
X1858D01*
X2438Y2345D02*
X2448D01*
X1848D02*
X1858D01*
X2438Y2347D02*
X2448D01*
X1848D02*
X1858D01*
X2438Y2349D02*
X2448D01*
X1848D02*
X1858D01*
X2438Y2351D02*
X2448D01*
X1848D02*
X1858D01*
X2438Y2353D02*
X2448D01*
X1952D02*
X2414D01*
X1848D02*
X1858D01*
X2438Y2355D02*
X2448D01*
X1950D02*
X2416D01*
X1848D02*
X1858D01*
X2438Y2357D02*
X2448D01*
X1950D02*
X2416D01*
X1848D02*
X1858D01*
X2438Y2359D02*
X2448D01*
X1950D02*
X2416D01*
X1848D02*
X1858D01*
X2438Y2361D02*
X2448D01*
X1950D02*
X2416D01*
X1848D02*
X1858D01*
X2438Y2363D02*
X2448D01*
X1950D02*
X2416D01*
X1848D02*
X1858D01*
X2438Y2365D02*
X2448D01*
X1950D02*
X2416D01*
X1848D02*
X1858D01*
X2438Y2367D02*
X2448D01*
X1952D02*
X2416D01*
X1848D02*
X1858D01*
X2438Y2369D02*
X2448D01*
X1848D02*
X1858D01*
X2438Y2371D02*
X2448D01*
X1848D02*
X1858D01*
X2438Y2373D02*
X2448D01*
X1848D02*
X1858D01*
X2438Y2375D02*
X2448D01*
X1848D02*
X1858D01*
X2438Y2377D02*
X2448D01*
X1848D02*
X1858D01*
X2438Y2379D02*
X2448D01*
X1848D02*
X1858D01*
X2438Y2381D02*
X2448D01*
X1952D02*
X2416D01*
X1848D02*
X1858D01*
X2438Y2383D02*
X2448D01*
X1950D02*
X2416D01*
X1848D02*
X1858D01*
X2438Y2385D02*
X2448D01*
X1950D02*
X2416D01*
X1848D02*
X1858D01*
X2438Y2387D02*
X2448D01*
X1950D02*
X2416D01*
X1848D02*
X1858D01*
X2438Y2389D02*
X2448D01*
X1950D02*
X2416D01*
X1848D02*
X1858D01*
X2438Y2391D02*
X2448D01*
X1950D02*
X2416D01*
X1848D02*
X1858D01*
X2438Y2393D02*
X2448D01*
X1950D02*
X2416D01*
X1848D02*
X1858D01*
X2438Y2395D02*
X2448D01*
X1848D02*
X1858D01*
X2438Y2397D02*
X2448D01*
X1848D02*
X1858D01*
X2438Y2399D02*
X2448D01*
X1848D02*
X1858D01*
X2438Y2401D02*
X2448D01*
X1848D02*
X1858D01*
X2438Y2403D02*
X2448D01*
X1848D02*
X1858D01*
X2438Y2405D02*
X2448D01*
X1848D02*
X1858D01*
X2438Y2407D02*
X2448D01*
X1848D02*
X1858D01*
X2438Y2409D02*
X2448D01*
X2164D02*
X2416D01*
X1952D02*
X2094D01*
X1848D02*
X1858D01*
X2438Y2411D02*
X2448D01*
X2164D02*
X2416D01*
X1952D02*
X2094D01*
X1848D02*
X1858D01*
X2438Y2413D02*
X2448D01*
X2164D02*
X2416D01*
X1952D02*
X2094D01*
X1848D02*
X1858D01*
X2438Y2415D02*
X2448D01*
X2164D02*
X2416D01*
X1952D02*
X2094D01*
X1848D02*
X1858D01*
X2438Y2417D02*
X2448D01*
X2164D02*
X2416D01*
X1952D02*
X2094D01*
X1848D02*
X1858D01*
X2438Y2419D02*
X2448D01*
X2164D02*
X2416D01*
X1952D02*
X2092D01*
X1848D02*
X1858D01*
X2438Y2421D02*
X2448D01*
X2164D02*
X2416D01*
X1954D02*
X2092D01*
X1848D02*
X1858D01*
X2438Y2423D02*
X2448D01*
X1848D02*
X1858D01*
X2438Y2425D02*
X2448D01*
X1848D02*
X1858D01*
X2438Y2427D02*
X2448D01*
X1848D02*
X1858D01*
X2438Y2429D02*
X2448D01*
X1848D02*
X1858D01*
X2438Y2431D02*
X2448D01*
X1848D02*
X1858D01*
X2438Y2433D02*
X2448D01*
X1848D02*
X1858D01*
X2438Y2435D02*
X2448D01*
X2162D02*
X2414D01*
X1960D02*
X2086D01*
X1880D02*
X1884D01*
X1848D02*
X1858D01*
X2438Y2437D02*
X2448D01*
X2160D02*
X2416D01*
X1960D02*
X2086D01*
X1880D02*
X1884D01*
X1848D02*
X1858D01*
X2438Y2439D02*
X2448D01*
X2160D02*
X2416D01*
X1962D02*
X2084D01*
X1880D02*
X1886D01*
X1848D02*
X1858D01*
X2438Y2441D02*
X2448D01*
X2160D02*
X2416D01*
X1962D02*
X2082D01*
X1880D02*
X1886D01*
X1848D02*
X1858D01*
X2438Y2443D02*
X2448D01*
X2158D02*
X2416D01*
X1964D02*
X2082D01*
X1880D02*
X1886D01*
X1848D02*
X1858D01*
X2438Y2445D02*
X2448D01*
X2158D02*
X2416D01*
X1966D02*
X2080D01*
X1880D02*
X1888D01*
X1848D02*
X1858D01*
X2438Y2447D02*
X2448D01*
X2158D02*
X2416D01*
X1968D02*
X2078D01*
X1880D02*
X1888D01*
X1848D02*
X1858D01*
X2438Y2449D02*
X2448D01*
X2158D02*
X2416D01*
X1970D02*
X2076D01*
X1880D02*
X1888D01*
X1848D02*
X1858D01*
X2438Y2451D02*
X2448D01*
X1848D02*
X1858D01*
X2438Y2453D02*
X2448D01*
X1848D02*
X1858D01*
X2438Y2455D02*
X2448D01*
X1848D02*
X1858D01*
X2438Y2457D02*
X2448D01*
X1848D02*
X1858D01*
X2438Y2459D02*
X2448D01*
X1848D02*
X1858D01*
X2438Y2461D02*
X2448D01*
X1848D02*
X1858D01*
X2438Y2463D02*
X2448D01*
X2152D02*
X2416D01*
X1990D02*
X2054D01*
X1880D02*
X1894D01*
X1848D02*
X1858D01*
X2438Y2465D02*
X2448D01*
X2150D02*
X2416D01*
X1992D02*
X2054D01*
X1880D02*
X1896D01*
X1848D02*
X1858D01*
X2438Y2467D02*
X2448D01*
X2150D02*
X2416D01*
X1998D02*
X2048D01*
X1880D02*
X1896D01*
X1848D02*
X1858D01*
X2438Y2469D02*
X2448D01*
X2148D02*
X2416D01*
X2004D02*
X2042D01*
X1880D02*
X1898D01*
X1848D02*
X1858D01*
X2438Y2471D02*
X2448D01*
X2146D02*
X2416D01*
X2014D02*
X2032D01*
X1880D02*
X1898D01*
X1848D02*
X1858D01*
X2438Y2473D02*
X2448D01*
X2146D02*
X2416D01*
X1880D02*
X1900D01*
X1848D02*
X1858D01*
X2438Y2475D02*
X2448D01*
X2144D02*
X2416D01*
X1880D02*
X1900D01*
X1848D02*
X1858D01*
X2438Y2477D02*
X2448D01*
X1848D02*
X1858D01*
X2438Y2479D02*
X2448D01*
X1848D02*
X1858D01*
X2438Y2481D02*
X2448D01*
X1848D02*
X1858D01*
X2438Y2483D02*
X2448D01*
X1848D02*
X1858D01*
X2438Y2485D02*
X2448D01*
X1848D02*
X1858D01*
X2438Y2487D02*
X2448D01*
X1848D02*
X1858D01*
X2438Y2489D02*
X2448D01*
X1848D02*
X1858D01*
X2438Y2491D02*
X2448D01*
X2134D02*
X2416D01*
X1880D02*
X1912D01*
X1848D02*
X1858D01*
X2438Y2493D02*
X2448D01*
X2132D02*
X2416D01*
X1880D02*
X1914D01*
X1848D02*
X1858D01*
X2438Y2495D02*
X2448D01*
X2130D02*
X2416D01*
X1880D02*
X1916D01*
X1848D02*
X1858D01*
X2438Y2497D02*
X2448D01*
X2128D02*
X2416D01*
X1880D02*
X1918D01*
X1848D02*
X1858D01*
X2438Y2499D02*
X2448D01*
X2126D02*
X2416D01*
X1880D02*
X1920D01*
X1848D02*
X1858D01*
X2438Y2501D02*
X2448D01*
X2124D02*
X2416D01*
X1880D02*
X1922D01*
X1848D02*
X1858D01*
X2438Y2503D02*
X2448D01*
X2122D02*
X2416D01*
X1880D02*
X1922D01*
X1848D02*
X1858D01*
X2438Y2505D02*
X2448D01*
X1848D02*
X1858D01*
X2438Y2507D02*
X2448D01*
X1848D02*
X1858D01*
X2438Y2509D02*
X2448D01*
X1848D02*
X1858D01*
X2438Y2511D02*
X2448D01*
X1848D02*
X1858D01*
X2438Y2513D02*
X2448D01*
X1848D02*
X1858D01*
X2438Y2515D02*
X2448D01*
X1848D02*
X1858D01*
X2438Y2517D02*
X2448D01*
X2104D02*
X2414D01*
X1880D02*
X1940D01*
X1848D02*
X1858D01*
X2438Y2519D02*
X2448D01*
X2102D02*
X2416D01*
X1880D02*
X1944D01*
X1848D02*
X1858D01*
X2438Y2521D02*
X2448D01*
X2098D02*
X2416D01*
X1880D02*
X1948D01*
X1848D02*
X1858D01*
X2438Y2523D02*
X2448D01*
X2094D02*
X2416D01*
X1880D02*
X1950D01*
X1848D02*
X1858D01*
X2438Y2525D02*
X2448D01*
X2092D02*
X2416D01*
X1880D02*
X1954D01*
X1848D02*
X1858D01*
X2438Y2527D02*
X2448D01*
X2086D02*
X2416D01*
X1880D02*
X1958D01*
X1848D02*
X1858D01*
X2438Y2529D02*
X2448D01*
X2082D02*
X2416D01*
X1880D02*
X1962D01*
X1848D02*
X1858D01*
X2438Y2531D02*
X2448D01*
X2084D02*
X2414D01*
X1882D02*
X1962D01*
X1848D02*
X1858D01*
X2438Y2533D02*
X2448D01*
X1848D02*
X1858D01*
X2438Y2535D02*
X2448D01*
X1848D02*
X1858D01*
X2438Y2537D02*
X2448D01*
X1848D02*
X1858D01*
X2438Y2539D02*
X2448D01*
X1848D02*
X1858D01*
X2438Y2541D02*
X2448D01*
X1848D02*
X1858D01*
X2438Y2543D02*
X2448D01*
X1848D02*
X1858D01*
X2438Y2545D02*
X2448D01*
X1880D02*
X2416D01*
X1848D02*
X1858D01*
X2438Y2547D02*
X2448D01*
X1880D02*
X2416D01*
X1848D02*
X1858D01*
X2438Y2549D02*
X2448D01*
X1880D02*
X2416D01*
X1848D02*
X1858D01*
X2438Y2551D02*
X2448D01*
X1880D02*
X2416D01*
X1848D02*
X1858D01*
X2438Y2553D02*
X2448D01*
X1880D02*
X2416D01*
X1848D02*
X1858D01*
X2438Y2555D02*
X2448D01*
X1880D02*
X2416D01*
X1848D02*
X1858D01*
X2438Y2557D02*
X2448D01*
X1880D02*
X2416D01*
X1848D02*
X1858D01*
X2438Y2559D02*
X2448D01*
X1848D02*
X1858D01*
X2438Y2561D02*
X2448D01*
X1848D02*
X1858D01*
X2438Y2563D02*
X2448D01*
X1848D02*
X1858D01*
X2438Y2565D02*
X2448D01*
X1848D02*
X1858D01*
X2438Y2567D02*
X2448D01*
X1848D02*
X1858D01*
X2438Y2569D02*
X2448D01*
X1848D02*
X1858D01*
X2438Y2571D02*
X2448D01*
X1848D02*
X1858D01*
X2438Y2573D02*
X2448D01*
X1880D02*
X2416D01*
X1848D02*
X1858D01*
X2438Y2575D02*
X2448D01*
X1880D02*
X2416D01*
X1848D02*
X1858D01*
X2438Y2577D02*
X2448D01*
X1880D02*
X2416D01*
X1848D02*
X1858D01*
X2438Y2579D02*
X2448D01*
X1880D02*
X2416D01*
X1848D02*
X1858D01*
X2438Y2581D02*
X2448D01*
X1880D02*
X2416D01*
X1848D02*
X1858D01*
X2438Y2583D02*
X2448D01*
X1880D02*
X2416D01*
X1848D02*
X1858D01*
X2438Y2585D02*
X2448D01*
X1880D02*
X2416D01*
X1848D02*
X1858D01*
X2438Y2587D02*
X2448D01*
X1848D02*
X1858D01*
X2438Y2589D02*
X2448D01*
X1848D02*
X1858D01*
X2438Y2591D02*
X2448D01*
X1848D02*
X1858D01*
X2438Y2593D02*
X2448D01*
X1848D02*
X1858D01*
X2438Y2595D02*
X2448D01*
X1848D02*
X1858D01*
X2438Y2597D02*
X2448D01*
X1848D02*
X1858D01*
X2438Y2599D02*
X2448D01*
X1880D02*
X2414D01*
X1848D02*
X1858D01*
X2438Y2601D02*
X2448D01*
X1880D02*
X2416D01*
X1848D02*
X1858D01*
X2438Y2603D02*
X2448D01*
X1880D02*
X2416D01*
X1848D02*
X1858D01*
X2438Y2605D02*
X2448D01*
X1880D02*
X2416D01*
X1848D02*
X1858D01*
X2438Y2607D02*
X2448D01*
X1880D02*
X2416D01*
X1848D02*
X1858D01*
X2438Y2609D02*
X2448D01*
X1880D02*
X2416D01*
X1848D02*
X1858D01*
X2438Y2611D02*
X2448D01*
X1880D02*
X2416D01*
X1848D02*
X1858D01*
X2438Y2613D02*
X2448D01*
X1882D02*
X2414D01*
X1848D02*
X1858D01*
X2438Y2615D02*
X2448D01*
X1848D02*
X1858D01*
X2438Y2617D02*
X2448D01*
X1848D02*
X1858D01*
X2438Y2619D02*
X2448D01*
X1848D02*
X1858D01*
X2438Y2621D02*
X2448D01*
X1848D02*
X1858D01*
X2438Y2623D02*
X2448D01*
X1848D02*
X1858D01*
X2438Y2625D02*
X2448D01*
X1848D02*
X1858D01*
X2438Y2627D02*
X2448D01*
X1882D02*
X2414D01*
X1848D02*
X1858D01*
X2438Y2629D02*
X2448D01*
X1880D02*
X2416D01*
X1848D02*
X1858D01*
X2438Y2631D02*
X2448D01*
X1880D02*
X2416D01*
X1848D02*
X1858D01*
X2438Y2633D02*
X2448D01*
X1880D02*
X2416D01*
X1848D02*
X1858D01*
X2438Y2635D02*
X2448D01*
X1880D02*
X2416D01*
X1848D02*
X1858D01*
X2438Y2637D02*
X2448D01*
X1880D02*
X2416D01*
X1848D02*
X1858D01*
X2438Y2639D02*
X2448D01*
X1880D02*
X2416D01*
X1848D02*
X1858D01*
X2438Y2641D02*
X2448D01*
X1880D02*
X2416D01*
X1848D02*
X1858D01*
X2438Y2643D02*
X2448D01*
X1848D02*
X1858D01*
X2438Y2645D02*
X2448D01*
X1848D02*
X1858D01*
X2438Y2647D02*
X2448D01*
X1848D02*
X1858D01*
X2438Y2649D02*
X2448D01*
X1848D02*
X1858D01*
X2438Y2651D02*
X2448D01*
X1848D02*
X1858D01*
X2438Y2653D02*
X2448D01*
X1848D02*
X1858D01*
X2438Y2655D02*
X2448D01*
X1848D02*
X1858D01*
X2438Y2657D02*
X2448D01*
X1880D02*
X2416D01*
X1848D02*
X1858D01*
X2438Y2659D02*
X2448D01*
X1880D02*
X2416D01*
X1848D02*
X1858D01*
X2438Y2661D02*
X2448D01*
X1880D02*
X2416D01*
X1848D02*
X1858D01*
X2438Y2663D02*
X2448D01*
X1880D02*
X2416D01*
X1848D02*
X1858D01*
X2438Y2665D02*
X2448D01*
X1880D02*
X2416D01*
X1848D02*
X1858D01*
X2438Y2667D02*
X2448D01*
X1880D02*
X2416D01*
X1848D02*
X1858D01*
X2438Y2669D02*
X2448D01*
X1880D02*
X2416D01*
X1848D02*
X1858D01*
X2438Y2671D02*
X2448D01*
X1848D02*
X1858D01*
X2438Y2673D02*
X2448D01*
X1848D02*
X1858D01*
X2438Y2675D02*
X2448D01*
X1848D02*
X1858D01*
X2438Y2677D02*
X2448D01*
X1848D02*
X1858D01*
X2438Y2679D02*
X2448D01*
X1848D02*
X1858D01*
X2438Y2681D02*
X2448D01*
X1848D02*
X1858D01*
X2438Y2683D02*
X2448D01*
X1848D02*
X1858D01*
X2438Y2685D02*
X2448D01*
X1848D02*
X1858D01*
X2438Y2687D02*
X2448D01*
X1848D02*
X1858D01*
X2438Y2689D02*
X2448D01*
X1848D02*
X1858D01*
X2438Y2691D02*
X2448D01*
X1848D02*
X1858D01*
X2438Y2693D02*
X2448D01*
X1848D02*
X1858D01*
X1848Y2695D02*
X2448D01*
X1848Y2697D02*
X2448D01*
X1848Y2699D02*
X2448D01*
X1848Y2701D02*
X2448D01*
D39*
X2484Y1339D02*
X2479Y1344D01*
X2469D01*
X2464Y1339D01*
Y1319D01*
X2469Y1314D01*
X2479D01*
X2484Y1319D01*
X2494Y1344D02*
Y1314D01*
X2509D01*
X2514Y1319D01*
Y1324D01*
Y1329D01*
X2509Y1334D01*
X2494D01*
X2529Y1314D02*
X2539D01*
X2544Y1319D01*
Y1329D01*
X2539Y1334D01*
X2529D01*
X2524Y1329D01*
Y1319D01*
X2529Y1314D01*
X2559D02*
X2569D01*
X2574Y1319D01*
Y1329D01*
X2569Y1334D01*
X2559D01*
X2554Y1329D01*
Y1319D01*
X2559Y1314D01*
X2589Y1339D02*
Y1334D01*
X2584D01*
X2594D01*
X2589D01*
Y1319D01*
X2594Y1314D01*
X2266Y1182D02*
X2261Y1187D01*
X2251D01*
X2246Y1182D01*
Y1162D01*
X2251Y1157D01*
X2261D01*
X2266Y1162D01*
X2276Y1157D02*
X2291D01*
X2296Y1162D01*
X2291Y1167D01*
X2281D01*
X2276Y1172D01*
X2281Y1177D01*
X2296D01*
X2306Y1157D02*
X2321D01*
X2326Y1162D01*
X2321Y1167D01*
X2311D01*
X2306Y1172D01*
X2311Y1177D01*
X2326D01*
X2548Y1424D02*
Y1394D01*
X2563D01*
X2568Y1399D01*
Y1419D01*
X2563Y1424D01*
X2548D01*
X2578Y1394D02*
X2588D01*
X2583D01*
Y1424D01*
X2578Y1419D01*
X2406Y1771D02*
Y1741D01*
X2426D01*
X2436D02*
X2446D01*
X2441D01*
Y1771D01*
X2436Y1766D01*
X2668Y1212D02*
Y1187D01*
X2672Y1182D01*
X2682D01*
X2687Y1187D01*
Y1212D01*
X2697Y1182D02*
X2707D01*
X2702D01*
Y1212D01*
X2697Y1207D01*
D40*
X2840Y1335D02*
X2835Y1340D01*
X2825D01*
X2820Y1335D01*
Y1315D01*
X2825Y1310D01*
X2835D01*
X2840Y1315D01*
X2850Y1340D02*
Y1310D01*
X2865D01*
X2870Y1315D01*
Y1320D01*
Y1325D01*
X2865Y1330D01*
X2850D01*
X2885Y1310D02*
X2895D01*
X2900Y1315D01*
Y1325D01*
X2895Y1330D01*
X2885D01*
X2880Y1325D01*
Y1315D01*
X2885Y1310D01*
X2915D02*
X2925D01*
X2930Y1315D01*
Y1325D01*
X2925Y1330D01*
X2915D01*
X2910Y1325D01*
Y1315D01*
X2915Y1310D01*
X2945Y1335D02*
Y1330D01*
X2940D01*
X2950D01*
X2945D01*
Y1315D01*
X2950Y1310D01*
X2965Y1305D02*
X2985D01*
X3015Y1340D02*
X2995D01*
Y1325D01*
X3005Y1330D01*
X3010D01*
X3015Y1325D01*
Y1315D01*
X3010Y1310D01*
X3000D01*
X2995Y1315D01*
X3059Y927D02*
X3054Y922D01*
Y912D01*
X3059Y907D01*
X3079D01*
X3084Y912D01*
Y922D01*
X3079Y927D01*
X3084Y937D02*
Y952D01*
X3079Y957D01*
X3074Y952D01*
Y942D01*
X3069Y937D01*
X3064Y942D01*
Y957D01*
X3084Y967D02*
Y982D01*
X3079Y987D01*
X3074Y982D01*
Y972D01*
X3069Y967D01*
X3064Y972D01*
Y987D01*
X3089Y997D02*
Y1017D01*
X3054Y1047D02*
Y1027D01*
X3069D01*
X3064Y1037D01*
Y1042D01*
X3069Y1047D01*
X3079D01*
X3084Y1042D01*
Y1032D01*
X3079Y1027D01*
X3166Y1425D02*
Y1395D01*
X3181D01*
X3186Y1400D01*
Y1420D01*
X3181Y1425D01*
X3166D01*
X3196Y1395D02*
X3206D01*
X3201D01*
Y1425D01*
X3196Y1420D01*
X3221Y1390D02*
X3241D01*
X3271Y1425D02*
X3251D01*
Y1410D01*
X3261Y1415D01*
X3266D01*
X3271Y1410D01*
Y1400D01*
X3266Y1395D01*
X3256D01*
X3251Y1400D01*
X2997Y1785D02*
Y1755D01*
X3017D01*
X3027D02*
X3037D01*
X3032D01*
Y1785D01*
X3027Y1780D01*
X3052Y1750D02*
X3072D01*
X3102Y1785D02*
X3082D01*
Y1770D01*
X3092Y1775D01*
X3097D01*
X3102Y1770D01*
Y1760D01*
X3097Y1755D01*
X3087D01*
X3082Y1760D01*
X3291Y883D02*
X3261D01*
Y898D01*
X3266Y903D01*
X3276D01*
X3281Y898D01*
Y883D01*
Y893D02*
X3291Y903D01*
Y918D02*
X3266D01*
X3276D01*
Y913D01*
Y923D01*
Y918D01*
X3266D01*
X3261Y923D01*
Y938D02*
X3291D01*
Y953D01*
X3286Y958D01*
X3281D01*
X3276D01*
X3271Y953D01*
Y938D01*
X3261Y968D02*
X3291D01*
Y983D01*
X3286Y988D01*
X3281D01*
X3276D01*
X3271Y983D01*
Y968D01*
X3296Y998D02*
Y1018D01*
X3261Y1048D02*
Y1028D01*
X3276D01*
X3271Y1038D01*
Y1043D01*
X3276Y1048D01*
X3286D01*
X3291Y1043D01*
Y1033D01*
X3286Y1028D01*
X2866Y1203D02*
Y1178D01*
X2871Y1173D01*
X2881D01*
X2886Y1178D01*
Y1203D01*
X2916Y1173D02*
X2896D01*
X2916Y1193D01*
Y1198D01*
X2911Y1203D01*
X2901D01*
X2896Y1198D01*
X2599Y896D02*
Y866D01*
X2619D01*
X2644D02*
X2634D01*
X2629Y871D01*
Y881D01*
X2634Y886D01*
X2644D01*
X2649Y881D01*
Y876D01*
X2629D01*
X2679Y896D02*
Y866D01*
X2664D01*
X2659Y871D01*
Y881D01*
X2664Y886D01*
X2679D01*
X2709Y896D02*
X2689D01*
Y866D01*
X2709D01*
X2689Y881D02*
X2699D01*
X2719Y866D02*
Y886D01*
X2734D01*
X2739Y881D01*
Y866D01*
X2754Y886D02*
X2764D01*
X2769Y881D01*
Y866D01*
X2754D01*
X2749Y871D01*
X2754Y876D01*
X2769D01*
X2779Y896D02*
Y866D01*
X2794D01*
X2799Y871D01*
Y876D01*
Y881D01*
X2794Y886D01*
X2779D01*
X2809Y866D02*
X2819D01*
X2814D01*
Y896D01*
X2809D01*
X2849Y866D02*
X2839D01*
X2834Y871D01*
Y881D01*
X2839Y886D01*
X2849D01*
X2854Y881D01*
Y876D01*
X2834D01*
X2149Y904D02*
Y874D01*
X2169D01*
X2199Y904D02*
X2179D01*
Y874D01*
X2199D01*
X2179Y889D02*
X2189D01*
X2209Y904D02*
Y874D01*
X2224D01*
X2229Y879D01*
Y899D01*
X2224Y904D01*
X2209D01*
X2239Y869D02*
X2259D01*
X2269Y904D02*
Y874D01*
X2284D01*
X2289Y879D01*
Y884D01*
X2284Y889D01*
X2269D01*
X2284D01*
X2289Y894D01*
Y899D01*
X2284Y904D01*
X2269D01*
X2304Y894D02*
X2314D01*
X2319Y889D01*
Y874D01*
X2304D01*
X2299Y879D01*
X2304Y884D01*
X2319D01*
X2334Y899D02*
Y894D01*
X2329D01*
X2339D01*
X2334D01*
Y879D01*
X2339Y874D01*
X2359Y899D02*
Y894D01*
X2354D01*
X2364D01*
X2359D01*
Y879D01*
X2364Y874D01*
X2176Y714D02*
Y744D01*
X2191D01*
X2196Y739D01*
Y729D01*
X2191Y724D01*
X2176D01*
X2186D02*
X2196Y714D01*
X2206Y709D02*
X2226D01*
X2236Y744D02*
Y714D01*
X2256D01*
X2286Y744D02*
X2266D01*
Y714D01*
X2286D01*
X2266Y729D02*
X2276D01*
X2296Y744D02*
Y714D01*
X2311D01*
X2316Y719D01*
Y739D01*
X2311Y744D01*
X2296D01*
M02*
