G04 Layer_Color=65535*
%FSLAX23Y23*%
%MOIN*%
G70*
G01*
G75*
%ADD35C,0.016*%
%ADD36C,0.010*%
%ADD37C,0.002*%
%ADD38C,0.008*%
%ADD39C,0.010*%
%ADD40C,0.005*%
%ADD41C,0.007*%
%ADD42C,0.015*%
G36*
X3927Y2150D02*
X3915D01*
Y2195D01*
X3927D01*
Y2150D01*
D02*
G37*
G36*
X3932Y2058D02*
X3962D01*
Y2046D01*
X3933D01*
Y2016D01*
X3920D01*
Y2046D01*
X3890D01*
Y2058D01*
X3920D01*
Y2088D01*
X3932D01*
Y2058D01*
D02*
G37*
G36*
Y1153D02*
X3962D01*
Y1141D01*
X3933D01*
Y1111D01*
X3920D01*
Y1141D01*
X3890D01*
Y1153D01*
X3920D01*
Y1183D01*
X3932D01*
Y1153D01*
D02*
G37*
G36*
X3927Y1245D02*
X3915D01*
Y1290D01*
X3927D01*
Y1245D01*
D02*
G37*
G36*
X1538Y1111D02*
X1526D01*
Y1156D01*
X1538D01*
Y1111D01*
D02*
G37*
G36*
X1533Y1260D02*
X1563D01*
Y1248D01*
X1533D01*
Y1218D01*
X1521D01*
Y1248D01*
X1491D01*
Y1260D01*
X1520D01*
Y1290D01*
X1533D01*
Y1260D01*
D02*
G37*
G36*
X1526Y2168D02*
X1556D01*
Y2156D01*
X1526D01*
Y2126D01*
X1514D01*
Y2156D01*
X1484D01*
Y2168D01*
X1513D01*
Y2198D01*
X1526D01*
Y2168D01*
D02*
G37*
G36*
X1531Y2019D02*
X1519D01*
Y2064D01*
X1531D01*
Y2019D01*
D02*
G37*
G36*
X3348Y463D02*
X3303D01*
Y475D01*
X3348D01*
Y463D01*
D02*
G37*
G36*
X3211Y470D02*
X3241D01*
Y458D01*
X3211D01*
Y428D01*
X3199D01*
Y457D01*
X3169D01*
Y470D01*
X3199D01*
Y500D01*
X3211D01*
Y470D01*
D02*
G37*
G36*
X2645Y488D02*
X2675D01*
Y476D01*
X2645D01*
Y446D01*
X2633D01*
Y475D01*
X2603D01*
Y488D01*
X2633D01*
Y518D01*
X2645D01*
Y488D01*
D02*
G37*
G36*
X2839Y481D02*
X2794D01*
Y493D01*
X2839D01*
Y481D01*
D02*
G37*
G36*
X2691Y2890D02*
X2646D01*
Y2902D01*
X2691D01*
Y2890D01*
D02*
G37*
G36*
X2795Y2908D02*
X2825D01*
Y2895D01*
X2795D01*
Y2865D01*
X2783D01*
Y2895D01*
X2753D01*
Y2907D01*
X2783D01*
Y2937D01*
X2795D01*
Y2908D01*
D02*
G37*
G36*
X2101Y470D02*
X2131D01*
Y458D01*
X2101D01*
Y428D01*
X2089D01*
Y457D01*
X2059D01*
Y470D01*
X2089D01*
Y500D01*
X2101D01*
Y470D01*
D02*
G37*
G36*
X2238Y463D02*
X2193D01*
Y475D01*
X2238D01*
Y463D01*
D02*
G37*
D35*
X3087Y1260D02*
G03*
X3087Y1260I-8J0D01*
G01*
X2506D02*
G03*
X2506Y1260I-8J0D01*
G01*
D36*
X2993Y1301D02*
G03*
X2993Y1301I-5J0D01*
G01*
X2413D02*
G03*
X2413Y1301I-5J0D01*
G01*
D37*
X1795Y2742D02*
X2395D01*
X1795Y2740D02*
X2395D01*
X1795Y2738D02*
X2395D01*
X1795Y2736D02*
X2395D01*
X1795Y2734D02*
X1805D01*
X2385D02*
X2395D01*
X1795Y2732D02*
X1805D01*
X2385D02*
X2395D01*
X1795Y2730D02*
X1805D01*
X2385D02*
X2395D01*
X1795Y2728D02*
X1805D01*
X2385D02*
X2395D01*
X1795Y2726D02*
X1805D01*
X2385D02*
X2395D01*
X1795Y2724D02*
X1805D01*
X2385D02*
X2395D01*
X1795Y2722D02*
X1805D01*
X2385D02*
X2395D01*
X1795Y2720D02*
X1805D01*
X2385D02*
X2395D01*
X1795Y2718D02*
X1805D01*
X2385D02*
X2395D01*
X1795Y2716D02*
X1805D01*
X2385D02*
X2395D01*
X1795Y2714D02*
X1805D01*
X2385D02*
X2395D01*
X1795Y2712D02*
X1805D01*
X2385D02*
X2395D01*
X1795Y2710D02*
X1805D01*
X1827D02*
X2363D01*
X2385D02*
X2395D01*
X1795Y2708D02*
X1805D01*
X1827D02*
X2363D01*
X2385D02*
X2395D01*
X1795Y2706D02*
X1805D01*
X1827D02*
X2363D01*
X2385D02*
X2395D01*
X1795Y2704D02*
X1805D01*
X1827D02*
X2363D01*
X2385D02*
X2395D01*
X1795Y2702D02*
X1805D01*
X1827D02*
X2363D01*
X2385D02*
X2395D01*
X1795Y2700D02*
X1805D01*
X1827D02*
X2363D01*
X2385D02*
X2395D01*
X1795Y2698D02*
X1805D01*
X1827D02*
X2363D01*
X2385D02*
X2395D01*
X1795Y2696D02*
X1805D01*
X2385D02*
X2395D01*
X1795Y2694D02*
X1805D01*
X2385D02*
X2395D01*
X1795Y2692D02*
X1805D01*
X2385D02*
X2395D01*
X1795Y2690D02*
X1805D01*
X2385D02*
X2395D01*
X1795Y2688D02*
X1805D01*
X2385D02*
X2395D01*
X1795Y2686D02*
X1805D01*
X2385D02*
X2395D01*
X1795Y2684D02*
X1805D01*
X2385D02*
X2395D01*
X1795Y2682D02*
X1805D01*
X1827D02*
X2363D01*
X2385D02*
X2395D01*
X1795Y2680D02*
X1805D01*
X1827D02*
X2363D01*
X2385D02*
X2395D01*
X1795Y2678D02*
X1805D01*
X1827D02*
X2363D01*
X2385D02*
X2395D01*
X1795Y2676D02*
X1805D01*
X1827D02*
X2363D01*
X2385D02*
X2395D01*
X1795Y2674D02*
X1805D01*
X1827D02*
X2363D01*
X2385D02*
X2395D01*
X1795Y2672D02*
X1805D01*
X1827D02*
X2363D01*
X2385D02*
X2395D01*
X1795Y2670D02*
X1805D01*
X1827D02*
X2363D01*
X2385D02*
X2395D01*
X1795Y2668D02*
X1805D01*
X1829D02*
X2361D01*
X2385D02*
X2395D01*
X1795Y2666D02*
X1805D01*
X2385D02*
X2395D01*
X1795Y2664D02*
X1805D01*
X2385D02*
X2395D01*
X1795Y2662D02*
X1805D01*
X2385D02*
X2395D01*
X1795Y2660D02*
X1805D01*
X2385D02*
X2395D01*
X1795Y2658D02*
X1805D01*
X2385D02*
X2395D01*
X1795Y2656D02*
X1805D01*
X2385D02*
X2395D01*
X1795Y2654D02*
X1805D01*
X1829D02*
X2361D01*
X2385D02*
X2395D01*
X1795Y2652D02*
X1805D01*
X1827D02*
X2363D01*
X2385D02*
X2395D01*
X1795Y2650D02*
X1805D01*
X1827D02*
X2363D01*
X2385D02*
X2395D01*
X1795Y2648D02*
X1805D01*
X1827D02*
X2363D01*
X2385D02*
X2395D01*
X1795Y2646D02*
X1805D01*
X1827D02*
X2363D01*
X2385D02*
X2395D01*
X1795Y2644D02*
X1805D01*
X1827D02*
X2363D01*
X2385D02*
X2395D01*
X1795Y2642D02*
X1805D01*
X1827D02*
X2363D01*
X2385D02*
X2395D01*
X1795Y2640D02*
X1805D01*
X1827D02*
X2361D01*
X2385D02*
X2395D01*
X1795Y2638D02*
X1805D01*
X2385D02*
X2395D01*
X1795Y2636D02*
X1805D01*
X2385D02*
X2395D01*
X1795Y2634D02*
X1805D01*
X2385D02*
X2395D01*
X1795Y2632D02*
X1805D01*
X2385D02*
X2395D01*
X1795Y2630D02*
X1805D01*
X2385D02*
X2395D01*
X1795Y2628D02*
X1805D01*
X2385D02*
X2395D01*
X1795Y2626D02*
X1805D01*
X1827D02*
X2363D01*
X2385D02*
X2395D01*
X1795Y2624D02*
X1805D01*
X1827D02*
X2363D01*
X2385D02*
X2395D01*
X1795Y2622D02*
X1805D01*
X1827D02*
X2363D01*
X2385D02*
X2395D01*
X1795Y2620D02*
X1805D01*
X1827D02*
X2363D01*
X2385D02*
X2395D01*
X1795Y2618D02*
X1805D01*
X1827D02*
X2363D01*
X2385D02*
X2395D01*
X1795Y2616D02*
X1805D01*
X1827D02*
X2363D01*
X2385D02*
X2395D01*
X1795Y2614D02*
X1805D01*
X1827D02*
X2363D01*
X2385D02*
X2395D01*
X1795Y2612D02*
X1805D01*
X2385D02*
X2395D01*
X1795Y2610D02*
X1805D01*
X2385D02*
X2395D01*
X1795Y2608D02*
X1805D01*
X2385D02*
X2395D01*
X1795Y2606D02*
X1805D01*
X2385D02*
X2395D01*
X1795Y2604D02*
X1805D01*
X2385D02*
X2395D01*
X1795Y2602D02*
X1805D01*
X2385D02*
X2395D01*
X1795Y2600D02*
X1805D01*
X2385D02*
X2395D01*
X1795Y2598D02*
X1805D01*
X1827D02*
X2363D01*
X2385D02*
X2395D01*
X1795Y2596D02*
X1805D01*
X1827D02*
X2363D01*
X2385D02*
X2395D01*
X1795Y2594D02*
X1805D01*
X1827D02*
X2363D01*
X2385D02*
X2395D01*
X1795Y2592D02*
X1805D01*
X1827D02*
X2363D01*
X2385D02*
X2395D01*
X1795Y2590D02*
X1805D01*
X1827D02*
X2363D01*
X2385D02*
X2395D01*
X1795Y2588D02*
X1805D01*
X1827D02*
X2363D01*
X2385D02*
X2395D01*
X1795Y2586D02*
X1805D01*
X1827D02*
X2363D01*
X2385D02*
X2395D01*
X1795Y2584D02*
X1805D01*
X2385D02*
X2395D01*
X1795Y2582D02*
X1805D01*
X2385D02*
X2395D01*
X1795Y2580D02*
X1805D01*
X2385D02*
X2395D01*
X1795Y2578D02*
X1805D01*
X2385D02*
X2395D01*
X1795Y2576D02*
X1805D01*
X2385D02*
X2395D01*
X1795Y2574D02*
X1805D01*
X2385D02*
X2395D01*
X1795Y2572D02*
X1805D01*
X1829D02*
X1909D01*
X2031D02*
X2361D01*
X2385D02*
X2395D01*
X1795Y2570D02*
X1805D01*
X1827D02*
X1909D01*
X2029D02*
X2363D01*
X2385D02*
X2395D01*
X1795Y2568D02*
X1805D01*
X1827D02*
X1905D01*
X2033D02*
X2363D01*
X2385D02*
X2395D01*
X1795Y2566D02*
X1805D01*
X1827D02*
X1901D01*
X2039D02*
X2363D01*
X2385D02*
X2395D01*
X1795Y2564D02*
X1805D01*
X1827D02*
X1897D01*
X2041D02*
X2363D01*
X2385D02*
X2395D01*
X1795Y2562D02*
X1805D01*
X1827D02*
X1895D01*
X2045D02*
X2363D01*
X2385D02*
X2395D01*
X1795Y2560D02*
X1805D01*
X1827D02*
X1891D01*
X2049D02*
X2363D01*
X2385D02*
X2395D01*
X1795Y2558D02*
X1805D01*
X1827D02*
X1887D01*
X2051D02*
X2361D01*
X2385D02*
X2395D01*
X1795Y2556D02*
X1805D01*
X2385D02*
X2395D01*
X1795Y2554D02*
X1805D01*
X2385D02*
X2395D01*
X1795Y2552D02*
X1805D01*
X2385D02*
X2395D01*
X1795Y2550D02*
X1805D01*
X2385D02*
X2395D01*
X1795Y2548D02*
X1805D01*
X2385D02*
X2395D01*
X1795Y2546D02*
X1805D01*
X2385D02*
X2395D01*
X1795Y2544D02*
X1805D01*
X1827D02*
X1869D01*
X2069D02*
X2363D01*
X2385D02*
X2395D01*
X1795Y2542D02*
X1805D01*
X1827D02*
X1869D01*
X2071D02*
X2363D01*
X2385D02*
X2395D01*
X1795Y2540D02*
X1805D01*
X1827D02*
X1867D01*
X2073D02*
X2363D01*
X2385D02*
X2395D01*
X1795Y2538D02*
X1805D01*
X1827D02*
X1865D01*
X2075D02*
X2363D01*
X2385D02*
X2395D01*
X1795Y2536D02*
X1805D01*
X1827D02*
X1863D01*
X2077D02*
X2363D01*
X2385D02*
X2395D01*
X1795Y2534D02*
X1805D01*
X1827D02*
X1861D01*
X2079D02*
X2363D01*
X2385D02*
X2395D01*
X1795Y2532D02*
X1805D01*
X1827D02*
X1859D01*
X2081D02*
X2363D01*
X2385D02*
X2395D01*
X1795Y2530D02*
X1805D01*
X2385D02*
X2395D01*
X1795Y2528D02*
X1805D01*
X2385D02*
X2395D01*
X1795Y2526D02*
X1805D01*
X2385D02*
X2395D01*
X1795Y2524D02*
X1805D01*
X2385D02*
X2395D01*
X1795Y2522D02*
X1805D01*
X2385D02*
X2395D01*
X1795Y2520D02*
X1805D01*
X2385D02*
X2395D01*
X1795Y2518D02*
X1805D01*
X2385D02*
X2395D01*
X1795Y2516D02*
X1805D01*
X1827D02*
X1847D01*
X2091D02*
X2363D01*
X2385D02*
X2395D01*
X1795Y2514D02*
X1805D01*
X1827D02*
X1847D01*
X2093D02*
X2363D01*
X2385D02*
X2395D01*
X1795Y2512D02*
X1805D01*
X1827D02*
X1845D01*
X1961D02*
X1979D01*
X2093D02*
X2363D01*
X2385D02*
X2395D01*
X1795Y2510D02*
X1805D01*
X1827D02*
X1845D01*
X1951D02*
X1989D01*
X2095D02*
X2363D01*
X2385D02*
X2395D01*
X1795Y2508D02*
X1805D01*
X1827D02*
X1843D01*
X1945D02*
X1995D01*
X2097D02*
X2363D01*
X2385D02*
X2395D01*
X1795Y2506D02*
X1805D01*
X1827D02*
X1843D01*
X1939D02*
X2001D01*
X2097D02*
X2363D01*
X2385D02*
X2395D01*
X1795Y2504D02*
X1805D01*
X1827D02*
X1841D01*
X1937D02*
X2001D01*
X2099D02*
X2363D01*
X2385D02*
X2395D01*
X1795Y2502D02*
X1805D01*
X2385D02*
X2395D01*
X1795Y2500D02*
X1805D01*
X2385D02*
X2395D01*
X1795Y2498D02*
X1805D01*
X2385D02*
X2395D01*
X1795Y2496D02*
X1805D01*
X2385D02*
X2395D01*
X1795Y2494D02*
X1805D01*
X2385D02*
X2395D01*
X1795Y2492D02*
X1805D01*
X2385D02*
X2395D01*
X1795Y2490D02*
X1805D01*
X1827D02*
X1835D01*
X1917D02*
X2023D01*
X2105D02*
X2363D01*
X2385D02*
X2395D01*
X1795Y2488D02*
X1805D01*
X1827D02*
X1835D01*
X1915D02*
X2025D01*
X2105D02*
X2363D01*
X2385D02*
X2395D01*
X1795Y2486D02*
X1805D01*
X1827D02*
X1835D01*
X1913D02*
X2027D01*
X2105D02*
X2363D01*
X2385D02*
X2395D01*
X1795Y2484D02*
X1805D01*
X1827D02*
X1833D01*
X1911D02*
X2029D01*
X2105D02*
X2363D01*
X2385D02*
X2395D01*
X1795Y2482D02*
X1805D01*
X1827D02*
X1833D01*
X1909D02*
X2029D01*
X2107D02*
X2363D01*
X2385D02*
X2395D01*
X1795Y2480D02*
X1805D01*
X1827D02*
X1833D01*
X1909D02*
X2031D01*
X2107D02*
X2363D01*
X2385D02*
X2395D01*
X1795Y2478D02*
X1805D01*
X1827D02*
X1831D01*
X1907D02*
X2033D01*
X2107D02*
X2363D01*
X2385D02*
X2395D01*
X1795Y2476D02*
X1805D01*
X1827D02*
X1831D01*
X1907D02*
X2033D01*
X2109D02*
X2361D01*
X2385D02*
X2395D01*
X1795Y2474D02*
X1805D01*
X2385D02*
X2395D01*
X1795Y2472D02*
X1805D01*
X2385D02*
X2395D01*
X1795Y2470D02*
X1805D01*
X2385D02*
X2395D01*
X1795Y2468D02*
X1805D01*
X2385D02*
X2395D01*
X1795Y2466D02*
X1805D01*
X2385D02*
X2395D01*
X1795Y2464D02*
X1805D01*
X2385D02*
X2395D01*
X1795Y2462D02*
X1805D01*
X1901D02*
X2039D01*
X2111D02*
X2363D01*
X2385D02*
X2395D01*
X1795Y2460D02*
X1805D01*
X1899D02*
X2039D01*
X2111D02*
X2363D01*
X2385D02*
X2395D01*
X1795Y2458D02*
X1805D01*
X1899D02*
X2041D01*
X2111D02*
X2363D01*
X2385D02*
X2395D01*
X1795Y2456D02*
X1805D01*
X1899D02*
X2041D01*
X2111D02*
X2363D01*
X2385D02*
X2395D01*
X1795Y2454D02*
X1805D01*
X1899D02*
X2041D01*
X2111D02*
X2363D01*
X2385D02*
X2395D01*
X1795Y2452D02*
X1805D01*
X1899D02*
X2041D01*
X2111D02*
X2363D01*
X2385D02*
X2395D01*
X1795Y2450D02*
X1805D01*
X1899D02*
X2041D01*
X2111D02*
X2363D01*
X2385D02*
X2395D01*
X1795Y2448D02*
X1805D01*
X2385D02*
X2395D01*
X1795Y2446D02*
X1805D01*
X2385D02*
X2395D01*
X1795Y2444D02*
X1805D01*
X2385D02*
X2395D01*
X1795Y2442D02*
X1805D01*
X2385D02*
X2395D01*
X1795Y2440D02*
X1805D01*
X2385D02*
X2395D01*
X1795Y2438D02*
X1805D01*
X2385D02*
X2395D01*
X1795Y2436D02*
X1805D01*
X2385D02*
X2395D01*
X1795Y2434D02*
X1805D01*
X1897D02*
X2363D01*
X2385D02*
X2395D01*
X1795Y2432D02*
X1805D01*
X1897D02*
X2363D01*
X2385D02*
X2395D01*
X1795Y2430D02*
X1805D01*
X1897D02*
X2363D01*
X2385D02*
X2395D01*
X1795Y2428D02*
X1805D01*
X1897D02*
X2363D01*
X2385D02*
X2395D01*
X1795Y2426D02*
X1805D01*
X1897D02*
X2363D01*
X2385D02*
X2395D01*
X1795Y2424D02*
X1805D01*
X1897D02*
X2363D01*
X2385D02*
X2395D01*
X1795Y2422D02*
X1805D01*
X1899D02*
X2363D01*
X2385D02*
X2395D01*
X1795Y2420D02*
X1805D01*
X2385D02*
X2395D01*
X1795Y2418D02*
X1805D01*
X2385D02*
X2395D01*
X1795Y2416D02*
X1805D01*
X2385D02*
X2395D01*
X1795Y2414D02*
X1805D01*
X2385D02*
X2395D01*
X1795Y2412D02*
X1805D01*
X2385D02*
X2395D01*
X1795Y2410D02*
X1805D01*
X2385D02*
X2395D01*
X1795Y2408D02*
X1805D01*
X1899D02*
X2363D01*
X2385D02*
X2395D01*
X1795Y2406D02*
X1805D01*
X1897D02*
X2363D01*
X2385D02*
X2395D01*
X1795Y2404D02*
X1805D01*
X1897D02*
X2363D01*
X2385D02*
X2395D01*
X1795Y2402D02*
X1805D01*
X1897D02*
X2363D01*
X2385D02*
X2395D01*
X1795Y2400D02*
X1805D01*
X1897D02*
X2363D01*
X2385D02*
X2395D01*
X1795Y2398D02*
X1805D01*
X1897D02*
X2363D01*
X2385D02*
X2395D01*
X1795Y2396D02*
X1805D01*
X1897D02*
X2363D01*
X2385D02*
X2395D01*
X1795Y2394D02*
X1805D01*
X1899D02*
X2361D01*
X2385D02*
X2395D01*
X1795Y2392D02*
X1805D01*
X2385D02*
X2395D01*
X1795Y2390D02*
X1805D01*
X2385D02*
X2395D01*
X1795Y2388D02*
X1805D01*
X2385D02*
X2395D01*
X1795Y2386D02*
X1805D01*
X2385D02*
X2395D01*
X1795Y2384D02*
X1805D01*
X2385D02*
X2395D01*
X1795Y2382D02*
X1805D01*
X2385D02*
X2395D01*
X1795Y2380D02*
X1805D01*
X1963D02*
X2363D01*
X2385D02*
X2395D01*
X1795Y2378D02*
X1805D01*
X1963D02*
X2363D01*
X2385D02*
X2395D01*
X1795Y2376D02*
X1805D01*
X1963D02*
X2363D01*
X2385D02*
X2395D01*
X1795Y2374D02*
X1805D01*
X1963D02*
X2363D01*
X2385D02*
X2395D01*
X1795Y2372D02*
X1805D01*
X1963D02*
X2363D01*
X2385D02*
X2395D01*
X1795Y2370D02*
X1805D01*
X1963D02*
X2363D01*
X2385D02*
X2395D01*
X1795Y2368D02*
X1805D01*
X1963D02*
X2363D01*
X2385D02*
X2395D01*
X1795Y2366D02*
X1805D01*
X2385D02*
X2395D01*
X1795Y2364D02*
X1805D01*
X2385D02*
X2395D01*
X1795Y2362D02*
X1805D01*
X2385D02*
X2395D01*
X1795Y2360D02*
X1805D01*
X2385D02*
X2395D01*
X1795Y2358D02*
X1805D01*
X2385D02*
X2395D01*
X1795Y2356D02*
X1805D01*
X2385D02*
X2395D01*
X1795Y2354D02*
X1805D01*
X2385D02*
X2395D01*
X1795Y2352D02*
X1805D01*
X1963D02*
X2363D01*
X2385D02*
X2395D01*
X1795Y2350D02*
X1805D01*
X1963D02*
X2363D01*
X2385D02*
X2395D01*
X1795Y2348D02*
X1805D01*
X1963D02*
X2363D01*
X2385D02*
X2395D01*
X1795Y2346D02*
X1805D01*
X1963D02*
X2363D01*
X2385D02*
X2395D01*
X1795Y2344D02*
X1805D01*
X1963D02*
X2363D01*
X2385D02*
X2395D01*
X1795Y2342D02*
X1805D01*
X1963D02*
X2363D01*
X2385D02*
X2395D01*
X1795Y2340D02*
X1805D01*
X1963D02*
X2363D01*
X2385D02*
X2395D01*
X1795Y2338D02*
X1805D01*
X2385D02*
X2395D01*
X1795Y2336D02*
X1805D01*
X2385D02*
X2395D01*
X1795Y2334D02*
X1805D01*
X2385D02*
X2395D01*
X1795Y2332D02*
X1805D01*
X2385D02*
X2395D01*
X1795Y2330D02*
X1805D01*
X2385D02*
X2395D01*
X1795Y2328D02*
X1805D01*
X2385D02*
X2395D01*
X1795Y2326D02*
X1805D01*
X1899D02*
X2363D01*
X2385D02*
X2395D01*
X1795Y2324D02*
X1805D01*
X1897D02*
X2363D01*
X2385D02*
X2395D01*
X1795Y2322D02*
X1805D01*
X1897D02*
X2363D01*
X2385D02*
X2395D01*
X1795Y2320D02*
X1805D01*
X1897D02*
X2363D01*
X2385D02*
X2395D01*
X1795Y2318D02*
X1805D01*
X1897D02*
X2363D01*
X2385D02*
X2395D01*
X1795Y2316D02*
X1805D01*
X1897D02*
X2363D01*
X2385D02*
X2395D01*
X1795Y2314D02*
X1805D01*
X1897D02*
X2363D01*
X2385D02*
X2395D01*
X1795Y2312D02*
X1805D01*
X2385D02*
X2395D01*
X1795Y2310D02*
X1805D01*
X2385D02*
X2395D01*
X1795Y2308D02*
X1805D01*
X2385D02*
X2395D01*
X1795Y2306D02*
X1805D01*
X2385D02*
X2395D01*
X1795Y2304D02*
X1805D01*
X2385D02*
X2395D01*
X1795Y2302D02*
X1805D01*
X2385D02*
X2395D01*
X1795Y2300D02*
X1805D01*
X2385D02*
X2395D01*
X1795Y2298D02*
X1805D01*
X1897D02*
X2363D01*
X2385D02*
X2395D01*
X1795Y2296D02*
X1805D01*
X1897D02*
X2363D01*
X2385D02*
X2395D01*
X1795Y2294D02*
X1805D01*
X1897D02*
X2363D01*
X2385D02*
X2395D01*
X1795Y2292D02*
X1805D01*
X1897D02*
X2363D01*
X2385D02*
X2395D01*
X1795Y2290D02*
X1805D01*
X1897D02*
X2363D01*
X2385D02*
X2395D01*
X1795Y2288D02*
X1805D01*
X1897D02*
X2363D01*
X2385D02*
X2395D01*
X1795Y2286D02*
X1805D01*
X1899D02*
X2363D01*
X2385D02*
X2395D01*
X1795Y2284D02*
X1805D01*
X2385D02*
X2395D01*
X1795Y2282D02*
X1805D01*
X2385D02*
X2395D01*
X1795Y2280D02*
X1805D01*
X2385D02*
X2395D01*
X1795Y2278D02*
X1805D01*
X2385D02*
X2395D01*
X1795Y2276D02*
X1805D01*
X2385D02*
X2395D01*
X1795Y2274D02*
X1805D01*
X2385D02*
X2395D01*
X1795Y2272D02*
X1805D01*
X2385D02*
X2395D01*
X1795Y2270D02*
X1805D01*
X1897D02*
X2363D01*
X2385D02*
X2395D01*
X1795Y2268D02*
X1805D01*
X1897D02*
X2363D01*
X2385D02*
X2395D01*
X1795Y2266D02*
X1805D01*
X1897D02*
X2363D01*
X2385D02*
X2395D01*
X1795Y2264D02*
X1805D01*
X1897D02*
X2363D01*
X2385D02*
X2395D01*
X1795Y2262D02*
X1805D01*
X1897D02*
X2363D01*
X2385D02*
X2395D01*
X1795Y2260D02*
X1805D01*
X1897D02*
X2363D01*
X2385D02*
X2395D01*
X1795Y2258D02*
X1805D01*
X1899D02*
X2363D01*
X2385D02*
X2395D01*
X1795Y2256D02*
X1805D01*
X2385D02*
X2395D01*
X1795Y2254D02*
X1805D01*
X2385D02*
X2395D01*
X1795Y2252D02*
X1805D01*
X2385D02*
X2395D01*
X1795Y2250D02*
X1805D01*
X2385D02*
X2395D01*
X1795Y2248D02*
X1805D01*
X2385D02*
X2395D01*
X1795Y2246D02*
X1805D01*
X2385D02*
X2395D01*
X1795Y2244D02*
X1805D01*
X2385D02*
X2395D01*
X1795Y2242D02*
X1805D01*
X2385D02*
X2395D01*
X1795Y2240D02*
X1805D01*
X1899D02*
X2363D01*
X2385D02*
X2395D01*
X1795Y2238D02*
X1805D01*
X1897D02*
X2363D01*
X2385D02*
X2395D01*
X1795Y2236D02*
X1805D01*
X1897D02*
X2363D01*
X2385D02*
X2395D01*
X1795Y2234D02*
X1805D01*
X1897D02*
X2363D01*
X2385D02*
X2395D01*
X1795Y2232D02*
X1805D01*
X1897D02*
X2363D01*
X2385D02*
X2395D01*
X1795Y2230D02*
X1805D01*
X1897D02*
X2363D01*
X2385D02*
X2395D01*
X1795Y2228D02*
X1805D01*
X1897D02*
X2363D01*
X2385D02*
X2395D01*
X1795Y2226D02*
X1805D01*
X1897D02*
X2077D01*
X2083D02*
X2187D01*
X2193D02*
X2363D01*
X2385D02*
X2395D01*
X1795Y2224D02*
X1805D01*
X1897D02*
X2077D01*
X2083D02*
X2187D01*
X2193D02*
X2363D01*
X2385D02*
X2395D01*
X1795Y2222D02*
X1805D01*
X1897D02*
X2077D01*
X2083D02*
X2187D01*
X2193D02*
X2363D01*
X2385D02*
X2395D01*
X1795Y2220D02*
X1805D01*
X1897D02*
X2077D01*
X2083D02*
X2187D01*
X2193D02*
X2363D01*
X2385D02*
X2395D01*
X1795Y2218D02*
X1805D01*
X1897D02*
X2077D01*
X2083D02*
X2187D01*
X2193D02*
X2363D01*
X2385D02*
X2395D01*
X1795Y2216D02*
X1805D01*
X1897D02*
X2077D01*
X2083D02*
X2187D01*
X2193D02*
X2363D01*
X2385D02*
X2395D01*
X1795Y2214D02*
X1805D01*
X1897D02*
X1927D01*
X1933D02*
X1947D01*
X1953D02*
X1993D01*
X1999D02*
X2005D01*
X2013D02*
X2063D01*
X2073D02*
X2079D01*
X2083D02*
X2129D01*
X2141D02*
X2187D01*
X2193D02*
X2239D01*
X2249D02*
X2303D01*
X2313D02*
X2363D01*
X2385D02*
X2395D01*
X1795Y2212D02*
X1805D01*
X1897D02*
X1927D01*
X1933D02*
X1947D01*
X1953D02*
X1993D01*
X1999D02*
X2001D01*
X2017D02*
X2061D01*
X2075D02*
X2079D01*
X2083D02*
X2127D01*
X2143D02*
X2187D01*
X2193D02*
X2235D01*
X2253D02*
X2299D01*
X2317D02*
X2363D01*
X2385D02*
X2395D01*
X1795Y2210D02*
X1805D01*
X1897D02*
X1927D01*
X1933D02*
X1947D01*
X1953D02*
X1993D01*
X2003D02*
X2009D01*
X2017D02*
X2059D01*
X2069D02*
X2073D01*
X2083D02*
X2125D01*
X2133D02*
X2137D01*
X2145D02*
X2187D01*
X2193D02*
X2235D01*
X2243D02*
X2247D01*
X2255D02*
X2297D01*
X2305D02*
X2309D01*
X2319D02*
X2363D01*
X2385D02*
X2395D01*
X1795Y2208D02*
X1805D01*
X1897D02*
X1927D01*
X1933D02*
X1947D01*
X1953D02*
X1993D01*
X2001D02*
X2011D01*
X2017D02*
X2059D01*
X2065D02*
X2075D01*
X2083D02*
X2123D01*
X2129D02*
X2141D01*
X2145D02*
X2187D01*
X2193D02*
X2233D01*
X2239D02*
X2249D01*
X2255D02*
X2295D01*
X2303D02*
X2313D01*
X2319D02*
X2363D01*
X2385D02*
X2395D01*
X1795Y2206D02*
X1805D01*
X1897D02*
X1927D01*
X1933D02*
X1947D01*
X1953D02*
X1993D01*
X1999D02*
X2011D01*
X2017D02*
X2057D01*
X2065D02*
X2077D01*
X2083D02*
X2123D01*
X2129D02*
X2141D01*
X2147D02*
X2187D01*
X2193D02*
X2233D01*
X2239D02*
X2251D01*
X2255D02*
X2295D01*
X2301D02*
X2313D01*
X2315D02*
X2363D01*
X2385D02*
X2395D01*
X1795Y2204D02*
X1805D01*
X1897D02*
X1927D01*
X1933D02*
X1947D01*
X1953D02*
X1993D01*
X1999D02*
X2011D01*
X2017D02*
X2057D01*
X2063D02*
X2077D01*
X2083D02*
X2123D01*
X2129D02*
X2141D01*
X2147D02*
X2187D01*
X2193D02*
X2231D01*
X2237D02*
X2251D01*
X2257D02*
X2295D01*
X2301D02*
X2363D01*
X2385D02*
X2395D01*
X1795Y2202D02*
X1805D01*
X1897D02*
X1927D01*
X1933D02*
X1947D01*
X1953D02*
X1993D01*
X1999D02*
X2013D01*
X2017D02*
X2057D01*
X2063D02*
X2077D01*
X2083D02*
X2123D01*
X2129D02*
X2141D01*
X2147D02*
X2187D01*
X2193D02*
X2231D01*
X2237D02*
X2251D01*
X2257D02*
X2295D01*
X2301D02*
X2363D01*
X2385D02*
X2395D01*
X1795Y2200D02*
X1805D01*
X1897D02*
X1927D01*
X1933D02*
X1947D01*
X1953D02*
X1993D01*
X1999D02*
X2013D01*
X2017D02*
X2057D01*
X2063D02*
X2077D01*
X2083D02*
X2123D01*
X2147D02*
X2187D01*
X2193D02*
X2231D01*
X2257D02*
X2295D01*
X2301D02*
X2363D01*
X2385D02*
X2395D01*
X1795Y2198D02*
X1805D01*
X1897D02*
X1927D01*
X1933D02*
X1947D01*
X1953D02*
X1993D01*
X1999D02*
X2013D01*
X2017D02*
X2057D01*
X2063D02*
X2077D01*
X2083D02*
X2123D01*
X2129D02*
X2187D01*
X2193D02*
X2231D01*
X2237D02*
X2295D01*
X2301D02*
X2363D01*
X2385D02*
X2395D01*
X1795Y2196D02*
X1805D01*
X1897D02*
X1927D01*
X1933D02*
X1945D01*
X1953D02*
X1993D01*
X1999D02*
X2013D01*
X2017D02*
X2057D01*
X2063D02*
X2077D01*
X2083D02*
X2123D01*
X2129D02*
X2187D01*
X2193D02*
X2231D01*
X2237D02*
X2295D01*
X2301D02*
X2363D01*
X2385D02*
X2395D01*
X1795Y2194D02*
X1805D01*
X1897D02*
X1927D01*
X1933D02*
X1945D01*
X1953D02*
X1993D01*
X1999D02*
X2013D01*
X2017D02*
X2057D01*
X2063D02*
X2077D01*
X2083D02*
X2123D01*
X2129D02*
X2187D01*
X2193D02*
X2233D01*
X2239D02*
X2295D01*
X2301D02*
X2313D01*
X2319D02*
X2363D01*
X2385D02*
X2395D01*
X1795Y2192D02*
X1805D01*
X1897D02*
X1927D01*
X1933D02*
X1945D01*
X1953D02*
X1993D01*
X1999D02*
X2013D01*
X2017D02*
X2059D01*
X2065D02*
X2075D01*
X2083D02*
X2123D01*
X2129D02*
X2141D01*
X2147D02*
X2187D01*
X2193D02*
X2233D01*
X2239D02*
X2249D01*
X2255D02*
X2295D01*
X2303D02*
X2313D01*
X2319D02*
X2363D01*
X2385D02*
X2395D01*
X1795Y2190D02*
X1805D01*
X1897D02*
X1927D01*
X1935D02*
X1943D01*
X1953D02*
X1993D01*
X1999D02*
X2013D01*
X2017D02*
X2059D01*
X2067D02*
X2073D01*
X2083D02*
X2125D01*
X2131D02*
X2139D01*
X2147D02*
X2187D01*
X2193D02*
X2233D01*
X2241D02*
X2249D01*
X2255D02*
X2297D01*
X2305D02*
X2311D01*
X2319D02*
X2363D01*
X2385D02*
X2395D01*
X1795Y2188D02*
X1805D01*
X1897D02*
X1929D01*
X1943D02*
X1947D01*
X1953D02*
X1993D01*
X1999D02*
X2013D01*
X2017D02*
X2061D01*
X2083D02*
X2125D01*
X2145D02*
X2187D01*
X2193D02*
X2235D01*
X2253D02*
X2299D01*
X2317D02*
X2363D01*
X2385D02*
X2395D01*
X1795Y2186D02*
X1805D01*
X1897D02*
X1931D01*
X1941D02*
X1947D01*
X1953D02*
X1993D01*
X1999D02*
X2011D01*
X2019D02*
X2063D01*
X2073D02*
X2079D01*
X2083D02*
X2129D01*
X2143D02*
X2187D01*
X2193D02*
X2237D01*
X2251D02*
X2301D01*
X2315D02*
X2363D01*
X2385D02*
X2395D01*
X1795Y2184D02*
X1805D01*
X1897D02*
X2363D01*
X2385D02*
X2395D01*
X1795Y2182D02*
X1805D01*
X1897D02*
X2363D01*
X2385D02*
X2395D01*
X1795Y2180D02*
X1805D01*
X1897D02*
X2363D01*
X2385D02*
X2395D01*
X1795Y2178D02*
X1805D01*
X1897D02*
X2363D01*
X2385D02*
X2395D01*
X1795Y2176D02*
X1805D01*
X1897D02*
X2363D01*
X2385D02*
X2395D01*
X1795Y2174D02*
X1805D01*
X1897D02*
X2363D01*
X2385D02*
X2395D01*
X1795Y2172D02*
X1805D01*
X1897D02*
X2363D01*
X2385D02*
X2395D01*
X1795Y2170D02*
X1805D01*
X1899D02*
X2363D01*
X2385D02*
X2395D01*
X1795Y2168D02*
X1805D01*
X2385D02*
X2395D01*
X1795Y2166D02*
X1805D01*
X2385D02*
X2395D01*
X1795Y2164D02*
X1805D01*
X2385D02*
X2395D01*
X1795Y2162D02*
X1805D01*
X2385D02*
X2395D01*
X1795Y2160D02*
X1805D01*
X2385D02*
X2395D01*
X1795Y2158D02*
X1805D01*
X2385D02*
X2395D01*
X1795Y2156D02*
X1805D01*
X2385D02*
X2395D01*
X1795Y2154D02*
X1805D01*
X2385D02*
X2395D01*
X1795Y2152D02*
X1805D01*
X2385D02*
X2395D01*
X1795Y2150D02*
X2395D01*
X1795Y2148D02*
X2395D01*
X1795Y2146D02*
X2395D01*
X1795Y2144D02*
X2395D01*
D38*
X2626Y657D02*
Y757D01*
X2826D01*
Y657D02*
Y757D01*
X2626Y657D02*
X2826D01*
X2374Y608D02*
Y652D01*
X2045Y873D02*
Y917D01*
X3174Y960D02*
X3226D01*
X3105Y1406D02*
Y1453D01*
X2852D02*
X3089D01*
X2852Y1359D02*
Y1453D01*
Y1359D02*
X3089D01*
X3105D02*
Y1406D01*
X3089Y1359D02*
X3105D01*
X3089Y1453D02*
X3105D01*
Y1359D02*
X3128D01*
Y1453D01*
X3105D02*
X3128D01*
X3048Y1095D02*
X3118D01*
X3048Y1291D02*
X3118D01*
Y1095D02*
Y1291D01*
X3048Y1095D02*
Y1291D01*
X2467Y1095D02*
X2538D01*
X2467Y1291D02*
X2538D01*
Y1095D02*
Y1291D01*
X2467Y1095D02*
Y1291D01*
X2486Y1457D02*
X2509D01*
Y1363D02*
Y1457D01*
X2486Y1363D02*
X2509D01*
X2470Y1457D02*
X2486D01*
X2470Y1363D02*
X2486D01*
Y1410D01*
X2234Y1363D02*
X2470D01*
X2234D02*
Y1457D01*
X2470D01*
X2486Y1410D02*
Y1457D01*
X2929Y2201D02*
Y2301D01*
X2529Y2201D02*
X2929D01*
X2529Y2301D02*
X2929D01*
X2529Y2201D02*
Y2301D01*
Y2385D02*
Y2485D01*
X2929D01*
X2529Y2385D02*
X2929D01*
Y2485D01*
D39*
X2787Y1512D02*
Y1642D01*
X2787Y1642D01*
X2897D01*
X2913Y1658D01*
Y1874D01*
X2897Y1890D02*
X2913Y1874D01*
X2787Y1890D02*
X2897D01*
X2787D02*
Y2012D01*
X3283Y1886D02*
Y2012D01*
X3161Y1886D02*
X3283D01*
X3153Y1878D02*
X3161Y1886D01*
X3153Y1646D02*
Y1878D01*
Y1646D02*
X3161Y1638D01*
X3283D01*
Y1512D02*
Y1638D01*
X2787Y2012D02*
X2925D01*
X2787Y1512D02*
X2929D01*
X2925Y2012D02*
X3145D01*
X2925D02*
X2925Y2012D01*
X2929Y1512D02*
X2929Y1512D01*
X3141D01*
X3141Y2012D02*
X3283D01*
X3141Y1512D02*
X3283D01*
X3145Y2012D02*
X3145Y2012D01*
X3141Y1512D02*
X3141Y1512D01*
X2178D02*
Y1642D01*
X2178Y1642D01*
X2288D01*
X2304Y1658D01*
Y1874D01*
X2288Y1890D02*
X2304Y1874D01*
X2178Y1890D02*
X2288D01*
X2178D02*
Y2012D01*
X2674Y1886D02*
Y2012D01*
X2552Y1886D02*
X2674D01*
X2544Y1878D02*
X2552Y1886D01*
X2544Y1646D02*
Y1878D01*
Y1646D02*
X2552Y1638D01*
X2674D01*
Y1512D02*
Y1638D01*
X2178Y2012D02*
X2316D01*
X2178Y1512D02*
X2320D01*
X2316Y2012D02*
X2536D01*
X2316D02*
X2316Y2012D01*
X2320Y1512D02*
X2320Y1512D01*
X2532D01*
X2532Y2012D02*
X2674D01*
X2532Y1512D02*
X2674D01*
X2536Y2012D02*
X2536Y2012D01*
X2532Y1512D02*
X2532Y1512D01*
X3011Y2458D02*
X2998D01*
X2991Y2451D01*
Y2425D01*
X2998Y2418D01*
X3011D01*
X3018Y2425D01*
Y2451D01*
X3011Y2458D01*
X3031Y2445D02*
Y2425D01*
X3038Y2418D01*
X3058D01*
Y2445D01*
X3078Y2451D02*
Y2445D01*
X3071D01*
X3084D01*
X3078D01*
Y2425D01*
X3084Y2418D01*
X3104D02*
X3118D01*
X3111D01*
Y2458D01*
X3104Y2451D01*
X1606Y1124D02*
Y1084D01*
X1666D01*
Y1124D01*
X1636Y1084D02*
Y1104D01*
X1616Y1184D02*
X1606Y1174D01*
Y1154D01*
X1616Y1144D01*
X1626D01*
X1636Y1154D01*
Y1174D01*
X1646Y1184D01*
X1656D01*
X1666Y1174D01*
Y1154D01*
X1656Y1144D01*
X1616Y1244D02*
X1606Y1234D01*
Y1214D01*
X1616Y1204D01*
X1656D01*
X1666Y1214D01*
Y1234D01*
X1656Y1244D01*
X1606Y1304D02*
X1616Y1284D01*
X1636Y1264D01*
X1656D01*
X1666Y1274D01*
Y1294D01*
X1656Y1304D01*
X1646D01*
X1636Y1294D01*
Y1264D01*
X1604Y2033D02*
Y1993D01*
X1664D01*
Y2033D01*
X1634Y1993D02*
Y2013D01*
X1614Y2093D02*
X1604Y2083D01*
Y2063D01*
X1614Y2053D01*
X1624D01*
X1634Y2063D01*
Y2083D01*
X1644Y2093D01*
X1654D01*
X1664Y2083D01*
Y2063D01*
X1654Y2053D01*
X1614Y2153D02*
X1604Y2143D01*
Y2123D01*
X1614Y2113D01*
X1654D01*
X1664Y2123D01*
Y2143D01*
X1654Y2153D01*
X1604Y2213D02*
Y2173D01*
X1634D01*
X1624Y2193D01*
Y2203D01*
X1634Y2213D01*
X1654D01*
X1664Y2203D01*
Y2183D01*
X1654Y2173D01*
X3741Y2029D02*
Y1989D01*
X3801D01*
Y2029D01*
X3771Y1989D02*
Y2009D01*
X3751Y2089D02*
X3741Y2079D01*
Y2059D01*
X3751Y2049D01*
X3761D01*
X3771Y2059D01*
Y2079D01*
X3781Y2089D01*
X3791D01*
X3801Y2079D01*
Y2059D01*
X3791Y2049D01*
X3751Y2149D02*
X3741Y2139D01*
Y2119D01*
X3751Y2109D01*
X3791D01*
X3801Y2119D01*
Y2139D01*
X3791Y2149D01*
X3801Y2199D02*
X3741D01*
X3771Y2169D01*
Y2209D01*
X3741Y1124D02*
Y1084D01*
X3801D01*
Y1124D01*
X3771Y1084D02*
Y1104D01*
X3751Y1184D02*
X3741Y1174D01*
Y1154D01*
X3751Y1144D01*
X3761D01*
X3771Y1154D01*
Y1174D01*
X3781Y1184D01*
X3791D01*
X3801Y1174D01*
Y1154D01*
X3791Y1144D01*
X3751Y1244D02*
X3741Y1234D01*
Y1214D01*
X3751Y1204D01*
X3791D01*
X3801Y1214D01*
Y1234D01*
X3791Y1244D01*
X3751Y1264D02*
X3741Y1274D01*
Y1294D01*
X3751Y1304D01*
X3761D01*
X3771Y1294D01*
Y1284D01*
Y1294D01*
X3781Y1304D01*
X3791D01*
X3801Y1294D01*
Y1274D01*
X3791Y1264D01*
X3209Y598D02*
X3169D01*
Y538D01*
X3209D01*
X3169Y568D02*
X3189D01*
X3269Y588D02*
X3259Y598D01*
X3239D01*
X3229Y588D01*
Y578D01*
X3239Y568D01*
X3259D01*
X3269Y558D01*
Y548D01*
X3259Y538D01*
X3239D01*
X3229Y548D01*
X3329Y588D02*
X3319Y598D01*
X3299D01*
X3289Y588D01*
Y548D01*
X3299Y538D01*
X3319D01*
X3329Y548D01*
X3389Y538D02*
X3349D01*
X3389Y578D01*
Y588D01*
X3379Y598D01*
X3359D01*
X3349Y588D01*
X2098Y598D02*
X2058D01*
Y538D01*
X2098D01*
X2058Y568D02*
X2078D01*
X2158Y588D02*
X2148Y598D01*
X2128D01*
X2118Y588D01*
Y578D01*
X2128Y568D01*
X2148D01*
X2158Y558D01*
Y548D01*
X2148Y538D01*
X2128D01*
X2118Y548D01*
X2218Y588D02*
X2208Y598D01*
X2188D01*
X2178Y588D01*
Y548D01*
X2188Y538D01*
X2208D01*
X2218Y548D01*
X2238Y538D02*
X2258D01*
X2248D01*
Y598D01*
X2238Y588D01*
X2636Y614D02*
Y554D01*
X2666D01*
X2676Y564D01*
Y574D01*
X2666Y584D01*
X2636D01*
X2666D01*
X2676Y594D01*
Y604D01*
X2666Y614D01*
X2636D01*
X2706Y594D02*
X2726D01*
X2736Y584D01*
Y554D01*
X2706D01*
X2696Y564D01*
X2706Y574D01*
X2736D01*
X2766Y604D02*
Y594D01*
X2756D01*
X2776D01*
X2766D01*
Y564D01*
X2776Y554D01*
X2816Y604D02*
Y594D01*
X2806D01*
X2826D01*
X2816D01*
Y564D01*
X2826Y554D01*
X2655Y2784D02*
Y2824D01*
X2675Y2844D01*
X2695Y2824D01*
Y2784D01*
Y2814D01*
X2655D01*
X2715Y2844D02*
Y2794D01*
X2725Y2784D01*
X2745D01*
X2755Y2794D01*
Y2844D01*
X2775D02*
X2815Y2784D01*
Y2844D02*
X2775Y2784D01*
X3004Y2278D02*
X2991D01*
X2984Y2271D01*
Y2245D01*
X2991Y2238D01*
X3004D01*
X3011Y2245D01*
Y2271D01*
X3004Y2278D01*
X3024Y2265D02*
Y2245D01*
X3031Y2238D01*
X3051D01*
Y2265D01*
X3071Y2271D02*
Y2265D01*
X3064D01*
X3078D01*
X3071D01*
Y2245D01*
X3078Y2238D01*
X3124D02*
X3098D01*
X3124Y2265D01*
Y2271D01*
X3118Y2278D01*
X3104D01*
X3098Y2271D01*
X2579Y2519D02*
Y2546D01*
X2566Y2532D02*
X2592D01*
X2599Y2559D02*
Y2572D01*
Y2566D01*
X2559D01*
X2566Y2559D01*
X2599Y2619D02*
Y2592D01*
X2572Y2619D01*
X2566D01*
X2559Y2612D01*
Y2599D01*
X2566Y2592D01*
X2559Y2632D02*
X2586D01*
X2599Y2646D01*
X2586Y2659D01*
X2559D01*
X2666Y2551D02*
X2659Y2544D01*
Y2531D01*
X2666Y2524D01*
X2692D01*
X2699Y2531D01*
Y2544D01*
X2692Y2551D01*
X2679D01*
Y2537D01*
X2699Y2564D02*
X2659D01*
X2699Y2591D01*
X2659D01*
Y2604D02*
X2699D01*
Y2624D01*
X2692Y2631D01*
X2666D01*
X2659Y2624D01*
Y2604D01*
X2866Y2547D02*
X2859Y2540D01*
Y2527D01*
X2866Y2520D01*
X2892D01*
X2899Y2527D01*
Y2540D01*
X2892Y2547D01*
X2879D01*
Y2533D01*
X2899Y2560D02*
X2859D01*
X2899Y2587D01*
X2859D01*
Y2600D02*
X2899D01*
Y2620D01*
X2892Y2627D01*
X2866D01*
X2859Y2620D01*
Y2600D01*
X2779Y2515D02*
Y2542D01*
X2766Y2528D02*
X2792D01*
X2759Y2582D02*
Y2555D01*
X2779D01*
X2772Y2568D01*
Y2575D01*
X2779Y2582D01*
X2792D01*
X2799Y2575D01*
Y2562D01*
X2792Y2555D01*
X2759Y2595D02*
X2786D01*
X2799Y2608D01*
X2786Y2622D01*
X2759D01*
D40*
X1803Y878D02*
Y908D01*
X1818D01*
X1823Y903D01*
Y893D01*
X1818Y888D01*
X1803D01*
X1813D02*
X1823Y878D01*
X1833Y873D02*
X1853D01*
X1863Y908D02*
Y878D01*
X1883D01*
X1913Y908D02*
X1893D01*
Y878D01*
X1913D01*
X1893Y893D02*
X1903D01*
X1923Y908D02*
Y878D01*
X1938D01*
X1943Y883D01*
Y903D01*
X1938Y908D01*
X1923D01*
X2305Y576D02*
Y546D01*
X2325D01*
X2355Y576D02*
X2335D01*
Y546D01*
X2355D01*
X2335Y561D02*
X2345D01*
X2365Y576D02*
Y546D01*
X2380D01*
X2385Y551D01*
Y571D01*
X2380Y576D01*
X2365D01*
X2395Y541D02*
X2415D01*
X2425Y576D02*
Y546D01*
X2440D01*
X2445Y551D01*
Y556D01*
X2440Y561D01*
X2425D01*
X2440D01*
X2445Y566D01*
Y571D01*
X2440Y576D01*
X2425D01*
X2460Y566D02*
X2470D01*
X2475Y561D01*
Y546D01*
X2460D01*
X2455Y551D01*
X2460Y556D01*
X2475D01*
X2490Y571D02*
Y566D01*
X2485D01*
X2495D01*
X2490D01*
Y551D01*
X2495Y546D01*
X2515Y571D02*
Y566D01*
X2510D01*
X2520D01*
X2515D01*
Y551D01*
X2520Y546D01*
X2851Y730D02*
Y700D01*
X2866D01*
X2871Y705D01*
Y710D01*
X2866Y715D01*
X2851D01*
X2866D01*
X2871Y720D01*
Y725D01*
X2866Y730D01*
X2851D01*
X2886Y720D02*
X2896D01*
X2901Y715D01*
Y700D01*
X2886D01*
X2881Y705D01*
X2886Y710D01*
X2901D01*
X2916Y725D02*
Y720D01*
X2911D01*
X2921D01*
X2916D01*
Y705D01*
X2921Y700D01*
X2956Y730D02*
X2936D01*
Y700D01*
X2956D01*
X2936Y715D02*
X2946D01*
X2966Y700D02*
Y720D01*
X2981D01*
X2986Y715D01*
Y700D01*
X3001Y720D02*
X3011D01*
X3016Y715D01*
Y700D01*
X3001D01*
X2996Y705D01*
X3001Y710D01*
X3016D01*
X3026Y730D02*
Y700D01*
X3041D01*
X3046Y705D01*
Y710D01*
Y715D01*
X3041Y720D01*
X3026D01*
X3056Y700D02*
X3066D01*
X3061D01*
Y730D01*
X3056D01*
X3096Y700D02*
X3086D01*
X3081Y705D01*
Y715D01*
X3086Y720D01*
X3096D01*
X3101Y715D01*
Y710D01*
X3081D01*
X2866Y1203D02*
Y1178D01*
X2871Y1173D01*
X2881D01*
X2886Y1178D01*
Y1203D01*
X2916Y1173D02*
X2896D01*
X2916Y1193D01*
Y1198D01*
X2911Y1203D01*
X2901D01*
X2896Y1198D01*
X3291Y883D02*
X3261D01*
Y898D01*
X3266Y903D01*
X3276D01*
X3281Y898D01*
Y883D01*
Y893D02*
X3291Y903D01*
Y918D02*
X3266D01*
X3276D01*
Y913D01*
Y923D01*
Y918D01*
X3266D01*
X3261Y923D01*
Y938D02*
X3291D01*
Y953D01*
X3286Y958D01*
X3281D01*
X3276D01*
X3271Y953D01*
Y938D01*
X3261Y968D02*
X3291D01*
Y983D01*
X3286Y988D01*
X3281D01*
X3276D01*
X3271Y983D01*
Y968D01*
X3296Y998D02*
Y1018D01*
X3261Y1048D02*
Y1028D01*
X3276D01*
X3271Y1038D01*
Y1043D01*
X3276Y1048D01*
X3286D01*
X3291Y1043D01*
Y1033D01*
X3286Y1028D01*
X2997Y1785D02*
Y1755D01*
X3017D01*
X3027D02*
X3037D01*
X3032D01*
Y1785D01*
X3027Y1780D01*
X3052Y1750D02*
X3072D01*
X3102Y1785D02*
X3082D01*
Y1770D01*
X3092Y1775D01*
X3097D01*
X3102Y1770D01*
Y1760D01*
X3097Y1755D01*
X3087D01*
X3082Y1760D01*
X3166Y1425D02*
Y1395D01*
X3181D01*
X3186Y1400D01*
Y1420D01*
X3181Y1425D01*
X3166D01*
X3196Y1395D02*
X3206D01*
X3201D01*
Y1425D01*
X3196Y1420D01*
X3221Y1390D02*
X3241D01*
X3271Y1425D02*
X3251D01*
Y1410D01*
X3261Y1415D01*
X3266D01*
X3271Y1410D01*
Y1400D01*
X3266Y1395D01*
X3256D01*
X3251Y1400D01*
X3059Y927D02*
X3054Y922D01*
Y912D01*
X3059Y907D01*
X3079D01*
X3084Y912D01*
Y922D01*
X3079Y927D01*
X3084Y937D02*
Y952D01*
X3079Y957D01*
X3074Y952D01*
Y942D01*
X3069Y937D01*
X3064Y942D01*
Y957D01*
X3084Y967D02*
Y982D01*
X3079Y987D01*
X3074Y982D01*
Y972D01*
X3069Y967D01*
X3064Y972D01*
Y987D01*
X3089Y997D02*
Y1017D01*
X3054Y1047D02*
Y1027D01*
X3069D01*
X3064Y1037D01*
Y1042D01*
X3069Y1047D01*
X3079D01*
X3084Y1042D01*
Y1032D01*
X3079Y1027D01*
X2840Y1335D02*
X2835Y1340D01*
X2825D01*
X2820Y1335D01*
Y1315D01*
X2825Y1310D01*
X2835D01*
X2840Y1315D01*
X2850Y1340D02*
Y1310D01*
X2865D01*
X2870Y1315D01*
Y1320D01*
Y1325D01*
X2865Y1330D01*
X2850D01*
X2885Y1310D02*
X2895D01*
X2900Y1315D01*
Y1325D01*
X2895Y1330D01*
X2885D01*
X2880Y1325D01*
Y1315D01*
X2885Y1310D01*
X2915D02*
X2925D01*
X2930Y1315D01*
Y1325D01*
X2925Y1330D01*
X2915D01*
X2910Y1325D01*
Y1315D01*
X2915Y1310D01*
X2945Y1335D02*
Y1330D01*
X2940D01*
X2950D01*
X2945D01*
Y1315D01*
X2950Y1310D01*
X2965Y1305D02*
X2985D01*
X3015Y1340D02*
X2995D01*
Y1325D01*
X3005Y1330D01*
X3010D01*
X3015Y1325D01*
Y1315D01*
X3010Y1310D01*
X3000D01*
X2995Y1315D01*
D41*
X2668Y1212D02*
Y1187D01*
X2672Y1182D01*
X2682D01*
X2687Y1187D01*
Y1212D01*
X2697Y1182D02*
X2707D01*
X2702D01*
Y1212D01*
X2697Y1207D01*
X2406Y1771D02*
Y1741D01*
X2426D01*
X2436D02*
X2446D01*
X2441D01*
Y1771D01*
X2436Y1766D01*
X2548Y1424D02*
Y1394D01*
X2563D01*
X2568Y1399D01*
Y1419D01*
X2563Y1424D01*
X2548D01*
X2578Y1394D02*
X2588D01*
X2583D01*
Y1424D01*
X2578Y1419D01*
X2266Y1182D02*
X2261Y1187D01*
X2251D01*
X2246Y1182D01*
Y1162D01*
X2251Y1157D01*
X2261D01*
X2266Y1162D01*
X2276Y1157D02*
X2291D01*
X2296Y1162D01*
X2291Y1167D01*
X2281D01*
X2276Y1172D01*
X2281Y1177D01*
X2296D01*
X2306Y1157D02*
X2321D01*
X2326Y1162D01*
X2321Y1167D01*
X2311D01*
X2306Y1172D01*
X2311Y1177D01*
X2326D01*
X2484Y1339D02*
X2479Y1344D01*
X2469D01*
X2464Y1339D01*
Y1319D01*
X2469Y1314D01*
X2479D01*
X2484Y1319D01*
X2494Y1344D02*
Y1314D01*
X2509D01*
X2514Y1319D01*
Y1324D01*
Y1329D01*
X2509Y1334D01*
X2494D01*
X2529Y1314D02*
X2539D01*
X2544Y1319D01*
Y1329D01*
X2539Y1334D01*
X2529D01*
X2524Y1329D01*
Y1319D01*
X2529Y1314D01*
X2559D02*
X2569D01*
X2574Y1319D01*
Y1329D01*
X2569Y1334D01*
X2559D01*
X2554Y1329D01*
Y1319D01*
X2559Y1314D01*
X2589Y1339D02*
Y1334D01*
X2584D01*
X2594D01*
X2589D01*
Y1319D01*
X2594Y1314D01*
D42*
X1925Y834D02*
Y794D01*
X1945Y774D01*
X1965Y794D01*
Y834D01*
X1985D02*
Y774D01*
X2015D01*
X2025Y784D01*
Y794D01*
X2015Y804D01*
X1985D01*
X2015D01*
X2025Y814D01*
Y824D01*
X2015Y834D01*
X1985D01*
X2055Y814D02*
X2075D01*
X2085Y804D01*
Y774D01*
X2055D01*
X2045Y784D01*
X2055Y794D01*
X2085D01*
X2115Y824D02*
Y814D01*
X2105D01*
X2125D01*
X2115D01*
Y784D01*
X2125Y774D01*
X2165Y824D02*
Y814D01*
X2155D01*
X2175D01*
X2165D01*
Y784D01*
X2175Y774D01*
X2205Y814D02*
X2215D01*
Y804D01*
X2205D01*
Y814D01*
Y784D02*
X2215D01*
Y774D01*
X2205D01*
Y784D01*
X2315Y774D02*
X2335D01*
X2325D01*
Y834D01*
X2315Y824D01*
X2405Y834D02*
X2385Y824D01*
X2365Y804D01*
Y784D01*
X2375Y774D01*
X2395D01*
X2405Y784D01*
Y794D01*
X2395Y804D01*
X2365D01*
X2425Y834D02*
Y794D01*
X2445Y774D01*
X2465Y794D01*
Y834D01*
X2545Y804D02*
X2585D01*
X2705Y774D02*
X2665D01*
X2705Y814D01*
Y824D01*
X2695Y834D01*
X2675D01*
X2665Y824D01*
X2765Y834D02*
X2745Y824D01*
X2725Y804D01*
Y784D01*
X2735Y774D01*
X2755D01*
X2765Y784D01*
Y794D01*
X2755Y804D01*
X2725D01*
X2785Y834D02*
Y794D01*
X2805Y774D01*
X2825Y794D01*
Y834D01*
X1925Y742D02*
X1945D01*
X1935D01*
Y682D01*
X1925D01*
X1945D01*
X1975D02*
Y722D01*
X1985D01*
X1995Y712D01*
Y682D01*
Y712D01*
X2005Y722D01*
X2015Y712D01*
Y682D01*
X2045Y722D02*
X2065D01*
X2075Y712D01*
Y682D01*
X2045D01*
X2035Y692D01*
X2045Y702D01*
X2075D01*
X2095Y722D02*
X2135Y682D01*
X2115Y702D01*
X2135Y722D01*
X2095Y682D01*
X2155Y722D02*
X2165D01*
Y712D01*
X2155D01*
Y722D01*
Y692D02*
X2165D01*
Y682D01*
X2155D01*
Y692D01*
X2265Y682D02*
X2285D01*
X2275D01*
Y742D01*
X2265Y732D01*
X2315D02*
X2325Y742D01*
X2345D01*
X2355Y732D01*
Y692D01*
X2345Y682D01*
X2325D01*
X2315Y692D01*
Y732D01*
X2375D02*
X2385Y742D01*
X2405D01*
X2415Y732D01*
Y692D01*
X2405Y682D01*
X2385D01*
X2375Y692D01*
Y732D01*
X2435Y682D02*
Y722D01*
X2455Y742D01*
X2475Y722D01*
Y682D01*
Y712D01*
X2435D01*
M02*
