G04 Layer_Physical_Order=1*
G04 Layer_Color=255*
%FSLAX23Y23*%
%MOIN*%
G70*
G01*
G75*
%ADD10R,0.031X0.035*%
%ADD11R,0.071X0.067*%
%ADD12R,0.138X0.213*%
%ADD13O,0.087X0.024*%
%ADD14R,0.035X0.031*%
%ADD15R,0.059X0.055*%
%ADD16R,0.039X0.051*%
%ADD17C,0.030*%
%ADD18C,0.080*%
%ADD19C,0.020*%
%ADD20C,0.028*%
%ADD21C,0.020*%
%ADD22C,0.065*%
%ADD23R,0.065X0.065*%
%ADD24C,0.079*%
%ADD25R,0.065X0.118*%
%ADD26R,0.276X0.276*%
%ADD27R,0.197X0.197*%
%ADD28R,0.197X0.197*%
%ADD29C,0.050*%
%ADD30C,0.020*%
G36*
X3388Y2582D02*
X3388Y871D01*
X2861Y870D01*
X2860Y874D01*
X2955Y970D01*
X2963Y981D01*
X2969Y993D01*
X2970Y1007D01*
X2969Y1021D01*
X2963Y1033D01*
X2955Y1044D01*
X2944Y1052D01*
X2932Y1058D01*
X2918Y1059D01*
X2904Y1058D01*
X2892Y1052D01*
X2881Y1044D01*
X2876Y1039D01*
X2868Y1038D01*
X2859Y1034D01*
X2852Y1028D01*
X2846Y1021D01*
X2842Y1012D01*
X2841Y1004D01*
X2782Y945D01*
X2448D01*
X2422Y971D01*
X2411Y979D01*
X2399Y985D01*
X2385Y986D01*
X2251D01*
X2235Y1002D01*
Y1191D01*
X2275Y1231D01*
X2283Y1232D01*
X2292Y1236D01*
X2299Y1242D01*
X2305Y1249D01*
X2309Y1258D01*
X2310Y1268D01*
X2309Y1278D01*
X2305Y1287D01*
X2299Y1294D01*
X2292Y1300D01*
X2283Y1304D01*
X2278Y1305D01*
X2277Y1307D01*
X2266Y1315D01*
X2253Y1320D01*
X2240Y1322D01*
X2226Y1320D01*
X2213Y1315D01*
X2202Y1307D01*
X2146Y1250D01*
X2138Y1239D01*
X2132Y1227D01*
X2131Y1213D01*
Y980D01*
X2132Y967D01*
X2138Y954D01*
X2146Y943D01*
X2192Y897D01*
X2203Y889D01*
X2216Y883D01*
X2229Y882D01*
X2363D01*
X2371Y874D01*
X2369Y869D01*
X2070Y869D01*
X2066Y872D01*
X2066Y2584D01*
X3386D01*
X3388Y2582D01*
D02*
G37*
G36*
X4097Y2381D02*
X3888D01*
Y2161D01*
X4097D01*
Y1476D01*
X3888D01*
Y1255D01*
X4097D01*
Y308D01*
X3820D01*
Y517D01*
X3599D01*
Y308D01*
X3103D01*
Y596D01*
X2842D01*
X2749Y688D01*
X2743Y693D01*
X2737Y695D01*
X2730Y696D01*
X2313D01*
Y707D01*
X2246D01*
Y785D01*
X2281D01*
X2301Y765D01*
X2307Y760D01*
X2313Y758D01*
X2320Y757D01*
X2637D01*
X2640Y752D01*
X2650Y745D01*
X2660Y741D01*
X2672Y739D01*
X2684Y741D01*
X2694Y745D01*
X2704Y752D01*
X2711Y762D01*
X2715Y772D01*
X2717Y784D01*
X2715Y796D01*
X2711Y806D01*
X2704Y816D01*
X2694Y823D01*
X2684Y827D01*
X2672Y829D01*
X2660Y827D01*
X2650Y823D01*
X2640Y816D01*
X2637Y811D01*
X2332D01*
X2313Y830D01*
Y857D01*
X2369Y857D01*
X2372Y857D01*
X2374Y858D01*
X2374Y858D01*
X2374Y858D01*
X2376Y859D01*
X2378Y860D01*
X2378Y860D01*
X2378Y860D01*
X2379Y862D01*
X2381Y864D01*
X2383Y869D01*
X2383Y869D01*
X2383Y869D01*
X2383Y869D01*
X2383Y871D01*
X2383Y874D01*
X2383Y874D01*
X2383Y874D01*
X2383Y876D01*
X2383Y878D01*
X2382Y878D01*
X2382Y878D01*
X2381Y880D01*
X2380Y882D01*
X2372Y890D01*
X2368Y893D01*
X2363Y894D01*
X2230D01*
X2219Y895D01*
X2209Y899D01*
X2200Y906D01*
X2155Y951D01*
X2148Y960D01*
X2144Y970D01*
X2143Y981D01*
Y1212D01*
X2144Y1223D01*
X2148Y1233D01*
X2155Y1242D01*
X2210Y1297D01*
X2219Y1304D01*
X2229Y1308D01*
X2240Y1310D01*
X2250Y1308D01*
X2260Y1304D01*
X2268Y1298D01*
X2268Y1297D01*
X2272Y1294D01*
X2276Y1293D01*
X2279Y1292D01*
X2285Y1290D01*
X2291Y1286D01*
X2295Y1280D01*
X2297Y1274D01*
X2298Y1268D01*
X2297Y1262D01*
X2295Y1256D01*
X2291Y1250D01*
X2285Y1246D01*
X2279Y1244D01*
X2274Y1243D01*
X2272Y1243D01*
X2270Y1242D01*
X2270Y1242D01*
X2269Y1242D01*
X2268Y1241D01*
X2266Y1240D01*
X2227Y1200D01*
X2224Y1196D01*
X2223Y1191D01*
Y1002D01*
X2224Y997D01*
X2227Y993D01*
X2242Y978D01*
X2246Y975D01*
X2251Y974D01*
X2384D01*
X2395Y973D01*
X2405Y969D01*
X2414Y962D01*
X2439Y937D01*
X2443Y934D01*
X2448Y933D01*
X2782D01*
X2787Y934D01*
X2791Y937D01*
X2850Y995D01*
X2851Y997D01*
X2852Y998D01*
X2852Y999D01*
X2852Y999D01*
X2853Y1001D01*
X2853Y1003D01*
X2854Y1008D01*
X2856Y1014D01*
X2860Y1020D01*
X2866Y1024D01*
X2872Y1026D01*
X2877Y1027D01*
X2879Y1027D01*
X2881Y1028D01*
X2881Y1028D01*
X2882Y1028D01*
X2883Y1029D01*
X2885Y1030D01*
X2889Y1035D01*
X2898Y1042D01*
X2908Y1046D01*
X2918Y1047D01*
X2928Y1046D01*
X2938Y1042D01*
X2946Y1035D01*
X2953Y1027D01*
X2957Y1017D01*
X2958Y1007D01*
X2957Y997D01*
X2953Y987D01*
X2946Y978D01*
X2851Y883D01*
X2851Y883D01*
X2851Y883D01*
X2850Y881D01*
X2848Y879D01*
X2848Y879D01*
X2848Y879D01*
X2848Y877D01*
X2847Y874D01*
X2847Y874D01*
X2847Y874D01*
X2848Y872D01*
X2848Y870D01*
X2848Y870D01*
X2848Y870D01*
X2850Y865D01*
X2850Y865D01*
X2850Y865D01*
X2852Y863D01*
X2853Y861D01*
X2853Y861D01*
X2853Y861D01*
X2855Y860D01*
X2857Y858D01*
X2857Y858D01*
X2857Y858D01*
X2859Y858D01*
X2861Y858D01*
X2861Y858D01*
X2861Y858D01*
X3388Y858D01*
X3390Y859D01*
X3393Y859D01*
X3393Y859D01*
X3393Y859D01*
X3395Y861D01*
X3397Y862D01*
X3397Y862D01*
X3397Y862D01*
X3398Y864D01*
X3399Y866D01*
X3399Y866D01*
X3399Y866D01*
X3400Y868D01*
X3400Y871D01*
X3400Y2582D01*
X3399Y2587D01*
X3397Y2591D01*
X3395Y2593D01*
X3391Y2595D01*
X3386Y2596D01*
X2066D01*
X2061Y2595D01*
X2057Y2593D01*
X2055Y2589D01*
X2054Y2584D01*
X2054Y872D01*
X2054Y872D01*
X2054Y872D01*
X2054Y870D01*
X2055Y867D01*
X2055Y867D01*
X2055Y867D01*
X2056Y865D01*
X2057Y863D01*
X2057Y863D01*
X2057Y863D01*
X2061Y860D01*
X2061Y860D01*
X2061Y860D01*
X2063Y859D01*
X2065Y857D01*
X2065Y857D01*
X2065Y857D01*
X2067Y857D01*
X2070Y856D01*
X2070Y856D01*
X2070Y856D01*
X2183Y856D01*
X2187Y853D01*
Y785D01*
X2191D01*
Y707D01*
X2187D01*
Y631D01*
X2313D01*
Y642D01*
X2719D01*
X2803Y557D01*
Y308D01*
X2171D01*
Y517D01*
X1950D01*
Y308D01*
X1367D01*
Y944D01*
X1578D01*
Y1165D01*
X1367D01*
Y1850D01*
X1576D01*
Y2070D01*
X1367D01*
Y3042D01*
X2464D01*
Y2834D01*
X2685D01*
Y3042D01*
X4097D01*
Y2381D01*
D02*
G37*
%LPC*%
G36*
X3319Y1882D02*
X3157D01*
Y1646D01*
X3185D01*
Y1610D01*
X3027Y1451D01*
X3008D01*
Y1427D01*
X3005Y1420D01*
X3003Y1406D01*
X3005Y1392D01*
X3008Y1385D01*
Y1361D01*
X3022D01*
X3023Y1356D01*
X3023Y1356D01*
X3023Y1356D01*
Y1341D01*
X2974Y1292D01*
X2957D01*
X2948Y1290D01*
X2940Y1285D01*
X2935Y1277D01*
X2933Y1268D01*
X2935Y1259D01*
X2940Y1251D01*
X2948Y1246D01*
X2948Y1246D01*
Y1240D01*
X2948Y1240D01*
X2940Y1235D01*
X2935Y1227D01*
X2933Y1218D01*
X2935Y1209D01*
X2940Y1201D01*
X2948Y1196D01*
X2948Y1196D01*
Y1190D01*
X2948Y1190D01*
X2940Y1185D01*
X2935Y1177D01*
X2933Y1168D01*
X2935Y1159D01*
X2940Y1151D01*
X2948Y1146D01*
X2948Y1146D01*
Y1140D01*
X2948Y1140D01*
X2940Y1135D01*
X2935Y1127D01*
X2933Y1118D01*
X2935Y1109D01*
X2940Y1101D01*
X2948Y1096D01*
X2957Y1094D01*
X2961D01*
Y1056D01*
X2962Y1049D01*
X2965Y1042D01*
X2969Y1037D01*
X2983Y1023D01*
Y1004D01*
X3043D01*
Y1059D01*
X3024D01*
X3016Y1067D01*
Y1094D01*
X3020D01*
X3029Y1096D01*
X3037Y1101D01*
X3042Y1109D01*
X3044Y1118D01*
X3042Y1127D01*
X3037Y1135D01*
X3029Y1140D01*
X3029Y1140D01*
Y1146D01*
X3029Y1146D01*
X3037Y1151D01*
X3042Y1159D01*
X3044Y1168D01*
X3042Y1177D01*
X3037Y1185D01*
X3029Y1190D01*
X3029Y1190D01*
Y1196D01*
X3029Y1196D01*
X3037Y1201D01*
X3042Y1209D01*
X3044Y1218D01*
X3042Y1227D01*
X3037Y1235D01*
X3029Y1240D01*
X3029Y1240D01*
Y1246D01*
X3029Y1246D01*
X3037Y1251D01*
X3042Y1259D01*
X3044Y1268D01*
X3042Y1277D01*
X3040Y1281D01*
X3055Y1296D01*
X3133D01*
Y1299D01*
X3164D01*
X3166Y1294D01*
X3165Y1292D01*
X3146D01*
X3137Y1290D01*
X3129Y1285D01*
X3124Y1277D01*
X3122Y1268D01*
X3124Y1259D01*
X3129Y1251D01*
X3137Y1246D01*
X3146Y1244D01*
X3166D01*
X3170Y1242D01*
X3177Y1241D01*
X3261D01*
X3268Y1242D01*
X3275Y1244D01*
X3280Y1249D01*
X3285Y1254D01*
X3287Y1261D01*
X3288Y1268D01*
Y1295D01*
X3298Y1303D01*
X3306Y1314D01*
X3312Y1326D01*
X3313Y1340D01*
X3312Y1354D01*
X3306Y1366D01*
X3298Y1377D01*
X3232Y1443D01*
X3221Y1451D01*
X3209Y1457D01*
X3195Y1458D01*
X3189D01*
X3187Y1463D01*
X3275Y1551D01*
X3283Y1562D01*
X3288Y1575D01*
X3290Y1588D01*
Y1646D01*
X3319D01*
Y1882D01*
D02*
G37*
G36*
X3984Y522D02*
X3964Y520D01*
X3945Y514D01*
X3928Y505D01*
X3913Y492D01*
X3900Y477D01*
X3891Y460D01*
X3885Y441D01*
X3883Y421D01*
X3885Y401D01*
X3891Y382D01*
X3900Y365D01*
X3913Y350D01*
X3928Y337D01*
X3945Y328D01*
X3964Y322D01*
X3984Y320D01*
X4004Y322D01*
X4023Y328D01*
X4040Y337D01*
X4055Y350D01*
X4068Y365D01*
X4077Y382D01*
X4083Y401D01*
X4085Y421D01*
X4083Y441D01*
X4077Y460D01*
X4068Y477D01*
X4055Y492D01*
X4040Y505D01*
X4023Y514D01*
X4004Y520D01*
X3984Y522D01*
D02*
G37*
G36*
X3264Y1202D02*
X3254Y1201D01*
X3245Y1197D01*
X3243Y1195D01*
X3177D01*
X3170Y1194D01*
X3166Y1192D01*
X3146D01*
X3137Y1190D01*
X3129Y1185D01*
X3124Y1177D01*
X3122Y1168D01*
X3124Y1159D01*
X3129Y1151D01*
X3137Y1146D01*
X3137Y1146D01*
Y1140D01*
X3137Y1140D01*
X3129Y1135D01*
X3124Y1127D01*
X3122Y1118D01*
X3124Y1109D01*
X3129Y1101D01*
X3137Y1096D01*
X3146Y1094D01*
X3173D01*
Y1039D01*
X3158D01*
Y960D01*
X3242D01*
Y1002D01*
X3291Y1052D01*
X3296Y1058D01*
X3297Y1062D01*
X3298Y1063D01*
X3304Y1070D01*
X3308Y1079D01*
X3309Y1089D01*
X3308Y1099D01*
X3304Y1108D01*
X3298Y1115D01*
X3291Y1121D01*
X3282Y1125D01*
X3278Y1125D01*
X3278Y1131D01*
X3283Y1133D01*
X3290Y1139D01*
X3296Y1146D01*
X3300Y1155D01*
X3301Y1165D01*
X3300Y1175D01*
X3296Y1184D01*
X3290Y1191D01*
X3283Y1197D01*
X3274Y1201D01*
X3264Y1202D01*
D02*
G37*
G36*
X2710Y1882D02*
X2548D01*
Y1646D01*
X2576D01*
Y1624D01*
X2408Y1455D01*
X2389D01*
Y1431D01*
X2386Y1424D01*
X2384Y1410D01*
X2386Y1396D01*
X2389Y1389D01*
Y1365D01*
X2389D01*
X2392Y1360D01*
X2392Y1358D01*
X2338D01*
Y1298D01*
X2341D01*
X2342Y1297D01*
X2346Y1291D01*
X2357Y1281D01*
X2354Y1277D01*
X2352Y1268D01*
X2354Y1259D01*
X2359Y1251D01*
X2367Y1246D01*
X2367Y1246D01*
Y1240D01*
X2367Y1240D01*
X2359Y1235D01*
X2354Y1227D01*
X2352Y1218D01*
X2354Y1209D01*
X2359Y1201D01*
X2367Y1196D01*
X2367Y1196D01*
Y1190D01*
X2367Y1190D01*
X2359Y1185D01*
X2354Y1177D01*
X2352Y1168D01*
X2354Y1159D01*
X2359Y1151D01*
X2360Y1150D01*
X2359Y1145D01*
X2348D01*
Y1148D01*
X2293D01*
Y1088D01*
X2348D01*
Y1091D01*
X2408D01*
X2415Y1092D01*
X2420Y1094D01*
X2440D01*
X2449Y1096D01*
X2457Y1101D01*
X2462Y1109D01*
X2464Y1118D01*
X2462Y1127D01*
X2457Y1135D01*
X2449Y1140D01*
X2449Y1140D01*
Y1146D01*
X2449Y1146D01*
X2457Y1151D01*
X2462Y1159D01*
X2464Y1168D01*
X2462Y1177D01*
X2457Y1185D01*
X2449Y1190D01*
X2449Y1190D01*
Y1196D01*
X2449Y1196D01*
X2457Y1201D01*
X2462Y1209D01*
X2464Y1218D01*
X2462Y1227D01*
X2457Y1235D01*
X2449Y1240D01*
X2449Y1240D01*
Y1246D01*
X2449Y1246D01*
X2457Y1251D01*
X2462Y1259D01*
X2464Y1268D01*
X2462Y1277D01*
X2457Y1285D01*
X2456Y1285D01*
X2457Y1288D01*
X2458Y1290D01*
X2458Y1291D01*
X2459D01*
X2473Y1292D01*
X2485Y1298D01*
X2496Y1306D01*
X2554Y1364D01*
X2562Y1375D01*
X2566Y1383D01*
X2599D01*
X2637Y1345D01*
Y1312D01*
X2620Y1295D01*
X2597D01*
X2590Y1294D01*
X2585Y1292D01*
X2565D01*
X2556Y1290D01*
X2548Y1285D01*
X2543Y1277D01*
X2541Y1268D01*
X2543Y1259D01*
X2548Y1251D01*
X2556Y1246D01*
X2565Y1244D01*
X2585D01*
X2590Y1242D01*
X2597Y1241D01*
X2631D01*
X2638Y1242D01*
X2645Y1244D01*
X2650Y1249D01*
X2681Y1279D01*
X2686Y1277D01*
Y1259D01*
X2622Y1195D01*
X2597D01*
X2590Y1194D01*
X2585Y1192D01*
X2565D01*
X2556Y1190D01*
X2548Y1185D01*
X2543Y1177D01*
X2541Y1168D01*
X2543Y1159D01*
X2548Y1151D01*
X2556Y1146D01*
X2556Y1146D01*
Y1140D01*
X2556Y1140D01*
X2548Y1135D01*
X2543Y1127D01*
X2541Y1118D01*
X2543Y1109D01*
X2548Y1101D01*
X2556Y1096D01*
X2565Y1094D01*
X2628D01*
X2638Y1096D01*
X2651D01*
X2654Y1092D01*
X2661Y1086D01*
X2670Y1082D01*
X2680Y1081D01*
X2690Y1082D01*
X2699Y1086D01*
X2706Y1092D01*
X2712Y1099D01*
X2716Y1108D01*
X2717Y1118D01*
X2716Y1128D01*
X2712Y1137D01*
X2706Y1144D01*
X2699Y1150D01*
X2690Y1154D01*
X2680Y1155D01*
X2670Y1154D01*
X2661Y1150D01*
X2661Y1150D01*
X2658Y1154D01*
X2732Y1228D01*
X2737Y1234D01*
X2739Y1241D01*
X2740Y1248D01*
Y1385D01*
X2739Y1392D01*
X2737Y1399D01*
X2732Y1404D01*
X2712Y1424D01*
X2711Y1433D01*
X2707Y1442D01*
X2701Y1449D01*
X2694Y1455D01*
X2685Y1459D01*
X2675Y1460D01*
X2665Y1459D01*
X2656Y1455D01*
X2649Y1449D01*
X2643Y1442D01*
X2639Y1433D01*
X2638Y1427D01*
X2633Y1426D01*
X2629Y1429D01*
X2624Y1434D01*
X2617Y1436D01*
X2610Y1437D01*
X2555D01*
X2554Y1438D01*
X2549Y1443D01*
Y1448D01*
X2666Y1565D01*
X2674Y1576D01*
X2679Y1588D01*
X2681Y1602D01*
Y1646D01*
X2710D01*
Y1882D01*
D02*
G37*
G36*
X3984Y3026D02*
X3964Y3024D01*
X3945Y3018D01*
X3928Y3009D01*
X3913Y2996D01*
X3900Y2981D01*
X3891Y2964D01*
X3885Y2945D01*
X3883Y2925D01*
X3885Y2905D01*
X3891Y2886D01*
X3900Y2869D01*
X3913Y2854D01*
X3928Y2841D01*
X3945Y2832D01*
X3964Y2826D01*
X3984Y2824D01*
X4004Y2826D01*
X4023Y2832D01*
X4040Y2841D01*
X4055Y2854D01*
X4068Y2869D01*
X4077Y2886D01*
X4083Y2905D01*
X4085Y2925D01*
X4083Y2945D01*
X4077Y2964D01*
X4068Y2981D01*
X4055Y2996D01*
X4040Y3009D01*
X4023Y3018D01*
X4004Y3024D01*
X3984Y3026D01*
D02*
G37*
G36*
X1474Y3027D02*
X1454Y3025D01*
X1435Y3019D01*
X1418Y3010D01*
X1403Y2997D01*
X1390Y2982D01*
X1381Y2965D01*
X1375Y2946D01*
X1373Y2926D01*
X1375Y2906D01*
X1381Y2887D01*
X1390Y2870D01*
X1403Y2855D01*
X1418Y2842D01*
X1435Y2833D01*
X1454Y2827D01*
X1474Y2825D01*
X1494Y2827D01*
X1513Y2833D01*
X1530Y2842D01*
X1545Y2855D01*
X1558Y2870D01*
X1567Y2887D01*
X1573Y2906D01*
X1575Y2926D01*
X1573Y2946D01*
X1567Y2965D01*
X1558Y2982D01*
X1545Y2997D01*
X1530Y3010D01*
X1513Y3019D01*
X1494Y3025D01*
X1474Y3027D01*
D02*
G37*
G36*
X2579Y2416D02*
X2565Y2415D01*
X2553Y2409D01*
X2542Y2401D01*
X2538Y2395D01*
X2534D01*
Y2391D01*
X2534Y2390D01*
X2528Y2378D01*
X2527Y2364D01*
Y2280D01*
X2522Y2277D01*
X2493Y2296D01*
X2492Y2296D01*
X2491Y2296D01*
X2486Y2299D01*
X2480Y2301D01*
X2479Y2301D01*
X2479Y2302D01*
X2473Y2302D01*
X2467Y2303D01*
X2466Y2303D01*
X2465Y2303D01*
X2459Y2303D01*
X2453Y2302D01*
X2452Y2302D01*
X2451Y2302D01*
X2446Y2299D01*
X2440Y2297D01*
X2440Y2297D01*
X2439Y2296D01*
X2434Y2293D01*
X2429Y2289D01*
X2429Y2289D01*
X2428Y2288D01*
X2182Y2042D01*
X2174Y2032D01*
X2169Y2019D01*
X2167Y2005D01*
Y1882D01*
X2138D01*
Y1646D01*
X2300D01*
Y1882D01*
X2272D01*
Y1984D01*
X2473Y2184D01*
X2551Y2135D01*
X2552Y2135D01*
X2553Y2135D01*
X2558Y2132D01*
X2564Y2130D01*
X2565Y2130D01*
X2565Y2129D01*
X2571Y2129D01*
X2577Y2128D01*
X2578Y2128D01*
X2579Y2128D01*
X2585Y2128D01*
X2591Y2129D01*
X2592Y2129D01*
X2593Y2129D01*
X2598Y2132D01*
X2604Y2134D01*
X2604Y2134D01*
X2605Y2135D01*
X2610Y2138D01*
X2615Y2142D01*
X2615Y2142D01*
X2616Y2143D01*
X2620Y2148D01*
X2624Y2152D01*
X2624Y2153D01*
X2624Y2154D01*
X2627Y2159D01*
X2629Y2165D01*
X2629Y2166D01*
X2630Y2166D01*
X2630Y2172D01*
X2631Y2178D01*
X2631Y2179D01*
X2631Y2180D01*
Y2364D01*
X2630Y2378D01*
X2624Y2390D01*
X2624Y2391D01*
Y2395D01*
X2620D01*
X2616Y2401D01*
X2605Y2409D01*
X2593Y2415D01*
X2579Y2416D01*
D02*
G37*
G36*
X1475Y522D02*
X1455Y520D01*
X1436Y514D01*
X1419Y505D01*
X1404Y492D01*
X1391Y477D01*
X1382Y460D01*
X1376Y441D01*
X1374Y421D01*
X1376Y401D01*
X1382Y382D01*
X1391Y365D01*
X1404Y350D01*
X1419Y337D01*
X1436Y328D01*
X1455Y322D01*
X1475Y320D01*
X1495Y322D01*
X1514Y328D01*
X1531Y337D01*
X1546Y350D01*
X1559Y365D01*
X1568Y382D01*
X1574Y401D01*
X1576Y421D01*
X1574Y441D01*
X1568Y460D01*
X1559Y477D01*
X1546Y492D01*
X1531Y505D01*
X1514Y514D01*
X1495Y520D01*
X1475Y522D01*
D02*
G37*
G36*
X2779Y2418D02*
X2765Y2417D01*
X2753Y2411D01*
X2742Y2403D01*
X2736Y2395D01*
X2734D01*
Y2393D01*
X2734Y2392D01*
X2728Y2380D01*
X2727Y2366D01*
Y2251D01*
Y2093D01*
X2728Y2079D01*
X2734Y2067D01*
X2742Y2056D01*
X2776Y2022D01*
Y1882D01*
X2747D01*
Y1646D01*
X2909D01*
Y1882D01*
X2881D01*
Y2044D01*
X2879Y2057D01*
X2874Y2070D01*
X2865Y2081D01*
X2831Y2115D01*
Y2251D01*
Y2366D01*
X2830Y2380D01*
X2824Y2392D01*
X2823Y2393D01*
Y2395D01*
X2822D01*
X2816Y2403D01*
X2805Y2411D01*
X2793Y2417D01*
X2779Y2418D01*
D02*
G37*
%LPD*%
G36*
X3017Y1240D02*
X3017Y1239D01*
Y1238D01*
X3018Y1237D01*
X3018Y1236D01*
X3019Y1235D01*
X3019Y1234D01*
X3020Y1233D01*
X3021Y1232D01*
X3022Y1231D01*
X3022Y1230D01*
X3023Y1230D01*
X3028Y1226D01*
X3031Y1223D01*
X3032Y1218D01*
X3031Y1213D01*
X3028Y1210D01*
X3023Y1206D01*
X3022Y1206D01*
X3022Y1205D01*
X3021Y1204D01*
X3020Y1203D01*
X3019Y1202D01*
X3019Y1201D01*
X3018Y1200D01*
X3018Y1199D01*
X3017Y1198D01*
Y1197D01*
X3017Y1196D01*
Y1192D01*
X2960D01*
Y1196D01*
X2960Y1197D01*
Y1198D01*
X2959Y1199D01*
X2959Y1200D01*
X2958Y1201D01*
X2958Y1202D01*
X2957Y1203D01*
X2956Y1204D01*
X2955Y1205D01*
X2955Y1206D01*
X2954Y1206D01*
X2949Y1210D01*
X2946Y1213D01*
X2945Y1218D01*
X2946Y1223D01*
X2949Y1226D01*
X2954Y1230D01*
X2955Y1230D01*
X2955Y1231D01*
X2956Y1232D01*
X2957Y1233D01*
X2958Y1234D01*
X2958Y1235D01*
X2959Y1236D01*
X2959Y1237D01*
X2960Y1238D01*
Y1239D01*
X2960Y1240D01*
Y1244D01*
X2977D01*
X2981Y1242D01*
X2989Y1241D01*
X2996Y1242D01*
X3000Y1244D01*
X3017D01*
Y1240D01*
D02*
G37*
G36*
X2436D02*
X2437Y1239D01*
Y1238D01*
X2437Y1237D01*
X2437Y1236D01*
X2438Y1235D01*
X2439Y1234D01*
X2439Y1233D01*
X2440Y1232D01*
X2441Y1231D01*
X2442Y1230D01*
X2442Y1230D01*
X2448Y1226D01*
X2450Y1223D01*
X2451Y1218D01*
X2450Y1213D01*
X2448Y1210D01*
X2442Y1206D01*
X2442Y1206D01*
X2441Y1205D01*
X2440Y1204D01*
X2439Y1203D01*
X2439Y1202D01*
X2438Y1201D01*
X2437Y1200D01*
X2437Y1199D01*
X2437Y1198D01*
Y1197D01*
X2436Y1196D01*
Y1192D01*
X2380D01*
Y1196D01*
X2379Y1197D01*
Y1198D01*
X2379Y1199D01*
X2379Y1200D01*
X2378Y1201D01*
X2378Y1202D01*
X2377Y1203D01*
X2376Y1204D01*
X2375Y1205D01*
X2374Y1206D01*
X2374Y1206D01*
X2368Y1210D01*
X2366Y1213D01*
X2365Y1218D01*
X2366Y1223D01*
X2368Y1226D01*
X2374Y1230D01*
X2374Y1230D01*
X2375Y1231D01*
X2376Y1232D01*
X2377Y1233D01*
X2378Y1234D01*
X2378Y1235D01*
X2379Y1236D01*
X2379Y1237D01*
X2379Y1238D01*
Y1239D01*
X2380Y1240D01*
Y1244D01*
X2396D01*
X2401Y1242D01*
X2408Y1241D01*
X2415Y1242D01*
X2420Y1244D01*
X2436D01*
Y1240D01*
D02*
G37*
D10*
X2421Y1328D02*
D03*
X2365D02*
D03*
X2265Y1118D02*
D03*
X2321D02*
D03*
X3106Y1326D02*
D03*
X3050D02*
D03*
D11*
X2437Y1410D02*
D03*
X2282D02*
D03*
X2901Y1406D02*
D03*
X3055D02*
D03*
D12*
X2629Y1764D02*
D03*
X2219D02*
D03*
X3238D02*
D03*
X2828D02*
D03*
D13*
X2408Y1268D02*
D03*
Y1218D02*
D03*
Y1168D02*
D03*
Y1118D02*
D03*
X2597Y1268D02*
D03*
Y1218D02*
D03*
Y1168D02*
D03*
Y1118D02*
D03*
X2989Y1268D02*
D03*
Y1218D02*
D03*
Y1168D02*
D03*
Y1118D02*
D03*
X3177Y1268D02*
D03*
Y1218D02*
D03*
Y1168D02*
D03*
Y1118D02*
D03*
D14*
X3013Y976D02*
D03*
Y1032D02*
D03*
D15*
X3200Y921D02*
D03*
Y999D02*
D03*
D16*
X2281Y669D02*
D03*
X2219D02*
D03*
X2281Y823D02*
D03*
X2219D02*
D03*
D17*
Y669D02*
Y823D01*
X2281D02*
X2320Y784D01*
X2672D01*
X3261Y1268D02*
Y1340D01*
X2713Y1248D02*
Y1385D01*
X2633Y1168D02*
X2713Y1248D01*
X2597Y1168D02*
X2633D01*
X2675Y1423D02*
X2713Y1385D01*
X3109Y1218D02*
X3177D01*
X3219D01*
X3177Y1168D02*
X3256D01*
X2508Y1410D02*
X2610D01*
X2437D02*
X2508D01*
X2610D02*
X2664Y1356D01*
Y1301D02*
Y1356D01*
X2631Y1268D02*
X2664Y1301D01*
X2597Y1268D02*
X2631D01*
X3272Y1071D02*
Y1079D01*
X3200Y999D02*
X3272Y1071D01*
X3200Y999D02*
Y1116D01*
X2503Y1089D02*
Y1195D01*
X2526Y1218D02*
X2597D01*
X2503Y1195D02*
Y1213D01*
X2365Y1311D02*
Y1328D01*
Y1311D02*
X2408Y1268D01*
X2989Y1056D02*
X3013Y1032D01*
X2989Y1056D02*
Y1118D01*
X2321Y1118D02*
X2408D01*
X2265Y1060D02*
Y1118D01*
Y1060D02*
X2295Y1030D01*
X2443D01*
X2503Y1089D01*
X3177Y1268D02*
X3261D01*
X3106Y1326D02*
X3203D01*
X3261Y1268D01*
X3047Y1326D02*
X3050D01*
X2989Y1268D02*
X3047Y1326D01*
X2281Y669D02*
X2730D01*
X2953Y446D01*
D18*
X2183Y1213D02*
X2240Y1270D01*
X2804Y893D02*
X2918Y1007D01*
X2779Y2093D02*
X2828Y2044D01*
Y1764D02*
Y2044D01*
X2219Y2005D02*
X2465Y2251D01*
X2219Y1764D02*
Y2005D01*
X2459Y1343D02*
X2517Y1401D01*
X2183Y980D02*
Y1213D01*
Y980D02*
X2229Y934D01*
X2385D01*
X2426Y893D01*
X2804D01*
X2437Y1410D02*
X2629Y1602D01*
Y1764D01*
X2508Y1410D02*
X2517Y1401D01*
X2446Y1343D02*
X2459D01*
X2444Y1341D02*
X2446Y1343D01*
X3055Y1406D02*
X3195D01*
X3261Y1340D01*
X3238Y1588D02*
Y1764D01*
X3055Y1406D02*
X3238Y1588D01*
X2779Y2093D02*
Y2251D01*
Y2366D01*
X2465Y2251D02*
X2579Y2180D01*
Y2364D01*
D19*
X2597Y1118D02*
X2680D01*
D20*
X3272Y1079D02*
Y1089D01*
D21*
X1553Y2926D02*
G03*
X1553Y2926I-79J0D01*
G01*
X1554Y421D02*
G03*
X1554Y421I-79J0D01*
G01*
X4063D02*
G03*
X4063Y421I-79J0D01*
G01*
Y2925D02*
G03*
X4063Y2925I-79J0D01*
G01*
D22*
X2672Y784D02*
D03*
X2679Y2351D02*
D03*
X2879D02*
D03*
Y2251D02*
D03*
X2679D02*
D03*
D23*
X2772Y784D02*
D03*
X2579Y2351D02*
D03*
X2779D02*
D03*
Y2251D02*
D03*
X2579D02*
D03*
D24*
X1474Y2926D02*
D03*
Y421D02*
D03*
X3984D02*
D03*
Y2926D02*
D03*
D25*
X2503Y1195D02*
D03*
X3083Y1189D02*
D03*
D26*
X2485Y446D02*
D03*
X2953D02*
D03*
D27*
X1468Y1055D02*
D03*
Y1366D02*
D03*
X1466Y1960D02*
D03*
Y2271D02*
D03*
X3998D02*
D03*
Y1960D02*
D03*
Y1366D02*
D03*
Y1055D02*
D03*
D28*
X3709Y406D02*
D03*
X3398D02*
D03*
X2060D02*
D03*
X1749D02*
D03*
X2574Y2944D02*
D03*
X2885D02*
D03*
D29*
X2273Y1268D02*
D03*
X2878Y1002D02*
D03*
X3264Y1165D02*
D03*
X2675Y1423D02*
D03*
X2680Y1118D02*
D03*
X3272Y1089D02*
D03*
D30*
X2502Y1214D02*
D03*
X2528Y1241D02*
D03*
X2502Y1241D02*
D03*
X2527Y1215D02*
D03*
X2526Y1186D02*
D03*
X2502D02*
D03*
X2478D02*
D03*
Y1214D02*
D03*
Y1241D02*
D03*
Y1159D02*
D03*
X2502D02*
D03*
X2527D02*
D03*
X3108Y1149D02*
D03*
X3083D02*
D03*
X3059D02*
D03*
Y1231D02*
D03*
Y1204D02*
D03*
Y1176D02*
D03*
X3083D02*
D03*
X3107D02*
D03*
X3108Y1205D02*
D03*
X3083Y1231D02*
D03*
X3109Y1231D02*
D03*
X3083Y1204D02*
D03*
X2579Y540D02*
D03*
X2540D02*
D03*
X2500D02*
D03*
X2461D02*
D03*
X2422D02*
D03*
X2382D02*
D03*
X2579Y501D02*
D03*
X2540D02*
D03*
X2500D02*
D03*
X2461D02*
D03*
X2422D02*
D03*
X2382D02*
D03*
X2579Y461D02*
D03*
X2540D02*
D03*
X2500D02*
D03*
X2461D02*
D03*
X2422D02*
D03*
X2382D02*
D03*
X2579Y422D02*
D03*
X2540D02*
D03*
X2500D02*
D03*
X2461D02*
D03*
X2422D02*
D03*
X2382D02*
D03*
X2579Y383D02*
D03*
X2540D02*
D03*
X2500D02*
D03*
X2461D02*
D03*
X2422D02*
D03*
X2382D02*
D03*
X2579Y343D02*
D03*
X2540D02*
D03*
X2500D02*
D03*
X2461D02*
D03*
X2422D02*
D03*
X2382D02*
D03*
X2382Y540D02*
D03*
X2422D02*
D03*
X2461D02*
D03*
X2500D02*
D03*
X2540D02*
D03*
X2579D02*
D03*
Y501D02*
D03*
X2540D02*
D03*
X2500D02*
D03*
X2461D02*
D03*
X2422D02*
D03*
X2382D02*
D03*
X2579Y461D02*
D03*
X2540D02*
D03*
X2500D02*
D03*
X2461D02*
D03*
X2422D02*
D03*
X2382D02*
D03*
X2579Y422D02*
D03*
X2540D02*
D03*
X2500D02*
D03*
X2461D02*
D03*
X2422D02*
D03*
X2382D02*
D03*
X2579Y383D02*
D03*
X2540D02*
D03*
X2500D02*
D03*
X2461D02*
D03*
X2422D02*
D03*
X2382D02*
D03*
X2579Y343D02*
D03*
X2540D02*
D03*
X2500D02*
D03*
X2461D02*
D03*
X2422D02*
D03*
X2382D02*
D03*
X3051Y540D02*
D03*
X3012D02*
D03*
X2973D02*
D03*
X2933D02*
D03*
X2894D02*
D03*
X2855D02*
D03*
X3051Y501D02*
D03*
X3012D02*
D03*
X2973D02*
D03*
X2933D02*
D03*
X2894D02*
D03*
X2855D02*
D03*
X3051Y461D02*
D03*
X3012D02*
D03*
X2973D02*
D03*
X2933D02*
D03*
X2894D02*
D03*
X2855D02*
D03*
X3051Y422D02*
D03*
X3012D02*
D03*
X2973D02*
D03*
X2933D02*
D03*
X2894D02*
D03*
X2855D02*
D03*
X3051Y383D02*
D03*
X3012D02*
D03*
X2973D02*
D03*
X2933D02*
D03*
X2894D02*
D03*
X2855D02*
D03*
X3051Y343D02*
D03*
X3012D02*
D03*
X2973D02*
D03*
X2933D02*
D03*
X2894D02*
D03*
X2855D02*
D03*
X1405Y1429D02*
D03*
Y1389D02*
D03*
Y1350D02*
D03*
Y1311D02*
D03*
X1444Y1429D02*
D03*
Y1389D02*
D03*
Y1350D02*
D03*
Y1311D02*
D03*
X1484Y1429D02*
D03*
Y1389D02*
D03*
Y1350D02*
D03*
Y1311D02*
D03*
X1523Y1429D02*
D03*
Y1389D02*
D03*
Y1350D02*
D03*
Y1311D02*
D03*
X1405Y1114D02*
D03*
Y1074D02*
D03*
Y1035D02*
D03*
Y996D02*
D03*
X1444Y1114D02*
D03*
Y1074D02*
D03*
Y1035D02*
D03*
Y996D02*
D03*
X1484Y1114D02*
D03*
Y1074D02*
D03*
Y1035D02*
D03*
Y996D02*
D03*
X1523Y1114D02*
D03*
Y1074D02*
D03*
Y1035D02*
D03*
Y996D02*
D03*
X1403Y2334D02*
D03*
Y2295D02*
D03*
Y2255D02*
D03*
Y2216D02*
D03*
X1442Y2334D02*
D03*
Y2295D02*
D03*
Y2255D02*
D03*
Y2216D02*
D03*
X1482Y2334D02*
D03*
Y2295D02*
D03*
Y2255D02*
D03*
Y2216D02*
D03*
X1521Y2334D02*
D03*
Y2295D02*
D03*
Y2255D02*
D03*
Y2216D02*
D03*
X1403Y2019D02*
D03*
Y1980D02*
D03*
Y1940D02*
D03*
Y1901D02*
D03*
X1442Y2019D02*
D03*
Y1980D02*
D03*
Y1940D02*
D03*
Y1901D02*
D03*
X1482Y2019D02*
D03*
Y1980D02*
D03*
Y1940D02*
D03*
Y1901D02*
D03*
X1521Y2019D02*
D03*
Y1980D02*
D03*
Y1940D02*
D03*
Y1901D02*
D03*
X4061Y1897D02*
D03*
Y1936D02*
D03*
Y1976D02*
D03*
Y2015D02*
D03*
X4022Y1897D02*
D03*
Y1936D02*
D03*
Y1976D02*
D03*
Y2015D02*
D03*
X3983Y1897D02*
D03*
Y1936D02*
D03*
Y1976D02*
D03*
Y2015D02*
D03*
X3943Y1897D02*
D03*
Y1936D02*
D03*
Y1976D02*
D03*
Y2015D02*
D03*
X4061Y2212D02*
D03*
Y2251D02*
D03*
Y2291D02*
D03*
Y2330D02*
D03*
X4022Y2212D02*
D03*
Y2251D02*
D03*
Y2291D02*
D03*
Y2330D02*
D03*
X3983Y2212D02*
D03*
Y2251D02*
D03*
Y2291D02*
D03*
Y2330D02*
D03*
X3943Y2212D02*
D03*
Y2251D02*
D03*
Y2291D02*
D03*
Y2330D02*
D03*
X4061Y992D02*
D03*
Y1031D02*
D03*
Y1071D02*
D03*
Y1110D02*
D03*
X4022Y992D02*
D03*
Y1031D02*
D03*
Y1071D02*
D03*
Y1110D02*
D03*
X3983Y992D02*
D03*
Y1031D02*
D03*
Y1071D02*
D03*
Y1110D02*
D03*
X3943Y992D02*
D03*
Y1031D02*
D03*
Y1071D02*
D03*
Y1110D02*
D03*
X4061Y1307D02*
D03*
Y1346D02*
D03*
Y1385D02*
D03*
Y1425D02*
D03*
X4022Y1307D02*
D03*
Y1346D02*
D03*
Y1385D02*
D03*
Y1425D02*
D03*
X3983Y1307D02*
D03*
Y1346D02*
D03*
Y1385D02*
D03*
Y1425D02*
D03*
X3943Y1307D02*
D03*
Y1346D02*
D03*
Y1385D02*
D03*
Y1425D02*
D03*
X3335Y343D02*
D03*
X3375D02*
D03*
X3414D02*
D03*
X3453D02*
D03*
X3335Y383D02*
D03*
X3375D02*
D03*
X3414D02*
D03*
X3453D02*
D03*
X3335Y422D02*
D03*
X3375D02*
D03*
X3414D02*
D03*
X3453D02*
D03*
X3335Y461D02*
D03*
X3375D02*
D03*
X3414D02*
D03*
X3453D02*
D03*
X3650Y343D02*
D03*
X3690D02*
D03*
X3729D02*
D03*
X3768D02*
D03*
X3650Y383D02*
D03*
X3690D02*
D03*
X3729D02*
D03*
X3768D02*
D03*
X3650Y422D02*
D03*
X3690D02*
D03*
X3729D02*
D03*
X3768D02*
D03*
X3650Y461D02*
D03*
X3690D02*
D03*
X3729D02*
D03*
X3768D02*
D03*
X1686Y343D02*
D03*
X1726D02*
D03*
X1765D02*
D03*
X1804D02*
D03*
X1686Y383D02*
D03*
X1726D02*
D03*
X1765D02*
D03*
X1804D02*
D03*
X1686Y422D02*
D03*
X1726D02*
D03*
X1765D02*
D03*
X1804D02*
D03*
X1686Y461D02*
D03*
X1726D02*
D03*
X1765D02*
D03*
X1804D02*
D03*
X2001Y343D02*
D03*
X2040D02*
D03*
X2080D02*
D03*
X2119D02*
D03*
X2001Y383D02*
D03*
X2040D02*
D03*
X2080D02*
D03*
X2119D02*
D03*
X2001Y422D02*
D03*
X2040D02*
D03*
X2080D02*
D03*
X2119D02*
D03*
X2001Y461D02*
D03*
X2040D02*
D03*
X2080D02*
D03*
X2119D02*
D03*
X2948Y3007D02*
D03*
X2909D02*
D03*
X2870D02*
D03*
X2830D02*
D03*
X2948Y2968D02*
D03*
X2909D02*
D03*
X2870D02*
D03*
X2830D02*
D03*
X2948Y2928D02*
D03*
X2909D02*
D03*
X2870D02*
D03*
X2830D02*
D03*
X2948Y2889D02*
D03*
X2909D02*
D03*
X2870D02*
D03*
X2830D02*
D03*
X2633Y3007D02*
D03*
X2594D02*
D03*
X2555D02*
D03*
X2515D02*
D03*
X2633Y2968D02*
D03*
X2594D02*
D03*
X2555D02*
D03*
X2515D02*
D03*
X2633Y2928D02*
D03*
X2594D02*
D03*
X2555D02*
D03*
X2515D02*
D03*
X2633Y2889D02*
D03*
X2594D02*
D03*
X2555D02*
D03*
X2515D02*
D03*
M02*
