G04 Layer_Color=2752767*
%FSLAX23Y23*%
%MOIN*%
G70*
G01*
G75*
%ADD42C,0.005*%
%ADD63C,0.007*%
D42*
X2295Y2940D02*
Y2980D01*
X2335D01*
Y2940D01*
X2295D01*
X2395D02*
Y2980D01*
X2435D01*
Y2940D01*
X2395D01*
X2559Y2671D02*
Y2711D01*
X2599D01*
Y2671D01*
X2559D01*
X2659D02*
Y2711D01*
X2699D01*
Y2671D01*
X2659D01*
X2759D02*
Y2711D01*
X2799D01*
Y2671D01*
X2759D01*
X2859D02*
Y2711D01*
X2899D01*
Y2671D01*
X2859D01*
Y2571D02*
Y2611D01*
X2899D01*
Y2571D01*
X2859D01*
X2759D02*
Y2611D01*
X2799D01*
Y2571D01*
X2759D01*
X2659D02*
Y2611D01*
X2699D01*
Y2571D01*
X2659D01*
X2559D02*
Y2611D01*
X2599D01*
Y2571D01*
X2559D01*
X2311Y519D02*
X2291Y559D01*
X2331D01*
X2311Y519D01*
X2271D02*
X2251Y559D01*
X2291D01*
X2271Y519D01*
X2232D02*
X2212Y559D01*
X2252D01*
X2232Y519D01*
X2193D02*
X2173Y559D01*
X2213D01*
X2193Y519D01*
X2311Y480D02*
X2291Y520D01*
X2331D01*
X2311Y480D01*
X2271D02*
X2251Y520D01*
X2291D01*
X2271Y480D01*
X2232D02*
X2212Y520D01*
X2252D01*
X2232Y480D01*
X2193D02*
X2173Y520D01*
X2213D01*
X2193Y480D01*
X2311Y441D02*
X2291Y481D01*
X2331D01*
X2311Y441D01*
X2271D02*
X2251Y481D01*
X2291D01*
X2271Y441D01*
X2232D02*
X2212Y481D01*
X2252D01*
X2232Y441D01*
X2193D02*
X2173Y481D01*
X2213D01*
X2193Y441D01*
X2311Y401D02*
X2291Y441D01*
X2331D01*
X2311Y401D01*
X2271D02*
X2251Y441D01*
X2291D01*
X2271Y401D01*
X2232D02*
X2212Y441D01*
X2252D01*
X2232Y401D01*
X2193D02*
X2173Y441D01*
X2213D01*
X2193Y401D01*
X2311Y362D02*
X2291Y402D01*
X2331D01*
X2311Y362D01*
X2271D02*
X2251Y402D01*
X2291D01*
X2271Y362D01*
X2232D02*
X2212Y402D01*
X2252D01*
X2232Y362D01*
X2193D02*
X2173Y402D01*
X2213D01*
X2193Y362D01*
X2311Y323D02*
X2291Y363D01*
X2331D01*
X2311Y323D01*
X2271D02*
X2251Y363D01*
X2291D01*
X2271Y323D01*
X2232D02*
X2212Y363D01*
X2252D01*
X2232Y323D01*
X2193D02*
X2173Y363D01*
X2213D01*
X2193Y323D01*
X2193Y519D02*
X2173Y559D01*
X2213D01*
X2193Y519D01*
X2232D02*
X2212Y559D01*
X2252D01*
X2232Y519D01*
X2271D02*
X2251Y559D01*
X2291D01*
X2271Y519D01*
X2311D02*
X2291Y559D01*
X2331D01*
X2311Y519D01*
Y480D02*
X2291Y520D01*
X2331D01*
X2311Y480D01*
X2271D02*
X2251Y520D01*
X2291D01*
X2271Y480D01*
X2232D02*
X2212Y520D01*
X2252D01*
X2232Y480D01*
X2193D02*
X2173Y520D01*
X2213D01*
X2193Y480D01*
X2311Y441D02*
X2291Y481D01*
X2331D01*
X2311Y441D01*
X2271D02*
X2251Y481D01*
X2291D01*
X2271Y441D01*
X2232D02*
X2212Y481D01*
X2252D01*
X2232Y441D01*
X2193D02*
X2173Y481D01*
X2213D01*
X2193Y441D01*
X2311Y401D02*
X2291Y441D01*
X2331D01*
X2311Y401D01*
X2271D02*
X2251Y441D01*
X2291D01*
X2271Y401D01*
X2232D02*
X2212Y441D01*
X2252D01*
X2232Y401D01*
X2193D02*
X2173Y441D01*
X2213D01*
X2193Y401D01*
X2311Y362D02*
X2291Y402D01*
X2331D01*
X2311Y362D01*
X2271D02*
X2251Y402D01*
X2291D01*
X2271Y362D01*
X2232D02*
X2212Y402D01*
X2252D01*
X2232Y362D01*
X2193D02*
X2173Y402D01*
X2213D01*
X2193Y362D01*
X2311Y323D02*
X2291Y363D01*
X2331D01*
X2311Y323D01*
X2271D02*
X2251Y363D01*
X2291D01*
X2271Y323D01*
X2232D02*
X2212Y363D01*
X2252D01*
X2232Y323D01*
X2193D02*
X2173Y363D01*
X2213D01*
X2193Y323D01*
X3261Y514D02*
X3241Y554D01*
X3281D01*
X3261Y514D01*
X3221D02*
X3201Y554D01*
X3241D01*
X3221Y514D01*
X3182D02*
X3162Y554D01*
X3202D01*
X3182Y514D01*
X3143D02*
X3123Y554D01*
X3163D01*
X3143Y514D01*
X3261Y475D02*
X3241Y515D01*
X3281D01*
X3261Y475D01*
X3221D02*
X3201Y515D01*
X3241D01*
X3221Y475D01*
X3182D02*
X3162Y515D01*
X3202D01*
X3182Y475D01*
X3143D02*
X3123Y515D01*
X3163D01*
X3143Y475D01*
X3261Y436D02*
X3241Y476D01*
X3281D01*
X3261Y436D01*
X3221D02*
X3201Y476D01*
X3241D01*
X3221Y436D01*
X3182D02*
X3162Y476D01*
X3202D01*
X3182Y436D01*
X3143D02*
X3123Y476D01*
X3163D01*
X3143Y436D01*
X3261Y396D02*
X3241Y436D01*
X3281D01*
X3261Y396D01*
X3221D02*
X3201Y436D01*
X3241D01*
X3221Y396D01*
X3182D02*
X3162Y436D01*
X3202D01*
X3182Y396D01*
X3143D02*
X3123Y436D01*
X3163D01*
X3143Y396D01*
X3261Y357D02*
X3241Y397D01*
X3281D01*
X3261Y357D01*
X3221D02*
X3201Y397D01*
X3241D01*
X3221Y357D01*
X3182D02*
X3162Y397D01*
X3202D01*
X3182Y357D01*
X3143D02*
X3123Y397D01*
X3163D01*
X3143Y357D01*
X3261Y318D02*
X3241Y358D01*
X3281D01*
X3261Y318D01*
X3221D02*
X3201Y358D01*
X3241D01*
X3221Y318D01*
X3182D02*
X3162Y358D01*
X3202D01*
X3182Y318D01*
X3143D02*
X3123Y358D01*
X3163D01*
X3143Y318D01*
X3143Y514D02*
X3123Y554D01*
X3163D01*
X3143Y514D01*
X3182D02*
X3162Y554D01*
X3202D01*
X3182Y514D01*
X3221D02*
X3201Y554D01*
X3241D01*
X3221Y514D01*
X3261D02*
X3241Y554D01*
X3281D01*
X3261Y514D01*
Y475D02*
X3241Y515D01*
X3281D01*
X3261Y475D01*
X3221D02*
X3201Y515D01*
X3241D01*
X3221Y475D01*
X3182D02*
X3162Y515D01*
X3202D01*
X3182Y475D01*
X3143D02*
X3123Y515D01*
X3163D01*
X3143Y475D01*
X3261Y436D02*
X3241Y476D01*
X3281D01*
X3261Y436D01*
X3221D02*
X3201Y476D01*
X3241D01*
X3221Y436D01*
X3182D02*
X3162Y476D01*
X3202D01*
X3182Y436D01*
X3143D02*
X3123Y476D01*
X3163D01*
X3143Y436D01*
X3261Y396D02*
X3241Y436D01*
X3281D01*
X3261Y396D01*
X3221D02*
X3201Y436D01*
X3241D01*
X3221Y396D01*
X3182D02*
X3162Y436D01*
X3202D01*
X3182Y396D01*
X3143D02*
X3123Y436D01*
X3163D01*
X3143Y396D01*
X3261Y357D02*
X3241Y397D01*
X3281D01*
X3261Y357D01*
X3221D02*
X3201Y397D01*
X3241D01*
X3221Y357D01*
X3182D02*
X3162Y397D01*
X3202D01*
X3182Y357D01*
X3143D02*
X3123Y397D01*
X3163D01*
X3143Y357D01*
X3261Y318D02*
X3241Y358D01*
X3281D01*
X3261Y318D01*
X3221D02*
X3201Y358D01*
X3241D01*
X3221Y318D01*
X3182D02*
X3162Y358D01*
X3202D01*
X3182Y318D01*
X3143D02*
X3123Y358D01*
X3163D01*
X3143Y318D01*
X3918Y1553D02*
X3898Y1593D01*
X3938D01*
X3918Y1553D01*
X3957D02*
X3937Y1593D01*
X3977D01*
X3957Y1553D01*
X3996D02*
X3976Y1593D01*
X4016D01*
X3996Y1553D01*
X4036D02*
X4016Y1593D01*
X4056D01*
X4036Y1553D01*
X4075D02*
X4055Y1593D01*
X4095D01*
X4075Y1553D01*
X3918Y1592D02*
X3898Y1632D01*
X3938D01*
X3918Y1592D01*
X3957D02*
X3937Y1632D01*
X3977D01*
X3957Y1592D01*
X3996D02*
X3976Y1632D01*
X4016D01*
X3996Y1592D01*
X4036D02*
X4016Y1632D01*
X4056D01*
X4036Y1592D01*
X4075D02*
X4055Y1632D01*
X4095D01*
X4075Y1592D01*
X3918Y1631D02*
X3898Y1671D01*
X3938D01*
X3918Y1631D01*
X3957D02*
X3937Y1671D01*
X3977D01*
X3957Y1631D01*
X3996D02*
X3976Y1671D01*
X4016D01*
X3996Y1631D01*
X4036D02*
X4016Y1671D01*
X4056D01*
X4036Y1631D01*
X4075D02*
X4055Y1671D01*
X4095D01*
X4075Y1631D01*
X3918Y1671D02*
X3898Y1711D01*
X3938D01*
X3918Y1671D01*
X3957D02*
X3937Y1711D01*
X3977D01*
X3957Y1671D01*
X3996D02*
X3976Y1711D01*
X4016D01*
X3996Y1671D01*
X4036D02*
X4016Y1711D01*
X4056D01*
X4036Y1671D01*
X4075D02*
X4055Y1711D01*
X4095D01*
X4075Y1671D01*
X3918Y1710D02*
X3898Y1750D01*
X3938D01*
X3918Y1710D01*
X3957D02*
X3937Y1750D01*
X3977D01*
X3957Y1710D01*
X3996D02*
X3976Y1750D01*
X4016D01*
X3996Y1710D01*
X4036D02*
X4016Y1750D01*
X4056D01*
X4036Y1710D01*
X4075Y1749D02*
X4055Y1789D01*
X4095D01*
X4075Y1749D01*
X4036D02*
X4016Y1789D01*
X4056D01*
X4036Y1749D01*
X3996D02*
X3976Y1789D01*
X4016D01*
X3996Y1749D01*
X3957D02*
X3937Y1789D01*
X3977D01*
X3957Y1749D01*
X3918D02*
X3898Y1789D01*
X3938D01*
X3918Y1749D01*
X3918Y1553D02*
X3898Y1593D01*
X3938D01*
X3918Y1553D01*
X3957D02*
X3937Y1593D01*
X3977D01*
X3957Y1553D01*
X3996D02*
X3976Y1593D01*
X4016D01*
X3996Y1553D01*
X4036D02*
X4016Y1593D01*
X4056D01*
X4036Y1553D01*
X4075D02*
X4055Y1593D01*
X4095D01*
X4075Y1553D01*
X3918Y1592D02*
X3898Y1632D01*
X3938D01*
X3918Y1592D01*
X3957D02*
X3937Y1632D01*
X3977D01*
X3957Y1592D01*
X3996D02*
X3976Y1632D01*
X4016D01*
X3996Y1592D01*
X4036D02*
X4016Y1632D01*
X4056D01*
X4036Y1592D01*
X4075D02*
X4055Y1632D01*
X4095D01*
X4075Y1592D01*
X3918Y1631D02*
X3898Y1671D01*
X3938D01*
X3918Y1631D01*
X3957D02*
X3937Y1671D01*
X3977D01*
X3957Y1631D01*
X3996D02*
X3976Y1671D01*
X4016D01*
X3996Y1631D01*
X4036D02*
X4016Y1671D01*
X4056D01*
X4036Y1631D01*
X4075D02*
X4055Y1671D01*
X4095D01*
X4075Y1631D01*
X3918Y1671D02*
X3898Y1711D01*
X3938D01*
X3918Y1671D01*
X3957D02*
X3937Y1711D01*
X3977D01*
X3957Y1671D01*
X3996D02*
X3976Y1711D01*
X4016D01*
X3996Y1671D01*
X4036D02*
X4016Y1711D01*
X4056D01*
X4036Y1671D01*
X4075D02*
X4055Y1711D01*
X4095D01*
X4075Y1671D01*
X3918Y1710D02*
X3898Y1750D01*
X3938D01*
X3918Y1710D01*
X3957D02*
X3937Y1750D01*
X3977D01*
X3957Y1710D01*
X3996D02*
X3976Y1750D01*
X4016D01*
X3996Y1710D01*
X4036D02*
X4016Y1750D01*
X4056D01*
X4036Y1710D01*
X4075D02*
X4055Y1750D01*
X4095D01*
X4075Y1710D01*
X3918Y1749D02*
X3898Y1789D01*
X3938D01*
X3918Y1749D01*
X3957D02*
X3937Y1789D01*
X3977D01*
X3957Y1749D01*
X3996D02*
X3976Y1789D01*
X4016D01*
X3996Y1749D01*
X4036D02*
X4016Y1789D01*
X4056D01*
X4036Y1749D01*
X4075D02*
X4055Y1789D01*
X4095D01*
X4075Y1749D01*
X4075Y1710D02*
X4055Y1750D01*
X4095D01*
X4075Y1710D01*
X1393Y2478D02*
X1373Y2518D01*
X1413D01*
X1393Y2478D01*
X1432D02*
X1412Y2518D01*
X1452D01*
X1432Y2478D01*
X1471D02*
X1451Y2518D01*
X1491D01*
X1471Y2478D01*
X1511D02*
X1491Y2518D01*
X1531D01*
X1511Y2478D01*
X1550D02*
X1530Y2518D01*
X1570D01*
X1550Y2478D01*
X1393Y2517D02*
X1373Y2557D01*
X1413D01*
X1393Y2517D01*
X1432D02*
X1412Y2557D01*
X1452D01*
X1432Y2517D01*
X1471D02*
X1451Y2557D01*
X1491D01*
X1471Y2517D01*
X1511D02*
X1491Y2557D01*
X1531D01*
X1511Y2517D01*
X1550D02*
X1530Y2557D01*
X1570D01*
X1550Y2517D01*
X1393Y2556D02*
X1373Y2596D01*
X1413D01*
X1393Y2556D01*
X1432D02*
X1412Y2596D01*
X1452D01*
X1432Y2556D01*
X1471D02*
X1451Y2596D01*
X1491D01*
X1471Y2556D01*
X1511D02*
X1491Y2596D01*
X1531D01*
X1511Y2556D01*
X1550D02*
X1530Y2596D01*
X1570D01*
X1550Y2556D01*
X1393Y2596D02*
X1373Y2636D01*
X1413D01*
X1393Y2596D01*
X1432D02*
X1412Y2636D01*
X1452D01*
X1432Y2596D01*
X1471D02*
X1451Y2636D01*
X1491D01*
X1471Y2596D01*
X1511D02*
X1491Y2636D01*
X1531D01*
X1511Y2596D01*
X1550D02*
X1530Y2636D01*
X1570D01*
X1550Y2596D01*
X1393Y2635D02*
X1373Y2675D01*
X1413D01*
X1393Y2635D01*
X1432D02*
X1412Y2675D01*
X1452D01*
X1432Y2635D01*
X1471D02*
X1451Y2675D01*
X1491D01*
X1471Y2635D01*
X1511D02*
X1491Y2675D01*
X1531D01*
X1511Y2635D01*
X1550Y2674D02*
X1530Y2714D01*
X1570D01*
X1550Y2674D01*
X1511D02*
X1491Y2714D01*
X1531D01*
X1511Y2674D01*
X1471D02*
X1451Y2714D01*
X1491D01*
X1471Y2674D01*
X1432D02*
X1412Y2714D01*
X1452D01*
X1432Y2674D01*
X1393D02*
X1373Y2714D01*
X1413D01*
X1393Y2674D01*
X1393Y2478D02*
X1373Y2518D01*
X1413D01*
X1393Y2478D01*
X1432D02*
X1412Y2518D01*
X1452D01*
X1432Y2478D01*
X1471D02*
X1451Y2518D01*
X1491D01*
X1471Y2478D01*
X1511D02*
X1491Y2518D01*
X1531D01*
X1511Y2478D01*
X1550D02*
X1530Y2518D01*
X1570D01*
X1550Y2478D01*
X1393Y2517D02*
X1373Y2557D01*
X1413D01*
X1393Y2517D01*
X1432D02*
X1412Y2557D01*
X1452D01*
X1432Y2517D01*
X1471D02*
X1451Y2557D01*
X1491D01*
X1471Y2517D01*
X1511D02*
X1491Y2557D01*
X1531D01*
X1511Y2517D01*
X1550D02*
X1530Y2557D01*
X1570D01*
X1550Y2517D01*
X1393Y2556D02*
X1373Y2596D01*
X1413D01*
X1393Y2556D01*
X1432D02*
X1412Y2596D01*
X1452D01*
X1432Y2556D01*
X1471D02*
X1451Y2596D01*
X1491D01*
X1471Y2556D01*
X1511D02*
X1491Y2596D01*
X1531D01*
X1511Y2556D01*
X1550D02*
X1530Y2596D01*
X1570D01*
X1550Y2556D01*
X1393Y2596D02*
X1373Y2636D01*
X1413D01*
X1393Y2596D01*
X1432D02*
X1412Y2636D01*
X1452D01*
X1432Y2596D01*
X1471D02*
X1451Y2636D01*
X1491D01*
X1471Y2596D01*
X1511D02*
X1491Y2636D01*
X1531D01*
X1511Y2596D01*
X1550D02*
X1530Y2636D01*
X1570D01*
X1550Y2596D01*
X1393Y2635D02*
X1373Y2675D01*
X1413D01*
X1393Y2635D01*
X1432D02*
X1412Y2675D01*
X1452D01*
X1432Y2635D01*
X1471D02*
X1451Y2675D01*
X1491D01*
X1471Y2635D01*
X1511D02*
X1491Y2675D01*
X1531D01*
X1511Y2635D01*
X1550D02*
X1530Y2675D01*
X1570D01*
X1550Y2635D01*
X1393Y2674D02*
X1373Y2714D01*
X1413D01*
X1393Y2674D01*
X1432D02*
X1412Y2714D01*
X1452D01*
X1432Y2674D01*
X1471D02*
X1451Y2714D01*
X1491D01*
X1471Y2674D01*
X1511D02*
X1491Y2714D01*
X1531D01*
X1511Y2674D01*
X1550D02*
X1530Y2714D01*
X1570D01*
X1550Y2674D01*
X1550Y2635D02*
X1530Y2675D01*
X1570D01*
X1550Y2635D01*
X1393Y608D02*
X1373Y648D01*
X1413D01*
X1393Y608D01*
X1432D02*
X1412Y648D01*
X1452D01*
X1432Y608D01*
X1471D02*
X1451Y648D01*
X1491D01*
X1471Y608D01*
X1511D02*
X1491Y648D01*
X1531D01*
X1511Y608D01*
X1550D02*
X1530Y648D01*
X1570D01*
X1550Y608D01*
X1393Y647D02*
X1373Y687D01*
X1413D01*
X1393Y647D01*
X1432D02*
X1412Y687D01*
X1452D01*
X1432Y647D01*
X1471D02*
X1451Y687D01*
X1491D01*
X1471Y647D01*
X1511D02*
X1491Y687D01*
X1531D01*
X1511Y647D01*
X1550D02*
X1530Y687D01*
X1570D01*
X1550Y647D01*
X1393Y686D02*
X1373Y726D01*
X1413D01*
X1393Y686D01*
X1432D02*
X1412Y726D01*
X1452D01*
X1432Y686D01*
X1471D02*
X1451Y726D01*
X1491D01*
X1471Y686D01*
X1511D02*
X1491Y726D01*
X1531D01*
X1511Y686D01*
X1550D02*
X1530Y726D01*
X1570D01*
X1550Y686D01*
X1393Y726D02*
X1373Y766D01*
X1413D01*
X1393Y726D01*
X1432D02*
X1412Y766D01*
X1452D01*
X1432Y726D01*
X1471D02*
X1451Y766D01*
X1491D01*
X1471Y726D01*
X1511D02*
X1491Y766D01*
X1531D01*
X1511Y726D01*
X1550D02*
X1530Y766D01*
X1570D01*
X1550Y726D01*
X1393Y765D02*
X1373Y805D01*
X1413D01*
X1393Y765D01*
X1432D02*
X1412Y805D01*
X1452D01*
X1432Y765D01*
X1471D02*
X1451Y805D01*
X1491D01*
X1471Y765D01*
X1511D02*
X1491Y805D01*
X1531D01*
X1511Y765D01*
X1550Y804D02*
X1530Y844D01*
X1570D01*
X1550Y804D01*
X1511D02*
X1491Y844D01*
X1531D01*
X1511Y804D01*
X1471D02*
X1451Y844D01*
X1491D01*
X1471Y804D01*
X1432D02*
X1412Y844D01*
X1452D01*
X1432Y804D01*
X1393D02*
X1373Y844D01*
X1413D01*
X1393Y804D01*
X1393Y608D02*
X1373Y648D01*
X1413D01*
X1393Y608D01*
X1432D02*
X1412Y648D01*
X1452D01*
X1432Y608D01*
X1471D02*
X1451Y648D01*
X1491D01*
X1471Y608D01*
X1511D02*
X1491Y648D01*
X1531D01*
X1511Y608D01*
X1550D02*
X1530Y648D01*
X1570D01*
X1550Y608D01*
X1393Y647D02*
X1373Y687D01*
X1413D01*
X1393Y647D01*
X1432D02*
X1412Y687D01*
X1452D01*
X1432Y647D01*
X1471D02*
X1451Y687D01*
X1491D01*
X1471Y647D01*
X1511D02*
X1491Y687D01*
X1531D01*
X1511Y647D01*
X1550D02*
X1530Y687D01*
X1570D01*
X1550Y647D01*
X1393Y686D02*
X1373Y726D01*
X1413D01*
X1393Y686D01*
X1432D02*
X1412Y726D01*
X1452D01*
X1432Y686D01*
X1471D02*
X1451Y726D01*
X1491D01*
X1471Y686D01*
X1511D02*
X1491Y726D01*
X1531D01*
X1511Y686D01*
X1550D02*
X1530Y726D01*
X1570D01*
X1550Y686D01*
X1393Y726D02*
X1373Y766D01*
X1413D01*
X1393Y726D01*
X1432D02*
X1412Y766D01*
X1452D01*
X1432Y726D01*
X1471D02*
X1451Y766D01*
X1491D01*
X1471Y726D01*
X1511D02*
X1491Y766D01*
X1531D01*
X1511Y726D01*
X1550D02*
X1530Y766D01*
X1570D01*
X1550Y726D01*
X1393Y765D02*
X1373Y805D01*
X1413D01*
X1393Y765D01*
X1432D02*
X1412Y805D01*
X1452D01*
X1432Y765D01*
X1471D02*
X1451Y805D01*
X1491D01*
X1471Y765D01*
X1511D02*
X1491Y805D01*
X1531D01*
X1511Y765D01*
X1550D02*
X1530Y805D01*
X1570D01*
X1550Y765D01*
X1393Y804D02*
X1373Y844D01*
X1413D01*
X1393Y804D01*
X1432D02*
X1412Y844D01*
X1452D01*
X1432Y804D01*
X1471D02*
X1451Y844D01*
X1491D01*
X1471Y804D01*
X1511D02*
X1491Y844D01*
X1531D01*
X1511Y804D01*
X1550D02*
X1530Y844D01*
X1570D01*
X1550Y804D01*
X1550Y765D02*
X1530Y805D01*
X1570D01*
X1550Y765D01*
X3913Y613D02*
X3893Y653D01*
X3933D01*
X3913Y613D01*
X3952D02*
X3932Y653D01*
X3972D01*
X3952Y613D01*
X3991D02*
X3971Y653D01*
X4011D01*
X3991Y613D01*
X4031D02*
X4011Y653D01*
X4051D01*
X4031Y613D01*
X4070D02*
X4050Y653D01*
X4090D01*
X4070Y613D01*
X3913Y652D02*
X3893Y692D01*
X3933D01*
X3913Y652D01*
X3952D02*
X3932Y692D01*
X3972D01*
X3952Y652D01*
X3991D02*
X3971Y692D01*
X4011D01*
X3991Y652D01*
X4031D02*
X4011Y692D01*
X4051D01*
X4031Y652D01*
X4070D02*
X4050Y692D01*
X4090D01*
X4070Y652D01*
X3913Y691D02*
X3893Y731D01*
X3933D01*
X3913Y691D01*
X3952D02*
X3932Y731D01*
X3972D01*
X3952Y691D01*
X3991D02*
X3971Y731D01*
X4011D01*
X3991Y691D01*
X4031D02*
X4011Y731D01*
X4051D01*
X4031Y691D01*
X4070D02*
X4050Y731D01*
X4090D01*
X4070Y691D01*
X3913Y731D02*
X3893Y771D01*
X3933D01*
X3913Y731D01*
X3952D02*
X3932Y771D01*
X3972D01*
X3952Y731D01*
X3991D02*
X3971Y771D01*
X4011D01*
X3991Y731D01*
X4031D02*
X4011Y771D01*
X4051D01*
X4031Y731D01*
X4070D02*
X4050Y771D01*
X4090D01*
X4070Y731D01*
X3913Y770D02*
X3893Y810D01*
X3933D01*
X3913Y770D01*
X3952D02*
X3932Y810D01*
X3972D01*
X3952Y770D01*
X3991D02*
X3971Y810D01*
X4011D01*
X3991Y770D01*
X4031D02*
X4011Y810D01*
X4051D01*
X4031Y770D01*
X4070Y809D02*
X4050Y849D01*
X4090D01*
X4070Y809D01*
X4031D02*
X4011Y849D01*
X4051D01*
X4031Y809D01*
X3991D02*
X3971Y849D01*
X4011D01*
X3991Y809D01*
X3952D02*
X3932Y849D01*
X3972D01*
X3952Y809D01*
X3913D02*
X3893Y849D01*
X3933D01*
X3913Y809D01*
X3913Y613D02*
X3893Y653D01*
X3933D01*
X3913Y613D01*
X3952D02*
X3932Y653D01*
X3972D01*
X3952Y613D01*
X3991D02*
X3971Y653D01*
X4011D01*
X3991Y613D01*
X4031D02*
X4011Y653D01*
X4051D01*
X4031Y613D01*
X4070D02*
X4050Y653D01*
X4090D01*
X4070Y613D01*
X3913Y652D02*
X3893Y692D01*
X3933D01*
X3913Y652D01*
X3952D02*
X3932Y692D01*
X3972D01*
X3952Y652D01*
X3991D02*
X3971Y692D01*
X4011D01*
X3991Y652D01*
X4031D02*
X4011Y692D01*
X4051D01*
X4031Y652D01*
X4070D02*
X4050Y692D01*
X4090D01*
X4070Y652D01*
X3913Y691D02*
X3893Y731D01*
X3933D01*
X3913Y691D01*
X3952D02*
X3932Y731D01*
X3972D01*
X3952Y691D01*
X3991D02*
X3971Y731D01*
X4011D01*
X3991Y691D01*
X4031D02*
X4011Y731D01*
X4051D01*
X4031Y691D01*
X4070D02*
X4050Y731D01*
X4090D01*
X4070Y691D01*
X3913Y731D02*
X3893Y771D01*
X3933D01*
X3913Y731D01*
X3952D02*
X3932Y771D01*
X3972D01*
X3952Y731D01*
X3991D02*
X3971Y771D01*
X4011D01*
X3991Y731D01*
X4031D02*
X4011Y771D01*
X4051D01*
X4031Y731D01*
X4070D02*
X4050Y771D01*
X4090D01*
X4070Y731D01*
X3913Y770D02*
X3893Y810D01*
X3933D01*
X3913Y770D01*
X3952D02*
X3932Y810D01*
X3972D01*
X3952Y770D01*
X3991D02*
X3971Y810D01*
X4011D01*
X3991Y770D01*
X4031D02*
X4011Y810D01*
X4051D01*
X4031Y770D01*
X4070D02*
X4050Y810D01*
X4090D01*
X4070Y770D01*
X3913Y809D02*
X3893Y849D01*
X3933D01*
X3913Y809D01*
X3952D02*
X3932Y849D01*
X3972D01*
X3952Y809D01*
X3991D02*
X3971Y849D01*
X4011D01*
X3991Y809D01*
X4031D02*
X4011Y849D01*
X4051D01*
X4031Y809D01*
X4070D02*
X4050Y849D01*
X4090D01*
X4070Y809D01*
X4070Y770D02*
X4050Y810D01*
X4090D01*
X4070Y770D01*
X3918Y2508D02*
X3898Y2548D01*
X3938D01*
X3918Y2508D01*
X3957D02*
X3937Y2548D01*
X3977D01*
X3957Y2508D01*
X3996D02*
X3976Y2548D01*
X4016D01*
X3996Y2508D01*
X4036D02*
X4016Y2548D01*
X4056D01*
X4036Y2508D01*
X4075D02*
X4055Y2548D01*
X4095D01*
X4075Y2508D01*
X3918Y2547D02*
X3898Y2587D01*
X3938D01*
X3918Y2547D01*
X3957D02*
X3937Y2587D01*
X3977D01*
X3957Y2547D01*
X3996D02*
X3976Y2587D01*
X4016D01*
X3996Y2547D01*
X4036D02*
X4016Y2587D01*
X4056D01*
X4036Y2547D01*
X4075D02*
X4055Y2587D01*
X4095D01*
X4075Y2547D01*
X3918Y2586D02*
X3898Y2626D01*
X3938D01*
X3918Y2586D01*
X3957D02*
X3937Y2626D01*
X3977D01*
X3957Y2586D01*
X3996D02*
X3976Y2626D01*
X4016D01*
X3996Y2586D01*
X4036D02*
X4016Y2626D01*
X4056D01*
X4036Y2586D01*
X4075D02*
X4055Y2626D01*
X4095D01*
X4075Y2586D01*
X3918Y2626D02*
X3898Y2666D01*
X3938D01*
X3918Y2626D01*
X3957D02*
X3937Y2666D01*
X3977D01*
X3957Y2626D01*
X3996D02*
X3976Y2666D01*
X4016D01*
X3996Y2626D01*
X4036D02*
X4016Y2666D01*
X4056D01*
X4036Y2626D01*
X4075D02*
X4055Y2666D01*
X4095D01*
X4075Y2626D01*
X3918Y2665D02*
X3898Y2705D01*
X3938D01*
X3918Y2665D01*
X3957D02*
X3937Y2705D01*
X3977D01*
X3957Y2665D01*
X3996D02*
X3976Y2705D01*
X4016D01*
X3996Y2665D01*
X4036D02*
X4016Y2705D01*
X4056D01*
X4036Y2665D01*
X4075Y2704D02*
X4055Y2744D01*
X4095D01*
X4075Y2704D01*
X4036D02*
X4016Y2744D01*
X4056D01*
X4036Y2704D01*
X3996D02*
X3976Y2744D01*
X4016D01*
X3996Y2704D01*
X3957D02*
X3937Y2744D01*
X3977D01*
X3957Y2704D01*
X3918D02*
X3898Y2744D01*
X3938D01*
X3918Y2704D01*
X3918Y2508D02*
X3898Y2548D01*
X3938D01*
X3918Y2508D01*
X3957D02*
X3937Y2548D01*
X3977D01*
X3957Y2508D01*
X3996D02*
X3976Y2548D01*
X4016D01*
X3996Y2508D01*
X4036D02*
X4016Y2548D01*
X4056D01*
X4036Y2508D01*
X4075D02*
X4055Y2548D01*
X4095D01*
X4075Y2508D01*
X3918Y2547D02*
X3898Y2587D01*
X3938D01*
X3918Y2547D01*
X3957D02*
X3937Y2587D01*
X3977D01*
X3957Y2547D01*
X3996D02*
X3976Y2587D01*
X4016D01*
X3996Y2547D01*
X4036D02*
X4016Y2587D01*
X4056D01*
X4036Y2547D01*
X4075D02*
X4055Y2587D01*
X4095D01*
X4075Y2547D01*
X3918Y2586D02*
X3898Y2626D01*
X3938D01*
X3918Y2586D01*
X3957D02*
X3937Y2626D01*
X3977D01*
X3957Y2586D01*
X3996D02*
X3976Y2626D01*
X4016D01*
X3996Y2586D01*
X4036D02*
X4016Y2626D01*
X4056D01*
X4036Y2586D01*
X4075D02*
X4055Y2626D01*
X4095D01*
X4075Y2586D01*
X3918Y2626D02*
X3898Y2666D01*
X3938D01*
X3918Y2626D01*
X3957D02*
X3937Y2666D01*
X3977D01*
X3957Y2626D01*
X3996D02*
X3976Y2666D01*
X4016D01*
X3996Y2626D01*
X4036D02*
X4016Y2666D01*
X4056D01*
X4036Y2626D01*
X4075D02*
X4055Y2666D01*
X4095D01*
X4075Y2626D01*
X3918Y2665D02*
X3898Y2705D01*
X3938D01*
X3918Y2665D01*
X3957D02*
X3937Y2705D01*
X3977D01*
X3957Y2665D01*
X3996D02*
X3976Y2705D01*
X4016D01*
X3996Y2665D01*
X4036D02*
X4016Y2705D01*
X4056D01*
X4036Y2665D01*
X4075D02*
X4055Y2705D01*
X4095D01*
X4075Y2665D01*
X3918Y2704D02*
X3898Y2744D01*
X3938D01*
X3918Y2704D01*
X3957D02*
X3937Y2744D01*
X3977D01*
X3957Y2704D01*
X3996D02*
X3976Y2744D01*
X4016D01*
X3996Y2704D01*
X4036D02*
X4016Y2744D01*
X4056D01*
X4036Y2704D01*
X4075D02*
X4055Y2744D01*
X4095D01*
X4075Y2704D01*
X4075Y2665D02*
X4055Y2705D01*
X4095D01*
X4075Y2665D01*
X1550Y1695D02*
X1530Y1735D01*
X1570D01*
X1550Y1695D01*
X1550Y1734D02*
X1530Y1774D01*
X1570D01*
X1550Y1734D01*
X1511D02*
X1491Y1774D01*
X1531D01*
X1511Y1734D01*
X1471D02*
X1451Y1774D01*
X1491D01*
X1471Y1734D01*
X1432D02*
X1412Y1774D01*
X1452D01*
X1432Y1734D01*
X1393D02*
X1373Y1774D01*
X1413D01*
X1393Y1734D01*
X1550Y1695D02*
X1530Y1735D01*
X1570D01*
X1550Y1695D01*
X1511D02*
X1491Y1735D01*
X1531D01*
X1511Y1695D01*
X1471D02*
X1451Y1735D01*
X1491D01*
X1471Y1695D01*
X1432D02*
X1412Y1735D01*
X1452D01*
X1432Y1695D01*
X1393D02*
X1373Y1735D01*
X1413D01*
X1393Y1695D01*
X1550Y1656D02*
X1530Y1696D01*
X1570D01*
X1550Y1656D01*
X1511D02*
X1491Y1696D01*
X1531D01*
X1511Y1656D01*
X1471D02*
X1451Y1696D01*
X1491D01*
X1471Y1656D01*
X1432D02*
X1412Y1696D01*
X1452D01*
X1432Y1656D01*
X1393D02*
X1373Y1696D01*
X1413D01*
X1393Y1656D01*
X1550Y1616D02*
X1530Y1656D01*
X1570D01*
X1550Y1616D01*
X1511D02*
X1491Y1656D01*
X1531D01*
X1511Y1616D01*
X1471D02*
X1451Y1656D01*
X1491D01*
X1471Y1616D01*
X1432D02*
X1412Y1656D01*
X1452D01*
X1432Y1616D01*
X1393D02*
X1373Y1656D01*
X1413D01*
X1393Y1616D01*
X1550Y1577D02*
X1530Y1617D01*
X1570D01*
X1550Y1577D01*
X1511D02*
X1491Y1617D01*
X1531D01*
X1511Y1577D01*
X1471D02*
X1451Y1617D01*
X1491D01*
X1471Y1577D01*
X1432D02*
X1412Y1617D01*
X1452D01*
X1432Y1577D01*
X1393D02*
X1373Y1617D01*
X1413D01*
X1393Y1577D01*
X1550Y1538D02*
X1530Y1578D01*
X1570D01*
X1550Y1538D01*
X1511D02*
X1491Y1578D01*
X1531D01*
X1511Y1538D01*
X1471D02*
X1451Y1578D01*
X1491D01*
X1471Y1538D01*
X1432D02*
X1412Y1578D01*
X1452D01*
X1432Y1538D01*
X1393D02*
X1373Y1578D01*
X1413D01*
X1393Y1538D01*
X1393Y1734D02*
X1373Y1774D01*
X1413D01*
X1393Y1734D01*
X1432D02*
X1412Y1774D01*
X1452D01*
X1432Y1734D01*
X1471D02*
X1451Y1774D01*
X1491D01*
X1471Y1734D01*
X1511D02*
X1491Y1774D01*
X1531D01*
X1511Y1734D01*
X1550D02*
X1530Y1774D01*
X1570D01*
X1550Y1734D01*
X1511Y1695D02*
X1491Y1735D01*
X1531D01*
X1511Y1695D01*
X1471D02*
X1451Y1735D01*
X1491D01*
X1471Y1695D01*
X1432D02*
X1412Y1735D01*
X1452D01*
X1432Y1695D01*
X1393D02*
X1373Y1735D01*
X1413D01*
X1393Y1695D01*
X1550Y1656D02*
X1530Y1696D01*
X1570D01*
X1550Y1656D01*
X1511D02*
X1491Y1696D01*
X1531D01*
X1511Y1656D01*
X1471D02*
X1451Y1696D01*
X1491D01*
X1471Y1656D01*
X1432D02*
X1412Y1696D01*
X1452D01*
X1432Y1656D01*
X1393D02*
X1373Y1696D01*
X1413D01*
X1393Y1656D01*
X1550Y1616D02*
X1530Y1656D01*
X1570D01*
X1550Y1616D01*
X1511D02*
X1491Y1656D01*
X1531D01*
X1511Y1616D01*
X1471D02*
X1451Y1656D01*
X1491D01*
X1471Y1616D01*
X1432D02*
X1412Y1656D01*
X1452D01*
X1432Y1616D01*
X1393D02*
X1373Y1656D01*
X1413D01*
X1393Y1616D01*
X1550Y1577D02*
X1530Y1617D01*
X1570D01*
X1550Y1577D01*
X1511D02*
X1491Y1617D01*
X1531D01*
X1511Y1577D01*
X1471D02*
X1451Y1617D01*
X1491D01*
X1471Y1577D01*
X1432D02*
X1412Y1617D01*
X1452D01*
X1432Y1577D01*
X1393D02*
X1373Y1617D01*
X1413D01*
X1393Y1577D01*
X1550Y1538D02*
X1530Y1578D01*
X1570D01*
X1550Y1538D01*
X1511D02*
X1491Y1578D01*
X1531D01*
X1511Y1538D01*
X1471D02*
X1451Y1578D01*
X1491D01*
X1471Y1538D01*
X1432D02*
X1412Y1578D01*
X1452D01*
X1432Y1538D01*
X1393D02*
X1373Y1578D01*
X1413D01*
X1393Y1538D01*
X3338Y2868D02*
X3318Y2908D01*
X3358D01*
X3338Y2868D01*
X3377D02*
X3357Y2908D01*
X3397D01*
X3377Y2868D01*
X3416D02*
X3396Y2908D01*
X3436D01*
X3416Y2868D01*
X3456D02*
X3436Y2908D01*
X3476D01*
X3456Y2868D01*
X3338Y2908D02*
X3318Y2948D01*
X3358D01*
X3338Y2908D01*
X3377D02*
X3357Y2948D01*
X3397D01*
X3377Y2908D01*
X3416D02*
X3396Y2948D01*
X3436D01*
X3416Y2908D01*
X3456D02*
X3436Y2948D01*
X3476D01*
X3456Y2908D01*
X3338Y2947D02*
X3318Y2987D01*
X3358D01*
X3338Y2947D01*
X3377D02*
X3357Y2987D01*
X3397D01*
X3377Y2947D01*
X3416D02*
X3396Y2987D01*
X3436D01*
X3416Y2947D01*
X3456D02*
X3436Y2987D01*
X3476D01*
X3456Y2947D01*
X3338Y2986D02*
X3318Y3026D01*
X3358D01*
X3338Y2986D01*
X3377D02*
X3357Y3026D01*
X3397D01*
X3377Y2986D01*
X3416D02*
X3396Y3026D01*
X3436D01*
X3416Y2986D01*
X3456D02*
X3436Y3026D01*
X3476D01*
X3456Y2986D01*
X3653Y2868D02*
X3633Y2908D01*
X3673D01*
X3653Y2868D01*
X3692D02*
X3672Y2908D01*
X3712D01*
X3692Y2868D01*
X3731D02*
X3711Y2908D01*
X3751D01*
X3731Y2868D01*
X3771D02*
X3751Y2908D01*
X3791D01*
X3771Y2868D01*
X3653Y2908D02*
X3633Y2948D01*
X3673D01*
X3653Y2908D01*
X3692D02*
X3672Y2948D01*
X3712D01*
X3692Y2908D01*
X3731D02*
X3711Y2948D01*
X3751D01*
X3731Y2908D01*
X3771D02*
X3751Y2948D01*
X3791D01*
X3771Y2908D01*
X3653Y2947D02*
X3633Y2987D01*
X3673D01*
X3653Y2947D01*
X3692D02*
X3672Y2987D01*
X3712D01*
X3692Y2947D01*
X3731D02*
X3711Y2987D01*
X3751D01*
X3731Y2947D01*
X3771D02*
X3751Y2987D01*
X3791D01*
X3771Y2947D01*
X3653Y2986D02*
X3633Y3026D01*
X3673D01*
X3653Y2986D01*
X3692D02*
X3672Y3026D01*
X3712D01*
X3692Y2986D01*
X3731D02*
X3711Y3026D01*
X3751D01*
X3731Y2986D01*
X3771D02*
X3751Y3026D01*
X3791D01*
X3771Y2986D01*
X2273Y1688D02*
X2283Y1698D01*
X2293D01*
X2283Y1708D01*
X2293Y1718D01*
X2283D01*
X2273Y1728D01*
X2263Y1718D01*
X2253D01*
X2263Y1708D01*
X2253Y1698D01*
X2263D01*
X2273Y1688D01*
X2878Y1422D02*
X2888Y1432D01*
X2898D01*
X2888Y1442D01*
X2898Y1452D01*
X2888D01*
X2878Y1462D01*
X2868Y1452D01*
X2858D01*
X2868Y1442D01*
X2858Y1432D01*
X2868D01*
X2878Y1422D01*
X3244Y1585D02*
X3254Y1605D01*
X3244Y1625D01*
X3264Y1615D01*
X3284Y1625D01*
X3274Y1605D01*
X3284Y1585D01*
X3264Y1595D01*
X3244Y1585D01*
X2655Y1843D02*
X2665Y1863D01*
X2655Y1883D01*
X2675Y1873D01*
X2695Y1883D01*
X2685Y1863D01*
X2695Y1843D01*
X2675Y1853D01*
X2655Y1843D01*
X2680Y1538D02*
X2690Y1548D01*
X2700D01*
X2690Y1558D01*
X2700Y1568D01*
X2690D01*
X2680Y1578D01*
X2670Y1568D01*
X2660D01*
X2670Y1558D01*
X2660Y1548D01*
X2670D01*
X2680Y1538D01*
X3252Y1509D02*
X3262Y1529D01*
X3252Y1549D01*
X3272Y1539D01*
X3292Y1549D01*
X3282Y1529D01*
X3292Y1509D01*
X3272Y1519D01*
X3252Y1509D01*
X2492Y1644D02*
Y1634D01*
X2512D01*
Y1644D01*
X2522D01*
Y1664D01*
X2512D01*
Y1674D01*
X2492D01*
Y1664D01*
X2482D01*
Y1644D01*
X2492D01*
X2518Y1671D02*
Y1661D01*
X2538D01*
Y1671D01*
X2548D01*
Y1691D01*
X2538D01*
Y1701D01*
X2518D01*
Y1691D01*
X2508D01*
Y1671D01*
X2518D01*
X2492Y1671D02*
Y1661D01*
X2512D01*
Y1671D01*
X2522D01*
Y1691D01*
X2512D01*
Y1701D01*
X2492D01*
Y1691D01*
X2482D01*
Y1671D01*
X2492D01*
X2517Y1645D02*
Y1635D01*
X2537D01*
Y1645D01*
X2547D01*
Y1665D01*
X2537D01*
Y1675D01*
X2517D01*
Y1665D01*
X2507D01*
Y1645D01*
X2517D01*
X2516Y1616D02*
Y1606D01*
X2536D01*
Y1616D01*
X2546D01*
Y1636D01*
X2536D01*
Y1646D01*
X2516D01*
Y1636D01*
X2506D01*
Y1616D01*
X2516D01*
X2492D02*
Y1606D01*
X2512D01*
Y1616D01*
X2522D01*
Y1636D01*
X2512D01*
Y1646D01*
X2492D01*
Y1636D01*
X2482D01*
Y1616D01*
X2492D01*
X2468D02*
Y1606D01*
X2488D01*
Y1616D01*
X2498D01*
Y1636D01*
X2488D01*
Y1646D01*
X2468D01*
Y1636D01*
X2458D01*
Y1616D01*
X2468D01*
Y1644D02*
Y1634D01*
X2488D01*
Y1644D01*
X2498D01*
Y1664D01*
X2488D01*
Y1674D01*
X2468D01*
Y1664D01*
X2458D01*
Y1644D01*
X2468D01*
Y1671D02*
Y1661D01*
X2488D01*
Y1671D01*
X2498D01*
Y1691D01*
X2488D01*
Y1701D01*
X2468D01*
Y1691D01*
X2458D01*
Y1671D01*
X2468D01*
Y1589D02*
Y1579D01*
X2488D01*
Y1589D01*
X2498D01*
Y1609D01*
X2488D01*
Y1619D01*
X2468D01*
Y1609D01*
X2458D01*
Y1589D01*
X2468D01*
X2492D02*
Y1579D01*
X2512D01*
Y1589D01*
X2522D01*
Y1609D01*
X2512D01*
Y1619D01*
X2492D01*
Y1609D01*
X2482D01*
Y1589D01*
X2492D01*
X2517D02*
Y1579D01*
X2537D01*
Y1589D01*
X2547D01*
Y1609D01*
X2537D01*
Y1619D01*
X2517D01*
Y1609D01*
X2507D01*
Y1589D01*
X2517D01*
X3098Y1579D02*
Y1569D01*
X3118D01*
Y1579D01*
X3128D01*
Y1599D01*
X3118D01*
Y1609D01*
X3098D01*
Y1599D01*
X3088D01*
Y1579D01*
X3098D01*
X3073D02*
Y1569D01*
X3093D01*
Y1579D01*
X3103D01*
Y1599D01*
X3093D01*
Y1609D01*
X3073D01*
Y1599D01*
X3063D01*
Y1579D01*
X3073D01*
X3049D02*
Y1569D01*
X3069D01*
Y1579D01*
X3079D01*
Y1599D01*
X3069D01*
Y1609D01*
X3049D01*
Y1599D01*
X3039D01*
Y1579D01*
X3049D01*
Y1661D02*
Y1651D01*
X3069D01*
Y1661D01*
X3079D01*
Y1681D01*
X3069D01*
Y1691D01*
X3049D01*
Y1681D01*
X3039D01*
Y1661D01*
X3049D01*
Y1634D02*
Y1624D01*
X3069D01*
Y1634D01*
X3079D01*
Y1654D01*
X3069D01*
Y1664D01*
X3049D01*
Y1654D01*
X3039D01*
Y1634D01*
X3049D01*
Y1606D02*
Y1596D01*
X3069D01*
Y1606D01*
X3079D01*
Y1626D01*
X3069D01*
Y1636D01*
X3049D01*
Y1626D01*
X3039D01*
Y1606D01*
X3049D01*
X3073D02*
Y1596D01*
X3093D01*
Y1606D01*
X3103D01*
Y1626D01*
X3093D01*
Y1636D01*
X3073D01*
Y1626D01*
X3063D01*
Y1606D01*
X3073D01*
X3097D02*
Y1596D01*
X3117D01*
Y1606D01*
X3127D01*
Y1626D01*
X3117D01*
Y1636D01*
X3097D01*
Y1626D01*
X3087D01*
Y1606D01*
X3097D01*
X3098Y1635D02*
Y1625D01*
X3118D01*
Y1635D01*
X3128D01*
Y1655D01*
X3118D01*
Y1665D01*
X3098D01*
Y1655D01*
X3088D01*
Y1635D01*
X3098D01*
X3073Y1661D02*
Y1651D01*
X3093D01*
Y1661D01*
X3103D01*
Y1681D01*
X3093D01*
Y1691D01*
X3073D01*
Y1681D01*
X3063D01*
Y1661D01*
X3073D01*
X3099Y1661D02*
Y1651D01*
X3119D01*
Y1661D01*
X3129D01*
Y1681D01*
X3119D01*
Y1691D01*
X3099D01*
Y1681D01*
X3089D01*
Y1661D01*
X3099D01*
X3073Y1634D02*
Y1624D01*
X3093D01*
Y1634D01*
X3103D01*
Y1654D01*
X3093D01*
Y1664D01*
X3073D01*
Y1654D01*
X3063D01*
Y1634D01*
X3073D01*
X2579Y520D02*
X2559Y560D01*
X2599D01*
X2579Y520D01*
X2540D02*
X2520Y560D01*
X2560D01*
X2540Y520D01*
X2500D02*
X2480Y560D01*
X2520D01*
X2500Y520D01*
X2461D02*
X2441Y560D01*
X2481D01*
X2461Y520D01*
X2422D02*
X2402Y560D01*
X2442D01*
X2422Y520D01*
X2382D02*
X2362Y560D01*
X2402D01*
X2382Y520D01*
X2579Y481D02*
X2559Y521D01*
X2599D01*
X2579Y481D01*
X2540D02*
X2520Y521D01*
X2560D01*
X2540Y481D01*
X2500D02*
X2480Y521D01*
X2520D01*
X2500Y481D01*
X2461D02*
X2441Y521D01*
X2481D01*
X2461Y481D01*
X2422D02*
X2402Y521D01*
X2442D01*
X2422Y481D01*
X2382D02*
X2362Y521D01*
X2402D01*
X2382Y481D01*
X2579Y441D02*
X2559Y481D01*
X2599D01*
X2579Y441D01*
X2540D02*
X2520Y481D01*
X2560D01*
X2540Y441D01*
X2500D02*
X2480Y481D01*
X2520D01*
X2500Y441D01*
X2461D02*
X2441Y481D01*
X2481D01*
X2461Y441D01*
X2422D02*
X2402Y481D01*
X2442D01*
X2422Y441D01*
X2382D02*
X2362Y481D01*
X2402D01*
X2382Y441D01*
X2579Y402D02*
X2559Y442D01*
X2599D01*
X2579Y402D01*
X2540D02*
X2520Y442D01*
X2560D01*
X2540Y402D01*
X2500D02*
X2480Y442D01*
X2520D01*
X2500Y402D01*
X2461D02*
X2441Y442D01*
X2481D01*
X2461Y402D01*
X2422D02*
X2402Y442D01*
X2442D01*
X2422Y402D01*
X2382D02*
X2362Y442D01*
X2402D01*
X2382Y402D01*
X2579Y363D02*
X2559Y403D01*
X2599D01*
X2579Y363D01*
X2540D02*
X2520Y403D01*
X2560D01*
X2540Y363D01*
X2500D02*
X2480Y403D01*
X2520D01*
X2500Y363D01*
X2461D02*
X2441Y403D01*
X2481D01*
X2461Y363D01*
X2422D02*
X2402Y403D01*
X2442D01*
X2422Y363D01*
X2382D02*
X2362Y403D01*
X2402D01*
X2382Y363D01*
X2579Y323D02*
X2559Y363D01*
X2599D01*
X2579Y323D01*
X2540D02*
X2520Y363D01*
X2560D01*
X2540Y323D01*
X2500D02*
X2480Y363D01*
X2520D01*
X2500Y323D01*
X2461D02*
X2441Y363D01*
X2481D01*
X2461Y323D01*
X2422D02*
X2402Y363D01*
X2442D01*
X2422Y323D01*
X2382D02*
X2362Y363D01*
X2402D01*
X2382Y323D01*
X2382Y520D02*
X2362Y560D01*
X2402D01*
X2382Y520D01*
X2422D02*
X2402Y560D01*
X2442D01*
X2422Y520D01*
X2461D02*
X2441Y560D01*
X2481D01*
X2461Y520D01*
X2500D02*
X2480Y560D01*
X2520D01*
X2500Y520D01*
X2540D02*
X2520Y560D01*
X2560D01*
X2540Y520D01*
X2579D02*
X2559Y560D01*
X2599D01*
X2579Y520D01*
Y481D02*
X2559Y521D01*
X2599D01*
X2579Y481D01*
X2540D02*
X2520Y521D01*
X2560D01*
X2540Y481D01*
X2500D02*
X2480Y521D01*
X2520D01*
X2500Y481D01*
X2461D02*
X2441Y521D01*
X2481D01*
X2461Y481D01*
X2422D02*
X2402Y521D01*
X2442D01*
X2422Y481D01*
X2382D02*
X2362Y521D01*
X2402D01*
X2382Y481D01*
X2579Y441D02*
X2559Y481D01*
X2599D01*
X2579Y441D01*
X2540D02*
X2520Y481D01*
X2560D01*
X2540Y441D01*
X2500D02*
X2480Y481D01*
X2520D01*
X2500Y441D01*
X2461D02*
X2441Y481D01*
X2481D01*
X2461Y441D01*
X2422D02*
X2402Y481D01*
X2442D01*
X2422Y441D01*
X2382D02*
X2362Y481D01*
X2402D01*
X2382Y441D01*
X2579Y402D02*
X2559Y442D01*
X2599D01*
X2579Y402D01*
X2540D02*
X2520Y442D01*
X2560D01*
X2540Y402D01*
X2500D02*
X2480Y442D01*
X2520D01*
X2500Y402D01*
X2461D02*
X2441Y442D01*
X2481D01*
X2461Y402D01*
X2422D02*
X2402Y442D01*
X2442D01*
X2422Y402D01*
X2382D02*
X2362Y442D01*
X2402D01*
X2382Y402D01*
X2579Y363D02*
X2559Y403D01*
X2599D01*
X2579Y363D01*
X2540D02*
X2520Y403D01*
X2560D01*
X2540Y363D01*
X2500D02*
X2480Y403D01*
X2520D01*
X2500Y363D01*
X2461D02*
X2441Y403D01*
X2481D01*
X2461Y363D01*
X2422D02*
X2402Y403D01*
X2442D01*
X2422Y363D01*
X2382D02*
X2362Y403D01*
X2402D01*
X2382Y363D01*
X2579Y323D02*
X2559Y363D01*
X2599D01*
X2579Y323D01*
X2540D02*
X2520Y363D01*
X2560D01*
X2540Y323D01*
X2500D02*
X2480Y363D01*
X2520D01*
X2500Y323D01*
X2461D02*
X2441Y363D01*
X2481D01*
X2461Y323D01*
X2422D02*
X2402Y363D01*
X2442D01*
X2422Y323D01*
X2382D02*
X2362Y363D01*
X2402D01*
X2382Y323D01*
X3051Y520D02*
X3031Y560D01*
X3071D01*
X3051Y520D01*
X3012D02*
X2992Y560D01*
X3032D01*
X3012Y520D01*
X2973D02*
X2953Y560D01*
X2993D01*
X2973Y520D01*
X2933D02*
X2913Y560D01*
X2953D01*
X2933Y520D01*
X2894D02*
X2874Y560D01*
X2914D01*
X2894Y520D01*
X2855D02*
X2835Y560D01*
X2875D01*
X2855Y520D01*
X3051Y481D02*
X3031Y521D01*
X3071D01*
X3051Y481D01*
X3012D02*
X2992Y521D01*
X3032D01*
X3012Y481D01*
X2973D02*
X2953Y521D01*
X2993D01*
X2973Y481D01*
X2933D02*
X2913Y521D01*
X2953D01*
X2933Y481D01*
X2894D02*
X2874Y521D01*
X2914D01*
X2894Y481D01*
X2855D02*
X2835Y521D01*
X2875D01*
X2855Y481D01*
X3051Y441D02*
X3031Y481D01*
X3071D01*
X3051Y441D01*
X3012D02*
X2992Y481D01*
X3032D01*
X3012Y441D01*
X2973D02*
X2953Y481D01*
X2993D01*
X2973Y441D01*
X2933D02*
X2913Y481D01*
X2953D01*
X2933Y441D01*
X2894D02*
X2874Y481D01*
X2914D01*
X2894Y441D01*
X2855D02*
X2835Y481D01*
X2875D01*
X2855Y441D01*
X3051Y402D02*
X3031Y442D01*
X3071D01*
X3051Y402D01*
X3012D02*
X2992Y442D01*
X3032D01*
X3012Y402D01*
X2973D02*
X2953Y442D01*
X2993D01*
X2973Y402D01*
X2933D02*
X2913Y442D01*
X2953D01*
X2933Y402D01*
X2894D02*
X2874Y442D01*
X2914D01*
X2894Y402D01*
X2855D02*
X2835Y442D01*
X2875D01*
X2855Y402D01*
X3051Y363D02*
X3031Y403D01*
X3071D01*
X3051Y363D01*
X3012D02*
X2992Y403D01*
X3032D01*
X3012Y363D01*
X2973D02*
X2953Y403D01*
X2993D01*
X2973Y363D01*
X2933D02*
X2913Y403D01*
X2953D01*
X2933Y363D01*
X2894D02*
X2874Y403D01*
X2914D01*
X2894Y363D01*
X2855D02*
X2835Y403D01*
X2875D01*
X2855Y363D01*
X3051Y323D02*
X3031Y363D01*
X3071D01*
X3051Y323D01*
X3012D02*
X2992Y363D01*
X3032D01*
X3012Y323D01*
X2973D02*
X2953Y363D01*
X2993D01*
X2973Y323D01*
X2933D02*
X2913Y363D01*
X2953D01*
X2933Y323D01*
X2894D02*
X2874Y363D01*
X2914D01*
X2894Y323D01*
X2855D02*
X2835Y363D01*
X2875D01*
X2855Y323D01*
X1403Y1409D02*
X1383Y1449D01*
X1423D01*
X1403Y1409D01*
Y1369D02*
X1383Y1409D01*
X1423D01*
X1403Y1369D01*
Y1330D02*
X1383Y1370D01*
X1423D01*
X1403Y1330D01*
Y1291D02*
X1383Y1331D01*
X1423D01*
X1403Y1291D01*
X1442Y1409D02*
X1422Y1449D01*
X1462D01*
X1442Y1409D01*
Y1369D02*
X1422Y1409D01*
X1462D01*
X1442Y1369D01*
Y1330D02*
X1422Y1370D01*
X1462D01*
X1442Y1330D01*
Y1291D02*
X1422Y1331D01*
X1462D01*
X1442Y1291D01*
X1482Y1409D02*
X1462Y1449D01*
X1502D01*
X1482Y1409D01*
Y1369D02*
X1462Y1409D01*
X1502D01*
X1482Y1369D01*
Y1330D02*
X1462Y1370D01*
X1502D01*
X1482Y1330D01*
Y1291D02*
X1462Y1331D01*
X1502D01*
X1482Y1291D01*
X1521Y1409D02*
X1501Y1449D01*
X1541D01*
X1521Y1409D01*
Y1369D02*
X1501Y1409D01*
X1541D01*
X1521Y1369D01*
Y1330D02*
X1501Y1370D01*
X1541D01*
X1521Y1330D01*
Y1291D02*
X1501Y1331D01*
X1541D01*
X1521Y1291D01*
X1403Y1094D02*
X1383Y1134D01*
X1423D01*
X1403Y1094D01*
Y1054D02*
X1383Y1094D01*
X1423D01*
X1403Y1054D01*
Y1015D02*
X1383Y1055D01*
X1423D01*
X1403Y1015D01*
Y976D02*
X1383Y1016D01*
X1423D01*
X1403Y976D01*
X1442Y1094D02*
X1422Y1134D01*
X1462D01*
X1442Y1094D01*
Y1054D02*
X1422Y1094D01*
X1462D01*
X1442Y1054D01*
Y1015D02*
X1422Y1055D01*
X1462D01*
X1442Y1015D01*
Y976D02*
X1422Y1016D01*
X1462D01*
X1442Y976D01*
X1482Y1094D02*
X1462Y1134D01*
X1502D01*
X1482Y1094D01*
Y1054D02*
X1462Y1094D01*
X1502D01*
X1482Y1054D01*
Y1015D02*
X1462Y1055D01*
X1502D01*
X1482Y1015D01*
Y976D02*
X1462Y1016D01*
X1502D01*
X1482Y976D01*
X1521Y1094D02*
X1501Y1134D01*
X1541D01*
X1521Y1094D01*
Y1054D02*
X1501Y1094D01*
X1541D01*
X1521Y1054D01*
Y1015D02*
X1501Y1055D01*
X1541D01*
X1521Y1015D01*
Y976D02*
X1501Y1016D01*
X1541D01*
X1521Y976D01*
X1529Y1869D02*
X1509Y1909D01*
X1549D01*
X1529Y1869D01*
Y1908D02*
X1509Y1948D01*
X1549D01*
X1529Y1908D01*
Y1948D02*
X1509Y1988D01*
X1549D01*
X1529Y1948D01*
Y1987D02*
X1509Y2027D01*
X1549D01*
X1529Y1987D01*
X1490Y1869D02*
X1470Y1909D01*
X1510D01*
X1490Y1869D01*
Y1908D02*
X1470Y1948D01*
X1510D01*
X1490Y1908D01*
Y1948D02*
X1470Y1988D01*
X1510D01*
X1490Y1948D01*
Y1987D02*
X1470Y2027D01*
X1510D01*
X1490Y1987D01*
X1450Y1869D02*
X1430Y1909D01*
X1470D01*
X1450Y1869D01*
Y1908D02*
X1430Y1948D01*
X1470D01*
X1450Y1908D01*
Y1948D02*
X1430Y1988D01*
X1470D01*
X1450Y1948D01*
Y1987D02*
X1430Y2027D01*
X1470D01*
X1450Y1987D01*
X1411Y1869D02*
X1391Y1909D01*
X1431D01*
X1411Y1869D01*
Y1908D02*
X1391Y1948D01*
X1431D01*
X1411Y1908D01*
Y1948D02*
X1391Y1988D01*
X1431D01*
X1411Y1948D01*
Y1987D02*
X1391Y2027D01*
X1431D01*
X1411Y1987D01*
X1529Y2184D02*
X1509Y2224D01*
X1549D01*
X1529Y2184D01*
Y2223D02*
X1509Y2263D01*
X1549D01*
X1529Y2223D01*
Y2263D02*
X1509Y2303D01*
X1549D01*
X1529Y2263D01*
Y2302D02*
X1509Y2342D01*
X1549D01*
X1529Y2302D01*
X1490Y2184D02*
X1470Y2224D01*
X1510D01*
X1490Y2184D01*
Y2223D02*
X1470Y2263D01*
X1510D01*
X1490Y2223D01*
Y2263D02*
X1470Y2303D01*
X1510D01*
X1490Y2263D01*
Y2302D02*
X1470Y2342D01*
X1510D01*
X1490Y2302D01*
X1450Y2184D02*
X1430Y2224D01*
X1470D01*
X1450Y2184D01*
Y2223D02*
X1430Y2263D01*
X1470D01*
X1450Y2223D01*
Y2263D02*
X1430Y2303D01*
X1470D01*
X1450Y2263D01*
Y2302D02*
X1430Y2342D01*
X1470D01*
X1450Y2302D01*
X1411Y2184D02*
X1391Y2224D01*
X1431D01*
X1411Y2184D01*
Y2223D02*
X1391Y2263D01*
X1431D01*
X1411Y2223D01*
Y2263D02*
X1391Y2303D01*
X1431D01*
X1411Y2263D01*
Y2302D02*
X1391Y2342D01*
X1431D01*
X1411Y2302D01*
X3936Y2310D02*
X3916Y2350D01*
X3956D01*
X3936Y2310D01*
Y2271D02*
X3916Y2311D01*
X3956D01*
X3936Y2271D01*
Y2231D02*
X3916Y2271D01*
X3956D01*
X3936Y2231D01*
Y2192D02*
X3916Y2232D01*
X3956D01*
X3936Y2192D01*
X3975Y2310D02*
X3955Y2350D01*
X3995D01*
X3975Y2310D01*
Y2271D02*
X3955Y2311D01*
X3995D01*
X3975Y2271D01*
Y2231D02*
X3955Y2271D01*
X3995D01*
X3975Y2231D01*
Y2192D02*
X3955Y2232D01*
X3995D01*
X3975Y2192D01*
X4014Y2310D02*
X3994Y2350D01*
X4034D01*
X4014Y2310D01*
Y2271D02*
X3994Y2311D01*
X4034D01*
X4014Y2271D01*
Y2231D02*
X3994Y2271D01*
X4034D01*
X4014Y2231D01*
Y2192D02*
X3994Y2232D01*
X4034D01*
X4014Y2192D01*
X4054Y2310D02*
X4034Y2350D01*
X4074D01*
X4054Y2310D01*
Y2271D02*
X4034Y2311D01*
X4074D01*
X4054Y2271D01*
Y2231D02*
X4034Y2271D01*
X4074D01*
X4054Y2231D01*
Y2192D02*
X4034Y2232D01*
X4074D01*
X4054Y2192D01*
X3936Y1995D02*
X3916Y2035D01*
X3956D01*
X3936Y1995D01*
Y1956D02*
X3916Y1996D01*
X3956D01*
X3936Y1956D01*
Y1916D02*
X3916Y1956D01*
X3956D01*
X3936Y1916D01*
Y1877D02*
X3916Y1917D01*
X3956D01*
X3936Y1877D01*
X3975Y1995D02*
X3955Y2035D01*
X3995D01*
X3975Y1995D01*
Y1956D02*
X3955Y1996D01*
X3995D01*
X3975Y1956D01*
Y1916D02*
X3955Y1956D01*
X3995D01*
X3975Y1916D01*
Y1877D02*
X3955Y1917D01*
X3995D01*
X3975Y1877D01*
X4014Y1995D02*
X3994Y2035D01*
X4034D01*
X4014Y1995D01*
Y1956D02*
X3994Y1996D01*
X4034D01*
X4014Y1956D01*
Y1916D02*
X3994Y1956D01*
X4034D01*
X4014Y1916D01*
Y1877D02*
X3994Y1917D01*
X4034D01*
X4014Y1877D01*
X4054Y1995D02*
X4034Y2035D01*
X4074D01*
X4054Y1995D01*
Y1956D02*
X4034Y1996D01*
X4074D01*
X4054Y1956D01*
Y1916D02*
X4034Y1956D01*
X4074D01*
X4054Y1916D01*
Y1877D02*
X4034Y1917D01*
X4074D01*
X4054Y1877D01*
X4061Y972D02*
X4041Y1012D01*
X4081D01*
X4061Y972D01*
Y1011D02*
X4041Y1051D01*
X4081D01*
X4061Y1011D01*
Y1051D02*
X4041Y1091D01*
X4081D01*
X4061Y1051D01*
Y1090D02*
X4041Y1130D01*
X4081D01*
X4061Y1090D01*
X4022Y972D02*
X4002Y1012D01*
X4042D01*
X4022Y972D01*
Y1011D02*
X4002Y1051D01*
X4042D01*
X4022Y1011D01*
Y1051D02*
X4002Y1091D01*
X4042D01*
X4022Y1051D01*
Y1090D02*
X4002Y1130D01*
X4042D01*
X4022Y1090D01*
X3983Y972D02*
X3963Y1012D01*
X4003D01*
X3983Y972D01*
Y1011D02*
X3963Y1051D01*
X4003D01*
X3983Y1011D01*
Y1051D02*
X3963Y1091D01*
X4003D01*
X3983Y1051D01*
Y1090D02*
X3963Y1130D01*
X4003D01*
X3983Y1090D01*
X3943Y972D02*
X3923Y1012D01*
X3963D01*
X3943Y972D01*
Y1011D02*
X3923Y1051D01*
X3963D01*
X3943Y1011D01*
Y1051D02*
X3923Y1091D01*
X3963D01*
X3943Y1051D01*
Y1090D02*
X3923Y1130D01*
X3963D01*
X3943Y1090D01*
X4061Y1287D02*
X4041Y1327D01*
X4081D01*
X4061Y1287D01*
Y1326D02*
X4041Y1366D01*
X4081D01*
X4061Y1326D01*
Y1365D02*
X4041Y1405D01*
X4081D01*
X4061Y1365D01*
Y1405D02*
X4041Y1445D01*
X4081D01*
X4061Y1405D01*
X4022Y1287D02*
X4002Y1327D01*
X4042D01*
X4022Y1287D01*
Y1326D02*
X4002Y1366D01*
X4042D01*
X4022Y1326D01*
Y1365D02*
X4002Y1405D01*
X4042D01*
X4022Y1365D01*
Y1405D02*
X4002Y1445D01*
X4042D01*
X4022Y1405D01*
X3983Y1287D02*
X3963Y1327D01*
X4003D01*
X3983Y1287D01*
Y1326D02*
X3963Y1366D01*
X4003D01*
X3983Y1326D01*
Y1365D02*
X3963Y1405D01*
X4003D01*
X3983Y1365D01*
Y1405D02*
X3963Y1445D01*
X4003D01*
X3983Y1405D01*
X3943Y1287D02*
X3923Y1327D01*
X3963D01*
X3943Y1287D01*
Y1326D02*
X3923Y1366D01*
X3963D01*
X3943Y1326D01*
Y1365D02*
X3923Y1405D01*
X3963D01*
X3943Y1365D01*
Y1405D02*
X3923Y1445D01*
X3963D01*
X3943Y1405D01*
X3771Y450D02*
X3751Y490D01*
X3791D01*
X3771Y450D01*
X3731D02*
X3711Y490D01*
X3751D01*
X3731Y450D01*
X3692D02*
X3672Y490D01*
X3712D01*
X3692Y450D01*
X3653D02*
X3633Y490D01*
X3673D01*
X3653Y450D01*
X3771Y410D02*
X3751Y450D01*
X3791D01*
X3771Y410D01*
X3731D02*
X3711Y450D01*
X3751D01*
X3731Y410D01*
X3692D02*
X3672Y450D01*
X3712D01*
X3692Y410D01*
X3653D02*
X3633Y450D01*
X3673D01*
X3653Y410D01*
X3771Y371D02*
X3751Y411D01*
X3791D01*
X3771Y371D01*
X3731D02*
X3711Y411D01*
X3751D01*
X3731Y371D01*
X3692D02*
X3672Y411D01*
X3712D01*
X3692Y371D01*
X3653D02*
X3633Y411D01*
X3673D01*
X3653Y371D01*
X3771Y332D02*
X3751Y372D01*
X3791D01*
X3771Y332D01*
X3731D02*
X3711Y372D01*
X3751D01*
X3731Y332D01*
X3692D02*
X3672Y372D01*
X3712D01*
X3692Y332D01*
X3653D02*
X3633Y372D01*
X3673D01*
X3653Y332D01*
X3456Y450D02*
X3436Y490D01*
X3476D01*
X3456Y450D01*
X3416D02*
X3396Y490D01*
X3436D01*
X3416Y450D01*
X3377D02*
X3357Y490D01*
X3397D01*
X3377Y450D01*
X3338D02*
X3318Y490D01*
X3358D01*
X3338Y450D01*
X3456Y410D02*
X3436Y450D01*
X3476D01*
X3456Y410D01*
X3416D02*
X3396Y450D01*
X3436D01*
X3416Y410D01*
X3377D02*
X3357Y450D01*
X3397D01*
X3377Y410D01*
X3338D02*
X3318Y450D01*
X3358D01*
X3338Y410D01*
X3456Y371D02*
X3436Y411D01*
X3476D01*
X3456Y371D01*
X3416D02*
X3396Y411D01*
X3436D01*
X3416Y371D01*
X3377D02*
X3357Y411D01*
X3397D01*
X3377Y371D01*
X3338D02*
X3318Y411D01*
X3358D01*
X3338Y371D01*
X3456Y332D02*
X3436Y372D01*
X3476D01*
X3456Y332D01*
X3416D02*
X3396Y372D01*
X3436D01*
X3416Y332D01*
X3377D02*
X3357Y372D01*
X3397D01*
X3377Y332D01*
X3338D02*
X3318Y372D01*
X3358D01*
X3338Y332D01*
X2117Y450D02*
X2097Y490D01*
X2137D01*
X2117Y450D01*
X2077D02*
X2057Y490D01*
X2097D01*
X2077Y450D01*
X2117Y410D02*
X2097Y450D01*
X2137D01*
X2117Y410D01*
X2077D02*
X2057Y450D01*
X2097D01*
X2077Y410D01*
X2117Y371D02*
X2097Y411D01*
X2137D01*
X2117Y371D01*
X2077D02*
X2057Y411D01*
X2097D01*
X2077Y371D01*
X2117Y332D02*
X2097Y372D01*
X2137D01*
X2117Y332D01*
X2077D02*
X2057Y372D01*
X2097D01*
X2077Y332D01*
X1802Y450D02*
X1782Y490D01*
X1822D01*
X1802Y450D01*
X1763D02*
X1743Y490D01*
X1783D01*
X1763Y450D01*
X1723D02*
X1703Y490D01*
X1743D01*
X1723Y450D01*
X1684D02*
X1664Y490D01*
X1704D01*
X1684Y450D01*
X1802Y410D02*
X1782Y450D01*
X1822D01*
X1802Y410D01*
X1763D02*
X1743Y450D01*
X1783D01*
X1763Y410D01*
X1723D02*
X1703Y450D01*
X1743D01*
X1723Y410D01*
X1684D02*
X1664Y450D01*
X1704D01*
X1684Y410D01*
X1802Y371D02*
X1782Y411D01*
X1822D01*
X1802Y371D01*
X1763D02*
X1743Y411D01*
X1783D01*
X1763Y371D01*
X1723D02*
X1703Y411D01*
X1743D01*
X1723Y371D01*
X1684D02*
X1664Y411D01*
X1704D01*
X1684Y371D01*
X1802Y332D02*
X1782Y372D01*
X1822D01*
X1802Y332D01*
X1763D02*
X1743Y372D01*
X1783D01*
X1763Y332D01*
X1723D02*
X1703Y372D01*
X1743D01*
X1723Y332D01*
X1684D02*
X1664Y372D01*
X1704D01*
X1684Y332D01*
X2117Y2986D02*
X2097Y3026D01*
X2137D01*
X2117Y2986D01*
X2077D02*
X2057Y3026D01*
X2097D01*
X2077Y2986D01*
X2038D02*
X2018Y3026D01*
X2058D01*
X2038Y2986D01*
X1999D02*
X1979Y3026D01*
X2019D01*
X1999Y2986D01*
X2117Y2947D02*
X2097Y2987D01*
X2137D01*
X2117Y2947D01*
X2077D02*
X2057Y2987D01*
X2097D01*
X2077Y2947D01*
X2038D02*
X2018Y2987D01*
X2058D01*
X2038Y2947D01*
X1999D02*
X1979Y2987D01*
X2019D01*
X1999Y2947D01*
X2117Y2908D02*
X2097Y2948D01*
X2137D01*
X2117Y2908D01*
X2077D02*
X2057Y2948D01*
X2097D01*
X2077Y2908D01*
X2038D02*
X2018Y2948D01*
X2058D01*
X2038Y2908D01*
X1999D02*
X1979Y2948D01*
X2019D01*
X1999Y2908D01*
X2117Y2868D02*
X2097Y2908D01*
X2137D01*
X2117Y2868D01*
X2077D02*
X2057Y2908D01*
X2097D01*
X2077Y2868D01*
X2038D02*
X2018Y2908D01*
X2058D01*
X2038Y2868D01*
X1999D02*
X1979Y2908D01*
X2019D01*
X1999Y2868D01*
X1802Y2986D02*
X1782Y3026D01*
X1822D01*
X1802Y2986D01*
X1763D02*
X1743Y3026D01*
X1783D01*
X1763Y2986D01*
X1723D02*
X1703Y3026D01*
X1743D01*
X1723Y2986D01*
X1684D02*
X1664Y3026D01*
X1704D01*
X1684Y2986D01*
X1802Y2947D02*
X1782Y2987D01*
X1822D01*
X1802Y2947D01*
X1763D02*
X1743Y2987D01*
X1783D01*
X1763Y2947D01*
X1723D02*
X1703Y2987D01*
X1743D01*
X1723Y2947D01*
X1684D02*
X1664Y2987D01*
X1704D01*
X1684Y2947D01*
X1802Y2908D02*
X1782Y2948D01*
X1822D01*
X1802Y2908D01*
X1763D02*
X1743Y2948D01*
X1783D01*
X1763Y2908D01*
X1723D02*
X1703Y2948D01*
X1743D01*
X1723Y2908D01*
X1684D02*
X1664Y2948D01*
X1704D01*
X1684Y2908D01*
X1802Y2868D02*
X1782Y2908D01*
X1822D01*
X1802Y2868D01*
X1763D02*
X1743Y2908D01*
X1783D01*
X1763Y2868D01*
X1723D02*
X1703Y2908D01*
X1743D01*
X1723Y2868D01*
X1684D02*
X1664Y2908D01*
X1704D01*
X1684Y2868D01*
X2038Y332D02*
X2018Y372D01*
X2058D01*
X2038Y332D01*
Y410D02*
X2018Y450D01*
X2058D01*
X2038Y410D01*
Y450D02*
X2018Y490D01*
X2058D01*
X2038Y450D01*
Y371D02*
X2018Y411D01*
X2058D01*
X2038Y371D01*
X1999Y332D02*
X1979Y372D01*
X2019D01*
X1999Y332D01*
Y410D02*
X1979Y450D01*
X2019D01*
X1999Y410D01*
Y450D02*
X1979Y490D01*
X2019D01*
X1999Y450D01*
Y371D02*
X1979Y411D01*
X2019D01*
X1999Y371D01*
D63*
X1494Y2926D02*
G03*
X1494Y2926I-20J0D01*
G01*
Y421D02*
G03*
X1494Y421I-20J0D01*
G01*
X4004D02*
G03*
X4004Y421I-20J0D01*
G01*
Y2926D02*
G03*
X4004Y2926I-20J0D01*
G01*
M02*
