G04 Layer_Color=128*
%FSLAX23Y23*%
%MOIN*%
G70*
G01*
G75*
%ADD40C,0.005*%
D40*
X2655Y784D02*
X2690D01*
X2672Y766D02*
Y802D01*
X2754Y784D02*
X2789D01*
X2772Y766D02*
Y802D01*
X1411Y2926D02*
X1536D01*
X1474Y2864D02*
Y2989D01*
X1411Y421D02*
X1536D01*
X1474Y359D02*
Y484D01*
X3921Y421D02*
X4047D01*
X3984Y359D02*
Y484D01*
X3921Y2926D02*
X4047D01*
X3984Y2864D02*
Y2989D01*
X2562Y2351D02*
X2596D01*
X2579Y2333D02*
Y2368D01*
X2661Y2351D02*
X2697D01*
X2679Y2333D02*
Y2368D01*
X2761Y2351D02*
X2796D01*
X2779Y2333D02*
Y2368D01*
X2862Y2351D02*
X2897D01*
X2879Y2333D02*
Y2368D01*
X2862Y2251D02*
X2897D01*
X2879Y2234D02*
Y2269D01*
X2761Y2251D02*
X2796D01*
X2779Y2234D02*
Y2269D01*
X2661Y2251D02*
X2697D01*
X2679Y2234D02*
Y2269D01*
X2562Y2251D02*
X2596D01*
X2579Y2234D02*
Y2269D01*
X2260Y1268D02*
X2286D01*
X2273Y1255D02*
Y1281D01*
X2865Y1002D02*
X2891D01*
X2878Y989D02*
Y1015D01*
X3250Y1165D02*
X3278D01*
X3264Y1151D02*
Y1179D01*
X2661Y1423D02*
X2689D01*
X2675Y1409D02*
Y1437D01*
X2668Y1118D02*
X2693D01*
X2680Y1105D02*
Y1130D01*
X3258Y1089D02*
X3286D01*
X3272Y1075D02*
Y1103D01*
X2497Y1214D02*
X2507D01*
X2502Y1209D02*
Y1219D01*
X2523Y1241D02*
X2533D01*
X2528Y1236D02*
Y1246D01*
X2497Y1241D02*
X2507D01*
X2502Y1236D02*
Y1246D01*
X2522Y1215D02*
X2532D01*
X2527Y1210D02*
Y1220D01*
X2521Y1186D02*
X2531D01*
X2526Y1181D02*
Y1191D01*
X2497Y1186D02*
X2507D01*
X2502Y1181D02*
Y1191D01*
X2473Y1186D02*
X2483D01*
X2478Y1181D02*
Y1191D01*
X2473Y1214D02*
X2483D01*
X2478Y1209D02*
Y1219D01*
X2473Y1241D02*
X2483D01*
X2478Y1236D02*
Y1246D01*
X2473Y1159D02*
X2483D01*
X2478Y1154D02*
Y1164D01*
X2497Y1159D02*
X2507D01*
X2502Y1154D02*
Y1164D01*
X2522Y1159D02*
X2532D01*
X2527Y1154D02*
Y1164D01*
X3103Y1149D02*
X3113D01*
X3108Y1144D02*
Y1154D01*
X3078Y1149D02*
X3088D01*
X3083Y1144D02*
Y1154D01*
X3054Y1149D02*
X3064D01*
X3059Y1144D02*
Y1154D01*
X3054Y1231D02*
X3064D01*
X3059Y1226D02*
Y1236D01*
X3054Y1204D02*
X3064D01*
X3059Y1199D02*
Y1209D01*
X3054Y1176D02*
X3064D01*
X3059Y1171D02*
Y1181D01*
X3078Y1176D02*
X3088D01*
X3083Y1171D02*
Y1181D01*
X3102Y1176D02*
X3112D01*
X3107Y1171D02*
Y1181D01*
X3103Y1205D02*
X3113D01*
X3108Y1200D02*
Y1210D01*
X3078Y1231D02*
X3088D01*
X3083Y1226D02*
Y1236D01*
X3104Y1231D02*
X3114D01*
X3109Y1226D02*
Y1236D01*
X3078Y1204D02*
X3088D01*
X3083Y1199D02*
Y1209D01*
X2569Y540D02*
X2589D01*
X2579Y530D02*
Y550D01*
X2530Y540D02*
X2550D01*
X2540Y530D02*
Y550D01*
X2490Y540D02*
X2510D01*
X2500Y530D02*
Y550D01*
X2451Y540D02*
X2471D01*
X2461Y530D02*
Y550D01*
X2412Y540D02*
X2432D01*
X2422Y530D02*
Y550D01*
X2372Y540D02*
X2392D01*
X2382Y530D02*
Y550D01*
X2569Y501D02*
X2589D01*
X2579Y491D02*
Y511D01*
X2530Y501D02*
X2550D01*
X2540Y491D02*
Y511D01*
X2490Y501D02*
X2510D01*
X2500Y491D02*
Y511D01*
X2451Y501D02*
X2471D01*
X2461Y491D02*
Y511D01*
X2412Y501D02*
X2432D01*
X2422Y491D02*
Y511D01*
X2372Y501D02*
X2392D01*
X2382Y491D02*
Y511D01*
X2569Y461D02*
X2589D01*
X2579Y451D02*
Y471D01*
X2530Y461D02*
X2550D01*
X2540Y451D02*
Y471D01*
X2490Y461D02*
X2510D01*
X2500Y451D02*
Y471D01*
X2451Y461D02*
X2471D01*
X2461Y451D02*
Y471D01*
X2412Y461D02*
X2432D01*
X2422Y451D02*
Y471D01*
X2372Y461D02*
X2392D01*
X2382Y451D02*
Y471D01*
X2569Y422D02*
X2589D01*
X2579Y412D02*
Y432D01*
X2530Y422D02*
X2550D01*
X2540Y412D02*
Y432D01*
X2490Y422D02*
X2510D01*
X2500Y412D02*
Y432D01*
X2451Y422D02*
X2471D01*
X2461Y412D02*
Y432D01*
X2412Y422D02*
X2432D01*
X2422Y412D02*
Y432D01*
X2372Y422D02*
X2392D01*
X2382Y412D02*
Y432D01*
X2569Y383D02*
X2589D01*
X2579Y373D02*
Y393D01*
X2530Y383D02*
X2550D01*
X2540Y373D02*
Y393D01*
X2490Y383D02*
X2510D01*
X2500Y373D02*
Y393D01*
X2451Y383D02*
X2471D01*
X2461Y373D02*
Y393D01*
X2412Y383D02*
X2432D01*
X2422Y373D02*
Y393D01*
X2372Y383D02*
X2392D01*
X2382Y373D02*
Y393D01*
X2569Y343D02*
X2589D01*
X2579Y333D02*
Y353D01*
X2530Y343D02*
X2550D01*
X2540Y333D02*
Y353D01*
X2490Y343D02*
X2510D01*
X2500Y333D02*
Y353D01*
X2451Y343D02*
X2471D01*
X2461Y333D02*
Y353D01*
X2412Y343D02*
X2432D01*
X2422Y333D02*
Y353D01*
X2372Y343D02*
X2392D01*
X2382Y333D02*
Y353D01*
X2372Y540D02*
X2392D01*
X2382Y530D02*
Y550D01*
X2412Y540D02*
X2432D01*
X2422Y530D02*
Y550D01*
X2451Y540D02*
X2471D01*
X2461Y530D02*
Y550D01*
X2490Y540D02*
X2510D01*
X2500Y530D02*
Y550D01*
X2530Y540D02*
X2550D01*
X2540Y530D02*
Y550D01*
X2569Y540D02*
X2589D01*
X2579Y530D02*
Y550D01*
X2569Y501D02*
X2589D01*
X2579Y491D02*
Y511D01*
X2530Y501D02*
X2550D01*
X2540Y491D02*
Y511D01*
X2490Y501D02*
X2510D01*
X2500Y491D02*
Y511D01*
X2451Y501D02*
X2471D01*
X2461Y491D02*
Y511D01*
X2412Y501D02*
X2432D01*
X2422Y491D02*
Y511D01*
X2372Y501D02*
X2392D01*
X2382Y491D02*
Y511D01*
X2569Y461D02*
X2589D01*
X2579Y451D02*
Y471D01*
X2530Y461D02*
X2550D01*
X2540Y451D02*
Y471D01*
X2490Y461D02*
X2510D01*
X2500Y451D02*
Y471D01*
X2451Y461D02*
X2471D01*
X2461Y451D02*
Y471D01*
X2412Y461D02*
X2432D01*
X2422Y451D02*
Y471D01*
X2372Y461D02*
X2392D01*
X2382Y451D02*
Y471D01*
X2569Y422D02*
X2589D01*
X2579Y412D02*
Y432D01*
X2530Y422D02*
X2550D01*
X2540Y412D02*
Y432D01*
X2490Y422D02*
X2510D01*
X2500Y412D02*
Y432D01*
X2451Y422D02*
X2471D01*
X2461Y412D02*
Y432D01*
X2412Y422D02*
X2432D01*
X2422Y412D02*
Y432D01*
X2372Y422D02*
X2392D01*
X2382Y412D02*
Y432D01*
X2569Y383D02*
X2589D01*
X2579Y373D02*
Y393D01*
X2530Y383D02*
X2550D01*
X2540Y373D02*
Y393D01*
X2490Y383D02*
X2510D01*
X2500Y373D02*
Y393D01*
X2451Y383D02*
X2471D01*
X2461Y373D02*
Y393D01*
X2412Y383D02*
X2432D01*
X2422Y373D02*
Y393D01*
X2372Y383D02*
X2392D01*
X2382Y373D02*
Y393D01*
X2569Y343D02*
X2589D01*
X2579Y333D02*
Y353D01*
X2530Y343D02*
X2550D01*
X2540Y333D02*
Y353D01*
X2490Y343D02*
X2510D01*
X2500Y333D02*
Y353D01*
X2451Y343D02*
X2471D01*
X2461Y333D02*
Y353D01*
X2412Y343D02*
X2432D01*
X2422Y333D02*
Y353D01*
X2372Y343D02*
X2392D01*
X2382Y333D02*
Y353D01*
X3041Y540D02*
X3061D01*
X3051Y530D02*
Y550D01*
X3002Y540D02*
X3022D01*
X3012Y530D02*
Y550D01*
X2963Y540D02*
X2983D01*
X2973Y530D02*
Y550D01*
X2923Y540D02*
X2943D01*
X2933Y530D02*
Y550D01*
X2884Y540D02*
X2904D01*
X2894Y530D02*
Y550D01*
X2845Y540D02*
X2865D01*
X2855Y530D02*
Y550D01*
X3041Y501D02*
X3061D01*
X3051Y491D02*
Y511D01*
X3002Y501D02*
X3022D01*
X3012Y491D02*
Y511D01*
X2963Y501D02*
X2983D01*
X2973Y491D02*
Y511D01*
X2923Y501D02*
X2943D01*
X2933Y491D02*
Y511D01*
X2884Y501D02*
X2904D01*
X2894Y491D02*
Y511D01*
X2845Y501D02*
X2865D01*
X2855Y491D02*
Y511D01*
X3041Y461D02*
X3061D01*
X3051Y451D02*
Y471D01*
X3002Y461D02*
X3022D01*
X3012Y451D02*
Y471D01*
X2963Y461D02*
X2983D01*
X2973Y451D02*
Y471D01*
X2923Y461D02*
X2943D01*
X2933Y451D02*
Y471D01*
X2884Y461D02*
X2904D01*
X2894Y451D02*
Y471D01*
X2845Y461D02*
X2865D01*
X2855Y451D02*
Y471D01*
X3041Y422D02*
X3061D01*
X3051Y412D02*
Y432D01*
X3002Y422D02*
X3022D01*
X3012Y412D02*
Y432D01*
X2963Y422D02*
X2983D01*
X2973Y412D02*
Y432D01*
X2923Y422D02*
X2943D01*
X2933Y412D02*
Y432D01*
X2884Y422D02*
X2904D01*
X2894Y412D02*
Y432D01*
X2845Y422D02*
X2865D01*
X2855Y412D02*
Y432D01*
X3041Y383D02*
X3061D01*
X3051Y373D02*
Y393D01*
X3002Y383D02*
X3022D01*
X3012Y373D02*
Y393D01*
X2963Y383D02*
X2983D01*
X2973Y373D02*
Y393D01*
X2923Y383D02*
X2943D01*
X2933Y373D02*
Y393D01*
X2884Y383D02*
X2904D01*
X2894Y373D02*
Y393D01*
X2845Y383D02*
X2865D01*
X2855Y373D02*
Y393D01*
X3041Y343D02*
X3061D01*
X3051Y333D02*
Y353D01*
X3002Y343D02*
X3022D01*
X3012Y333D02*
Y353D01*
X2963Y343D02*
X2983D01*
X2973Y333D02*
Y353D01*
X2923Y343D02*
X2943D01*
X2933Y333D02*
Y353D01*
X2884Y343D02*
X2904D01*
X2894Y333D02*
Y353D01*
X2845Y343D02*
X2865D01*
X2855Y333D02*
Y353D01*
X1395Y1429D02*
X1415D01*
X1405Y1419D02*
Y1439D01*
X1395Y1389D02*
X1415D01*
X1405Y1379D02*
Y1399D01*
X1395Y1350D02*
X1415D01*
X1405Y1340D02*
Y1360D01*
X1395Y1311D02*
X1415D01*
X1405Y1301D02*
Y1321D01*
X1434Y1429D02*
X1454D01*
X1444Y1419D02*
Y1439D01*
X1434Y1389D02*
X1454D01*
X1444Y1379D02*
Y1399D01*
X1434Y1350D02*
X1454D01*
X1444Y1340D02*
Y1360D01*
X1434Y1311D02*
X1454D01*
X1444Y1301D02*
Y1321D01*
X1474Y1429D02*
X1494D01*
X1484Y1419D02*
Y1439D01*
X1474Y1389D02*
X1494D01*
X1484Y1379D02*
Y1399D01*
X1474Y1350D02*
X1494D01*
X1484Y1340D02*
Y1360D01*
X1474Y1311D02*
X1494D01*
X1484Y1301D02*
Y1321D01*
X1513Y1429D02*
X1533D01*
X1523Y1419D02*
Y1439D01*
X1513Y1389D02*
X1533D01*
X1523Y1379D02*
Y1399D01*
X1513Y1350D02*
X1533D01*
X1523Y1340D02*
Y1360D01*
X1513Y1311D02*
X1533D01*
X1523Y1301D02*
Y1321D01*
X1395Y1114D02*
X1415D01*
X1405Y1104D02*
Y1124D01*
X1395Y1074D02*
X1415D01*
X1405Y1064D02*
Y1084D01*
X1395Y1035D02*
X1415D01*
X1405Y1025D02*
Y1045D01*
X1395Y996D02*
X1415D01*
X1405Y986D02*
Y1006D01*
X1434Y1114D02*
X1454D01*
X1444Y1104D02*
Y1124D01*
X1434Y1074D02*
X1454D01*
X1444Y1064D02*
Y1084D01*
X1434Y1035D02*
X1454D01*
X1444Y1025D02*
Y1045D01*
X1434Y996D02*
X1454D01*
X1444Y986D02*
Y1006D01*
X1474Y1114D02*
X1494D01*
X1484Y1104D02*
Y1124D01*
X1474Y1074D02*
X1494D01*
X1484Y1064D02*
Y1084D01*
X1474Y1035D02*
X1494D01*
X1484Y1025D02*
Y1045D01*
X1474Y996D02*
X1494D01*
X1484Y986D02*
Y1006D01*
X1513Y1114D02*
X1533D01*
X1523Y1104D02*
Y1124D01*
X1513Y1074D02*
X1533D01*
X1523Y1064D02*
Y1084D01*
X1513Y1035D02*
X1533D01*
X1523Y1025D02*
Y1045D01*
X1513Y996D02*
X1533D01*
X1523Y986D02*
Y1006D01*
X1393Y2334D02*
X1413D01*
X1403Y2324D02*
Y2344D01*
X1393Y2295D02*
X1413D01*
X1403Y2285D02*
Y2305D01*
X1393Y2255D02*
X1413D01*
X1403Y2245D02*
Y2265D01*
X1393Y2216D02*
X1413D01*
X1403Y2206D02*
Y2226D01*
X1432Y2334D02*
X1452D01*
X1442Y2324D02*
Y2344D01*
X1432Y2295D02*
X1452D01*
X1442Y2285D02*
Y2305D01*
X1432Y2255D02*
X1452D01*
X1442Y2245D02*
Y2265D01*
X1432Y2216D02*
X1452D01*
X1442Y2206D02*
Y2226D01*
X1472Y2334D02*
X1492D01*
X1482Y2324D02*
Y2344D01*
X1472Y2295D02*
X1492D01*
X1482Y2285D02*
Y2305D01*
X1472Y2255D02*
X1492D01*
X1482Y2245D02*
Y2265D01*
X1472Y2216D02*
X1492D01*
X1482Y2206D02*
Y2226D01*
X1511Y2334D02*
X1531D01*
X1521Y2324D02*
Y2344D01*
X1511Y2295D02*
X1531D01*
X1521Y2285D02*
Y2305D01*
X1511Y2255D02*
X1531D01*
X1521Y2245D02*
Y2265D01*
X1511Y2216D02*
X1531D01*
X1521Y2206D02*
Y2226D01*
X1393Y2019D02*
X1413D01*
X1403Y2009D02*
Y2029D01*
X1393Y1980D02*
X1413D01*
X1403Y1970D02*
Y1990D01*
X1393Y1940D02*
X1413D01*
X1403Y1930D02*
Y1950D01*
X1393Y1901D02*
X1413D01*
X1403Y1891D02*
Y1911D01*
X1432Y2019D02*
X1452D01*
X1442Y2009D02*
Y2029D01*
X1432Y1980D02*
X1452D01*
X1442Y1970D02*
Y1990D01*
X1432Y1940D02*
X1452D01*
X1442Y1930D02*
Y1950D01*
X1432Y1901D02*
X1452D01*
X1442Y1891D02*
Y1911D01*
X1472Y2019D02*
X1492D01*
X1482Y2009D02*
Y2029D01*
X1472Y1980D02*
X1492D01*
X1482Y1970D02*
Y1990D01*
X1472Y1940D02*
X1492D01*
X1482Y1930D02*
Y1950D01*
X1472Y1901D02*
X1492D01*
X1482Y1891D02*
Y1911D01*
X1511Y2019D02*
X1531D01*
X1521Y2009D02*
Y2029D01*
X1511Y1980D02*
X1531D01*
X1521Y1970D02*
Y1990D01*
X1511Y1940D02*
X1531D01*
X1521Y1930D02*
Y1950D01*
X1511Y1901D02*
X1531D01*
X1521Y1891D02*
Y1911D01*
X4051Y1897D02*
X4071D01*
X4061Y1887D02*
Y1907D01*
X4051Y1936D02*
X4071D01*
X4061Y1926D02*
Y1946D01*
X4051Y1976D02*
X4071D01*
X4061Y1966D02*
Y1986D01*
X4051Y2015D02*
X4071D01*
X4061Y2005D02*
Y2025D01*
X4012Y1897D02*
X4032D01*
X4022Y1887D02*
Y1907D01*
X4012Y1936D02*
X4032D01*
X4022Y1926D02*
Y1946D01*
X4012Y1976D02*
X4032D01*
X4022Y1966D02*
Y1986D01*
X4012Y2015D02*
X4032D01*
X4022Y2005D02*
Y2025D01*
X3973Y1897D02*
X3993D01*
X3983Y1887D02*
Y1907D01*
X3973Y1936D02*
X3993D01*
X3983Y1926D02*
Y1946D01*
X3973Y1976D02*
X3993D01*
X3983Y1966D02*
Y1986D01*
X3973Y2015D02*
X3993D01*
X3983Y2005D02*
Y2025D01*
X3933Y1897D02*
X3953D01*
X3943Y1887D02*
Y1907D01*
X3933Y1936D02*
X3953D01*
X3943Y1926D02*
Y1946D01*
X3933Y1976D02*
X3953D01*
X3943Y1966D02*
Y1986D01*
X3933Y2015D02*
X3953D01*
X3943Y2005D02*
Y2025D01*
X4051Y2212D02*
X4071D01*
X4061Y2202D02*
Y2222D01*
X4051Y2251D02*
X4071D01*
X4061Y2241D02*
Y2261D01*
X4051Y2291D02*
X4071D01*
X4061Y2281D02*
Y2301D01*
X4051Y2330D02*
X4071D01*
X4061Y2320D02*
Y2340D01*
X4012Y2212D02*
X4032D01*
X4022Y2202D02*
Y2222D01*
X4012Y2251D02*
X4032D01*
X4022Y2241D02*
Y2261D01*
X4012Y2291D02*
X4032D01*
X4022Y2281D02*
Y2301D01*
X4012Y2330D02*
X4032D01*
X4022Y2320D02*
Y2340D01*
X3973Y2212D02*
X3993D01*
X3983Y2202D02*
Y2222D01*
X3973Y2251D02*
X3993D01*
X3983Y2241D02*
Y2261D01*
X3973Y2291D02*
X3993D01*
X3983Y2281D02*
Y2301D01*
X3973Y2330D02*
X3993D01*
X3983Y2320D02*
Y2340D01*
X3933Y2212D02*
X3953D01*
X3943Y2202D02*
Y2222D01*
X3933Y2251D02*
X3953D01*
X3943Y2241D02*
Y2261D01*
X3933Y2291D02*
X3953D01*
X3943Y2281D02*
Y2301D01*
X3933Y2330D02*
X3953D01*
X3943Y2320D02*
Y2340D01*
X4051Y992D02*
X4071D01*
X4061Y982D02*
Y1002D01*
X4051Y1031D02*
X4071D01*
X4061Y1021D02*
Y1041D01*
X4051Y1071D02*
X4071D01*
X4061Y1061D02*
Y1081D01*
X4051Y1110D02*
X4071D01*
X4061Y1100D02*
Y1120D01*
X4012Y992D02*
X4032D01*
X4022Y982D02*
Y1002D01*
X4012Y1031D02*
X4032D01*
X4022Y1021D02*
Y1041D01*
X4012Y1071D02*
X4032D01*
X4022Y1061D02*
Y1081D01*
X4012Y1110D02*
X4032D01*
X4022Y1100D02*
Y1120D01*
X3973Y992D02*
X3993D01*
X3983Y982D02*
Y1002D01*
X3973Y1031D02*
X3993D01*
X3983Y1021D02*
Y1041D01*
X3973Y1071D02*
X3993D01*
X3983Y1061D02*
Y1081D01*
X3973Y1110D02*
X3993D01*
X3983Y1100D02*
Y1120D01*
X3933Y992D02*
X3953D01*
X3943Y982D02*
Y1002D01*
X3933Y1031D02*
X3953D01*
X3943Y1021D02*
Y1041D01*
X3933Y1071D02*
X3953D01*
X3943Y1061D02*
Y1081D01*
X3933Y1110D02*
X3953D01*
X3943Y1100D02*
Y1120D01*
X4051Y1307D02*
X4071D01*
X4061Y1297D02*
Y1317D01*
X4051Y1346D02*
X4071D01*
X4061Y1336D02*
Y1356D01*
X4051Y1385D02*
X4071D01*
X4061Y1375D02*
Y1395D01*
X4051Y1425D02*
X4071D01*
X4061Y1415D02*
Y1435D01*
X4012Y1307D02*
X4032D01*
X4022Y1297D02*
Y1317D01*
X4012Y1346D02*
X4032D01*
X4022Y1336D02*
Y1356D01*
X4012Y1385D02*
X4032D01*
X4022Y1375D02*
Y1395D01*
X4012Y1425D02*
X4032D01*
X4022Y1415D02*
Y1435D01*
X3973Y1307D02*
X3993D01*
X3983Y1297D02*
Y1317D01*
X3973Y1346D02*
X3993D01*
X3983Y1336D02*
Y1356D01*
X3973Y1385D02*
X3993D01*
X3983Y1375D02*
Y1395D01*
X3973Y1425D02*
X3993D01*
X3983Y1415D02*
Y1435D01*
X3933Y1307D02*
X3953D01*
X3943Y1297D02*
Y1317D01*
X3933Y1346D02*
X3953D01*
X3943Y1336D02*
Y1356D01*
X3933Y1385D02*
X3953D01*
X3943Y1375D02*
Y1395D01*
X3933Y1425D02*
X3953D01*
X3943Y1415D02*
Y1435D01*
X3325Y343D02*
X3345D01*
X3335Y333D02*
Y353D01*
X3365Y343D02*
X3385D01*
X3375Y333D02*
Y353D01*
X3404Y343D02*
X3424D01*
X3414Y333D02*
Y353D01*
X3443Y343D02*
X3463D01*
X3453Y333D02*
Y353D01*
X3325Y383D02*
X3345D01*
X3335Y373D02*
Y393D01*
X3365Y383D02*
X3385D01*
X3375Y373D02*
Y393D01*
X3404Y383D02*
X3424D01*
X3414Y373D02*
Y393D01*
X3443Y383D02*
X3463D01*
X3453Y373D02*
Y393D01*
X3325Y422D02*
X3345D01*
X3335Y412D02*
Y432D01*
X3365Y422D02*
X3385D01*
X3375Y412D02*
Y432D01*
X3404Y422D02*
X3424D01*
X3414Y412D02*
Y432D01*
X3443Y422D02*
X3463D01*
X3453Y412D02*
Y432D01*
X3325Y461D02*
X3345D01*
X3335Y451D02*
Y471D01*
X3365Y461D02*
X3385D01*
X3375Y451D02*
Y471D01*
X3404Y461D02*
X3424D01*
X3414Y451D02*
Y471D01*
X3443Y461D02*
X3463D01*
X3453Y451D02*
Y471D01*
X3640Y343D02*
X3660D01*
X3650Y333D02*
Y353D01*
X3680Y343D02*
X3700D01*
X3690Y333D02*
Y353D01*
X3719Y343D02*
X3739D01*
X3729Y333D02*
Y353D01*
X3758Y343D02*
X3778D01*
X3768Y333D02*
Y353D01*
X3640Y383D02*
X3660D01*
X3650Y373D02*
Y393D01*
X3680Y383D02*
X3700D01*
X3690Y373D02*
Y393D01*
X3719Y383D02*
X3739D01*
X3729Y373D02*
Y393D01*
X3758Y383D02*
X3778D01*
X3768Y373D02*
Y393D01*
X3640Y422D02*
X3660D01*
X3650Y412D02*
Y432D01*
X3680Y422D02*
X3700D01*
X3690Y412D02*
Y432D01*
X3719Y422D02*
X3739D01*
X3729Y412D02*
Y432D01*
X3758Y422D02*
X3778D01*
X3768Y412D02*
Y432D01*
X3640Y461D02*
X3660D01*
X3650Y451D02*
Y471D01*
X3680Y461D02*
X3700D01*
X3690Y451D02*
Y471D01*
X3719Y461D02*
X3739D01*
X3729Y451D02*
Y471D01*
X3758Y461D02*
X3778D01*
X3768Y451D02*
Y471D01*
X1676Y343D02*
X1696D01*
X1686Y333D02*
Y353D01*
X1716Y343D02*
X1736D01*
X1726Y333D02*
Y353D01*
X1755Y343D02*
X1775D01*
X1765Y333D02*
Y353D01*
X1794Y343D02*
X1814D01*
X1804Y333D02*
Y353D01*
X1676Y383D02*
X1696D01*
X1686Y373D02*
Y393D01*
X1716Y383D02*
X1736D01*
X1726Y373D02*
Y393D01*
X1755Y383D02*
X1775D01*
X1765Y373D02*
Y393D01*
X1794Y383D02*
X1814D01*
X1804Y373D02*
Y393D01*
X1676Y422D02*
X1696D01*
X1686Y412D02*
Y432D01*
X1716Y422D02*
X1736D01*
X1726Y412D02*
Y432D01*
X1755Y422D02*
X1775D01*
X1765Y412D02*
Y432D01*
X1794Y422D02*
X1814D01*
X1804Y412D02*
Y432D01*
X1676Y461D02*
X1696D01*
X1686Y451D02*
Y471D01*
X1716Y461D02*
X1736D01*
X1726Y451D02*
Y471D01*
X1755Y461D02*
X1775D01*
X1765Y451D02*
Y471D01*
X1794Y461D02*
X1814D01*
X1804Y451D02*
Y471D01*
X1991Y343D02*
X2011D01*
X2001Y333D02*
Y353D01*
X2030Y343D02*
X2050D01*
X2040Y333D02*
Y353D01*
X2070Y343D02*
X2090D01*
X2080Y333D02*
Y353D01*
X2109Y343D02*
X2129D01*
X2119Y333D02*
Y353D01*
X1991Y383D02*
X2011D01*
X2001Y373D02*
Y393D01*
X2030Y383D02*
X2050D01*
X2040Y373D02*
Y393D01*
X2070Y383D02*
X2090D01*
X2080Y373D02*
Y393D01*
X2109Y383D02*
X2129D01*
X2119Y373D02*
Y393D01*
X1991Y422D02*
X2011D01*
X2001Y412D02*
Y432D01*
X2030Y422D02*
X2050D01*
X2040Y412D02*
Y432D01*
X2070Y422D02*
X2090D01*
X2080Y412D02*
Y432D01*
X2109Y422D02*
X2129D01*
X2119Y412D02*
Y432D01*
X1991Y461D02*
X2011D01*
X2001Y451D02*
Y471D01*
X2030Y461D02*
X2050D01*
X2040Y451D02*
Y471D01*
X2070Y461D02*
X2090D01*
X2080Y451D02*
Y471D01*
X2109Y461D02*
X2129D01*
X2119Y451D02*
Y471D01*
X2938Y3007D02*
X2958D01*
X2948Y2997D02*
Y3017D01*
X2899Y3007D02*
X2919D01*
X2909Y2997D02*
Y3017D01*
X2860Y3007D02*
X2880D01*
X2870Y2997D02*
Y3017D01*
X2820Y3007D02*
X2840D01*
X2830Y2997D02*
Y3017D01*
X2938Y2968D02*
X2958D01*
X2948Y2958D02*
Y2978D01*
X2899Y2968D02*
X2919D01*
X2909Y2958D02*
Y2978D01*
X2860Y2968D02*
X2880D01*
X2870Y2958D02*
Y2978D01*
X2820Y2968D02*
X2840D01*
X2830Y2958D02*
Y2978D01*
X2938Y2928D02*
X2958D01*
X2948Y2918D02*
Y2938D01*
X2899Y2928D02*
X2919D01*
X2909Y2918D02*
Y2938D01*
X2860Y2928D02*
X2880D01*
X2870Y2918D02*
Y2938D01*
X2820Y2928D02*
X2840D01*
X2830Y2918D02*
Y2938D01*
X2938Y2889D02*
X2958D01*
X2948Y2879D02*
Y2899D01*
X2899Y2889D02*
X2919D01*
X2909Y2879D02*
Y2899D01*
X2860Y2889D02*
X2880D01*
X2870Y2879D02*
Y2899D01*
X2820Y2889D02*
X2840D01*
X2830Y2879D02*
Y2899D01*
X2623Y3007D02*
X2643D01*
X2633Y2997D02*
Y3017D01*
X2584Y3007D02*
X2604D01*
X2594Y2997D02*
Y3017D01*
X2545Y3007D02*
X2565D01*
X2555Y2997D02*
Y3017D01*
X2505Y3007D02*
X2525D01*
X2515Y2997D02*
Y3017D01*
X2623Y2968D02*
X2643D01*
X2633Y2958D02*
Y2978D01*
X2584Y2968D02*
X2604D01*
X2594Y2958D02*
Y2978D01*
X2545Y2968D02*
X2565D01*
X2555Y2958D02*
Y2978D01*
X2505Y2968D02*
X2525D01*
X2515Y2958D02*
Y2978D01*
X2623Y2928D02*
X2643D01*
X2633Y2918D02*
Y2938D01*
X2584Y2928D02*
X2604D01*
X2594Y2918D02*
Y2938D01*
X2545Y2928D02*
X2565D01*
X2555Y2918D02*
Y2938D01*
X2505Y2928D02*
X2525D01*
X2515Y2918D02*
Y2938D01*
X2623Y2889D02*
X2643D01*
X2633Y2879D02*
Y2899D01*
X2584Y2889D02*
X2604D01*
X2594Y2879D02*
Y2899D01*
X2545Y2889D02*
X2565D01*
X2555Y2879D02*
Y2899D01*
X2505Y2889D02*
X2525D01*
X2515Y2879D02*
Y2899D01*
M02*
