G04 Layer_Color=2752767*
%FSLAX23Y23*%
%MOIN*%
G70*
G01*
G75*
%ADD40C,0.005*%
%ADD64C,0.007*%
D40*
X2756Y687D02*
Y727D01*
X2796D01*
Y687D01*
X2756D01*
X2656D02*
Y727D01*
X2696D01*
Y687D01*
X2656D01*
X2559Y2231D02*
Y2271D01*
X2599D01*
Y2231D01*
X2559D01*
X2659D02*
Y2271D01*
X2699D01*
Y2231D01*
X2659D01*
X2759D02*
Y2271D01*
X2799D01*
Y2231D01*
X2759D01*
X2859D02*
Y2271D01*
X2899D01*
Y2231D01*
X2859D01*
Y2415D02*
Y2455D01*
X2899D01*
Y2415D01*
X2859D01*
X2759D02*
Y2455D01*
X2799D01*
Y2415D01*
X2759D01*
X2659D02*
Y2455D01*
X2699D01*
Y2415D01*
X2659D01*
X2559D02*
Y2455D01*
X2599D01*
Y2415D01*
X2559D01*
X2779Y386D02*
X2759Y426D01*
X2799D01*
X2779Y386D01*
X2799D02*
X2779Y426D01*
X2819D01*
X2799Y386D01*
X2818D02*
X2798Y426D01*
X2838D01*
X2818Y386D01*
X2838D02*
X2818Y426D01*
X2858D01*
X2838Y386D01*
X2858D02*
X2838Y426D01*
X2878D01*
X2858Y386D01*
Y367D02*
X2838Y407D01*
X2878D01*
X2858Y367D01*
X2838D02*
X2818Y407D01*
X2858D01*
X2838Y367D01*
X2818D02*
X2798Y407D01*
X2838D01*
X2818Y367D01*
X2799D02*
X2779Y407D01*
X2819D01*
X2799Y367D01*
X2779D02*
X2759Y407D01*
X2799D01*
X2779Y367D01*
X2858Y347D02*
X2838Y387D01*
X2878D01*
X2858Y347D01*
X2838D02*
X2818Y387D01*
X2858D01*
X2838Y347D01*
X2818D02*
X2798Y387D01*
X2838D01*
X2818Y347D01*
X2799D02*
X2779Y387D01*
X2819D01*
X2799Y347D01*
X2779D02*
X2759Y387D01*
X2799D01*
X2779Y347D01*
X2858Y327D02*
X2838Y367D01*
X2878D01*
X2858Y327D01*
X2838D02*
X2818Y367D01*
X2858D01*
X2838Y327D01*
X2818D02*
X2798Y367D01*
X2838D01*
X2818Y327D01*
X2799D02*
X2779Y367D01*
X2819D01*
X2799Y327D01*
X2779D02*
X2759Y367D01*
X2799D01*
X2779Y327D01*
X2858Y308D02*
X2838Y348D01*
X2878D01*
X2858Y308D01*
X2838D02*
X2818Y348D01*
X2858D01*
X2838Y308D01*
X2818D02*
X2798Y348D01*
X2838D01*
X2818Y308D01*
X2799D02*
X2779Y348D01*
X2819D01*
X2799Y308D01*
X2779D02*
X2759Y348D01*
X2799D01*
X2779Y308D01*
X2681Y386D02*
X2661Y426D01*
X2701D01*
X2681Y386D01*
X2661D02*
X2641Y426D01*
X2681D01*
X2661Y386D01*
X2641D02*
X2621Y426D01*
X2661D01*
X2641Y386D01*
X2622D02*
X2602Y426D01*
X2642D01*
X2622Y386D01*
X2602D02*
X2582Y426D01*
X2622D01*
X2602Y386D01*
X2681Y367D02*
X2661Y407D01*
X2701D01*
X2681Y367D01*
X2661D02*
X2641Y407D01*
X2681D01*
X2661Y367D01*
X2641D02*
X2621Y407D01*
X2661D01*
X2641Y367D01*
X2622D02*
X2602Y407D01*
X2642D01*
X2622Y367D01*
X2602D02*
X2582Y407D01*
X2622D01*
X2602Y367D01*
X2681Y347D02*
X2661Y387D01*
X2701D01*
X2681Y347D01*
X2661D02*
X2641Y387D01*
X2681D01*
X2661Y347D01*
X2641D02*
X2621Y387D01*
X2661D01*
X2641Y347D01*
X2622D02*
X2602Y387D01*
X2642D01*
X2622Y347D01*
X2602D02*
X2582Y387D01*
X2622D01*
X2602Y347D01*
X2681Y327D02*
X2661Y367D01*
X2701D01*
X2681Y327D01*
X2661D02*
X2641Y367D01*
X2681D01*
X2661Y327D01*
X2641D02*
X2621Y367D01*
X2661D01*
X2641Y327D01*
X2622D02*
X2602Y367D01*
X2642D01*
X2622Y327D01*
X2602D02*
X2582Y367D01*
X2622D01*
X2602Y327D01*
X2681Y308D02*
X2661Y348D01*
X2701D01*
X2681Y308D01*
X2661D02*
X2641Y348D01*
X2681D01*
X2661Y308D01*
X2641D02*
X2621Y348D01*
X2661D01*
X2641Y308D01*
X2622D02*
X2602Y348D01*
X2642D01*
X2622Y308D01*
X2602D02*
X2582Y348D01*
X2622D01*
X2602Y308D01*
X1390Y1265D02*
X1370Y1305D01*
X1410D01*
X1390Y1265D01*
Y1245D02*
X1370Y1285D01*
X1410D01*
X1390Y1245D01*
Y1225D02*
X1370Y1265D01*
X1410D01*
X1390Y1225D01*
X1410Y1265D02*
X1390Y1305D01*
X1430D01*
X1410Y1265D01*
Y1245D02*
X1390Y1285D01*
X1430D01*
X1410Y1245D01*
Y1225D02*
X1390Y1265D01*
X1430D01*
X1410Y1225D01*
X1429Y1265D02*
X1409Y1305D01*
X1449D01*
X1429Y1265D01*
Y1245D02*
X1409Y1285D01*
X1449D01*
X1429Y1245D01*
Y1225D02*
X1409Y1265D01*
X1449D01*
X1429Y1225D01*
X1390Y1143D02*
X1370Y1183D01*
X1410D01*
X1390Y1143D01*
Y1123D02*
X1370Y1163D01*
X1410D01*
X1390Y1123D01*
Y1103D02*
X1370Y1143D01*
X1410D01*
X1390Y1103D01*
X1410Y1143D02*
X1390Y1183D01*
X1430D01*
X1410Y1143D01*
Y1123D02*
X1390Y1163D01*
X1430D01*
X1410Y1123D01*
Y1103D02*
X1390Y1143D01*
X1430D01*
X1410Y1103D01*
X1429Y1143D02*
X1409Y1183D01*
X1449D01*
X1429Y1143D01*
Y1123D02*
X1409Y1163D01*
X1449D01*
X1429Y1123D01*
Y1103D02*
X1409Y1143D01*
X1449D01*
X1429Y1103D01*
X1388Y2170D02*
X1368Y2210D01*
X1408D01*
X1388Y2170D01*
Y2150D02*
X1368Y2190D01*
X1408D01*
X1388Y2150D01*
Y2131D02*
X1368Y2171D01*
X1408D01*
X1388Y2131D01*
X1408Y2170D02*
X1388Y2210D01*
X1428D01*
X1408Y2170D01*
Y2150D02*
X1388Y2190D01*
X1428D01*
X1408Y2150D01*
Y2131D02*
X1388Y2171D01*
X1428D01*
X1408Y2131D01*
X1427Y2170D02*
X1407Y2210D01*
X1447D01*
X1427Y2170D01*
Y2150D02*
X1407Y2190D01*
X1447D01*
X1427Y2150D01*
Y2131D02*
X1407Y2171D01*
X1447D01*
X1427Y2131D01*
X1388Y2048D02*
X1368Y2088D01*
X1408D01*
X1388Y2048D01*
Y2028D02*
X1368Y2068D01*
X1408D01*
X1388Y2028D01*
Y2009D02*
X1368Y2049D01*
X1408D01*
X1388Y2009D01*
X1408Y2048D02*
X1388Y2088D01*
X1428D01*
X1408Y2048D01*
Y2028D02*
X1388Y2068D01*
X1428D01*
X1408Y2028D01*
Y2009D02*
X1388Y2049D01*
X1428D01*
X1408Y2009D01*
X1427Y2048D02*
X1407Y2088D01*
X1447D01*
X1427Y2048D01*
Y2028D02*
X1407Y2068D01*
X1447D01*
X1427Y2028D01*
Y2009D02*
X1407Y2049D01*
X1447D01*
X1427Y2009D01*
X4076Y2009D02*
X4056Y2049D01*
X4096D01*
X4076Y2009D01*
Y2028D02*
X4056Y2068D01*
X4096D01*
X4076Y2028D01*
Y2048D02*
X4056Y2088D01*
X4096D01*
X4076Y2048D01*
X4057Y2009D02*
X4037Y2049D01*
X4077D01*
X4057Y2009D01*
Y2028D02*
X4037Y2068D01*
X4077D01*
X4057Y2028D01*
Y2048D02*
X4037Y2088D01*
X4077D01*
X4057Y2048D01*
X4037Y2009D02*
X4017Y2049D01*
X4057D01*
X4037Y2009D01*
Y2028D02*
X4017Y2068D01*
X4057D01*
X4037Y2028D01*
Y2048D02*
X4017Y2088D01*
X4057D01*
X4037Y2048D01*
X4076Y2131D02*
X4056Y2171D01*
X4096D01*
X4076Y2131D01*
Y2150D02*
X4056Y2190D01*
X4096D01*
X4076Y2150D01*
Y2170D02*
X4056Y2210D01*
X4096D01*
X4076Y2170D01*
X4057Y2131D02*
X4037Y2171D01*
X4077D01*
X4057Y2131D01*
Y2150D02*
X4037Y2190D01*
X4077D01*
X4057Y2150D01*
Y2170D02*
X4037Y2210D01*
X4077D01*
X4057Y2170D01*
X4037Y2131D02*
X4017Y2171D01*
X4057D01*
X4037Y2131D01*
Y2150D02*
X4017Y2190D01*
X4057D01*
X4037Y2150D01*
Y2170D02*
X4017Y2210D01*
X4057D01*
X4037Y2170D01*
X4076Y1103D02*
X4056Y1143D01*
X4096D01*
X4076Y1103D01*
Y1123D02*
X4056Y1163D01*
X4096D01*
X4076Y1123D01*
Y1143D02*
X4056Y1183D01*
X4096D01*
X4076Y1143D01*
X4057Y1103D02*
X4037Y1143D01*
X4077D01*
X4057Y1103D01*
Y1123D02*
X4037Y1163D01*
X4077D01*
X4057Y1123D01*
Y1143D02*
X4037Y1183D01*
X4077D01*
X4057Y1143D01*
X4037Y1103D02*
X4017Y1143D01*
X4057D01*
X4037Y1103D01*
Y1123D02*
X4017Y1163D01*
X4057D01*
X4037Y1123D01*
Y1143D02*
X4017Y1183D01*
X4057D01*
X4037Y1143D01*
X4076Y1225D02*
X4056Y1265D01*
X4096D01*
X4076Y1225D01*
Y1245D02*
X4056Y1285D01*
X4096D01*
X4076Y1245D01*
Y1265D02*
X4056Y1305D01*
X4096D01*
X4076Y1265D01*
X4057Y1225D02*
X4037Y1265D01*
X4077D01*
X4057Y1225D01*
Y1245D02*
X4037Y1285D01*
X4077D01*
X4057Y1245D01*
Y1265D02*
X4037Y1305D01*
X4077D01*
X4057Y1265D01*
X4037Y1225D02*
X4017Y1265D01*
X4057D01*
X4037Y1225D01*
Y1245D02*
X4017Y1285D01*
X4057D01*
X4037Y1245D01*
Y1265D02*
X4017Y1305D01*
X4057D01*
X4037Y1265D01*
X3189Y307D02*
X3169Y347D01*
X3209D01*
X3189Y307D01*
X3208D02*
X3188Y347D01*
X3228D01*
X3208Y307D01*
X3228D02*
X3208Y347D01*
X3248D01*
X3228Y307D01*
X3189Y327D02*
X3169Y367D01*
X3209D01*
X3189Y327D01*
X3208D02*
X3188Y367D01*
X3228D01*
X3208Y327D01*
X3228D02*
X3208Y367D01*
X3248D01*
X3228Y327D01*
X3189Y347D02*
X3169Y387D01*
X3209D01*
X3189Y347D01*
X3208D02*
X3188Y387D01*
X3228D01*
X3208Y347D01*
X3228D02*
X3208Y387D01*
X3248D01*
X3228Y347D01*
X3311Y307D02*
X3291Y347D01*
X3331D01*
X3311Y307D01*
X3330D02*
X3310Y347D01*
X3350D01*
X3330Y307D01*
X3350D02*
X3330Y347D01*
X3370D01*
X3350Y307D01*
X3311Y327D02*
X3291Y367D01*
X3331D01*
X3311Y327D01*
X3330D02*
X3310Y367D01*
X3350D01*
X3330Y327D01*
X3350D02*
X3330Y367D01*
X3370D01*
X3350Y327D01*
X3311Y347D02*
X3291Y387D01*
X3331D01*
X3311Y347D01*
X3330D02*
X3310Y387D01*
X3350D01*
X3330Y347D01*
X3350D02*
X3330Y387D01*
X3370D01*
X3350Y347D01*
X2071Y307D02*
X2051Y347D01*
X2091D01*
X2071Y307D01*
X2091D02*
X2071Y347D01*
X2111D01*
X2091Y307D01*
X2111D02*
X2091Y347D01*
X2131D01*
X2111Y307D01*
X2071Y327D02*
X2051Y367D01*
X2091D01*
X2071Y327D01*
X2091D02*
X2071Y367D01*
X2111D01*
X2091Y327D01*
X2111D02*
X2091Y367D01*
X2131D01*
X2111Y327D01*
X2071Y347D02*
X2051Y387D01*
X2091D01*
X2071Y347D01*
X2091D02*
X2071Y387D01*
X2111D01*
X2091Y347D01*
X2111D02*
X2091Y387D01*
X2131D01*
X2111Y347D01*
X2193Y307D02*
X2173Y347D01*
X2213D01*
X2193Y307D01*
X2213D02*
X2193Y347D01*
X2233D01*
X2213Y307D01*
X2233D02*
X2213Y347D01*
X2253D01*
X2233Y307D01*
X2193Y327D02*
X2173Y367D01*
X2213D01*
X2193Y327D01*
X2213D02*
X2193Y367D01*
X2233D01*
X2213Y327D01*
X2233D02*
X2213Y367D01*
X2253D01*
X2233Y327D01*
X2193Y347D02*
X2173Y387D01*
X2213D01*
X2193Y347D01*
X2213D02*
X2193Y387D01*
X2233D01*
X2213Y347D01*
X2233D02*
X2213Y387D01*
X2253D01*
X2233Y347D01*
X2811Y2997D02*
X2791Y3037D01*
X2831D01*
X2811Y2997D01*
X2791D02*
X2771Y3037D01*
X2811D01*
X2791Y2997D01*
X2771D02*
X2751Y3037D01*
X2791D01*
X2771Y2997D01*
X2811Y2977D02*
X2791Y3017D01*
X2831D01*
X2811Y2977D01*
X2791D02*
X2771Y3017D01*
X2811D01*
X2791Y2977D01*
X2771D02*
X2751Y3017D01*
X2791D01*
X2771Y2977D01*
X2811Y2958D02*
X2791Y2998D01*
X2831D01*
X2811Y2958D01*
X2791D02*
X2771Y2998D01*
X2811D01*
X2791Y2958D01*
X2771D02*
X2751Y2998D01*
X2791D01*
X2771Y2958D01*
X2688Y2997D02*
X2668Y3037D01*
X2708D01*
X2688Y2997D01*
X2669D02*
X2649Y3037D01*
X2689D01*
X2669Y2997D01*
X2649D02*
X2629Y3037D01*
X2669D01*
X2649Y2997D01*
X2688Y2977D02*
X2668Y3017D01*
X2708D01*
X2688Y2977D01*
X2669D02*
X2649Y3017D01*
X2689D01*
X2669Y2977D01*
X2649D02*
X2629Y3017D01*
X2669D01*
X2649Y2977D01*
X2688Y2958D02*
X2668Y2998D01*
X2708D01*
X2688Y2958D01*
X2669D02*
X2649Y2998D01*
X2689D01*
X2669Y2958D01*
X2649D02*
X2629Y2998D01*
X2669D01*
X2649Y2958D01*
X3083Y1184D02*
X3063Y1224D01*
X3103D01*
X3083Y1184D01*
X3109Y1211D02*
X3089Y1251D01*
X3129D01*
X3109Y1211D01*
X3083Y1211D02*
X3063Y1251D01*
X3103D01*
X3083Y1211D01*
X3108Y1185D02*
X3088Y1225D01*
X3128D01*
X3108Y1185D01*
X3107Y1156D02*
X3087Y1196D01*
X3127D01*
X3107Y1156D01*
X3083D02*
X3063Y1196D01*
X3103D01*
X3083Y1156D01*
X3059D02*
X3039Y1196D01*
X3079D01*
X3059Y1156D01*
Y1184D02*
X3039Y1224D01*
X3079D01*
X3059Y1184D01*
Y1211D02*
X3039Y1251D01*
X3079D01*
X3059Y1211D01*
Y1129D02*
X3039Y1169D01*
X3079D01*
X3059Y1129D01*
X3083D02*
X3063Y1169D01*
X3103D01*
X3083Y1129D01*
X3108D02*
X3088Y1169D01*
X3128D01*
X3108Y1129D01*
X2527Y1139D02*
X2507Y1179D01*
X2547D01*
X2527Y1139D01*
X2502D02*
X2482Y1179D01*
X2522D01*
X2502Y1139D01*
X2478D02*
X2458Y1179D01*
X2498D01*
X2478Y1139D01*
Y1221D02*
X2458Y1261D01*
X2498D01*
X2478Y1221D01*
Y1194D02*
X2458Y1234D01*
X2498D01*
X2478Y1194D01*
Y1166D02*
X2458Y1206D01*
X2498D01*
X2478Y1166D01*
X2502D02*
X2482Y1206D01*
X2522D01*
X2502Y1166D01*
X2526D02*
X2506Y1206D01*
X2546D01*
X2526Y1166D01*
X2527Y1195D02*
X2507Y1235D01*
X2547D01*
X2527Y1195D01*
X2502Y1221D02*
X2482Y1261D01*
X2522D01*
X2502Y1221D01*
X2528Y1221D02*
X2508Y1261D01*
X2548D01*
X2528Y1221D01*
X2502Y1194D02*
X2482Y1234D01*
X2522D01*
X2502Y1194D01*
X3272Y1069D02*
X3282Y1079D01*
X3292D01*
X3282Y1089D01*
X3292Y1099D01*
X3282D01*
X3272Y1109D01*
X3262Y1099D01*
X3252D01*
X3262Y1089D01*
X3252Y1079D01*
X3262D01*
X3272Y1069D01*
X2680Y1098D02*
X2690Y1108D01*
X2700D01*
X2690Y1118D01*
X2700Y1128D01*
X2690D01*
X2680Y1138D01*
X2670Y1128D01*
X2660D01*
X2670Y1118D01*
X2660Y1108D01*
X2670D01*
X2680Y1098D01*
X2675Y1403D02*
X2685Y1413D01*
X2695D01*
X2685Y1423D01*
X2695Y1433D01*
X2685D01*
X2675Y1443D01*
X2665Y1433D01*
X2655D01*
X2665Y1423D01*
X2655Y1413D01*
X2665D01*
X2675Y1403D01*
X3264Y1145D02*
X3274Y1155D01*
X3284D01*
X3274Y1165D01*
X3284Y1175D01*
X3274D01*
X3264Y1185D01*
X3254Y1175D01*
X3244D01*
X3254Y1165D01*
X3244Y1155D01*
X3254D01*
X3264Y1145D01*
X2858Y982D02*
X2868Y1002D01*
X2858Y1022D01*
X2878Y1012D01*
X2898Y1022D01*
X2888Y1002D01*
X2898Y982D01*
X2878Y992D01*
X2858Y982D01*
X2253Y1248D02*
X2263Y1268D01*
X2253Y1288D01*
X2273Y1278D01*
X2293Y1288D01*
X2283Y1268D01*
X2293Y1248D01*
X2273Y1258D01*
X2253Y1248D01*
D64*
X4004Y2926D02*
G03*
X4004Y2926I-20J0D01*
G01*
Y421D02*
G03*
X4004Y421I-20J0D01*
G01*
X1494D02*
G03*
X1494Y421I-20J0D01*
G01*
Y2926D02*
G03*
X1494Y2926I-20J0D01*
G01*
M02*
