G04 Layer_Physical_Order=2*
G04 Layer_Color=16711680*
%FSLAX23Y23*%
%MOIN*%
G70*
G01*
G75*
%ADD11R,0.059X0.055*%
%ADD17C,0.030*%
%ADD18C,0.080*%
%ADD19C,0.028*%
%ADD20C,0.020*%
%ADD21C,0.020*%
%ADD22R,0.065X0.065*%
%ADD23C,0.065*%
%ADD24R,0.118X0.118*%
%ADD25R,0.079X0.079*%
%ADD26R,0.079X0.079*%
%ADD27R,0.065X0.118*%
%ADD28C,0.079*%
%ADD29C,0.010*%
%ADD30C,0.020*%
%ADD31C,0.050*%
%ADD32R,0.055X0.059*%
%ADD33R,0.059X0.110*%
%ADD34R,0.110X0.059*%
G36*
X4097Y2100D02*
X4005D01*
Y1997D01*
X4097D01*
Y1194D01*
X4005D01*
Y1092D01*
X4097D01*
Y308D01*
X3260D01*
Y398D01*
X3157D01*
Y308D01*
X2712D01*
Y438D01*
X2570D01*
Y308D01*
X2142D01*
Y398D01*
X2039D01*
Y308D01*
X1367D01*
Y1214D01*
X1461D01*
Y1316D01*
X1367D01*
Y2119D01*
X1459D01*
Y2222D01*
X1367D01*
Y3042D01*
X2739D01*
Y2946D01*
X2842D01*
Y3042D01*
X4097D01*
Y2100D01*
D02*
G37*
%LPC*%
G36*
X2676Y752D02*
X2664Y750D01*
X2654Y746D01*
X2644Y739D01*
X2637Y729D01*
X2633Y719D01*
X2631Y707D01*
X2633Y695D01*
X2637Y685D01*
X2644Y675D01*
X2654Y668D01*
X2664Y664D01*
X2676Y662D01*
X2688Y664D01*
X2698Y668D01*
X2708Y675D01*
X2715Y685D01*
X2719Y695D01*
X2721Y707D01*
X2719Y719D01*
X2715Y729D01*
X2708Y739D01*
X2698Y746D01*
X2688Y750D01*
X2676Y752D01*
D02*
G37*
G36*
X2820Y752D02*
X2731D01*
Y663D01*
X2820D01*
Y752D01*
D02*
G37*
G36*
X1475Y522D02*
X1455Y520D01*
X1436Y514D01*
X1419Y505D01*
X1404Y492D01*
X1391Y477D01*
X1382Y460D01*
X1376Y441D01*
X1374Y421D01*
X1376Y401D01*
X1382Y382D01*
X1391Y365D01*
X1404Y350D01*
X1419Y337D01*
X1436Y328D01*
X1455Y322D01*
X1475Y320D01*
X1495Y322D01*
X1514Y328D01*
X1531Y337D01*
X1546Y350D01*
X1559Y365D01*
X1568Y382D01*
X1574Y401D01*
X1576Y421D01*
X1574Y441D01*
X1568Y460D01*
X1559Y477D01*
X1546Y492D01*
X1531Y505D01*
X1514Y514D01*
X1495Y520D01*
X1475Y522D01*
D02*
G37*
G36*
X3984D02*
X3964Y520D01*
X3945Y514D01*
X3928Y505D01*
X3913Y492D01*
X3900Y477D01*
X3891Y460D01*
X3885Y441D01*
X3883Y421D01*
X3885Y401D01*
X3891Y382D01*
X3900Y365D01*
X3913Y350D01*
X3928Y337D01*
X3945Y328D01*
X3964Y322D01*
X3984Y320D01*
X4004Y322D01*
X4023Y328D01*
X4040Y337D01*
X4055Y350D01*
X4068Y365D01*
X4077Y382D01*
X4083Y401D01*
X4085Y421D01*
X4083Y441D01*
X4077Y460D01*
X4068Y477D01*
X4055Y492D01*
X4040Y505D01*
X4023Y514D01*
X4004Y520D01*
X3984Y522D01*
D02*
G37*
G36*
X2304Y1320D02*
X2296Y1319D01*
X2289Y1320D01*
X2273D01*
X2259Y1319D01*
X2247Y1313D01*
X2236Y1305D01*
X2228Y1294D01*
X2222Y1282D01*
X2221Y1268D01*
X2222Y1254D01*
X2228Y1242D01*
X2236Y1231D01*
X2247Y1223D01*
X2252Y1221D01*
Y1201D01*
X2253Y1187D01*
X2259Y1175D01*
X2267Y1164D01*
X2271Y1160D01*
Y1021D01*
X2272Y1007D01*
X2278Y995D01*
X2281Y990D01*
Y954D01*
X2365D01*
Y990D01*
D01*
X2368Y995D01*
X2374Y1007D01*
X2375Y1021D01*
Y1172D01*
Y1182D01*
X2374Y1196D01*
X2368Y1208D01*
X2365Y1213D01*
Y1239D01*
X2356D01*
Y1268D01*
X2355Y1282D01*
X2349Y1294D01*
X2341Y1305D01*
X2330Y1313D01*
X2318Y1319D01*
X2304Y1320D01*
D02*
G37*
G36*
X3984Y3026D02*
X3964Y3024D01*
X3945Y3018D01*
X3928Y3009D01*
X3913Y2996D01*
X3900Y2981D01*
X3891Y2964D01*
X3885Y2945D01*
X3883Y2925D01*
X3885Y2905D01*
X3891Y2886D01*
X3900Y2869D01*
X3913Y2854D01*
X3928Y2841D01*
X3945Y2832D01*
X3964Y2826D01*
X3984Y2824D01*
X4004Y2826D01*
X4023Y2832D01*
X4040Y2841D01*
X4055Y2854D01*
X4068Y2869D01*
X4077Y2886D01*
X4083Y2905D01*
X4085Y2925D01*
X4083Y2945D01*
X4077Y2964D01*
X4068Y2981D01*
X4055Y2996D01*
X4040Y3009D01*
X4023Y3018D01*
X4004Y3024D01*
X3984Y3026D01*
D02*
G37*
G36*
X1474Y3027D02*
X1454Y3025D01*
X1435Y3019D01*
X1418Y3010D01*
X1403Y2997D01*
X1390Y2982D01*
X1381Y2965D01*
X1375Y2946D01*
X1373Y2926D01*
X1375Y2906D01*
X1381Y2887D01*
X1390Y2870D01*
X1403Y2855D01*
X1418Y2842D01*
X1435Y2833D01*
X1454Y2827D01*
X1474Y2825D01*
X1494Y2827D01*
X1513Y2833D01*
X1530Y2842D01*
X1545Y2855D01*
X1558Y2870D01*
X1567Y2887D01*
X1573Y2906D01*
X1575Y2926D01*
X1573Y2946D01*
X1567Y2965D01*
X1558Y2982D01*
X1545Y2997D01*
X1530Y3010D01*
X1513Y3019D01*
X1494Y3025D01*
X1474Y3027D01*
D02*
G37*
G36*
X2779Y2487D02*
X2765Y2486D01*
X2753Y2480D01*
X2752Y2480D01*
X2734D01*
Y2462D01*
X2734Y2461D01*
X2728Y2449D01*
X2727Y2435D01*
Y2251D01*
Y2091D01*
X2728Y2077D01*
X2734Y2065D01*
X2742Y2054D01*
X2774Y2022D01*
Y1989D01*
X2769Y1988D01*
X2763Y1983D01*
X2759Y1978D01*
X2756Y1971D01*
X2755Y1964D01*
Y1495D01*
X2743D01*
Y1411D01*
X2901D01*
Y1427D01*
X3025D01*
X3135Y1317D01*
Y1194D01*
X3135Y1194D01*
X3136Y1187D01*
X3138Y1181D01*
X3142Y1175D01*
X3236Y1082D01*
X3236Y1079D01*
X3240Y1070D01*
X3246Y1063D01*
X3253Y1057D01*
X3262Y1053D01*
X3272Y1052D01*
X3282Y1053D01*
X3291Y1057D01*
X3298Y1063D01*
X3304Y1070D01*
X3308Y1079D01*
X3309Y1089D01*
X3308Y1099D01*
X3304Y1108D01*
X3298Y1115D01*
X3291Y1121D01*
X3282Y1125D01*
X3278Y1125D01*
X3278Y1131D01*
X3283Y1133D01*
X3290Y1139D01*
X3296Y1146D01*
X3300Y1155D01*
X3301Y1165D01*
X3300Y1175D01*
X3296Y1184D01*
X3291Y1190D01*
Y1245D01*
X3297Y1251D01*
X3302Y1256D01*
X3304Y1263D01*
X3305Y1270D01*
X3304Y1277D01*
X3302Y1284D01*
X3297Y1289D01*
X3104Y1482D01*
Y1689D01*
X3112D01*
Y1677D01*
Y1598D01*
X3196D01*
Y1610D01*
X3211D01*
X3240Y1581D01*
Y1559D01*
X3224D01*
Y1475D01*
X3303D01*
Y1559D01*
X3295D01*
Y1593D01*
X3294Y1600D01*
X3291Y1606D01*
X3287Y1612D01*
X3242Y1657D01*
X3236Y1661D01*
X3229Y1664D01*
X3222Y1665D01*
X3196D01*
Y1677D01*
Y1756D01*
X3112D01*
Y1744D01*
X3042D01*
Y1756D01*
X2958D01*
Y1677D01*
X3042D01*
Y1689D01*
X3050D01*
Y1481D01*
X3045Y1478D01*
X3043Y1478D01*
X3036Y1479D01*
X3036Y1479D01*
X2901D01*
Y1495D01*
X2810D01*
Y1909D01*
X2815Y1913D01*
X2826Y1912D01*
X3158D01*
X3172Y1913D01*
X3184Y1919D01*
X3189Y1922D01*
X3225D01*
Y2006D01*
X3189D01*
X3184Y2009D01*
X3172Y2015D01*
X3158Y2016D01*
X2878D01*
Y2044D01*
X2877Y2058D01*
X2871Y2070D01*
X2863Y2081D01*
X2831Y2113D01*
Y2251D01*
Y2435D01*
X2830Y2449D01*
X2824Y2461D01*
X2823Y2462D01*
Y2480D01*
X2806D01*
X2805Y2480D01*
X2793Y2486D01*
X2779Y2487D01*
D02*
G37*
G36*
X2579D02*
X2565Y2486D01*
X2553Y2480D01*
X2552Y2480D01*
X2534D01*
Y2462D01*
X2534Y2461D01*
X2528Y2449D01*
X2527Y2435D01*
Y2251D01*
Y2176D01*
X2518Y2168D01*
X2510Y2157D01*
X2505Y2144D01*
X2503Y2131D01*
Y2016D01*
X2407D01*
X2393Y2015D01*
X2380Y2009D01*
X2375Y2006D01*
X2339D01*
Y1991D01*
X2280D01*
X2273Y1990D01*
X2266Y1988D01*
X2261Y1983D01*
X2150Y1872D01*
X2145Y1867D01*
X2143Y1860D01*
X2142Y1853D01*
Y1576D01*
X2143Y1569D01*
X2145Y1562D01*
X2150Y1557D01*
X2164Y1542D01*
Y1495D01*
X2152D01*
Y1411D01*
X2310D01*
Y1431D01*
X2546D01*
X2658Y1319D01*
Y1147D01*
X2654Y1144D01*
X2651Y1140D01*
X2605D01*
X2596Y1139D01*
X2589Y1134D01*
X2534Y1079D01*
X2529Y1072D01*
X2528Y1063D01*
Y1051D01*
X2484D01*
Y967D01*
X2563D01*
Y1017D01*
X2566Y1020D01*
X2571Y1027D01*
X2572Y1036D01*
Y1054D01*
X2614Y1096D01*
X2651D01*
X2654Y1092D01*
X2661Y1086D01*
X2670Y1082D01*
X2680Y1081D01*
X2690Y1082D01*
X2699Y1086D01*
X2706Y1091D01*
X2707Y1091D01*
X2711Y1090D01*
X2712Y1083D01*
X2718Y1071D01*
X2726Y1060D01*
X2797Y989D01*
X2808Y980D01*
X2820Y975D01*
X2832Y974D01*
X2841Y965D01*
X2852Y957D01*
X2864Y951D01*
X2878Y950D01*
X2892Y951D01*
X2904Y957D01*
X2915Y965D01*
X2923Y976D01*
X2929Y988D01*
X2930Y1002D01*
X2929Y1016D01*
X2923Y1028D01*
X2915Y1039D01*
X2891Y1063D01*
X2880Y1071D01*
X2868Y1077D01*
D01*
X2856Y1078D01*
X2855Y1079D01*
X2843Y1091D01*
D01*
X2843Y1091D01*
X2814Y1120D01*
D01*
X2814Y1125D01*
X2815Y1133D01*
Y1288D01*
X2814Y1302D01*
X2808Y1314D01*
X2805Y1319D01*
Y1355D01*
X2721D01*
Y1319D01*
X2718Y1314D01*
X2712Y1302D01*
X2711Y1288D01*
Y1148D01*
X2706Y1146D01*
X2702Y1148D01*
Y1328D01*
X2701Y1337D01*
X2696Y1344D01*
X2652Y1388D01*
X2655Y1391D01*
X2656Y1391D01*
X2665Y1387D01*
X2675Y1386D01*
X2685Y1387D01*
X2694Y1391D01*
X2701Y1397D01*
X2707Y1404D01*
X2711Y1413D01*
X2712Y1423D01*
X2711Y1433D01*
X2707Y1442D01*
X2701Y1449D01*
X2694Y1455D01*
X2685Y1459D01*
X2675Y1460D01*
X2665Y1459D01*
X2656Y1455D01*
X2656Y1455D01*
X2614Y1496D01*
Y1559D01*
X2535D01*
Y1544D01*
X2475D01*
X2385Y1635D01*
Y1689D01*
X2450D01*
Y1677D01*
X2534D01*
Y1756D01*
X2450D01*
Y1744D01*
X2385D01*
Y1756D01*
X2302D01*
Y1677D01*
Y1598D01*
X2345D01*
X2445Y1498D01*
X2451Y1493D01*
X2457Y1491D01*
X2464Y1490D01*
X2532D01*
X2535Y1486D01*
Y1475D01*
X2530Y1475D01*
X2310D01*
Y1495D01*
X2219D01*
Y1553D01*
X2218Y1560D01*
X2215Y1567D01*
X2211Y1573D01*
X2196Y1587D01*
Y1842D01*
X2291Y1937D01*
X2339D01*
Y1922D01*
X2375D01*
X2380Y1919D01*
X2393Y1913D01*
X2407Y1912D01*
X2556D01*
X2569Y1913D01*
X2582Y1919D01*
X2587Y1922D01*
X2623D01*
Y2006D01*
X2608D01*
Y2109D01*
X2616Y2117D01*
X2624Y2128D01*
X2630Y2140D01*
X2631Y2154D01*
Y2251D01*
Y2435D01*
X2630Y2449D01*
X2624Y2461D01*
X2624Y2462D01*
Y2480D01*
X2606D01*
X2605Y2480D01*
X2593Y2486D01*
X2579Y2487D01*
D02*
G37*
%LPD*%
G36*
X3226Y1284D02*
X3240Y1269D01*
X3238Y1263D01*
X3237Y1256D01*
Y1190D01*
X3232Y1184D01*
X3228Y1175D01*
X3227Y1171D01*
X3223Y1169D01*
X3187Y1205D01*
Y1316D01*
D01*
X3192Y1318D01*
X3226Y1284D01*
D02*
G37*
D11*
X3000Y1716D02*
D03*
Y1638D02*
D03*
X3154Y1716D02*
D03*
Y1638D02*
D03*
X2492D02*
D03*
Y1716D02*
D03*
X2343Y1638D02*
D03*
Y1716D02*
D03*
D17*
X3154Y1638D02*
X3222D01*
X3267Y1593D01*
Y1517D02*
Y1593D01*
X3087Y1716D02*
X3154D01*
X3000D02*
X3087D01*
X3077Y1471D02*
Y1706D01*
X3087Y1716D01*
X2192Y1453D02*
Y1553D01*
X2169Y1576D02*
X2192Y1553D01*
X2169Y1576D02*
Y1853D01*
X2280Y1964D01*
X2407D01*
X2343Y1716D02*
X2492D01*
X2343Y1638D02*
X2464Y1517D01*
X2575D01*
X2649Y1423D02*
X2675D01*
X2575Y1497D02*
X2649Y1423D01*
X2575Y1497D02*
Y1517D01*
X3077Y1471D02*
X3278Y1270D01*
X2783Y1453D02*
Y1964D01*
X3264Y1165D02*
Y1256D01*
X3278Y1270D01*
D18*
X2304Y1201D02*
X2323Y1182D01*
X2763Y1133D02*
Y1288D01*
X2323Y1021D02*
Y1172D01*
Y1182D01*
X2407Y1964D02*
X2556D01*
X2826D02*
X3008D01*
X3158D01*
X2826D02*
Y2044D01*
X2779Y2091D02*
X2826Y2044D01*
X2779Y2091D02*
Y2251D01*
Y2435D01*
X2556Y1964D02*
Y2131D01*
X2579Y2154D01*
Y2251D01*
Y2435D01*
X2854Y1026D02*
X2878Y1002D01*
X2834Y1026D02*
X2854D01*
X2763Y1097D02*
X2834Y1026D01*
X2304Y1201D02*
Y1268D01*
X2273D02*
X2289D01*
D19*
X3036Y1453D02*
X3161Y1328D01*
X2861Y1453D02*
X3036D01*
X3266Y1089D02*
X3272D01*
X3161Y1194D02*
Y1328D01*
Y1194D02*
X3266Y1089D01*
D20*
X2680Y1118D02*
Y1328D01*
X2555Y1453D02*
X2680Y1328D01*
X2270Y1453D02*
X2555D01*
X2523Y1009D02*
X2550Y1036D01*
Y1063D01*
X2605Y1118D01*
X2680D01*
D21*
X4063Y2925D02*
G03*
X4063Y2925I-79J0D01*
G01*
Y421D02*
G03*
X4063Y421I-79J0D01*
G01*
X1554D02*
G03*
X1554Y421I-79J0D01*
G01*
X1553Y2926D02*
G03*
X1553Y2926I-79J0D01*
G01*
D22*
X2776Y707D02*
D03*
X2579Y2251D02*
D03*
X2779D02*
D03*
Y2435D02*
D03*
X2579D02*
D03*
D23*
X2676Y707D02*
D03*
X2679Y2251D02*
D03*
X2879D02*
D03*
Y2435D02*
D03*
X2679D02*
D03*
D24*
X2818Y367D02*
D03*
X2641D02*
D03*
D25*
X1410Y1265D02*
D03*
Y1143D02*
D03*
X1408Y2170D02*
D03*
Y2048D02*
D03*
X4057D02*
D03*
Y2170D02*
D03*
Y1143D02*
D03*
Y1265D02*
D03*
D26*
X3208Y347D02*
D03*
X3330D02*
D03*
X2091D02*
D03*
X2213D02*
D03*
X2791Y2997D02*
D03*
X2669D02*
D03*
D27*
X3083Y1189D02*
D03*
X2503Y1195D02*
D03*
D28*
X3984Y2926D02*
D03*
Y421D02*
D03*
X1474D02*
D03*
Y2926D02*
D03*
D29*
X2779Y406D02*
D03*
X2799D02*
D03*
X2818D02*
D03*
X2838D02*
D03*
X2858D02*
D03*
Y387D02*
D03*
X2838D02*
D03*
X2818D02*
D03*
X2799D02*
D03*
X2779D02*
D03*
X2858Y367D02*
D03*
X2838D02*
D03*
X2818D02*
D03*
X2799D02*
D03*
X2779D02*
D03*
X2858Y347D02*
D03*
X2838D02*
D03*
X2818D02*
D03*
X2799D02*
D03*
X2779D02*
D03*
X2858Y328D02*
D03*
X2838D02*
D03*
X2818D02*
D03*
X2799D02*
D03*
X2779D02*
D03*
X2681Y406D02*
D03*
X2661D02*
D03*
X2641D02*
D03*
X2622D02*
D03*
X2602D02*
D03*
X2681Y387D02*
D03*
X2661D02*
D03*
X2641D02*
D03*
X2622D02*
D03*
X2602D02*
D03*
X2681Y367D02*
D03*
X2661D02*
D03*
X2641D02*
D03*
X2622D02*
D03*
X2602D02*
D03*
X2681Y347D02*
D03*
X2661D02*
D03*
X2641D02*
D03*
X2622D02*
D03*
X2602D02*
D03*
X2681Y328D02*
D03*
X2661D02*
D03*
X2641D02*
D03*
X2622D02*
D03*
X2602D02*
D03*
X1390Y1285D02*
D03*
Y1265D02*
D03*
Y1245D02*
D03*
X1410Y1285D02*
D03*
Y1265D02*
D03*
Y1245D02*
D03*
X1429Y1285D02*
D03*
Y1265D02*
D03*
Y1245D02*
D03*
X1390Y1163D02*
D03*
Y1143D02*
D03*
Y1123D02*
D03*
X1410Y1163D02*
D03*
Y1143D02*
D03*
Y1123D02*
D03*
X1429Y1163D02*
D03*
Y1143D02*
D03*
Y1123D02*
D03*
X1388Y2190D02*
D03*
Y2170D02*
D03*
Y2151D02*
D03*
X1408Y2190D02*
D03*
Y2170D02*
D03*
Y2151D02*
D03*
X1427Y2190D02*
D03*
Y2170D02*
D03*
Y2151D02*
D03*
X1388Y2068D02*
D03*
Y2048D02*
D03*
Y2029D02*
D03*
X1408Y2068D02*
D03*
Y2048D02*
D03*
Y2029D02*
D03*
X1427Y2068D02*
D03*
Y2048D02*
D03*
Y2029D02*
D03*
X4076Y2029D02*
D03*
Y2048D02*
D03*
Y2068D02*
D03*
X4057Y2029D02*
D03*
Y2048D02*
D03*
Y2068D02*
D03*
X4037Y2029D02*
D03*
Y2048D02*
D03*
Y2068D02*
D03*
X4076Y2151D02*
D03*
Y2170D02*
D03*
Y2190D02*
D03*
X4057Y2151D02*
D03*
Y2170D02*
D03*
Y2190D02*
D03*
X4037Y2151D02*
D03*
Y2170D02*
D03*
Y2190D02*
D03*
X4076Y1123D02*
D03*
Y1143D02*
D03*
Y1163D02*
D03*
X4057Y1123D02*
D03*
Y1143D02*
D03*
Y1163D02*
D03*
X4037Y1123D02*
D03*
Y1143D02*
D03*
Y1163D02*
D03*
X4076Y1245D02*
D03*
Y1265D02*
D03*
Y1285D02*
D03*
X4057Y1245D02*
D03*
Y1265D02*
D03*
Y1285D02*
D03*
X4037Y1245D02*
D03*
Y1265D02*
D03*
Y1285D02*
D03*
X3189Y327D02*
D03*
X3208D02*
D03*
X3228D02*
D03*
X3189Y347D02*
D03*
X3208D02*
D03*
X3228D02*
D03*
X3189Y367D02*
D03*
X3208D02*
D03*
X3228D02*
D03*
X3311Y327D02*
D03*
X3330D02*
D03*
X3350D02*
D03*
X3311Y347D02*
D03*
X3330D02*
D03*
X3350D02*
D03*
X3311Y367D02*
D03*
X3330D02*
D03*
X3350D02*
D03*
X2071Y327D02*
D03*
X2091D02*
D03*
X2111D02*
D03*
X2071Y347D02*
D03*
X2091D02*
D03*
X2111D02*
D03*
X2071Y367D02*
D03*
X2091D02*
D03*
X2111D02*
D03*
X2193Y327D02*
D03*
X2213D02*
D03*
X2233D02*
D03*
X2193Y347D02*
D03*
X2213D02*
D03*
X2233D02*
D03*
X2193Y367D02*
D03*
X2213D02*
D03*
X2233D02*
D03*
X2811Y3017D02*
D03*
X2791D02*
D03*
X2771D02*
D03*
X2811Y2997D02*
D03*
X2791D02*
D03*
X2771D02*
D03*
X2811Y2978D02*
D03*
X2791D02*
D03*
X2771D02*
D03*
X2688Y3017D02*
D03*
X2669D02*
D03*
X2649D02*
D03*
X2688Y2997D02*
D03*
X2669D02*
D03*
X2649D02*
D03*
X2688Y2978D02*
D03*
X2669D02*
D03*
X2649D02*
D03*
D30*
X3083Y1204D02*
D03*
X3109Y1231D02*
D03*
X3083Y1231D02*
D03*
X3108Y1205D02*
D03*
X3107Y1176D02*
D03*
X3083D02*
D03*
X3059D02*
D03*
Y1204D02*
D03*
Y1231D02*
D03*
Y1149D02*
D03*
X3083D02*
D03*
X3108D02*
D03*
X2527Y1159D02*
D03*
X2502D02*
D03*
X2478D02*
D03*
Y1241D02*
D03*
Y1214D02*
D03*
Y1186D02*
D03*
X2502D02*
D03*
X2526D02*
D03*
X2527Y1215D02*
D03*
X2502Y1241D02*
D03*
X2528Y1241D02*
D03*
X2502Y1214D02*
D03*
D31*
X3272Y1089D02*
D03*
X2680Y1118D02*
D03*
X2675Y1423D02*
D03*
X3264Y1165D02*
D03*
X2878Y1002D02*
D03*
X2273Y1268D02*
D03*
D32*
X3263Y1517D02*
D03*
X3185D02*
D03*
X2653D02*
D03*
X2575D02*
D03*
X2445Y1009D02*
D03*
X2523D02*
D03*
X2192Y1453D02*
D03*
X2270D02*
D03*
X2783D02*
D03*
X2861D02*
D03*
D33*
X2885Y1133D02*
D03*
X2763D02*
D03*
X2885Y1288D02*
D03*
X2763D02*
D03*
X2201Y1172D02*
D03*
X2323D02*
D03*
X2201Y1021D02*
D03*
X2323D02*
D03*
D34*
X3008Y1842D02*
D03*
Y1964D02*
D03*
X3158Y1842D02*
D03*
Y1964D02*
D03*
X2556Y1842D02*
D03*
Y1964D02*
D03*
X2407Y1842D02*
D03*
Y1964D02*
D03*
M02*
