G04 Layer_Color=16711935*
%FSLAX23Y23*%
%MOIN*%
G70*
G01*
G75*
%ADD48R,0.067X0.063*%
%ADD50R,0.073X0.073*%
%ADD51C,0.073*%
%ADD52R,0.205X0.205*%
%ADD53C,0.087*%
%ADD54R,0.073X0.126*%
%ADD55R,0.284X0.284*%
%ADD56R,0.205X0.205*%
%ADD57C,0.028*%
%ADD58C,0.058*%
%ADD59R,0.063X0.067*%
%ADD60R,0.118X0.067*%
%ADD61R,0.067X0.118*%
D48*
X2343Y2156D02*
D03*
Y2078D02*
D03*
X2492Y2156D02*
D03*
Y2078D02*
D03*
X3154D02*
D03*
Y2156D02*
D03*
X3000Y2078D02*
D03*
Y2156D02*
D03*
D50*
X2315Y2960D02*
D03*
X2579Y2691D02*
D03*
X2779D02*
D03*
Y2591D02*
D03*
X2579D02*
D03*
D51*
X2415Y2960D02*
D03*
X2679Y2691D02*
D03*
X2879D02*
D03*
Y2591D02*
D03*
X2679D02*
D03*
D52*
X3708Y2943D02*
D03*
X3397D02*
D03*
Y407D02*
D03*
X3708D02*
D03*
X1743D02*
D03*
X2054D02*
D03*
X1743Y2943D02*
D03*
X2054D02*
D03*
D53*
X1474Y2926D02*
D03*
Y421D02*
D03*
X3984D02*
D03*
Y2926D02*
D03*
D54*
X2503Y1635D02*
D03*
X3083Y1629D02*
D03*
D55*
X2485Y446D02*
D03*
X2953D02*
D03*
D56*
X1466Y1055D02*
D03*
Y1366D02*
D03*
Y2263D02*
D03*
Y1952D02*
D03*
X3999Y1956D02*
D03*
Y2267D02*
D03*
X3998Y1366D02*
D03*
Y1055D02*
D03*
D57*
X2311Y539D02*
D03*
X2271D02*
D03*
X2232D02*
D03*
X2193D02*
D03*
X2311Y500D02*
D03*
X2271D02*
D03*
X2232D02*
D03*
X2193D02*
D03*
X2311Y461D02*
D03*
X2271D02*
D03*
X2232D02*
D03*
X2193D02*
D03*
X2311Y421D02*
D03*
X2271D02*
D03*
X2232D02*
D03*
X2193D02*
D03*
X2311Y382D02*
D03*
X2271D02*
D03*
X2232D02*
D03*
X2193D02*
D03*
X2311Y343D02*
D03*
X2271D02*
D03*
X2232D02*
D03*
X2193D02*
D03*
X2193Y539D02*
D03*
X2232D02*
D03*
X2271D02*
D03*
X2311D02*
D03*
Y500D02*
D03*
X2271D02*
D03*
X2232D02*
D03*
X2193D02*
D03*
X2311Y461D02*
D03*
X2271D02*
D03*
X2232D02*
D03*
X2193D02*
D03*
X2311Y421D02*
D03*
X2271D02*
D03*
X2232D02*
D03*
X2193D02*
D03*
X2311Y382D02*
D03*
X2271D02*
D03*
X2232D02*
D03*
X2193D02*
D03*
X2311Y343D02*
D03*
X2271D02*
D03*
X2232D02*
D03*
X2193D02*
D03*
X3261Y534D02*
D03*
X3221D02*
D03*
X3182D02*
D03*
X3143D02*
D03*
X3261Y495D02*
D03*
X3221D02*
D03*
X3182D02*
D03*
X3143D02*
D03*
X3261Y456D02*
D03*
X3221D02*
D03*
X3182D02*
D03*
X3143D02*
D03*
X3261Y416D02*
D03*
X3221D02*
D03*
X3182D02*
D03*
X3143D02*
D03*
X3261Y377D02*
D03*
X3221D02*
D03*
X3182D02*
D03*
X3143D02*
D03*
X3261Y338D02*
D03*
X3221D02*
D03*
X3182D02*
D03*
X3143D02*
D03*
X3143Y534D02*
D03*
X3182D02*
D03*
X3221D02*
D03*
X3261D02*
D03*
Y495D02*
D03*
X3221D02*
D03*
X3182D02*
D03*
X3143D02*
D03*
X3261Y456D02*
D03*
X3221D02*
D03*
X3182D02*
D03*
X3143D02*
D03*
X3261Y416D02*
D03*
X3221D02*
D03*
X3182D02*
D03*
X3143D02*
D03*
X3261Y377D02*
D03*
X3221D02*
D03*
X3182D02*
D03*
X3143D02*
D03*
X3261Y338D02*
D03*
X3221D02*
D03*
X3182D02*
D03*
X3143D02*
D03*
X3918Y1573D02*
D03*
X3957D02*
D03*
X3996D02*
D03*
X4036D02*
D03*
X4075D02*
D03*
X3918Y1612D02*
D03*
X3957D02*
D03*
X3996D02*
D03*
X4036D02*
D03*
X4075D02*
D03*
X3918Y1651D02*
D03*
X3957D02*
D03*
X3996D02*
D03*
X4036D02*
D03*
X4075D02*
D03*
X3918Y1691D02*
D03*
X3957D02*
D03*
X3996D02*
D03*
X4036D02*
D03*
X4075D02*
D03*
X3918Y1730D02*
D03*
X3957D02*
D03*
X3996D02*
D03*
X4036D02*
D03*
X4075Y1769D02*
D03*
X4036D02*
D03*
X3996D02*
D03*
X3957D02*
D03*
X3918D02*
D03*
X3918Y1573D02*
D03*
X3957D02*
D03*
X3996D02*
D03*
X4036D02*
D03*
X4075D02*
D03*
X3918Y1612D02*
D03*
X3957D02*
D03*
X3996D02*
D03*
X4036D02*
D03*
X4075D02*
D03*
X3918Y1651D02*
D03*
X3957D02*
D03*
X3996D02*
D03*
X4036D02*
D03*
X4075D02*
D03*
X3918Y1691D02*
D03*
X3957D02*
D03*
X3996D02*
D03*
X4036D02*
D03*
X4075D02*
D03*
X3918Y1730D02*
D03*
X3957D02*
D03*
X3996D02*
D03*
X4036D02*
D03*
X4075D02*
D03*
X3918Y1769D02*
D03*
X3957D02*
D03*
X3996D02*
D03*
X4036D02*
D03*
X4075D02*
D03*
X4075Y1730D02*
D03*
X1393Y2498D02*
D03*
X1432D02*
D03*
X1471D02*
D03*
X1511D02*
D03*
X1550D02*
D03*
X1393Y2537D02*
D03*
X1432D02*
D03*
X1471D02*
D03*
X1511D02*
D03*
X1550D02*
D03*
X1393Y2576D02*
D03*
X1432D02*
D03*
X1471D02*
D03*
X1511D02*
D03*
X1550D02*
D03*
X1393Y2616D02*
D03*
X1432D02*
D03*
X1471D02*
D03*
X1511D02*
D03*
X1550D02*
D03*
X1393Y2655D02*
D03*
X1432D02*
D03*
X1471D02*
D03*
X1511D02*
D03*
X1550Y2694D02*
D03*
X1511D02*
D03*
X1471D02*
D03*
X1432D02*
D03*
X1393D02*
D03*
X1393Y2498D02*
D03*
X1432D02*
D03*
X1471D02*
D03*
X1511D02*
D03*
X1550D02*
D03*
X1393Y2537D02*
D03*
X1432D02*
D03*
X1471D02*
D03*
X1511D02*
D03*
X1550D02*
D03*
X1393Y2576D02*
D03*
X1432D02*
D03*
X1471D02*
D03*
X1511D02*
D03*
X1550D02*
D03*
X1393Y2616D02*
D03*
X1432D02*
D03*
X1471D02*
D03*
X1511D02*
D03*
X1550D02*
D03*
X1393Y2655D02*
D03*
X1432D02*
D03*
X1471D02*
D03*
X1511D02*
D03*
X1550D02*
D03*
X1393Y2694D02*
D03*
X1432D02*
D03*
X1471D02*
D03*
X1511D02*
D03*
X1550D02*
D03*
X1550Y2655D02*
D03*
X1393Y628D02*
D03*
X1432D02*
D03*
X1471D02*
D03*
X1511D02*
D03*
X1550D02*
D03*
X1393Y667D02*
D03*
X1432D02*
D03*
X1471D02*
D03*
X1511D02*
D03*
X1550D02*
D03*
X1393Y706D02*
D03*
X1432D02*
D03*
X1471D02*
D03*
X1511D02*
D03*
X1550D02*
D03*
X1393Y746D02*
D03*
X1432D02*
D03*
X1471D02*
D03*
X1511D02*
D03*
X1550D02*
D03*
X1393Y785D02*
D03*
X1432D02*
D03*
X1471D02*
D03*
X1511D02*
D03*
X1550Y824D02*
D03*
X1511D02*
D03*
X1471D02*
D03*
X1432D02*
D03*
X1393D02*
D03*
X1393Y628D02*
D03*
X1432D02*
D03*
X1471D02*
D03*
X1511D02*
D03*
X1550D02*
D03*
X1393Y667D02*
D03*
X1432D02*
D03*
X1471D02*
D03*
X1511D02*
D03*
X1550D02*
D03*
X1393Y706D02*
D03*
X1432D02*
D03*
X1471D02*
D03*
X1511D02*
D03*
X1550D02*
D03*
X1393Y746D02*
D03*
X1432D02*
D03*
X1471D02*
D03*
X1511D02*
D03*
X1550D02*
D03*
X1393Y785D02*
D03*
X1432D02*
D03*
X1471D02*
D03*
X1511D02*
D03*
X1550D02*
D03*
X1393Y824D02*
D03*
X1432D02*
D03*
X1471D02*
D03*
X1511D02*
D03*
X1550D02*
D03*
X1550Y785D02*
D03*
X3913Y633D02*
D03*
X3952D02*
D03*
X3991D02*
D03*
X4031D02*
D03*
X4070D02*
D03*
X3913Y672D02*
D03*
X3952D02*
D03*
X3991D02*
D03*
X4031D02*
D03*
X4070D02*
D03*
X3913Y711D02*
D03*
X3952D02*
D03*
X3991D02*
D03*
X4031D02*
D03*
X4070D02*
D03*
X3913Y751D02*
D03*
X3952D02*
D03*
X3991D02*
D03*
X4031D02*
D03*
X4070D02*
D03*
X3913Y790D02*
D03*
X3952D02*
D03*
X3991D02*
D03*
X4031D02*
D03*
X4070Y829D02*
D03*
X4031D02*
D03*
X3991D02*
D03*
X3952D02*
D03*
X3913D02*
D03*
X3913Y633D02*
D03*
X3952D02*
D03*
X3991D02*
D03*
X4031D02*
D03*
X4070D02*
D03*
X3913Y672D02*
D03*
X3952D02*
D03*
X3991D02*
D03*
X4031D02*
D03*
X4070D02*
D03*
X3913Y711D02*
D03*
X3952D02*
D03*
X3991D02*
D03*
X4031D02*
D03*
X4070D02*
D03*
X3913Y751D02*
D03*
X3952D02*
D03*
X3991D02*
D03*
X4031D02*
D03*
X4070D02*
D03*
X3913Y790D02*
D03*
X3952D02*
D03*
X3991D02*
D03*
X4031D02*
D03*
X4070D02*
D03*
X3913Y829D02*
D03*
X3952D02*
D03*
X3991D02*
D03*
X4031D02*
D03*
X4070D02*
D03*
X4070Y790D02*
D03*
X3918Y2528D02*
D03*
X3957D02*
D03*
X3996D02*
D03*
X4036D02*
D03*
X4075D02*
D03*
X3918Y2567D02*
D03*
X3957D02*
D03*
X3996D02*
D03*
X4036D02*
D03*
X4075D02*
D03*
X3918Y2606D02*
D03*
X3957D02*
D03*
X3996D02*
D03*
X4036D02*
D03*
X4075D02*
D03*
X3918Y2646D02*
D03*
X3957D02*
D03*
X3996D02*
D03*
X4036D02*
D03*
X4075D02*
D03*
X3918Y2685D02*
D03*
X3957D02*
D03*
X3996D02*
D03*
X4036D02*
D03*
X4075Y2724D02*
D03*
X4036D02*
D03*
X3996D02*
D03*
X3957D02*
D03*
X3918D02*
D03*
X3918Y2528D02*
D03*
X3957D02*
D03*
X3996D02*
D03*
X4036D02*
D03*
X4075D02*
D03*
X3918Y2567D02*
D03*
X3957D02*
D03*
X3996D02*
D03*
X4036D02*
D03*
X4075D02*
D03*
X3918Y2606D02*
D03*
X3957D02*
D03*
X3996D02*
D03*
X4036D02*
D03*
X4075D02*
D03*
X3918Y2646D02*
D03*
X3957D02*
D03*
X3996D02*
D03*
X4036D02*
D03*
X4075D02*
D03*
X3918Y2685D02*
D03*
X3957D02*
D03*
X3996D02*
D03*
X4036D02*
D03*
X4075D02*
D03*
X3918Y2724D02*
D03*
X3957D02*
D03*
X3996D02*
D03*
X4036D02*
D03*
X4075D02*
D03*
X4075Y2685D02*
D03*
X1550Y1715D02*
D03*
X1550Y1754D02*
D03*
X1511D02*
D03*
X1471D02*
D03*
X1432D02*
D03*
X1393D02*
D03*
X1550Y1715D02*
D03*
X1511D02*
D03*
X1471D02*
D03*
X1432D02*
D03*
X1393D02*
D03*
X1550Y1676D02*
D03*
X1511D02*
D03*
X1471D02*
D03*
X1432D02*
D03*
X1393D02*
D03*
X1550Y1636D02*
D03*
X1511D02*
D03*
X1471D02*
D03*
X1432D02*
D03*
X1393D02*
D03*
X1550Y1597D02*
D03*
X1511D02*
D03*
X1471D02*
D03*
X1432D02*
D03*
X1393D02*
D03*
X1550Y1558D02*
D03*
X1511D02*
D03*
X1471D02*
D03*
X1432D02*
D03*
X1393D02*
D03*
X1393Y1754D02*
D03*
X1432D02*
D03*
X1471D02*
D03*
X1511D02*
D03*
X1550D02*
D03*
X1511Y1715D02*
D03*
X1471D02*
D03*
X1432D02*
D03*
X1393D02*
D03*
X1550Y1676D02*
D03*
X1511D02*
D03*
X1471D02*
D03*
X1432D02*
D03*
X1393D02*
D03*
X1550Y1636D02*
D03*
X1511D02*
D03*
X1471D02*
D03*
X1432D02*
D03*
X1393D02*
D03*
X1550Y1597D02*
D03*
X1511D02*
D03*
X1471D02*
D03*
X1432D02*
D03*
X1393D02*
D03*
X1550Y1558D02*
D03*
X1511D02*
D03*
X1471D02*
D03*
X1432D02*
D03*
X1393D02*
D03*
X3338Y2888D02*
D03*
X3377D02*
D03*
X3416D02*
D03*
X3456D02*
D03*
X3338Y2928D02*
D03*
X3377D02*
D03*
X3416D02*
D03*
X3456D02*
D03*
X3338Y2967D02*
D03*
X3377D02*
D03*
X3416D02*
D03*
X3456D02*
D03*
X3338Y3006D02*
D03*
X3377D02*
D03*
X3416D02*
D03*
X3456D02*
D03*
X3653Y2888D02*
D03*
X3692D02*
D03*
X3731D02*
D03*
X3771D02*
D03*
X3653Y2928D02*
D03*
X3692D02*
D03*
X3731D02*
D03*
X3771D02*
D03*
X3653Y2967D02*
D03*
X3692D02*
D03*
X3731D02*
D03*
X3771D02*
D03*
X3653Y3006D02*
D03*
X3692D02*
D03*
X3731D02*
D03*
X3771D02*
D03*
X2502Y1654D02*
D03*
X2528Y1681D02*
D03*
X2502Y1681D02*
D03*
X2527Y1655D02*
D03*
X2526Y1626D02*
D03*
X2502D02*
D03*
X2478D02*
D03*
Y1654D02*
D03*
Y1681D02*
D03*
Y1599D02*
D03*
X2502D02*
D03*
X2527D02*
D03*
X3108Y1589D02*
D03*
X3083D02*
D03*
X3059D02*
D03*
Y1671D02*
D03*
Y1644D02*
D03*
Y1616D02*
D03*
X3083D02*
D03*
X3107D02*
D03*
X3108Y1645D02*
D03*
X3083Y1671D02*
D03*
X3109Y1671D02*
D03*
X3083Y1644D02*
D03*
X2579Y540D02*
D03*
X2540D02*
D03*
X2500D02*
D03*
X2461D02*
D03*
X2422D02*
D03*
X2382D02*
D03*
X2579Y501D02*
D03*
X2540D02*
D03*
X2500D02*
D03*
X2461D02*
D03*
X2422D02*
D03*
X2382D02*
D03*
X2579Y461D02*
D03*
X2540D02*
D03*
X2500D02*
D03*
X2461D02*
D03*
X2422D02*
D03*
X2382D02*
D03*
X2579Y422D02*
D03*
X2540D02*
D03*
X2500D02*
D03*
X2461D02*
D03*
X2422D02*
D03*
X2382D02*
D03*
X2579Y383D02*
D03*
X2540D02*
D03*
X2500D02*
D03*
X2461D02*
D03*
X2422D02*
D03*
X2382D02*
D03*
X2579Y343D02*
D03*
X2540D02*
D03*
X2500D02*
D03*
X2461D02*
D03*
X2422D02*
D03*
X2382D02*
D03*
X2382Y540D02*
D03*
X2422D02*
D03*
X2461D02*
D03*
X2500D02*
D03*
X2540D02*
D03*
X2579D02*
D03*
Y501D02*
D03*
X2540D02*
D03*
X2500D02*
D03*
X2461D02*
D03*
X2422D02*
D03*
X2382D02*
D03*
X2579Y461D02*
D03*
X2540D02*
D03*
X2500D02*
D03*
X2461D02*
D03*
X2422D02*
D03*
X2382D02*
D03*
X2579Y422D02*
D03*
X2540D02*
D03*
X2500D02*
D03*
X2461D02*
D03*
X2422D02*
D03*
X2382D02*
D03*
X2579Y383D02*
D03*
X2540D02*
D03*
X2500D02*
D03*
X2461D02*
D03*
X2422D02*
D03*
X2382D02*
D03*
X2579Y343D02*
D03*
X2540D02*
D03*
X2500D02*
D03*
X2461D02*
D03*
X2422D02*
D03*
X2382D02*
D03*
X3051Y540D02*
D03*
X3012D02*
D03*
X2973D02*
D03*
X2933D02*
D03*
X2894D02*
D03*
X2855D02*
D03*
X3051Y501D02*
D03*
X3012D02*
D03*
X2973D02*
D03*
X2933D02*
D03*
X2894D02*
D03*
X2855D02*
D03*
X3051Y461D02*
D03*
X3012D02*
D03*
X2973D02*
D03*
X2933D02*
D03*
X2894D02*
D03*
X2855D02*
D03*
X3051Y422D02*
D03*
X3012D02*
D03*
X2973D02*
D03*
X2933D02*
D03*
X2894D02*
D03*
X2855D02*
D03*
X3051Y383D02*
D03*
X3012D02*
D03*
X2973D02*
D03*
X2933D02*
D03*
X2894D02*
D03*
X2855D02*
D03*
X3051Y343D02*
D03*
X3012D02*
D03*
X2973D02*
D03*
X2933D02*
D03*
X2894D02*
D03*
X2855D02*
D03*
X1403Y1429D02*
D03*
Y1389D02*
D03*
Y1350D02*
D03*
Y1311D02*
D03*
X1442Y1429D02*
D03*
Y1389D02*
D03*
Y1350D02*
D03*
Y1311D02*
D03*
X1482Y1429D02*
D03*
Y1389D02*
D03*
Y1350D02*
D03*
Y1311D02*
D03*
X1521Y1429D02*
D03*
Y1389D02*
D03*
Y1350D02*
D03*
Y1311D02*
D03*
X1403Y1114D02*
D03*
Y1074D02*
D03*
Y1035D02*
D03*
Y996D02*
D03*
X1442Y1114D02*
D03*
Y1074D02*
D03*
Y1035D02*
D03*
Y996D02*
D03*
X1482Y1114D02*
D03*
Y1074D02*
D03*
Y1035D02*
D03*
Y996D02*
D03*
X1521Y1114D02*
D03*
Y1074D02*
D03*
Y1035D02*
D03*
Y996D02*
D03*
X1529Y1889D02*
D03*
Y1928D02*
D03*
Y1968D02*
D03*
Y2007D02*
D03*
X1490Y1889D02*
D03*
Y1928D02*
D03*
Y1968D02*
D03*
Y2007D02*
D03*
X1450Y1889D02*
D03*
Y1928D02*
D03*
Y1968D02*
D03*
Y2007D02*
D03*
X1411Y1889D02*
D03*
Y1928D02*
D03*
Y1968D02*
D03*
Y2007D02*
D03*
X1529Y2204D02*
D03*
Y2243D02*
D03*
Y2283D02*
D03*
Y2322D02*
D03*
X1490Y2204D02*
D03*
Y2243D02*
D03*
Y2283D02*
D03*
Y2322D02*
D03*
X1450Y2204D02*
D03*
Y2243D02*
D03*
Y2283D02*
D03*
Y2322D02*
D03*
X1411Y2204D02*
D03*
Y2243D02*
D03*
Y2283D02*
D03*
Y2322D02*
D03*
X3936Y2330D02*
D03*
Y2291D02*
D03*
Y2251D02*
D03*
Y2212D02*
D03*
X3975Y2330D02*
D03*
Y2291D02*
D03*
Y2251D02*
D03*
Y2212D02*
D03*
X4014Y2330D02*
D03*
Y2291D02*
D03*
Y2251D02*
D03*
Y2212D02*
D03*
X4054Y2330D02*
D03*
Y2291D02*
D03*
Y2251D02*
D03*
Y2212D02*
D03*
X3936Y2015D02*
D03*
Y1976D02*
D03*
Y1936D02*
D03*
Y1897D02*
D03*
X3975Y2015D02*
D03*
Y1976D02*
D03*
Y1936D02*
D03*
Y1897D02*
D03*
X4014Y2015D02*
D03*
Y1976D02*
D03*
Y1936D02*
D03*
Y1897D02*
D03*
X4054Y2015D02*
D03*
Y1976D02*
D03*
Y1936D02*
D03*
Y1897D02*
D03*
X4061Y992D02*
D03*
Y1031D02*
D03*
Y1071D02*
D03*
Y1110D02*
D03*
X4022Y992D02*
D03*
Y1031D02*
D03*
Y1071D02*
D03*
Y1110D02*
D03*
X3983Y992D02*
D03*
Y1031D02*
D03*
Y1071D02*
D03*
Y1110D02*
D03*
X3943Y992D02*
D03*
Y1031D02*
D03*
Y1071D02*
D03*
Y1110D02*
D03*
X4061Y1307D02*
D03*
Y1346D02*
D03*
Y1385D02*
D03*
Y1425D02*
D03*
X4022Y1307D02*
D03*
Y1346D02*
D03*
Y1385D02*
D03*
Y1425D02*
D03*
X3983Y1307D02*
D03*
Y1346D02*
D03*
Y1385D02*
D03*
Y1425D02*
D03*
X3943Y1307D02*
D03*
Y1346D02*
D03*
Y1385D02*
D03*
Y1425D02*
D03*
X3771Y470D02*
D03*
X3731D02*
D03*
X3692D02*
D03*
X3653D02*
D03*
X3771Y430D02*
D03*
X3731D02*
D03*
X3692D02*
D03*
X3653D02*
D03*
X3771Y391D02*
D03*
X3731D02*
D03*
X3692D02*
D03*
X3653D02*
D03*
X3771Y352D02*
D03*
X3731D02*
D03*
X3692D02*
D03*
X3653D02*
D03*
X3456Y470D02*
D03*
X3416D02*
D03*
X3377D02*
D03*
X3338D02*
D03*
X3456Y430D02*
D03*
X3416D02*
D03*
X3377D02*
D03*
X3338D02*
D03*
X3456Y391D02*
D03*
X3416D02*
D03*
X3377D02*
D03*
X3338D02*
D03*
X3456Y352D02*
D03*
X3416D02*
D03*
X3377D02*
D03*
X3338D02*
D03*
X2117Y470D02*
D03*
X2077D02*
D03*
X2117Y430D02*
D03*
X2077D02*
D03*
X2117Y391D02*
D03*
X2077D02*
D03*
X2117Y352D02*
D03*
X2077D02*
D03*
X1802Y470D02*
D03*
X1763D02*
D03*
X1723D02*
D03*
X1684D02*
D03*
X1802Y430D02*
D03*
X1763D02*
D03*
X1723D02*
D03*
X1684D02*
D03*
X1802Y391D02*
D03*
X1763D02*
D03*
X1723D02*
D03*
X1684D02*
D03*
X1802Y352D02*
D03*
X1763D02*
D03*
X1723D02*
D03*
X1684D02*
D03*
X2117Y3006D02*
D03*
X2077D02*
D03*
X2038D02*
D03*
X1999D02*
D03*
X2117Y2967D02*
D03*
X2077D02*
D03*
X2038D02*
D03*
X1999D02*
D03*
X2117Y2928D02*
D03*
X2077D02*
D03*
X2038D02*
D03*
X1999D02*
D03*
X2117Y2888D02*
D03*
X2077D02*
D03*
X2038D02*
D03*
X1999D02*
D03*
X1802Y3006D02*
D03*
X1763D02*
D03*
X1723D02*
D03*
X1684D02*
D03*
X1802Y2967D02*
D03*
X1763D02*
D03*
X1723D02*
D03*
X1684D02*
D03*
X1802Y2928D02*
D03*
X1763D02*
D03*
X1723D02*
D03*
X1684D02*
D03*
X1802Y2888D02*
D03*
X1763D02*
D03*
X1723D02*
D03*
X1684D02*
D03*
X2038Y352D02*
D03*
Y430D02*
D03*
Y470D02*
D03*
Y391D02*
D03*
X1999Y352D02*
D03*
Y430D02*
D03*
Y470D02*
D03*
Y391D02*
D03*
D58*
X2273Y1708D02*
D03*
X2878Y1442D02*
D03*
X3264Y1605D02*
D03*
X2675Y1863D02*
D03*
X2680Y1558D02*
D03*
X3272Y1529D02*
D03*
D59*
X2861Y1893D02*
D03*
X2783D02*
D03*
X2270D02*
D03*
X2192D02*
D03*
X2523Y1449D02*
D03*
X2445D02*
D03*
X2575Y1957D02*
D03*
X2653D02*
D03*
X3185D02*
D03*
X3263D02*
D03*
D60*
X2407Y2404D02*
D03*
Y2282D02*
D03*
X2556Y2404D02*
D03*
Y2282D02*
D03*
X3158Y2404D02*
D03*
Y2282D02*
D03*
X3008Y2404D02*
D03*
Y2282D02*
D03*
D61*
X2323Y1461D02*
D03*
X2201D02*
D03*
X2323Y1612D02*
D03*
X2201D02*
D03*
X2763Y1728D02*
D03*
X2885D02*
D03*
X2763Y1573D02*
D03*
X2885D02*
D03*
M02*
