M48
;Layer_Color=9474304
;FILE_FORMAT=2:3
INCH,LZ
;TYPE=PLATED
T1F00S00C0.010
T2F00S00C0.025
T3F00S00C0.028
T4F00S00C0.035
T5F00S00C0.125
%
T01
X0139Y01123
X0141
Y01143
X0139
Y01163
X0141
X01429
Y01143
Y01123
Y01245
X0141
X0139
Y01265
Y01285
X0141
Y01265
X01429
Y01285
X02478Y01241
X02502
X02528Y01241
X02527Y01215
X02502Y01214
X02478Y01214
Y01186
X02502
X02526
X02527Y01159
X02502
X02478
X03059Y01149
X03083
X03108
X03107Y01176
X03083
X03059
Y01204
X03083Y01204
X03108Y01205
X03109Y01231
X03083Y01231
X03059
X02858Y00406
X02838
Y00387
X02858
Y00367
X02838
Y00347
X02858
Y00328
X02838
X02818
X02799
X02779
Y00347
Y00367
X02799
X02818
Y00347
X02799
Y00387
Y00406
X02779
Y00387
X02818
Y00406
X02681
X02661
Y00387
X02681
Y00367
X02661
Y00347
X02681
Y00328
X02661
X02641
X02622
X02602
Y00347
Y00367
X02622
X02641
Y00347
X02622
Y00387
Y00406
X02641
Y00387
X02602
Y00406
X02233Y00367
Y00347
Y00327
X02213
X02193
Y00347
X02213
Y00367
X02193
X02111
Y00347
Y00327
X02091
X02071
Y00347
X02091
Y00367
X02071
X03189
X03208
Y00347
Y00327
X03189
Y00347
X03228
Y00327
Y00367
X03311
X0333
Y00347
Y00327
X03311
Y00347
X0335
Y00327
Y00367
X04037Y01123
Y01143
X04057
X04076
Y01123
X04057
Y01163
X04076
X04037
Y01245
Y01265
X04057
X04076
Y01245
X04057
Y01285
X04076
X04037
Y02029
Y02048
X04057
X04076
Y02029
X04057
Y02068
X04076
X04037
Y02151
Y0217
X04057
X04076
Y02151
X04057
Y0219
X04076
X04037
X02811Y02978
X02791
Y02997
Y03017
X02811
Y02997
X02771
Y03017
Y02978
X02688
X02669
Y02997
Y03017
X02688
Y02997
X02649
Y03017
Y02978
X01427Y0219
Y0217
X01408
X01388
Y0219
X01408
Y02151
X01388
X01427
Y02068
Y02048
X01408
X01388
Y02068
X01408
Y02029
X01388
X01427
T02
X02273Y01268
X02878Y01002
T03
X0268Y01118
X02675Y01423
X03264Y01165
X03272Y01089
T04
X02676Y00707
X02776
X02779Y02251
X02679
X02579
Y02435
X02679
X02779
X02879
Y02251
T05
X01474Y00421
X03984
Y02926
X01474
M30
